<?xml version="1.0" encoding="utf-8" standalone="no"?>
<!DOCTYPE svg PUBLIC "-//W3C//DTD SVG 1.1//EN"
  "http://www.w3.org/Graphics/SVG/1.1/DTD/svg11.dtd">
<svg xmlns:xlink="http://www.w3.org/1999/xlink" width="513.9425pt" height="519.809375pt" viewBox="0 0 513.9425 519.809375" xmlns="http://www.w3.org/2000/svg" version="1.1">
 <metadata>
  <rdf:RDF xmlns:dc="http://purl.org/dc/elements/1.1/" xmlns:cc="http://creativecommons.org/ns#" xmlns:rdf="http://www.w3.org/1999/02/22-rdf-syntax-ns#">
   <cc:Work>
    <dc:type rdf:resource="http://purl.org/dc/dcmitype/StillImage"/>
    <dc:date>2022-09-21T11:09:58.976994</dc:date>
    <dc:format>image/svg+xml</dc:format>
    <dc:creator>
     <cc:Agent>
      <dc:title>Matplotlib v3.6.0, https://matplotlib.org/</dc:title>
     </cc:Agent>
    </dc:creator>
   </cc:Work>
  </rdf:RDF>
 </metadata>
 <defs>
  <style type="text/css">*{stroke-linejoin: round; stroke-linecap: butt}</style>
 </defs>
 <g id="figure_1">
  <g id="patch_1">
   <path d="M 0 519.809375 
L 513.9425 519.809375 
L 513.9425 0 
L 0 0 
L 0 519.809375 
z
" style="fill: none"/>
  </g>
  <g id="axes_1">
   <g id="patch_2">
    <path d="M 66.1025 466.156875 
L 512.5025 466.156875 
L 512.5025 22.636875 
L 66.1025 22.636875 
L 66.1025 466.156875 
z
" style="fill: none"/>
   </g>
   <g id="matplotlib.axis_1">
    <g id="xtick_1">
     <g id="line2d_1">
      <defs>
       <path id="m5e93b45540" d="M 0 0 
L 0 6 
" style="stroke: #000000; stroke-width: 2"/>
      </defs>
      <g>
       <use xlink:href="#m5e93b45540" x="66.1025" y="466.156875" style="stroke: #000000; stroke-width: 2"/>
      </g>
     </g>
     <g id="text_1">
      <!-- 0 -->
      <g transform="translate(59.74 490.85375) scale(0.2 -0.2)">
       <defs>
        <path id="DejaVuSans-30" d="M 2034 4250 
Q 1547 4250 1301 3770 
Q 1056 3291 1056 2328 
Q 1056 1369 1301 889 
Q 1547 409 2034 409 
Q 2525 409 2770 889 
Q 3016 1369 3016 2328 
Q 3016 3291 2770 3770 
Q 2525 4250 2034 4250 
z
M 2034 4750 
Q 2819 4750 3233 4129 
Q 3647 3509 3647 2328 
Q 3647 1150 3233 529 
Q 2819 -91 2034 -91 
Q 1250 -91 836 529 
Q 422 1150 422 2328 
Q 422 3509 836 4129 
Q 1250 4750 2034 4750 
z
" transform="scale(0.015625)"/>
       </defs>
       <use xlink:href="#DejaVuSans-30"/>
      </g>
     </g>
    </g>
    <g id="xtick_2">
     <g id="line2d_2">
      <g>
       <use xlink:href="#m5e93b45540" x="172.388214" y="466.156875" style="stroke: #000000; stroke-width: 2"/>
      </g>
     </g>
     <g id="text_2">
      <!-- 1 -->
      <g transform="translate(166.025714 490.85375) scale(0.2 -0.2)">
       <defs>
        <path id="DejaVuSans-31" d="M 794 531 
L 1825 531 
L 1825 4091 
L 703 3866 
L 703 4441 
L 1819 4666 
L 2450 4666 
L 2450 531 
L 3481 531 
L 3481 0 
L 794 0 
L 794 531 
z
" transform="scale(0.015625)"/>
       </defs>
       <use xlink:href="#DejaVuSans-31"/>
      </g>
     </g>
    </g>
    <g id="xtick_3">
     <g id="line2d_3">
      <g>
       <use xlink:href="#m5e93b45540" x="278.673929" y="466.156875" style="stroke: #000000; stroke-width: 2"/>
      </g>
     </g>
     <g id="text_3">
      <!-- 2 -->
      <g transform="translate(272.311429 490.85375) scale(0.2 -0.2)">
       <defs>
        <path id="DejaVuSans-32" d="M 1228 531 
L 3431 531 
L 3431 0 
L 469 0 
L 469 531 
Q 828 903 1448 1529 
Q 2069 2156 2228 2338 
Q 2531 2678 2651 2914 
Q 2772 3150 2772 3378 
Q 2772 3750 2511 3984 
Q 2250 4219 1831 4219 
Q 1534 4219 1204 4116 
Q 875 4013 500 3803 
L 500 4441 
Q 881 4594 1212 4672 
Q 1544 4750 1819 4750 
Q 2544 4750 2975 4387 
Q 3406 4025 3406 3419 
Q 3406 3131 3298 2873 
Q 3191 2616 2906 2266 
Q 2828 2175 2409 1742 
Q 1991 1309 1228 531 
z
" transform="scale(0.015625)"/>
       </defs>
       <use xlink:href="#DejaVuSans-32"/>
      </g>
     </g>
    </g>
    <g id="xtick_4">
     <g id="line2d_4">
      <g>
       <use xlink:href="#m5e93b45540" x="384.959643" y="466.156875" style="stroke: #000000; stroke-width: 2"/>
      </g>
     </g>
     <g id="text_4">
      <!-- 3 -->
      <g transform="translate(378.597143 490.85375) scale(0.2 -0.2)">
       <defs>
        <path id="DejaVuSans-33" d="M 2597 2516 
Q 3050 2419 3304 2112 
Q 3559 1806 3559 1356 
Q 3559 666 3084 287 
Q 2609 -91 1734 -91 
Q 1441 -91 1130 -33 
Q 819 25 488 141 
L 488 750 
Q 750 597 1062 519 
Q 1375 441 1716 441 
Q 2309 441 2620 675 
Q 2931 909 2931 1356 
Q 2931 1769 2642 2001 
Q 2353 2234 1838 2234 
L 1294 2234 
L 1294 2753 
L 1863 2753 
Q 2328 2753 2575 2939 
Q 2822 3125 2822 3475 
Q 2822 3834 2567 4026 
Q 2313 4219 1838 4219 
Q 1578 4219 1281 4162 
Q 984 4106 628 3988 
L 628 4550 
Q 988 4650 1302 4700 
Q 1616 4750 1894 4750 
Q 2613 4750 3031 4423 
Q 3450 4097 3450 3541 
Q 3450 3153 3228 2886 
Q 3006 2619 2597 2516 
z
" transform="scale(0.015625)"/>
       </defs>
       <use xlink:href="#DejaVuSans-33"/>
      </g>
     </g>
    </g>
    <g id="xtick_5">
     <g id="line2d_5">
      <g>
       <use xlink:href="#m5e93b45540" x="491.245357" y="466.156875" style="stroke: #000000; stroke-width: 2"/>
      </g>
     </g>
     <g id="text_5">
      <!-- 4 -->
      <g transform="translate(484.882857 490.85375) scale(0.2 -0.2)">
       <defs>
        <path id="DejaVuSans-34" d="M 2419 4116 
L 825 1625 
L 2419 1625 
L 2419 4116 
z
M 2253 4666 
L 3047 4666 
L 3047 1625 
L 3713 1625 
L 3713 1100 
L 3047 1100 
L 3047 0 
L 2419 0 
L 2419 1100 
L 313 1100 
L 313 1709 
L 2253 4666 
z
" transform="scale(0.015625)"/>
       </defs>
       <use xlink:href="#DejaVuSans-34"/>
      </g>
     </g>
    </g>
    <g id="text_6">
     <!-- Wavenumber q [1/μm] -->
     <g transform="translate(176.482187 514.21) scale(0.2 -0.2)">
      <defs>
       <path id="DejaVuSans-57" d="M 213 4666 
L 850 4666 
L 1831 722 
L 2809 4666 
L 3519 4666 
L 4500 722 
L 5478 4666 
L 6119 4666 
L 4947 0 
L 4153 0 
L 3169 4050 
L 2175 0 
L 1381 0 
L 213 4666 
z
" transform="scale(0.015625)"/>
       <path id="DejaVuSans-61" d="M 2194 1759 
Q 1497 1759 1228 1600 
Q 959 1441 959 1056 
Q 959 750 1161 570 
Q 1363 391 1709 391 
Q 2188 391 2477 730 
Q 2766 1069 2766 1631 
L 2766 1759 
L 2194 1759 
z
M 3341 1997 
L 3341 0 
L 2766 0 
L 2766 531 
Q 2569 213 2275 61 
Q 1981 -91 1556 -91 
Q 1019 -91 701 211 
Q 384 513 384 1019 
Q 384 1609 779 1909 
Q 1175 2209 1959 2209 
L 2766 2209 
L 2766 2266 
Q 2766 2663 2505 2880 
Q 2244 3097 1772 3097 
Q 1472 3097 1187 3025 
Q 903 2953 641 2809 
L 641 3341 
Q 956 3463 1253 3523 
Q 1550 3584 1831 3584 
Q 2591 3584 2966 3190 
Q 3341 2797 3341 1997 
z
" transform="scale(0.015625)"/>
       <path id="DejaVuSans-76" d="M 191 3500 
L 800 3500 
L 1894 563 
L 2988 3500 
L 3597 3500 
L 2284 0 
L 1503 0 
L 191 3500 
z
" transform="scale(0.015625)"/>
       <path id="DejaVuSans-65" d="M 3597 1894 
L 3597 1613 
L 953 1613 
Q 991 1019 1311 708 
Q 1631 397 2203 397 
Q 2534 397 2845 478 
Q 3156 559 3463 722 
L 3463 178 
Q 3153 47 2828 -22 
Q 2503 -91 2169 -91 
Q 1331 -91 842 396 
Q 353 884 353 1716 
Q 353 2575 817 3079 
Q 1281 3584 2069 3584 
Q 2775 3584 3186 3129 
Q 3597 2675 3597 1894 
z
M 3022 2063 
Q 3016 2534 2758 2815 
Q 2500 3097 2075 3097 
Q 1594 3097 1305 2825 
Q 1016 2553 972 2059 
L 3022 2063 
z
" transform="scale(0.015625)"/>
       <path id="DejaVuSans-6e" d="M 3513 2113 
L 3513 0 
L 2938 0 
L 2938 2094 
Q 2938 2591 2744 2837 
Q 2550 3084 2163 3084 
Q 1697 3084 1428 2787 
Q 1159 2491 1159 1978 
L 1159 0 
L 581 0 
L 581 3500 
L 1159 3500 
L 1159 2956 
Q 1366 3272 1645 3428 
Q 1925 3584 2291 3584 
Q 2894 3584 3203 3211 
Q 3513 2838 3513 2113 
z
" transform="scale(0.015625)"/>
       <path id="DejaVuSans-75" d="M 544 1381 
L 544 3500 
L 1119 3500 
L 1119 1403 
Q 1119 906 1312 657 
Q 1506 409 1894 409 
Q 2359 409 2629 706 
Q 2900 1003 2900 1516 
L 2900 3500 
L 3475 3500 
L 3475 0 
L 2900 0 
L 2900 538 
Q 2691 219 2414 64 
Q 2138 -91 1772 -91 
Q 1169 -91 856 284 
Q 544 659 544 1381 
z
M 1991 3584 
L 1991 3584 
z
" transform="scale(0.015625)"/>
       <path id="DejaVuSans-6d" d="M 3328 2828 
Q 3544 3216 3844 3400 
Q 4144 3584 4550 3584 
Q 5097 3584 5394 3201 
Q 5691 2819 5691 2113 
L 5691 0 
L 5113 0 
L 5113 2094 
Q 5113 2597 4934 2840 
Q 4756 3084 4391 3084 
Q 3944 3084 3684 2787 
Q 3425 2491 3425 1978 
L 3425 0 
L 2847 0 
L 2847 2094 
Q 2847 2600 2669 2842 
Q 2491 3084 2119 3084 
Q 1678 3084 1418 2786 
Q 1159 2488 1159 1978 
L 1159 0 
L 581 0 
L 581 3500 
L 1159 3500 
L 1159 2956 
Q 1356 3278 1631 3431 
Q 1906 3584 2284 3584 
Q 2666 3584 2933 3390 
Q 3200 3197 3328 2828 
z
" transform="scale(0.015625)"/>
       <path id="DejaVuSans-62" d="M 3116 1747 
Q 3116 2381 2855 2742 
Q 2594 3103 2138 3103 
Q 1681 3103 1420 2742 
Q 1159 2381 1159 1747 
Q 1159 1113 1420 752 
Q 1681 391 2138 391 
Q 2594 391 2855 752 
Q 3116 1113 3116 1747 
z
M 1159 2969 
Q 1341 3281 1617 3432 
Q 1894 3584 2278 3584 
Q 2916 3584 3314 3078 
Q 3713 2572 3713 1747 
Q 3713 922 3314 415 
Q 2916 -91 2278 -91 
Q 1894 -91 1617 61 
Q 1341 213 1159 525 
L 1159 0 
L 581 0 
L 581 4863 
L 1159 4863 
L 1159 2969 
z
" transform="scale(0.015625)"/>
       <path id="DejaVuSans-72" d="M 2631 2963 
Q 2534 3019 2420 3045 
Q 2306 3072 2169 3072 
Q 1681 3072 1420 2755 
Q 1159 2438 1159 1844 
L 1159 0 
L 581 0 
L 581 3500 
L 1159 3500 
L 1159 2956 
Q 1341 3275 1631 3429 
Q 1922 3584 2338 3584 
Q 2397 3584 2469 3576 
Q 2541 3569 2628 3553 
L 2631 2963 
z
" transform="scale(0.015625)"/>
       <path id="DejaVuSans-20" transform="scale(0.015625)"/>
       <path id="DejaVuSans-71" d="M 947 1747 
Q 947 1113 1208 752 
Q 1469 391 1925 391 
Q 2381 391 2643 752 
Q 2906 1113 2906 1747 
Q 2906 2381 2643 2742 
Q 2381 3103 1925 3103 
Q 1469 3103 1208 2742 
Q 947 2381 947 1747 
z
M 2906 525 
Q 2725 213 2448 61 
Q 2172 -91 1784 -91 
Q 1150 -91 751 415 
Q 353 922 353 1747 
Q 353 2572 751 3078 
Q 1150 3584 1784 3584 
Q 2172 3584 2448 3432 
Q 2725 3281 2906 2969 
L 2906 3500 
L 3481 3500 
L 3481 -1331 
L 2906 -1331 
L 2906 525 
z
" transform="scale(0.015625)"/>
       <path id="DejaVuSans-5b" d="M 550 4863 
L 1875 4863 
L 1875 4416 
L 1125 4416 
L 1125 -397 
L 1875 -397 
L 1875 -844 
L 550 -844 
L 550 4863 
z
" transform="scale(0.015625)"/>
       <path id="DejaVuSans-2f" d="M 1625 4666 
L 2156 4666 
L 531 -594 
L 0 -594 
L 1625 4666 
z
" transform="scale(0.015625)"/>
       <path id="DejaVuSans-3bc" d="M 544 -1331 
L 544 3500 
L 1119 3500 
L 1119 1325 
Q 1119 872 1334 640 
Q 1550 409 1972 409 
Q 2434 409 2667 671 
Q 2900 934 2900 1459 
L 2900 3500 
L 3475 3500 
L 3475 806 
Q 3475 619 3529 530 
Q 3584 441 3700 441 
Q 3728 441 3778 458 
Q 3828 475 3916 513 
L 3916 50 
Q 3788 -22 3673 -56 
Q 3559 -91 3450 -91 
Q 3234 -91 3106 31 
Q 2978 153 2931 403 
Q 2775 156 2548 32 
Q 2322 -91 2016 -91 
Q 1697 -91 1473 31 
Q 1250 153 1119 397 
L 1119 -1331 
L 544 -1331 
z
" transform="scale(0.015625)"/>
       <path id="DejaVuSans-5d" d="M 1947 4863 
L 1947 -844 
L 622 -844 
L 622 -397 
L 1369 -397 
L 1369 4416 
L 622 4416 
L 622 4863 
L 1947 4863 
z
" transform="scale(0.015625)"/>
      </defs>
      <use xlink:href="#DejaVuSans-57"/>
      <use xlink:href="#DejaVuSans-61" x="92.501953"/>
      <use xlink:href="#DejaVuSans-76" x="153.78125"/>
      <use xlink:href="#DejaVuSans-65" x="212.960938"/>
      <use xlink:href="#DejaVuSans-6e" x="274.484375"/>
      <use xlink:href="#DejaVuSans-75" x="337.863281"/>
      <use xlink:href="#DejaVuSans-6d" x="401.242188"/>
      <use xlink:href="#DejaVuSans-62" x="498.654297"/>
      <use xlink:href="#DejaVuSans-65" x="562.130859"/>
      <use xlink:href="#DejaVuSans-72" x="623.654297"/>
      <use xlink:href="#DejaVuSans-20" x="664.767578"/>
      <use xlink:href="#DejaVuSans-71" x="696.554688"/>
      <use xlink:href="#DejaVuSans-20" x="760.03125"/>
      <use xlink:href="#DejaVuSans-5b" x="791.818359"/>
      <use xlink:href="#DejaVuSans-31" x="830.832031"/>
      <use xlink:href="#DejaVuSans-2f" x="894.455078"/>
      <use xlink:href="#DejaVuSans-3bc" x="928.146484"/>
      <use xlink:href="#DejaVuSans-6d" x="991.769531"/>
      <use xlink:href="#DejaVuSans-5d" x="1089.181641"/>
     </g>
    </g>
   </g>
   <g id="matplotlib.axis_2">
    <g id="ytick_1">
     <g id="line2d_6">
      <defs>
       <path id="m1d4d614e0a" d="M 0 0 
L -6 0 
" style="stroke: #000000; stroke-width: 2"/>
      </defs>
      <g>
       <use xlink:href="#m1d4d614e0a" x="66.1025" y="419.470559" style="stroke: #000000; stroke-width: 2"/>
      </g>
     </g>
     <g id="text_7">
      <!-- 0.5 -->
      <g transform="translate(24.79625 427.068997) scale(0.2 -0.2)">
       <defs>
        <path id="DejaVuSans-2e" d="M 684 794 
L 1344 794 
L 1344 0 
L 684 0 
L 684 794 
z
" transform="scale(0.015625)"/>
        <path id="DejaVuSans-35" d="M 691 4666 
L 3169 4666 
L 3169 4134 
L 1269 4134 
L 1269 2991 
Q 1406 3038 1543 3061 
Q 1681 3084 1819 3084 
Q 2600 3084 3056 2656 
Q 3513 2228 3513 1497 
Q 3513 744 3044 326 
Q 2575 -91 1722 -91 
Q 1428 -91 1123 -41 
Q 819 9 494 109 
L 494 744 
Q 775 591 1075 516 
Q 1375 441 1709 441 
Q 2250 441 2565 725 
Q 2881 1009 2881 1497 
Q 2881 1984 2565 2268 
Q 2250 2553 1709 2553 
Q 1456 2553 1204 2497 
Q 953 2441 691 2322 
L 691 4666 
z
" transform="scale(0.015625)"/>
       </defs>
       <use xlink:href="#DejaVuSans-30"/>
       <use xlink:href="#DejaVuSans-2e" x="63.623047"/>
       <use xlink:href="#DejaVuSans-35" x="95.410156"/>
      </g>
     </g>
    </g>
    <g id="ytick_2">
     <g id="line2d_7">
      <g>
       <use xlink:href="#m1d4d614e0a" x="66.1025" y="302.75477" style="stroke: #000000; stroke-width: 2"/>
      </g>
     </g>
     <g id="text_8">
      <!-- 1.0 -->
      <g transform="translate(24.79625 310.353207) scale(0.2 -0.2)">
       <use xlink:href="#DejaVuSans-31"/>
       <use xlink:href="#DejaVuSans-2e" x="63.623047"/>
       <use xlink:href="#DejaVuSans-30" x="95.410156"/>
      </g>
     </g>
    </g>
    <g id="ytick_3">
     <g id="line2d_8">
      <g>
       <use xlink:href="#m1d4d614e0a" x="66.1025" y="186.03898" style="stroke: #000000; stroke-width: 2"/>
      </g>
     </g>
     <g id="text_9">
      <!-- 1.5 -->
      <g transform="translate(24.79625 193.637418) scale(0.2 -0.2)">
       <use xlink:href="#DejaVuSans-31"/>
       <use xlink:href="#DejaVuSans-2e" x="63.623047"/>
       <use xlink:href="#DejaVuSans-35" x="95.410156"/>
      </g>
     </g>
    </g>
    <g id="ytick_4">
     <g id="line2d_9">
      <g>
       <use xlink:href="#m1d4d614e0a" x="66.1025" y="69.323191" style="stroke: #000000; stroke-width: 2"/>
      </g>
     </g>
     <g id="text_10">
      <!-- 2.0 -->
      <g transform="translate(24.79625 76.921628) scale(0.2 -0.2)">
       <use xlink:href="#DejaVuSans-32"/>
       <use xlink:href="#DejaVuSans-2e" x="63.623047"/>
       <use xlink:href="#DejaVuSans-30" x="95.410156"/>
      </g>
     </g>
    </g>
    <g id="text_11">
     <!-- Amplitude of S(q) -->
     <g transform="translate(16.636875 332.1375) rotate(-90) scale(0.2 -0.2)">
      <defs>
       <path id="DejaVuSans-41" d="M 2188 4044 
L 1331 1722 
L 3047 1722 
L 2188 4044 
z
M 1831 4666 
L 2547 4666 
L 4325 0 
L 3669 0 
L 3244 1197 
L 1141 1197 
L 716 0 
L 50 0 
L 1831 4666 
z
" transform="scale(0.015625)"/>
       <path id="DejaVuSans-70" d="M 1159 525 
L 1159 -1331 
L 581 -1331 
L 581 3500 
L 1159 3500 
L 1159 2969 
Q 1341 3281 1617 3432 
Q 1894 3584 2278 3584 
Q 2916 3584 3314 3078 
Q 3713 2572 3713 1747 
Q 3713 922 3314 415 
Q 2916 -91 2278 -91 
Q 1894 -91 1617 61 
Q 1341 213 1159 525 
z
M 3116 1747 
Q 3116 2381 2855 2742 
Q 2594 3103 2138 3103 
Q 1681 3103 1420 2742 
Q 1159 2381 1159 1747 
Q 1159 1113 1420 752 
Q 1681 391 2138 391 
Q 2594 391 2855 752 
Q 3116 1113 3116 1747 
z
" transform="scale(0.015625)"/>
       <path id="DejaVuSans-6c" d="M 603 4863 
L 1178 4863 
L 1178 0 
L 603 0 
L 603 4863 
z
" transform="scale(0.015625)"/>
       <path id="DejaVuSans-69" d="M 603 3500 
L 1178 3500 
L 1178 0 
L 603 0 
L 603 3500 
z
M 603 4863 
L 1178 4863 
L 1178 4134 
L 603 4134 
L 603 4863 
z
" transform="scale(0.015625)"/>
       <path id="DejaVuSans-74" d="M 1172 4494 
L 1172 3500 
L 2356 3500 
L 2356 3053 
L 1172 3053 
L 1172 1153 
Q 1172 725 1289 603 
Q 1406 481 1766 481 
L 2356 481 
L 2356 0 
L 1766 0 
Q 1100 0 847 248 
Q 594 497 594 1153 
L 594 3053 
L 172 3053 
L 172 3500 
L 594 3500 
L 594 4494 
L 1172 4494 
z
" transform="scale(0.015625)"/>
       <path id="DejaVuSans-64" d="M 2906 2969 
L 2906 4863 
L 3481 4863 
L 3481 0 
L 2906 0 
L 2906 525 
Q 2725 213 2448 61 
Q 2172 -91 1784 -91 
Q 1150 -91 751 415 
Q 353 922 353 1747 
Q 353 2572 751 3078 
Q 1150 3584 1784 3584 
Q 2172 3584 2448 3432 
Q 2725 3281 2906 2969 
z
M 947 1747 
Q 947 1113 1208 752 
Q 1469 391 1925 391 
Q 2381 391 2643 752 
Q 2906 1113 2906 1747 
Q 2906 2381 2643 2742 
Q 2381 3103 1925 3103 
Q 1469 3103 1208 2742 
Q 947 2381 947 1747 
z
" transform="scale(0.015625)"/>
       <path id="DejaVuSans-6f" d="M 1959 3097 
Q 1497 3097 1228 2736 
Q 959 2375 959 1747 
Q 959 1119 1226 758 
Q 1494 397 1959 397 
Q 2419 397 2687 759 
Q 2956 1122 2956 1747 
Q 2956 2369 2687 2733 
Q 2419 3097 1959 3097 
z
M 1959 3584 
Q 2709 3584 3137 3096 
Q 3566 2609 3566 1747 
Q 3566 888 3137 398 
Q 2709 -91 1959 -91 
Q 1206 -91 779 398 
Q 353 888 353 1747 
Q 353 2609 779 3096 
Q 1206 3584 1959 3584 
z
" transform="scale(0.015625)"/>
       <path id="DejaVuSans-66" d="M 2375 4863 
L 2375 4384 
L 1825 4384 
Q 1516 4384 1395 4259 
Q 1275 4134 1275 3809 
L 1275 3500 
L 2222 3500 
L 2222 3053 
L 1275 3053 
L 1275 0 
L 697 0 
L 697 3053 
L 147 3053 
L 147 3500 
L 697 3500 
L 697 3744 
Q 697 4328 969 4595 
Q 1241 4863 1831 4863 
L 2375 4863 
z
" transform="scale(0.015625)"/>
       <path id="DejaVuSans-53" d="M 3425 4513 
L 3425 3897 
Q 3066 4069 2747 4153 
Q 2428 4238 2131 4238 
Q 1616 4238 1336 4038 
Q 1056 3838 1056 3469 
Q 1056 3159 1242 3001 
Q 1428 2844 1947 2747 
L 2328 2669 
Q 3034 2534 3370 2195 
Q 3706 1856 3706 1288 
Q 3706 609 3251 259 
Q 2797 -91 1919 -91 
Q 1588 -91 1214 -16 
Q 841 59 441 206 
L 441 856 
Q 825 641 1194 531 
Q 1563 422 1919 422 
Q 2459 422 2753 634 
Q 3047 847 3047 1241 
Q 3047 1584 2836 1778 
Q 2625 1972 2144 2069 
L 1759 2144 
Q 1053 2284 737 2584 
Q 422 2884 422 3419 
Q 422 4038 858 4394 
Q 1294 4750 2059 4750 
Q 2388 4750 2728 4690 
Q 3069 4631 3425 4513 
z
" transform="scale(0.015625)"/>
       <path id="DejaVuSans-28" d="M 1984 4856 
Q 1566 4138 1362 3434 
Q 1159 2731 1159 2009 
Q 1159 1288 1364 580 
Q 1569 -128 1984 -844 
L 1484 -844 
Q 1016 -109 783 600 
Q 550 1309 550 2009 
Q 550 2706 781 3412 
Q 1013 4119 1484 4856 
L 1984 4856 
z
" transform="scale(0.015625)"/>
       <path id="DejaVuSans-29" d="M 513 4856 
L 1013 4856 
Q 1481 4119 1714 3412 
Q 1947 2706 1947 2009 
Q 1947 1309 1714 600 
Q 1481 -109 1013 -844 
L 513 -844 
Q 928 -128 1133 580 
Q 1338 1288 1338 2009 
Q 1338 2731 1133 3434 
Q 928 4138 513 4856 
z
" transform="scale(0.015625)"/>
      </defs>
      <use xlink:href="#DejaVuSans-41"/>
      <use xlink:href="#DejaVuSans-6d" x="68.408203"/>
      <use xlink:href="#DejaVuSans-70" x="165.820312"/>
      <use xlink:href="#DejaVuSans-6c" x="229.296875"/>
      <use xlink:href="#DejaVuSans-69" x="257.080078"/>
      <use xlink:href="#DejaVuSans-74" x="284.863281"/>
      <use xlink:href="#DejaVuSans-75" x="324.072266"/>
      <use xlink:href="#DejaVuSans-64" x="387.451172"/>
      <use xlink:href="#DejaVuSans-65" x="450.927734"/>
      <use xlink:href="#DejaVuSans-20" x="512.451172"/>
      <use xlink:href="#DejaVuSans-6f" x="544.238281"/>
      <use xlink:href="#DejaVuSans-66" x="605.419922"/>
      <use xlink:href="#DejaVuSans-20" x="640.625"/>
      <use xlink:href="#DejaVuSans-53" x="672.412109"/>
      <use xlink:href="#DejaVuSans-28" x="735.888672"/>
      <use xlink:href="#DejaVuSans-71" x="774.902344"/>
      <use xlink:href="#DejaVuSans-29" x="838.378906"/>
     </g>
    </g>
   </g>
   <g id="line2d_10">
    <path d="M 66.1025 302.75477 
L 512.5025 302.75477 
" clip-path="url(#p1d4d8e0f60)" style="fill: none; stroke-dasharray: 6.29,2.72; stroke-dashoffset: 0; stroke: #000000; stroke-width: 1.7"/>
   </g>
   <g id="line2d_11">
    <path d="M 85.614 -1 
L 89.114889 100.820161 
L 98.319492 250.475347 
L 107.524098 340.638655 
L 116.728701 395.135579 
L 125.933308 416.918973 
L 135.137911 427.483714 
L 144.342514 424.998229 
L 153.547117 414.844304 
L 162.751727 397.335352 
L 171.95633 374.965137 
L 181.16094 341.367241 
L 190.365543 301.739857 
L 199.570146 268.535366 
L 208.774749 254.131197 
L 217.979352 249.884546 
L 227.183956 262.044481 
L 236.388559 277.700107 
L 245.593162 292.545509 
L 254.797765 299.415739 
L 264.002381 307.339576 
L 273.206984 311.337333 
L 282.4116 314.29862 
L 291.616203 315.59981 
L 300.820806 313.405596 
L 310.02541 313.409125 
L 319.230013 310.116896 
L 328.434616 306.333697 
L 337.639219 303.685075 
L 346.843822 300.568632 
L 356.048426 299.610296 
L 365.253029 297.98128 
L 374.457632 298.108158 
L 383.662235 298.007626 
L 392.866864 298.895764 
L 402.071467 300.268397 
L 411.27607 302.117361 
L 420.480673 302.75597 
L 429.685276 303.916397 
L 438.88988 304.648712 
L 448.094483 304.163691 
L 457.299086 304.000326 
L 466.503689 303.967658 
L 475.708292 303.822048 
L 484.912896 303.515944 
L 494.117499 302.636388 
L 503.322077 303.187706 
L 512.526705 303.178514 
L 514.9425 303.112605 
" clip-path="url(#p1d4d8e0f60)" style="fill: none; stroke: #0000ff; stroke-width: 1.5; stroke-linecap: square"/>
   </g>
   <g id="line2d_12">
    <path d="M 88.081527 -1 
L 89.114889 37.080697 
L 98.319492 187.720777 
L 107.524098 310.882785 
L 116.728701 383.155916 
L 125.933308 418.446065 
L 135.137911 428.6719 
L 144.342514 428.727893 
L 153.547117 420.673177 
L 162.751727 402.771863 
L 171.95633 377.15337 
L 181.16094 341.129813 
L 190.365543 304.412463 
L 199.570146 269.84955 
L 208.774749 251.802101 
L 217.979352 250.19785 
L 227.183956 257.39955 
L 236.388559 271.97568 
L 245.593162 290.11384 
L 254.797765 301.189344 
L 264.002381 310.70745 
L 273.206984 315.060466 
L 282.4116 317.236494 
L 291.616203 317.340539 
L 300.820806 315.508823 
L 310.02541 310.812148 
L 319.230013 307.051292 
L 328.434616 304.674879 
L 337.639219 300.998159 
L 346.843822 299.64389 
L 356.048426 297.089423 
L 365.253029 298.996061 
L 374.457632 298.996015 
L 383.662235 299.788775 
L 392.866864 301.243655 
L 402.071467 302.123882 
L 411.27607 303.32272 
L 420.480673 303.526309 
L 429.685276 303.475804 
L 438.88988 304.037392 
L 448.094483 303.116304 
L 457.299086 303.530459 
L 466.503689 303.456296 
L 475.708292 303.330293 
L 484.912896 302.680959 
L 494.117499 302.311216 
L 503.322077 302.706686 
L 512.526705 303.07526 
L 514.9425 303.039782 
" clip-path="url(#p1d4d8e0f60)" style="fill: none; stroke: #0000ff; stroke-width: 1.5; stroke-linecap: square"/>
   </g>
   <g id="line2d_13">
    <path d="M 88.932058 -1 
L 89.114889 6.994813 
L 98.319492 177.197754 
L 107.524098 292.214754 
L 116.728701 368.591102 
L 125.933308 404.48131 
L 135.137911 420.453255 
L 144.342514 424.585318 
L 153.547117 420.626583 
L 162.751727 409.102661 
L 171.95633 391.726421 
L 181.16094 361.686901 
L 190.365543 327.535792 
L 199.570146 289.765046 
L 208.774749 252.871012 
L 217.979352 237.81856 
L 227.183956 239.335359 
L 236.388559 251.82174 
L 245.593162 274.80118 
L 254.797765 294.390017 
L 264.002381 310.460436 
L 273.206984 319.129351 
L 282.4116 325.411806 
L 291.616203 327.119091 
L 300.820806 323.134459 
L 310.02541 318.313603 
L 319.230013 311.162358 
L 328.434616 304.376736 
L 337.639219 300.343223 
L 346.843822 293.572293 
L 356.048426 292.168633 
L 365.253029 293.930694 
L 374.457632 295.209958 
L 383.662235 297.771633 
L 392.866864 301.166917 
L 402.071467 302.582529 
L 411.27607 305.75528 
L 420.480673 305.941133 
L 429.685276 306.349876 
L 438.88988 305.173647 
L 448.094483 304.455681 
L 457.299086 304.207601 
L 466.503689 302.141779 
L 475.708292 301.710893 
L 484.912896 301.860026 
L 494.117499 302.06159 
L 503.322077 301.636782 
L 512.526705 302.969685 
L 514.9425 302.935409 
" clip-path="url(#p1d4d8e0f60)" style="fill: none; stroke: #0000ff; stroke-width: 1.5; stroke-linecap: square"/>
   </g>
   <g id="line2d_14">
    <path d="M 92.255514 -1 
L 98.319492 130.771449 
L 107.524098 269.358531 
L 116.728701 356.042767 
L 125.933308 400.414841 
L 135.137911 422.663797 
L 144.342514 428.670036 
L 153.547117 426.698708 
L 162.751727 416.076066 
L 171.95633 395.353631 
L 181.16094 364.693311 
L 190.365543 324.541693 
L 199.570146 284.285424 
L 208.774749 254.652336 
L 217.979352 239.067339 
L 227.183956 241.509487 
L 236.388559 254.83902 
L 245.593162 275.397433 
L 254.797765 294.563313 
L 264.002381 309.033544 
L 273.206984 319.773584 
L 282.4116 323.516776 
L 291.616203 323.504623 
L 300.820806 320.877499 
L 310.02541 316.408586 
L 319.230013 310.447451 
L 328.434616 304.990256 
L 337.639219 299.635478 
L 346.843822 296.832871 
L 356.048426 294.696768 
L 365.253029 295.049814 
L 374.457632 296.938697 
L 383.662235 299.635993 
L 392.866864 300.253855 
L 402.071467 302.777862 
L 411.27607 303.70465 
L 420.480673 305.400021 
L 429.685276 305.3435 
L 438.88988 304.240539 
L 448.094483 304.016333 
L 457.299086 302.810351 
L 466.503689 302.428577 
L 475.708292 302.274958 
L 484.912896 301.595695 
L 494.117499 302.170116 
L 503.322077 303.05766 
L 512.526705 303.294208 
L 514.9425 303.309814 
" clip-path="url(#p1d4d8e0f60)" style="fill: none; stroke: #0000ff; stroke-width: 1.5; stroke-linecap: square"/>
   </g>
   <g id="line2d_15">
    <path d="M 92.006325 -1 
L 98.319492 139.710128 
L 107.524098 259.992743 
L 116.728701 317.056322 
L 125.933308 360.502873 
L 135.137911 382.76657 
L 144.342514 394.148868 
L 153.547117 396.327095 
L 162.751727 392.67669 
L 171.95633 381.687389 
L 181.16094 364.185647 
L 190.365543 341.136679 
L 199.570146 315.257479 
L 208.774749 286.03145 
L 217.979352 269.821458 
L 227.183956 262.248445 
L 236.388559 262.063673 
L 245.593162 268.714074 
L 254.797765 281.217775 
L 264.002381 291.949179 
L 273.206984 301.672119 
L 282.4116 309.865093 
L 291.616203 315.026895 
L 300.820806 316.700224 
L 310.02541 315.312281 
L 319.230013 313.900562 
L 328.434616 310.249676 
L 337.639219 305.525492 
L 346.843822 302.870251 
L 356.048426 301.488949 
L 365.253029 299.00664 
L 374.457632 299.344131 
L 383.662235 299.564759 
L 392.866864 299.660905 
L 402.071467 300.870561 
L 411.27607 302.464778 
L 420.480673 302.532737 
L 429.685276 303.244803 
L 438.88988 303.432802 
L 448.094483 303.390389 
L 457.299086 303.040383 
L 466.503689 303.102909 
L 475.708292 302.646769 
L 484.912896 302.537445 
L 494.117499 302.45788 
L 503.322077 302.343775 
L 512.526705 302.784298 
L 514.9425 302.804905 
" clip-path="url(#p1d4d8e0f60)" style="fill: none; stroke: #0000ff; stroke-width: 1.5; stroke-linecap: square"/>
   </g>
   <g id="line2d_16">
    <path d="M 95.784628 -1 
L 98.319492 45.721366 
L 107.524098 212.924518 
L 116.728701 313.489862 
L 125.933308 371.712281 
L 135.137911 405.408506 
L 144.342514 416.674777 
L 153.547117 420.359499 
L 162.751727 420.003026 
L 171.95633 409.05811 
L 181.16094 393.462882 
L 190.365543 369.446999 
L 199.570146 339.928172 
L 208.774749 306.133517 
L 217.979352 276.576106 
L 227.183956 254.00799 
L 236.388559 245.59967 
L 245.593162 251.445669 
L 254.797765 261.188336 
L 264.002381 274.003606 
L 273.206984 289.562655 
L 282.4116 301.601158 
L 291.616203 311.489704 
L 300.820806 317.361132 
L 310.02541 319.576038 
L 319.230013 319.632784 
L 328.434616 318.614605 
L 337.639219 315.028667 
L 346.843822 311.146802 
L 356.048426 306.502453 
L 365.253029 303.369927 
L 374.457632 300.237587 
L 383.662235 298.848679 
L 392.866864 296.616806 
L 402.071467 296.646171 
L 411.27607 298.020219 
L 420.480673 298.366203 
L 429.685276 300.365715 
L 438.88988 301.277339 
L 448.094483 302.419918 
L 457.299086 303.493355 
L 466.503689 304.244762 
L 475.708292 304.079323 
L 484.912896 304.006649 
L 494.117499 304.414001 
L 503.322077 304.112583 
L 512.526705 303.216132 
L 514.9425 303.088545 
" clip-path="url(#p1d4d8e0f60)" style="fill: none; stroke: #0000ff; stroke-width: 1.5; stroke-linecap: square"/>
   </g>
   <g id="line2d_17">
    <path d="M 85.278684 -1 
L 89.114889 174.324435 
L 98.319492 287.127167 
L 107.524098 357.34047 
L 116.728701 393.146005 
L 125.933308 403.949943 
L 135.137911 399.698351 
L 144.342514 394.307321 
L 153.547117 379.619456 
L 162.751727 361.149286 
L 171.95633 337.615364 
L 181.16094 318.652363 
L 190.365543 299.969775 
L 199.570146 294.240458 
L 208.774749 284.790431 
L 217.979352 282.14281 
L 227.183956 283.534159 
L 236.388559 284.845211 
L 245.593162 290.885381 
L 254.797765 294.946411 
L 264.002381 298.255388 
L 273.206984 301.588493 
L 282.4116 305.524677 
L 291.616203 306.632482 
L 300.820806 309.506561 
L 310.02541 308.724601 
L 319.230013 308.487267 
L 328.434616 307.768576 
L 337.639219 306.56455 
L 346.843822 303.318187 
L 356.048426 302.508279 
L 365.253029 301.553671 
L 374.457632 300.924623 
L 383.662235 301.58426 
L 392.866864 299.930172 
L 402.071467 301.986327 
L 411.27607 301.259286 
L 420.480673 301.957786 
L 429.685276 301.71846 
L 438.88988 302.212632 
L 448.094483 302.633019 
L 457.299086 303.516473 
L 466.503689 303.132926 
L 475.708292 303.143131 
L 484.912896 302.744849 
L 494.117499 302.847137 
L 503.322077 303.235028 
L 512.526705 303.322713 
L 514.9425 303.269609 
" clip-path="url(#p1d4d8e0f60)" style="fill: none; stroke: #ff0000; stroke-width: 1.5; stroke-linecap: square"/>
   </g>
   <g id="line2d_18">
    <path d="M 92.063064 -1 
L 98.319492 130.635073 
L 107.524098 265.575627 
L 116.728701 351.343155 
L 125.933308 392.459319 
L 135.137911 416.78052 
L 144.342514 425.581544 
L 153.547117 425.842738 
L 162.751727 416.497529 
L 171.95633 397.829294 
L 181.16094 368.489489 
L 190.365543 333.049228 
L 199.570146 294.803047 
L 208.774749 260.11284 
L 217.979352 239.532467 
L 227.183956 235.924925 
L 236.388559 247.385254 
L 245.593162 267.32701 
L 254.797765 287.532365 
L 264.002381 306.454331 
L 273.206984 319.3475 
L 282.4116 326.075497 
L 291.616203 327.238043 
L 300.820806 325.446848 
L 310.02541 320.387086 
L 319.230013 312.711966 
L 328.434616 306.274241 
L 337.639219 301.063562 
L 346.843822 296.358851 
L 356.048426 293.624476 
L 365.253029 293.086038 
L 374.457632 294.449937 
L 383.662235 297.182278 
L 392.866864 299.075627 
L 402.071467 301.93649 
L 411.27607 304.247473 
L 420.480673 305.823616 
L 429.685276 305.988041 
L 438.88988 305.75944 
L 448.094483 305.285135 
L 457.299086 303.242825 
L 466.503689 303.68823 
L 475.708292 302.608967 
L 484.912896 301.952721 
L 494.117499 302.208374 
L 503.322077 302.198307 
L 512.526705 302.313014 
L 514.9425 302.303245 
" clip-path="url(#p1d4d8e0f60)" style="fill: none; stroke: #ff0000; stroke-width: 1.5; stroke-linecap: square"/>
   </g>
   <g id="line2d_19">
    <path d="M 87.167387 -1 
L 89.114889 96.80921 
L 98.319492 176.788985 
L 107.524098 269.341265 
L 116.728701 344.105502 
L 125.933308 388.331382 
L 135.137911 413.026798 
L 144.342514 425.437648 
L 153.547117 424.508565 
L 162.751727 415.08559 
L 171.95633 400.100175 
L 181.16094 376.545109 
L 190.365543 344.474011 
L 199.570146 311.30458 
L 208.774749 275.338272 
L 217.979352 252.536994 
L 227.183956 243.360923 
L 236.388559 247.133698 
L 245.593162 262.822212 
L 254.797765 280.932651 
L 264.002381 296.386084 
L 273.206984 307.280653 
L 282.4116 314.779238 
L 291.616203 317.708641 
L 300.820806 319.568393 
L 310.02541 317.921487 
L 319.230013 315.600572 
L 328.434616 312.908807 
L 337.639219 307.312898 
L 346.843822 304.382375 
L 356.048426 302.170223 
L 365.253029 299.358531 
L 374.457632 297.485497 
L 383.662235 297.923672 
L 392.866864 297.840637 
L 402.071467 297.670323 
L 411.27607 299.376607 
L 420.480673 300.632951 
L 429.685276 301.933222 
L 438.88988 302.108978 
L 448.094483 303.693883 
L 457.299086 304.193854 
L 466.503689 304.559112 
L 475.708292 304.80083 
L 484.912896 304.798764 
L 494.117499 303.625627 
L 503.322077 304.068738 
L 512.526705 302.868176 
L 514.9425 302.939449 
" clip-path="url(#p1d4d8e0f60)" style="fill: none; stroke: #ff0000; stroke-width: 1.5; stroke-linecap: square"/>
   </g>
   <g id="line2d_20">
    <path d="M 92.576165 -1 
L 98.319492 132.837378 
L 107.524098 277.718178 
L 116.728701 368.454267 
L 125.933308 416.003378 
L 135.137911 434.713665 
L 144.342514 441.426699 
L 153.547117 439.430083 
L 162.751727 430.066779 
L 171.95633 412.604238 
L 181.16094 386.608751 
L 190.365543 348.383998 
L 199.570146 302.776856 
L 208.774749 255.07201 
L 217.979352 226.280409 
L 227.183956 221.585843 
L 236.388559 235.030022 
L 245.593162 264.42751 
L 254.797765 288.851933 
L 264.002381 307.410533 
L 273.206984 318.017227 
L 282.4116 325.765241 
L 291.616203 326.724477 
L 300.820806 325.568828 
L 310.02541 320.65694 
L 319.230013 315.933453 
L 328.434616 308.817815 
L 337.639219 303.51729 
L 346.843822 299.579999 
L 356.048426 296.554588 
L 365.253029 294.029365 
L 374.457632 293.953727 
L 383.662235 294.780337 
L 392.866864 296.411528 
L 402.071467 299.112799 
L 411.27607 301.560063 
L 420.480673 304.879301 
L 429.685276 306.136853 
L 438.88988 306.43087 
L 448.094483 306.161196 
L 457.299086 305.766518 
L 466.503689 305.060337 
L 475.708292 303.338164 
L 484.912896 302.781906 
L 494.117499 301.393392 
L 503.322077 301.382888 
L 512.526705 301.266643 
L 514.9425 301.35241 
" clip-path="url(#p1d4d8e0f60)" style="fill: none; stroke: #ff0000; stroke-width: 1.5; stroke-linecap: square"/>
   </g>
   <g id="line2d_21">
    <path d="M 90.091971 -1 
L 98.319492 173.821536 
L 107.524098 327.330498 
L 116.728701 392.073581 
L 125.933308 422.004001 
L 135.137911 434.995475 
L 144.342514 435.439152 
L 153.547117 429.910003 
L 162.751727 418.754996 
L 171.95633 400.855461 
L 181.16094 376.411198 
L 190.365543 339.733183 
L 199.570146 303.200622 
L 208.774749 265.063694 
L 217.979352 244.575342 
L 227.183956 239.297258 
L 236.388559 255.737774 
L 245.593162 276.87612 
L 254.797765 292.48426 
L 264.002381 303.557156 
L 273.206984 309.073845 
L 282.4116 310.945338 
L 291.616203 313.211343 
L 300.820806 312.52123 
L 310.02541 311.659337 
L 319.230013 310.715343 
L 328.434616 307.978112 
L 337.639219 306.1695 
L 346.843822 304.586974 
L 356.048426 303.071964 
L 365.253029 301.507004 
L 374.457632 301.011034 
L 383.662235 299.905841 
L 392.866864 301.927732 
L 402.071467 301.208504 
L 411.27607 300.939861 
L 420.480673 301.643481 
L 429.685276 301.692937 
L 438.88988 302.158494 
L 448.094483 302.509727 
L 457.299086 302.240536 
L 466.503689 302.160531 
L 475.708292 302.75122 
L 484.912896 303.128715 
L 494.117499 302.289128 
L 503.322077 302.516239 
L 512.526705 303.256085 
L 514.9425 303.18192 
" clip-path="url(#p1d4d8e0f60)" style="fill: none; stroke: #ff0000; stroke-width: 1.5; stroke-linecap: square"/>
   </g>
   <g id="line2d_22">
    <path d="M 87.132821 -1 
L 89.114889 94.153127 
L 98.319492 107.535234 
L 107.524098 205.568539 
L 116.728701 308.425893 
L 125.933308 372.140352 
L 135.137911 408.46071 
L 144.342514 425.510988 
L 153.547117 431.896603 
L 162.751727 428.681084 
L 171.95633 417.266602 
L 181.16094 401.167647 
L 190.365543 378.311492 
L 199.570146 347.62226 
L 208.774749 315.366541 
L 217.979352 281.523385 
L 227.183956 256.723968 
L 236.388559 245.027168 
L 245.593162 250.429363 
L 254.797765 258.042423 
L 264.002381 271.159138 
L 273.206984 283.671542 
L 282.4116 296.685463 
L 291.616203 306.336458 
L 300.820806 314.001773 
L 310.02541 317.125483 
L 319.230013 317.737004 
L 328.434616 316.675376 
L 337.639219 314.452953 
L 346.843822 312.099642 
L 356.048426 309.092903 
L 365.253029 306.478 
L 374.457632 303.824151 
L 383.662235 302.174432 
L 392.866864 300.288245 
L 402.071467 298.928761 
L 411.27607 298.925579 
L 420.480673 299.393764 
L 429.685276 298.878365 
L 438.88988 299.350105 
L 448.094483 300.296312 
L 457.299086 301.125268 
L 466.503689 301.897212 
L 475.708292 302.330398 
L 484.912896 302.613358 
L 494.117499 302.691167 
L 503.322077 303.9259 
L 512.526705 303.914102 
L 514.9425 303.91366 
" clip-path="url(#p1d4d8e0f60)" style="fill: none; stroke: #ff0000; stroke-width: 1.5; stroke-linecap: square"/>
   </g>
   <g id="patch_3">
    <path d="M 66.1025 466.156875 
L 66.1025 22.636875 
" style="fill: none; stroke: #000000; stroke-width: 2; stroke-linejoin: miter; stroke-linecap: square"/>
   </g>
   <g id="patch_4">
    <path d="M 512.5025 466.156875 
L 512.5025 22.636875 
" style="fill: none; stroke: #000000; stroke-width: 2; stroke-linejoin: miter; stroke-linecap: square"/>
   </g>
   <g id="patch_5">
    <path d="M 66.1025 466.156875 
L 512.5025 466.156875 
" style="fill: none; stroke: #000000; stroke-width: 2; stroke-linejoin: miter; stroke-linecap: square"/>
   </g>
   <g id="patch_6">
    <path d="M 66.1025 22.636875 
L 512.5025 22.636875 
" style="fill: none; stroke: #000000; stroke-width: 2; stroke-linejoin: miter; stroke-linecap: square"/>
   </g>
   <g id="text_12">
    <!-- Powder averaged structure factors -->
    <g transform="translate(116.022812 16.636875) scale(0.2 -0.2)">
     <defs>
      <path id="DejaVuSans-50" d="M 1259 4147 
L 1259 2394 
L 2053 2394 
Q 2494 2394 2734 2622 
Q 2975 2850 2975 3272 
Q 2975 3691 2734 3919 
Q 2494 4147 2053 4147 
L 1259 4147 
z
M 628 4666 
L 2053 4666 
Q 2838 4666 3239 4311 
Q 3641 3956 3641 3272 
Q 3641 2581 3239 2228 
Q 2838 1875 2053 1875 
L 1259 1875 
L 1259 0 
L 628 0 
L 628 4666 
z
" transform="scale(0.015625)"/>
      <path id="DejaVuSans-77" d="M 269 3500 
L 844 3500 
L 1563 769 
L 2278 3500 
L 2956 3500 
L 3675 769 
L 4391 3500 
L 4966 3500 
L 4050 0 
L 3372 0 
L 2619 2869 
L 1863 0 
L 1184 0 
L 269 3500 
z
" transform="scale(0.015625)"/>
      <path id="DejaVuSans-67" d="M 2906 1791 
Q 2906 2416 2648 2759 
Q 2391 3103 1925 3103 
Q 1463 3103 1205 2759 
Q 947 2416 947 1791 
Q 947 1169 1205 825 
Q 1463 481 1925 481 
Q 2391 481 2648 825 
Q 2906 1169 2906 1791 
z
M 3481 434 
Q 3481 -459 3084 -895 
Q 2688 -1331 1869 -1331 
Q 1566 -1331 1297 -1286 
Q 1028 -1241 775 -1147 
L 775 -588 
Q 1028 -725 1275 -790 
Q 1522 -856 1778 -856 
Q 2344 -856 2625 -561 
Q 2906 -266 2906 331 
L 2906 616 
Q 2728 306 2450 153 
Q 2172 0 1784 0 
Q 1141 0 747 490 
Q 353 981 353 1791 
Q 353 2603 747 3093 
Q 1141 3584 1784 3584 
Q 2172 3584 2450 3431 
Q 2728 3278 2906 2969 
L 2906 3500 
L 3481 3500 
L 3481 434 
z
" transform="scale(0.015625)"/>
      <path id="DejaVuSans-73" d="M 2834 3397 
L 2834 2853 
Q 2591 2978 2328 3040 
Q 2066 3103 1784 3103 
Q 1356 3103 1142 2972 
Q 928 2841 928 2578 
Q 928 2378 1081 2264 
Q 1234 2150 1697 2047 
L 1894 2003 
Q 2506 1872 2764 1633 
Q 3022 1394 3022 966 
Q 3022 478 2636 193 
Q 2250 -91 1575 -91 
Q 1294 -91 989 -36 
Q 684 19 347 128 
L 347 722 
Q 666 556 975 473 
Q 1284 391 1588 391 
Q 1994 391 2212 530 
Q 2431 669 2431 922 
Q 2431 1156 2273 1281 
Q 2116 1406 1581 1522 
L 1381 1569 
Q 847 1681 609 1914 
Q 372 2147 372 2553 
Q 372 3047 722 3315 
Q 1072 3584 1716 3584 
Q 2034 3584 2315 3537 
Q 2597 3491 2834 3397 
z
" transform="scale(0.015625)"/>
      <path id="DejaVuSans-63" d="M 3122 3366 
L 3122 2828 
Q 2878 2963 2633 3030 
Q 2388 3097 2138 3097 
Q 1578 3097 1268 2742 
Q 959 2388 959 1747 
Q 959 1106 1268 751 
Q 1578 397 2138 397 
Q 2388 397 2633 464 
Q 2878 531 3122 666 
L 3122 134 
Q 2881 22 2623 -34 
Q 2366 -91 2075 -91 
Q 1284 -91 818 406 
Q 353 903 353 1747 
Q 353 2603 823 3093 
Q 1294 3584 2113 3584 
Q 2378 3584 2631 3529 
Q 2884 3475 3122 3366 
z
" transform="scale(0.015625)"/>
     </defs>
     <use xlink:href="#DejaVuSans-50"/>
     <use xlink:href="#DejaVuSans-6f" x="56.677734"/>
     <use xlink:href="#DejaVuSans-77" x="117.859375"/>
     <use xlink:href="#DejaVuSans-64" x="199.646484"/>
     <use xlink:href="#DejaVuSans-65" x="263.123047"/>
     <use xlink:href="#DejaVuSans-72" x="324.646484"/>
     <use xlink:href="#DejaVuSans-20" x="365.759766"/>
     <use xlink:href="#DejaVuSans-61" x="397.546875"/>
     <use xlink:href="#DejaVuSans-76" x="458.826172"/>
     <use xlink:href="#DejaVuSans-65" x="518.005859"/>
     <use xlink:href="#DejaVuSans-72" x="579.529297"/>
     <use xlink:href="#DejaVuSans-61" x="620.642578"/>
     <use xlink:href="#DejaVuSans-67" x="681.921875"/>
     <use xlink:href="#DejaVuSans-65" x="745.398438"/>
     <use xlink:href="#DejaVuSans-64" x="806.921875"/>
     <use xlink:href="#DejaVuSans-20" x="870.398438"/>
     <use xlink:href="#DejaVuSans-73" x="902.185547"/>
     <use xlink:href="#DejaVuSans-74" x="954.285156"/>
     <use xlink:href="#DejaVuSans-72" x="993.494141"/>
     <use xlink:href="#DejaVuSans-75" x="1034.607422"/>
     <use xlink:href="#DejaVuSans-63" x="1097.986328"/>
     <use xlink:href="#DejaVuSans-74" x="1152.966797"/>
     <use xlink:href="#DejaVuSans-75" x="1192.175781"/>
     <use xlink:href="#DejaVuSans-72" x="1255.554688"/>
     <use xlink:href="#DejaVuSans-65" x="1294.417969"/>
     <use xlink:href="#DejaVuSans-20" x="1355.941406"/>
     <use xlink:href="#DejaVuSans-66" x="1387.728516"/>
     <use xlink:href="#DejaVuSans-61" x="1422.933594"/>
     <use xlink:href="#DejaVuSans-63" x="1484.212891"/>
     <use xlink:href="#DejaVuSans-74" x="1539.193359"/>
     <use xlink:href="#DejaVuSans-6f" x="1578.402344"/>
     <use xlink:href="#DejaVuSans-72" x="1639.583984"/>
     <use xlink:href="#DejaVuSans-73" x="1680.697266"/>
    </g>
   </g>
   <g id="legend_1">
    <g id="patch_7">
     <path d="M 386.460781 86.1425 
L 504.0025 86.1425 
L 504.0025 31.136875 
L 386.460781 31.136875 
z
" style="fill: #ffffff; opacity: 0.8; stroke: #000000; stroke-linejoin: miter"/>
    </g>
    <g id="line2d_23">
     <path d="M 393.260781 44.904219 
L 410.260781 44.904219 
L 427.260781 44.904219 
" style="fill: none; stroke: #0000ff; stroke-width: 1.5; stroke-linecap: square"/>
    </g>
    <g id="text_13">
     <!-- Control -->
     <g transform="translate(435.760781 50.854219) scale(0.17 -0.17)">
      <defs>
       <path id="DejaVuSans-43" d="M 4122 4306 
L 4122 3641 
Q 3803 3938 3442 4084 
Q 3081 4231 2675 4231 
Q 1875 4231 1450 3742 
Q 1025 3253 1025 2328 
Q 1025 1406 1450 917 
Q 1875 428 2675 428 
Q 3081 428 3442 575 
Q 3803 722 4122 1019 
L 4122 359 
Q 3791 134 3420 21 
Q 3050 -91 2638 -91 
Q 1578 -91 968 557 
Q 359 1206 359 2328 
Q 359 3453 968 4101 
Q 1578 4750 2638 4750 
Q 3056 4750 3426 4639 
Q 3797 4528 4122 4306 
z
" transform="scale(0.015625)"/>
      </defs>
      <use xlink:href="#DejaVuSans-43"/>
      <use xlink:href="#DejaVuSans-6f" x="69.824219"/>
      <use xlink:href="#DejaVuSans-6e" x="131.005859"/>
      <use xlink:href="#DejaVuSans-74" x="194.384766"/>
      <use xlink:href="#DejaVuSans-72" x="233.59375"/>
      <use xlink:href="#DejaVuSans-6f" x="272.457031"/>
      <use xlink:href="#DejaVuSans-6c" x="333.638672"/>
     </g>
    </g>
    <g id="line2d_24">
     <path d="M 393.260781 69.857031 
L 410.260781 69.857031 
L 427.260781 69.857031 
" style="fill: none; stroke: #ff0000; stroke-width: 1.5; stroke-linecap: square"/>
    </g>
    <g id="text_14">
     <!-- MS -->
     <g transform="translate(435.760781 75.807031) scale(0.17 -0.17)">
      <defs>
       <path id="DejaVuSans-4d" d="M 628 4666 
L 1569 4666 
L 2759 1491 
L 3956 4666 
L 4897 4666 
L 4897 0 
L 4281 0 
L 4281 4097 
L 3078 897 
L 2444 897 
L 1241 4097 
L 1241 0 
L 628 0 
L 628 4666 
z
" transform="scale(0.015625)"/>
      </defs>
      <use xlink:href="#DejaVuSans-4d"/>
      <use xlink:href="#DejaVuSans-53" x="86.279297"/>
     </g>
    </g>
   </g>
  </g>
 </g>
 <defs>
  <clipPath id="p1d4d8e0f60">
   <rect x="66.1025" y="22.636875" width="446.4" height="443.52"/>
  </clipPath>
 </defs>
</svg>
