<?xml version="1.0" encoding="utf-8" standalone="no"?>
<!DOCTYPE svg PUBLIC "-//W3C//DTD SVG 1.1//EN"
  "http://www.w3.org/Graphics/SVG/1.1/DTD/svg11.dtd">
<svg xmlns:xlink="http://www.w3.org/1999/xlink" width="898.5425pt" height="477.688281pt" viewBox="0 0 898.5425 477.688281" xmlns="http://www.w3.org/2000/svg" version="1.1">
 <metadata>
  <rdf:RDF xmlns:dc="http://purl.org/dc/elements/1.1/" xmlns:cc="http://creativecommons.org/ns#" xmlns:rdf="http://www.w3.org/1999/02/22-rdf-syntax-ns#">
   <cc:Work>
    <dc:type rdf:resource="http://purl.org/dc/dcmitype/StillImage"/>
    <dc:date>2022-09-21T11:11:54.153769</dc:date>
    <dc:format>image/svg+xml</dc:format>
    <dc:creator>
     <cc:Agent>
      <dc:title>Matplotlib v3.6.0, https://matplotlib.org/</dc:title>
     </cc:Agent>
    </dc:creator>
   </cc:Work>
  </rdf:RDF>
 </metadata>
 <defs>
  <style type="text/css">*{stroke-linejoin: round; stroke-linecap: butt}</style>
 </defs>
 <g id="figure_1">
  <g id="patch_1">
   <path d="M 0 477.688281 
L 898.5425 477.688281 
L 898.5425 0 
L 0 0 
L 0 477.688281 
z
" style="fill: none"/>
  </g>
  <g id="axes_1">
   <g id="text_1">
    <!-- Averaged structure factors and error ranges -->
    <g transform="translate(180.940156 21.955781) scale(0.27 -0.27)">
     <defs>
      <path id="DejaVuSans-41" d="M 2188 4044 
L 1331 1722 
L 3047 1722 
L 2188 4044 
z
M 1831 4666 
L 2547 4666 
L 4325 0 
L 3669 0 
L 3244 1197 
L 1141 1197 
L 716 0 
L 50 0 
L 1831 4666 
z
" transform="scale(0.015625)"/>
      <path id="DejaVuSans-76" d="M 191 3500 
L 800 3500 
L 1894 563 
L 2988 3500 
L 3597 3500 
L 2284 0 
L 1503 0 
L 191 3500 
z
" transform="scale(0.015625)"/>
      <path id="DejaVuSans-65" d="M 3597 1894 
L 3597 1613 
L 953 1613 
Q 991 1019 1311 708 
Q 1631 397 2203 397 
Q 2534 397 2845 478 
Q 3156 559 3463 722 
L 3463 178 
Q 3153 47 2828 -22 
Q 2503 -91 2169 -91 
Q 1331 -91 842 396 
Q 353 884 353 1716 
Q 353 2575 817 3079 
Q 1281 3584 2069 3584 
Q 2775 3584 3186 3129 
Q 3597 2675 3597 1894 
z
M 3022 2063 
Q 3016 2534 2758 2815 
Q 2500 3097 2075 3097 
Q 1594 3097 1305 2825 
Q 1016 2553 972 2059 
L 3022 2063 
z
" transform="scale(0.015625)"/>
      <path id="DejaVuSans-72" d="M 2631 2963 
Q 2534 3019 2420 3045 
Q 2306 3072 2169 3072 
Q 1681 3072 1420 2755 
Q 1159 2438 1159 1844 
L 1159 0 
L 581 0 
L 581 3500 
L 1159 3500 
L 1159 2956 
Q 1341 3275 1631 3429 
Q 1922 3584 2338 3584 
Q 2397 3584 2469 3576 
Q 2541 3569 2628 3553 
L 2631 2963 
z
" transform="scale(0.015625)"/>
      <path id="DejaVuSans-61" d="M 2194 1759 
Q 1497 1759 1228 1600 
Q 959 1441 959 1056 
Q 959 750 1161 570 
Q 1363 391 1709 391 
Q 2188 391 2477 730 
Q 2766 1069 2766 1631 
L 2766 1759 
L 2194 1759 
z
M 3341 1997 
L 3341 0 
L 2766 0 
L 2766 531 
Q 2569 213 2275 61 
Q 1981 -91 1556 -91 
Q 1019 -91 701 211 
Q 384 513 384 1019 
Q 384 1609 779 1909 
Q 1175 2209 1959 2209 
L 2766 2209 
L 2766 2266 
Q 2766 2663 2505 2880 
Q 2244 3097 1772 3097 
Q 1472 3097 1187 3025 
Q 903 2953 641 2809 
L 641 3341 
Q 956 3463 1253 3523 
Q 1550 3584 1831 3584 
Q 2591 3584 2966 3190 
Q 3341 2797 3341 1997 
z
" transform="scale(0.015625)"/>
      <path id="DejaVuSans-67" d="M 2906 1791 
Q 2906 2416 2648 2759 
Q 2391 3103 1925 3103 
Q 1463 3103 1205 2759 
Q 947 2416 947 1791 
Q 947 1169 1205 825 
Q 1463 481 1925 481 
Q 2391 481 2648 825 
Q 2906 1169 2906 1791 
z
M 3481 434 
Q 3481 -459 3084 -895 
Q 2688 -1331 1869 -1331 
Q 1566 -1331 1297 -1286 
Q 1028 -1241 775 -1147 
L 775 -588 
Q 1028 -725 1275 -790 
Q 1522 -856 1778 -856 
Q 2344 -856 2625 -561 
Q 2906 -266 2906 331 
L 2906 616 
Q 2728 306 2450 153 
Q 2172 0 1784 0 
Q 1141 0 747 490 
Q 353 981 353 1791 
Q 353 2603 747 3093 
Q 1141 3584 1784 3584 
Q 2172 3584 2450 3431 
Q 2728 3278 2906 2969 
L 2906 3500 
L 3481 3500 
L 3481 434 
z
" transform="scale(0.015625)"/>
      <path id="DejaVuSans-64" d="M 2906 2969 
L 2906 4863 
L 3481 4863 
L 3481 0 
L 2906 0 
L 2906 525 
Q 2725 213 2448 61 
Q 2172 -91 1784 -91 
Q 1150 -91 751 415 
Q 353 922 353 1747 
Q 353 2572 751 3078 
Q 1150 3584 1784 3584 
Q 2172 3584 2448 3432 
Q 2725 3281 2906 2969 
z
M 947 1747 
Q 947 1113 1208 752 
Q 1469 391 1925 391 
Q 2381 391 2643 752 
Q 2906 1113 2906 1747 
Q 2906 2381 2643 2742 
Q 2381 3103 1925 3103 
Q 1469 3103 1208 2742 
Q 947 2381 947 1747 
z
" transform="scale(0.015625)"/>
      <path id="DejaVuSans-20" transform="scale(0.015625)"/>
      <path id="DejaVuSans-73" d="M 2834 3397 
L 2834 2853 
Q 2591 2978 2328 3040 
Q 2066 3103 1784 3103 
Q 1356 3103 1142 2972 
Q 928 2841 928 2578 
Q 928 2378 1081 2264 
Q 1234 2150 1697 2047 
L 1894 2003 
Q 2506 1872 2764 1633 
Q 3022 1394 3022 966 
Q 3022 478 2636 193 
Q 2250 -91 1575 -91 
Q 1294 -91 989 -36 
Q 684 19 347 128 
L 347 722 
Q 666 556 975 473 
Q 1284 391 1588 391 
Q 1994 391 2212 530 
Q 2431 669 2431 922 
Q 2431 1156 2273 1281 
Q 2116 1406 1581 1522 
L 1381 1569 
Q 847 1681 609 1914 
Q 372 2147 372 2553 
Q 372 3047 722 3315 
Q 1072 3584 1716 3584 
Q 2034 3584 2315 3537 
Q 2597 3491 2834 3397 
z
" transform="scale(0.015625)"/>
      <path id="DejaVuSans-74" d="M 1172 4494 
L 1172 3500 
L 2356 3500 
L 2356 3053 
L 1172 3053 
L 1172 1153 
Q 1172 725 1289 603 
Q 1406 481 1766 481 
L 2356 481 
L 2356 0 
L 1766 0 
Q 1100 0 847 248 
Q 594 497 594 1153 
L 594 3053 
L 172 3053 
L 172 3500 
L 594 3500 
L 594 4494 
L 1172 4494 
z
" transform="scale(0.015625)"/>
      <path id="DejaVuSans-75" d="M 544 1381 
L 544 3500 
L 1119 3500 
L 1119 1403 
Q 1119 906 1312 657 
Q 1506 409 1894 409 
Q 2359 409 2629 706 
Q 2900 1003 2900 1516 
L 2900 3500 
L 3475 3500 
L 3475 0 
L 2900 0 
L 2900 538 
Q 2691 219 2414 64 
Q 2138 -91 1772 -91 
Q 1169 -91 856 284 
Q 544 659 544 1381 
z
M 1991 3584 
L 1991 3584 
z
" transform="scale(0.015625)"/>
      <path id="DejaVuSans-63" d="M 3122 3366 
L 3122 2828 
Q 2878 2963 2633 3030 
Q 2388 3097 2138 3097 
Q 1578 3097 1268 2742 
Q 959 2388 959 1747 
Q 959 1106 1268 751 
Q 1578 397 2138 397 
Q 2388 397 2633 464 
Q 2878 531 3122 666 
L 3122 134 
Q 2881 22 2623 -34 
Q 2366 -91 2075 -91 
Q 1284 -91 818 406 
Q 353 903 353 1747 
Q 353 2603 823 3093 
Q 1294 3584 2113 3584 
Q 2378 3584 2631 3529 
Q 2884 3475 3122 3366 
z
" transform="scale(0.015625)"/>
      <path id="DejaVuSans-66" d="M 2375 4863 
L 2375 4384 
L 1825 4384 
Q 1516 4384 1395 4259 
Q 1275 4134 1275 3809 
L 1275 3500 
L 2222 3500 
L 2222 3053 
L 1275 3053 
L 1275 0 
L 697 0 
L 697 3053 
L 147 3053 
L 147 3500 
L 697 3500 
L 697 3744 
Q 697 4328 969 4595 
Q 1241 4863 1831 4863 
L 2375 4863 
z
" transform="scale(0.015625)"/>
      <path id="DejaVuSans-6f" d="M 1959 3097 
Q 1497 3097 1228 2736 
Q 959 2375 959 1747 
Q 959 1119 1226 758 
Q 1494 397 1959 397 
Q 2419 397 2687 759 
Q 2956 1122 2956 1747 
Q 2956 2369 2687 2733 
Q 2419 3097 1959 3097 
z
M 1959 3584 
Q 2709 3584 3137 3096 
Q 3566 2609 3566 1747 
Q 3566 888 3137 398 
Q 2709 -91 1959 -91 
Q 1206 -91 779 398 
Q 353 888 353 1747 
Q 353 2609 779 3096 
Q 1206 3584 1959 3584 
z
" transform="scale(0.015625)"/>
      <path id="DejaVuSans-6e" d="M 3513 2113 
L 3513 0 
L 2938 0 
L 2938 2094 
Q 2938 2591 2744 2837 
Q 2550 3084 2163 3084 
Q 1697 3084 1428 2787 
Q 1159 2491 1159 1978 
L 1159 0 
L 581 0 
L 581 3500 
L 1159 3500 
L 1159 2956 
Q 1366 3272 1645 3428 
Q 1925 3584 2291 3584 
Q 2894 3584 3203 3211 
Q 3513 2838 3513 2113 
z
" transform="scale(0.015625)"/>
     </defs>
     <use xlink:href="#DejaVuSans-41"/>
     <use xlink:href="#DejaVuSans-76" x="62.533203"/>
     <use xlink:href="#DejaVuSans-65" x="121.712891"/>
     <use xlink:href="#DejaVuSans-72" x="183.236328"/>
     <use xlink:href="#DejaVuSans-61" x="224.349609"/>
     <use xlink:href="#DejaVuSans-67" x="285.628906"/>
     <use xlink:href="#DejaVuSans-65" x="349.105469"/>
     <use xlink:href="#DejaVuSans-64" x="410.628906"/>
     <use xlink:href="#DejaVuSans-20" x="474.105469"/>
     <use xlink:href="#DejaVuSans-73" x="505.892578"/>
     <use xlink:href="#DejaVuSans-74" x="557.992188"/>
     <use xlink:href="#DejaVuSans-72" x="597.201172"/>
     <use xlink:href="#DejaVuSans-75" x="638.314453"/>
     <use xlink:href="#DejaVuSans-63" x="701.693359"/>
     <use xlink:href="#DejaVuSans-74" x="756.673828"/>
     <use xlink:href="#DejaVuSans-75" x="795.882812"/>
     <use xlink:href="#DejaVuSans-72" x="859.261719"/>
     <use xlink:href="#DejaVuSans-65" x="898.125"/>
     <use xlink:href="#DejaVuSans-20" x="959.648438"/>
     <use xlink:href="#DejaVuSans-66" x="991.435547"/>
     <use xlink:href="#DejaVuSans-61" x="1026.640625"/>
     <use xlink:href="#DejaVuSans-63" x="1087.919922"/>
     <use xlink:href="#DejaVuSans-74" x="1142.900391"/>
     <use xlink:href="#DejaVuSans-6f" x="1182.109375"/>
     <use xlink:href="#DejaVuSans-72" x="1243.291016"/>
     <use xlink:href="#DejaVuSans-73" x="1284.404297"/>
     <use xlink:href="#DejaVuSans-20" x="1336.503906"/>
     <use xlink:href="#DejaVuSans-61" x="1368.291016"/>
     <use xlink:href="#DejaVuSans-6e" x="1429.570312"/>
     <use xlink:href="#DejaVuSans-64" x="1492.949219"/>
     <use xlink:href="#DejaVuSans-20" x="1556.425781"/>
     <use xlink:href="#DejaVuSans-65" x="1588.212891"/>
     <use xlink:href="#DejaVuSans-72" x="1649.736328"/>
     <use xlink:href="#DejaVuSans-72" x="1689.099609"/>
     <use xlink:href="#DejaVuSans-6f" x="1727.962891"/>
     <use xlink:href="#DejaVuSans-72" x="1789.144531"/>
     <use xlink:href="#DejaVuSans-20" x="1830.257812"/>
     <use xlink:href="#DejaVuSans-72" x="1862.044922"/>
     <use xlink:href="#DejaVuSans-61" x="1903.158203"/>
     <use xlink:href="#DejaVuSans-6e" x="1964.4375"/>
     <use xlink:href="#DejaVuSans-67" x="2027.816406"/>
     <use xlink:href="#DejaVuSans-65" x="2091.292969"/>
     <use xlink:href="#DejaVuSans-73" x="2152.816406"/>
    </g>
   </g>
  </g>
  <g id="axes_2">
   <g id="patch_2">
    <path d="M 60.1025 430.035781 
L 440.557045 430.035781 
L 440.557045 41.955781 
L 60.1025 41.955781 
L 60.1025 430.035781 
z
" style="fill: none"/>
   </g>
   <g id="PolyCollection_1">
    <path d="M 64.810298 -96679.981422 
L 64.810298 -111878.674054 
L 74.224097 -615.967338 
L 83.637897 -136.16229 
L 93.051696 47.935491 
L 102.465498 195.568918 
L 111.879297 298.396062 
L 121.293099 353.375065 
L 130.706897 378.482052 
L 140.120696 385.794655 
L 149.534495 380.064692 
L 158.9483 365.625296 
L 168.362099 342.769909 
L 177.775904 314.694467 
L 187.189703 278.232197 
L 196.603502 241.709561 
L 206.0173 200.048793 
L 215.431099 173.173821 
L 224.844898 164.419754 
L 234.258696 173.4508 
L 243.672495 195.043354 
L 253.086294 213.643763 
L 262.500106 230.154249 
L 271.913904 241.805744 
L 281.327716 250.879498 
L 290.741515 255.60493 
L 300.155313 258.539003 
L 309.569112 257.365151 
L 318.982911 254.839805 
L 328.39671 250.386635 
L 337.810508 245.733501 
L 347.224307 241.514043 
L 356.638106 238.739308 
L 366.051904 236.650745 
L 375.465703 236.256774 
L 384.879502 237.171309 
L 394.293327 237.971481 
L 403.707125 239.13189 
L 413.120924 240.217642 
L 422.534723 241.59239 
L 431.948521 241.850668 
L 441.36232 242.277368 
L 450.776119 243.045191 
L 460.189918 243.178996 
L 469.603716 243.414968 
L 479.017515 243.279629 
L 488.431314 243.047882 
L 497.845112 242.537885 
L 507.258885 242.866256 
L 516.67271 242.840823 
L 526.086483 242.914685 
L 535.500307 243.289712 
L 544.91408 243.464173 
L 554.327905 243.262986 
L 563.741678 243.577266 
L 573.155502 243.440157 
L 582.569275 242.895171 
L 591.9831 243.036634 
L 601.396872 242.626398 
L 610.810697 242.629918 
L 620.22447 242.520937 
L 629.638295 242.553382 
L 639.052067 242.591129 
L 648.465892 242.341081 
L 657.879717 242.764647 
L 667.293489 242.770746 
L 676.707314 242.976667 
L 686.121087 243.302979 
L 695.534912 243.483437 
L 704.948684 243.540753 
L 714.362509 243.517884 
L 723.776282 243.185223 
L 733.190106 243.045567 
L 742.603879 243.095776 
L 752.017704 243.034036 
L 761.431477 242.9848 
L 770.845301 242.498997 
L 780.259074 242.886598 
L 789.672899 242.837367 
L 799.086672 243.024333 
L 808.500496 242.70633 
L 817.914269 242.820014 
L 827.328094 243.040496 
L 836.741918 243.019643 
L 846.155691 242.476061 
L 855.569516 243.504796 
L 864.983289 243.196498 
L 874.397113 242.713059 
L 883.810886 243.001531 
L 893.224711 243.009739 
L 902.638483 243.459571 
L 912.052308 242.909921 
L 921.466081 242.043368 
L 930.879957 243.201991 
L 940.29373 242.314526 
L 949.707503 241.895296 
L 959.121379 240.512626 
L 968.535152 243.351084 
L 977.948925 243.174842 
L 987.362698 237.813286 
L 996.776574 246.486169 
L 996.776574 256.024721 
L 996.776574 256.024721 
L 987.362698 246.262181 
L 977.948925 245.044737 
L 968.535152 247.381926 
L 959.121379 242.486254 
L 949.707503 243.642295 
L 940.29373 244.267282 
L 930.879957 244.035161 
L 921.466081 242.743912 
L 912.052308 243.959898 
L 902.638483 243.785717 
L 893.224711 244.013505 
L 883.810886 243.446647 
L 874.397113 243.320479 
L 864.983289 243.673891 
L 855.569516 243.916828 
L 846.155691 242.816064 
L 836.741918 243.488351 
L 827.328094 243.287089 
L 817.914269 243.207626 
L 808.500496 243.167522 
L 799.086672 243.318 
L 789.672899 243.117191 
L 780.259074 243.172829 
L 770.845301 243.089798 
L 761.431477 243.244154 
L 752.017704 243.49317 
L 742.603879 243.507842 
L 733.190106 243.409551 
L 723.776282 243.586653 
L 714.362509 243.822647 
L 704.948684 243.844582 
L 695.534912 243.827924 
L 686.121087 243.74629 
L 676.707314 243.342612 
L 667.293489 243.206793 
L 657.879717 243.288883 
L 648.465892 242.633505 
L 639.052067 242.968863 
L 629.638295 242.922058 
L 620.22447 242.73531 
L 610.810697 242.835818 
L 601.396872 242.951643 
L 591.9831 243.340622 
L 582.569275 243.405188 
L 573.155502 244.020882 
L 563.741678 244.099008 
L 554.327905 243.816893 
L 544.91408 244.149721 
L 535.500307 243.973593 
L 526.086483 243.649975 
L 516.67271 243.693243 
L 507.258885 243.826412 
L 497.845112 243.222028 
L 488.431314 243.929346 
L 479.017515 244.088552 
L 469.603716 244.579477 
L 460.189918 244.645967 
L 450.776119 244.982473 
L 441.36232 244.699944 
L 431.948521 244.440034 
L 422.534723 243.870356 
L 413.120924 241.95211 
L 403.707125 240.79424 
L 394.293327 239.750599 
L 384.879502 239.761342 
L 375.465703 239.895179 
L 366.051904 241.292455 
L 356.638106 243.723357 
L 347.224307 246.409665 
L 337.810508 249.888907 
L 328.39671 253.996604 
L 318.982911 258.066385 
L 309.569112 261.817214 
L 300.155313 264.805235 
L 290.741515 264.142484 
L 281.327716 261.447833 
L 271.913904 253.775002 
L 262.500106 242.538745 
L 253.086294 226.03215 
L 243.672495 207.6789 
L 234.258696 189.20378 
L 224.844898 183.977534 
L 215.431099 194.17364 
L 206.0173 220.314922 
L 196.603502 260.015687 
L 187.189703 301.47615 
L 177.775904 340.525397 
L 168.362099 369.260895 
L 158.9483 389.082142 
L 149.534495 399.671452 
L 140.120696 400.712956 
L 130.706897 391.594381 
L 121.293099 370.402941 
L 111.879297 327.95535 
L 102.465498 244.141695 
L 93.051696 106.839369 
L 83.637897 -41.525114 
L 74.224097 -548.379474 
L 64.810298 -96679.981422 
z
" clip-path="url(#pacb0010460)" style="fill: #ff0000; fill-opacity: 0.3; stroke: #ff0000; stroke-opacity: 0.3"/>
   </g>
   <g id="patch_3">
    <path d="M 168.803799 271.929115 
L 277.505097 271.929115 
L 277.505097 156.942448 
L 168.803799 156.942448 
L 168.803799 271.929115 
z
" clip-path="url(#pacb0010460)" style="fill: none; stroke: #000000; stroke-linejoin: miter"/>
   </g>
   <g id="matplotlib.axis_1">
    <g id="xtick_1">
     <g id="line2d_1">
      <defs>
       <path id="mfd04074a43" d="M 0 0 
L 0 -6 
" style="stroke: #000000; stroke-width: 2"/>
      </defs>
      <g>
       <use xlink:href="#mfd04074a43" x="60.1025" y="430.035781" style="stroke: #000000; stroke-width: 2"/>
      </g>
     </g>
     <g id="text_2">
      <!-- 0 -->
      <g transform="translate(53.74 448.732656) scale(0.2 -0.2)">
       <defs>
        <path id="DejaVuSans-30" d="M 2034 4250 
Q 1547 4250 1301 3770 
Q 1056 3291 1056 2328 
Q 1056 1369 1301 889 
Q 1547 409 2034 409 
Q 2525 409 2770 889 
Q 3016 1369 3016 2328 
Q 3016 3291 2770 3770 
Q 2525 4250 2034 4250 
z
M 2034 4750 
Q 2819 4750 3233 4129 
Q 3647 3509 3647 2328 
Q 3647 1150 3233 529 
Q 2819 -91 2034 -91 
Q 1250 -91 836 529 
Q 422 1150 422 2328 
Q 422 3509 836 4129 
Q 1250 4750 2034 4750 
z
" transform="scale(0.015625)"/>
       </defs>
       <use xlink:href="#DejaVuSans-30"/>
      </g>
     </g>
    </g>
    <g id="xtick_2">
     <g id="line2d_2">
      <g>
       <use xlink:href="#mfd04074a43" x="168.803799" y="430.035781" style="stroke: #000000; stroke-width: 2"/>
      </g>
     </g>
     <g id="text_3">
      <!-- 1 -->
      <g transform="translate(162.441299 448.732656) scale(0.2 -0.2)">
       <defs>
        <path id="DejaVuSans-31" d="M 794 531 
L 1825 531 
L 1825 4091 
L 703 3866 
L 703 4441 
L 1819 4666 
L 2450 4666 
L 2450 531 
L 3481 531 
L 3481 0 
L 794 0 
L 794 531 
z
" transform="scale(0.015625)"/>
       </defs>
       <use xlink:href="#DejaVuSans-31"/>
      </g>
     </g>
    </g>
    <g id="xtick_3">
     <g id="line2d_3">
      <g>
       <use xlink:href="#mfd04074a43" x="277.505097" y="430.035781" style="stroke: #000000; stroke-width: 2"/>
      </g>
     </g>
     <g id="text_4">
      <!-- 2 -->
      <g transform="translate(271.142597 448.732656) scale(0.2 -0.2)">
       <defs>
        <path id="DejaVuSans-32" d="M 1228 531 
L 3431 531 
L 3431 0 
L 469 0 
L 469 531 
Q 828 903 1448 1529 
Q 2069 2156 2228 2338 
Q 2531 2678 2651 2914 
Q 2772 3150 2772 3378 
Q 2772 3750 2511 3984 
Q 2250 4219 1831 4219 
Q 1534 4219 1204 4116 
Q 875 4013 500 3803 
L 500 4441 
Q 881 4594 1212 4672 
Q 1544 4750 1819 4750 
Q 2544 4750 2975 4387 
Q 3406 4025 3406 3419 
Q 3406 3131 3298 2873 
Q 3191 2616 2906 2266 
Q 2828 2175 2409 1742 
Q 1991 1309 1228 531 
z
" transform="scale(0.015625)"/>
       </defs>
       <use xlink:href="#DejaVuSans-32"/>
      </g>
     </g>
    </g>
    <g id="xtick_4">
     <g id="line2d_4">
      <g>
       <use xlink:href="#mfd04074a43" x="386.206396" y="430.035781" style="stroke: #000000; stroke-width: 2"/>
      </g>
     </g>
     <g id="text_5">
      <!-- 3 -->
      <g transform="translate(379.843896 448.732656) scale(0.2 -0.2)">
       <defs>
        <path id="DejaVuSans-33" d="M 2597 2516 
Q 3050 2419 3304 2112 
Q 3559 1806 3559 1356 
Q 3559 666 3084 287 
Q 2609 -91 1734 -91 
Q 1441 -91 1130 -33 
Q 819 25 488 141 
L 488 750 
Q 750 597 1062 519 
Q 1375 441 1716 441 
Q 2309 441 2620 675 
Q 2931 909 2931 1356 
Q 2931 1769 2642 2001 
Q 2353 2234 1838 2234 
L 1294 2234 
L 1294 2753 
L 1863 2753 
Q 2328 2753 2575 2939 
Q 2822 3125 2822 3475 
Q 2822 3834 2567 4026 
Q 2313 4219 1838 4219 
Q 1578 4219 1281 4162 
Q 984 4106 628 3988 
L 628 4550 
Q 988 4650 1302 4700 
Q 1616 4750 1894 4750 
Q 2613 4750 3031 4423 
Q 3450 4097 3450 3541 
Q 3450 3153 3228 2886 
Q 3006 2619 2597 2516 
z
" transform="scale(0.015625)"/>
       </defs>
       <use xlink:href="#DejaVuSans-33"/>
      </g>
     </g>
    </g>
    <g id="text_6">
     <!-- Wavenumber q  [1/μm] -->
     <g transform="translate(134.331335 472.088906) scale(0.2 -0.2)">
      <defs>
       <path id="DejaVuSans-57" d="M 213 4666 
L 850 4666 
L 1831 722 
L 2809 4666 
L 3519 4666 
L 4500 722 
L 5478 4666 
L 6119 4666 
L 4947 0 
L 4153 0 
L 3169 4050 
L 2175 0 
L 1381 0 
L 213 4666 
z
" transform="scale(0.015625)"/>
       <path id="DejaVuSans-6d" d="M 3328 2828 
Q 3544 3216 3844 3400 
Q 4144 3584 4550 3584 
Q 5097 3584 5394 3201 
Q 5691 2819 5691 2113 
L 5691 0 
L 5113 0 
L 5113 2094 
Q 5113 2597 4934 2840 
Q 4756 3084 4391 3084 
Q 3944 3084 3684 2787 
Q 3425 2491 3425 1978 
L 3425 0 
L 2847 0 
L 2847 2094 
Q 2847 2600 2669 2842 
Q 2491 3084 2119 3084 
Q 1678 3084 1418 2786 
Q 1159 2488 1159 1978 
L 1159 0 
L 581 0 
L 581 3500 
L 1159 3500 
L 1159 2956 
Q 1356 3278 1631 3431 
Q 1906 3584 2284 3584 
Q 2666 3584 2933 3390 
Q 3200 3197 3328 2828 
z
" transform="scale(0.015625)"/>
       <path id="DejaVuSans-62" d="M 3116 1747 
Q 3116 2381 2855 2742 
Q 2594 3103 2138 3103 
Q 1681 3103 1420 2742 
Q 1159 2381 1159 1747 
Q 1159 1113 1420 752 
Q 1681 391 2138 391 
Q 2594 391 2855 752 
Q 3116 1113 3116 1747 
z
M 1159 2969 
Q 1341 3281 1617 3432 
Q 1894 3584 2278 3584 
Q 2916 3584 3314 3078 
Q 3713 2572 3713 1747 
Q 3713 922 3314 415 
Q 2916 -91 2278 -91 
Q 1894 -91 1617 61 
Q 1341 213 1159 525 
L 1159 0 
L 581 0 
L 581 4863 
L 1159 4863 
L 1159 2969 
z
" transform="scale(0.015625)"/>
       <path id="DejaVuSans-71" d="M 947 1747 
Q 947 1113 1208 752 
Q 1469 391 1925 391 
Q 2381 391 2643 752 
Q 2906 1113 2906 1747 
Q 2906 2381 2643 2742 
Q 2381 3103 1925 3103 
Q 1469 3103 1208 2742 
Q 947 2381 947 1747 
z
M 2906 525 
Q 2725 213 2448 61 
Q 2172 -91 1784 -91 
Q 1150 -91 751 415 
Q 353 922 353 1747 
Q 353 2572 751 3078 
Q 1150 3584 1784 3584 
Q 2172 3584 2448 3432 
Q 2725 3281 2906 2969 
L 2906 3500 
L 3481 3500 
L 3481 -1331 
L 2906 -1331 
L 2906 525 
z
" transform="scale(0.015625)"/>
       <path id="DejaVuSans-5b" d="M 550 4863 
L 1875 4863 
L 1875 4416 
L 1125 4416 
L 1125 -397 
L 1875 -397 
L 1875 -844 
L 550 -844 
L 550 4863 
z
" transform="scale(0.015625)"/>
       <path id="DejaVuSans-2f" d="M 1625 4666 
L 2156 4666 
L 531 -594 
L 0 -594 
L 1625 4666 
z
" transform="scale(0.015625)"/>
       <path id="DejaVuSans-3bc" d="M 544 -1331 
L 544 3500 
L 1119 3500 
L 1119 1325 
Q 1119 872 1334 640 
Q 1550 409 1972 409 
Q 2434 409 2667 671 
Q 2900 934 2900 1459 
L 2900 3500 
L 3475 3500 
L 3475 806 
Q 3475 619 3529 530 
Q 3584 441 3700 441 
Q 3728 441 3778 458 
Q 3828 475 3916 513 
L 3916 50 
Q 3788 -22 3673 -56 
Q 3559 -91 3450 -91 
Q 3234 -91 3106 31 
Q 2978 153 2931 403 
Q 2775 156 2548 32 
Q 2322 -91 2016 -91 
Q 1697 -91 1473 31 
Q 1250 153 1119 397 
L 1119 -1331 
L 544 -1331 
z
" transform="scale(0.015625)"/>
       <path id="DejaVuSans-5d" d="M 1947 4863 
L 1947 -844 
L 622 -844 
L 622 -397 
L 1369 -397 
L 1369 4416 
L 622 4416 
L 622 4863 
L 1947 4863 
z
" transform="scale(0.015625)"/>
      </defs>
      <use xlink:href="#DejaVuSans-57"/>
      <use xlink:href="#DejaVuSans-61" x="92.501953"/>
      <use xlink:href="#DejaVuSans-76" x="153.78125"/>
      <use xlink:href="#DejaVuSans-65" x="212.960938"/>
      <use xlink:href="#DejaVuSans-6e" x="274.484375"/>
      <use xlink:href="#DejaVuSans-75" x="337.863281"/>
      <use xlink:href="#DejaVuSans-6d" x="401.242188"/>
      <use xlink:href="#DejaVuSans-62" x="498.654297"/>
      <use xlink:href="#DejaVuSans-65" x="562.130859"/>
      <use xlink:href="#DejaVuSans-72" x="623.654297"/>
      <use xlink:href="#DejaVuSans-20" x="664.767578"/>
      <use xlink:href="#DejaVuSans-71" x="696.554688"/>
      <use xlink:href="#DejaVuSans-20" x="760.03125"/>
      <use xlink:href="#DejaVuSans-20" x="791.818359"/>
      <use xlink:href="#DejaVuSans-5b" x="823.605469"/>
      <use xlink:href="#DejaVuSans-31" x="862.619141"/>
      <use xlink:href="#DejaVuSans-2f" x="926.242188"/>
      <use xlink:href="#DejaVuSans-3bc" x="959.933594"/>
      <use xlink:href="#DejaVuSans-6d" x="1023.556641"/>
      <use xlink:href="#DejaVuSans-5d" x="1120.96875"/>
     </g>
    </g>
   </g>
   <g id="matplotlib.axis_2">
    <g id="ytick_1">
     <g id="line2d_5">
      <defs>
       <path id="m0c6f124392" d="M 0 0 
L 6 0 
" style="stroke: #000000; stroke-width: 2"/>
      </defs>
      <g>
       <use xlink:href="#m0c6f124392" x="60.1025" y="415.662448" style="stroke: #000000; stroke-width: 2"/>
      </g>
     </g>
     <g id="text_7">
      <!-- 0.4 -->
      <g transform="translate(24.79625 423.260885) scale(0.2 -0.2)">
       <defs>
        <path id="DejaVuSans-2e" d="M 684 794 
L 1344 794 
L 1344 0 
L 684 0 
L 684 794 
z
" transform="scale(0.015625)"/>
        <path id="DejaVuSans-34" d="M 2419 4116 
L 825 1625 
L 2419 1625 
L 2419 4116 
z
M 2253 4666 
L 3047 4666 
L 3047 1625 
L 3713 1625 
L 3713 1100 
L 3047 1100 
L 3047 0 
L 2419 0 
L 2419 1100 
L 313 1100 
L 313 1709 
L 2253 4666 
z
" transform="scale(0.015625)"/>
       </defs>
       <use xlink:href="#DejaVuSans-30"/>
       <use xlink:href="#DejaVuSans-2e" x="63.623047"/>
       <use xlink:href="#DejaVuSans-34" x="95.410156"/>
      </g>
     </g>
    </g>
    <g id="ytick_2">
     <g id="line2d_6">
      <g>
       <use xlink:href="#m0c6f124392" x="60.1025" y="329.422448" style="stroke: #000000; stroke-width: 2"/>
      </g>
     </g>
     <g id="text_8">
      <!-- 0.7 -->
      <g transform="translate(24.79625 337.020885) scale(0.2 -0.2)">
       <defs>
        <path id="DejaVuSans-37" d="M 525 4666 
L 3525 4666 
L 3525 4397 
L 1831 0 
L 1172 0 
L 2766 4134 
L 525 4134 
L 525 4666 
z
" transform="scale(0.015625)"/>
       </defs>
       <use xlink:href="#DejaVuSans-30"/>
       <use xlink:href="#DejaVuSans-2e" x="63.623047"/>
       <use xlink:href="#DejaVuSans-37" x="95.410156"/>
      </g>
     </g>
    </g>
    <g id="ytick_3">
     <g id="line2d_7">
      <g>
       <use xlink:href="#m0c6f124392" x="60.1025" y="243.182448" style="stroke: #000000; stroke-width: 2"/>
      </g>
     </g>
     <g id="text_9">
      <!-- 1.0 -->
      <g transform="translate(24.79625 250.780885) scale(0.2 -0.2)">
       <use xlink:href="#DejaVuSans-31"/>
       <use xlink:href="#DejaVuSans-2e" x="63.623047"/>
       <use xlink:href="#DejaVuSans-30" x="95.410156"/>
      </g>
     </g>
    </g>
    <g id="ytick_4">
     <g id="line2d_8">
      <g>
       <use xlink:href="#m0c6f124392" x="60.1025" y="156.942448" style="stroke: #000000; stroke-width: 2"/>
      </g>
     </g>
     <g id="text_10">
      <!-- 1.3 -->
      <g transform="translate(24.79625 164.540885) scale(0.2 -0.2)">
       <use xlink:href="#DejaVuSans-31"/>
       <use xlink:href="#DejaVuSans-2e" x="63.623047"/>
       <use xlink:href="#DejaVuSans-33" x="95.410156"/>
      </g>
     </g>
    </g>
    <g id="ytick_5">
     <g id="line2d_9">
      <g>
       <use xlink:href="#m0c6f124392" x="60.1025" y="70.702448" style="stroke: #000000; stroke-width: 2"/>
      </g>
     </g>
     <g id="text_11">
      <!-- 1.6 -->
      <g transform="translate(24.79625 78.300885) scale(0.2 -0.2)">
       <defs>
        <path id="DejaVuSans-36" d="M 2113 2584 
Q 1688 2584 1439 2293 
Q 1191 2003 1191 1497 
Q 1191 994 1439 701 
Q 1688 409 2113 409 
Q 2538 409 2786 701 
Q 3034 994 3034 1497 
Q 3034 2003 2786 2293 
Q 2538 2584 2113 2584 
z
M 3366 4563 
L 3366 3988 
Q 3128 4100 2886 4159 
Q 2644 4219 2406 4219 
Q 1781 4219 1451 3797 
Q 1122 3375 1075 2522 
Q 1259 2794 1537 2939 
Q 1816 3084 2150 3084 
Q 2853 3084 3261 2657 
Q 3669 2231 3669 1497 
Q 3669 778 3244 343 
Q 2819 -91 2113 -91 
Q 1303 -91 875 529 
Q 447 1150 447 2328 
Q 447 3434 972 4092 
Q 1497 4750 2381 4750 
Q 2619 4750 2861 4703 
Q 3103 4656 3366 4563 
z
" transform="scale(0.015625)"/>
       </defs>
       <use xlink:href="#DejaVuSans-31"/>
       <use xlink:href="#DejaVuSans-2e" x="63.623047"/>
       <use xlink:href="#DejaVuSans-36" x="95.410156"/>
      </g>
     </g>
    </g>
    <g id="text_12">
     <!-- Amplitude of S(q) -->
     <g transform="translate(16.636875 323.736406) rotate(-90) scale(0.2 -0.2)">
      <defs>
       <path id="DejaVuSans-70" d="M 1159 525 
L 1159 -1331 
L 581 -1331 
L 581 3500 
L 1159 3500 
L 1159 2969 
Q 1341 3281 1617 3432 
Q 1894 3584 2278 3584 
Q 2916 3584 3314 3078 
Q 3713 2572 3713 1747 
Q 3713 922 3314 415 
Q 2916 -91 2278 -91 
Q 1894 -91 1617 61 
Q 1341 213 1159 525 
z
M 3116 1747 
Q 3116 2381 2855 2742 
Q 2594 3103 2138 3103 
Q 1681 3103 1420 2742 
Q 1159 2381 1159 1747 
Q 1159 1113 1420 752 
Q 1681 391 2138 391 
Q 2594 391 2855 752 
Q 3116 1113 3116 1747 
z
" transform="scale(0.015625)"/>
       <path id="DejaVuSans-6c" d="M 603 4863 
L 1178 4863 
L 1178 0 
L 603 0 
L 603 4863 
z
" transform="scale(0.015625)"/>
       <path id="DejaVuSans-69" d="M 603 3500 
L 1178 3500 
L 1178 0 
L 603 0 
L 603 3500 
z
M 603 4863 
L 1178 4863 
L 1178 4134 
L 603 4134 
L 603 4863 
z
" transform="scale(0.015625)"/>
       <path id="DejaVuSans-53" d="M 3425 4513 
L 3425 3897 
Q 3066 4069 2747 4153 
Q 2428 4238 2131 4238 
Q 1616 4238 1336 4038 
Q 1056 3838 1056 3469 
Q 1056 3159 1242 3001 
Q 1428 2844 1947 2747 
L 2328 2669 
Q 3034 2534 3370 2195 
Q 3706 1856 3706 1288 
Q 3706 609 3251 259 
Q 2797 -91 1919 -91 
Q 1588 -91 1214 -16 
Q 841 59 441 206 
L 441 856 
Q 825 641 1194 531 
Q 1563 422 1919 422 
Q 2459 422 2753 634 
Q 3047 847 3047 1241 
Q 3047 1584 2836 1778 
Q 2625 1972 2144 2069 
L 1759 2144 
Q 1053 2284 737 2584 
Q 422 2884 422 3419 
Q 422 4038 858 4394 
Q 1294 4750 2059 4750 
Q 2388 4750 2728 4690 
Q 3069 4631 3425 4513 
z
" transform="scale(0.015625)"/>
       <path id="DejaVuSans-28" d="M 1984 4856 
Q 1566 4138 1362 3434 
Q 1159 2731 1159 2009 
Q 1159 1288 1364 580 
Q 1569 -128 1984 -844 
L 1484 -844 
Q 1016 -109 783 600 
Q 550 1309 550 2009 
Q 550 2706 781 3412 
Q 1013 4119 1484 4856 
L 1984 4856 
z
" transform="scale(0.015625)"/>
       <path id="DejaVuSans-29" d="M 513 4856 
L 1013 4856 
Q 1481 4119 1714 3412 
Q 1947 2706 1947 2009 
Q 1947 1309 1714 600 
Q 1481 -109 1013 -844 
L 513 -844 
Q 928 -128 1133 580 
Q 1338 1288 1338 2009 
Q 1338 2731 1133 3434 
Q 928 4138 513 4856 
z
" transform="scale(0.015625)"/>
      </defs>
      <use xlink:href="#DejaVuSans-41"/>
      <use xlink:href="#DejaVuSans-6d" x="68.408203"/>
      <use xlink:href="#DejaVuSans-70" x="165.820312"/>
      <use xlink:href="#DejaVuSans-6c" x="229.296875"/>
      <use xlink:href="#DejaVuSans-69" x="257.080078"/>
      <use xlink:href="#DejaVuSans-74" x="284.863281"/>
      <use xlink:href="#DejaVuSans-75" x="324.072266"/>
      <use xlink:href="#DejaVuSans-64" x="387.451172"/>
      <use xlink:href="#DejaVuSans-65" x="450.927734"/>
      <use xlink:href="#DejaVuSans-20" x="512.451172"/>
      <use xlink:href="#DejaVuSans-6f" x="544.238281"/>
      <use xlink:href="#DejaVuSans-66" x="605.419922"/>
      <use xlink:href="#DejaVuSans-20" x="640.625"/>
      <use xlink:href="#DejaVuSans-53" x="672.412109"/>
      <use xlink:href="#DejaVuSans-28" x="735.888672"/>
      <use xlink:href="#DejaVuSans-71" x="774.902344"/>
      <use xlink:href="#DejaVuSans-29" x="838.378906"/>
     </g>
    </g>
   </g>
   <g id="line2d_10">
    <path d="M 88.612555 -1 
L 93.051696 77.38743 
L 102.465498 219.855307 
L 111.879297 313.175706 
L 121.293099 361.889003 
L 130.706897 385.038216 
L 140.120696 393.253805 
L 149.534495 389.868072 
L 158.9483 377.353719 
L 168.362099 356.015402 
L 177.775904 327.609932 
L 187.189703 289.854173 
L 196.603502 250.862624 
L 206.0173 210.181858 
L 215.431099 183.67373 
L 224.844898 174.198644 
L 234.258696 181.32729 
L 243.672495 201.361127 
L 253.086294 219.837956 
L 262.500106 236.346497 
L 271.913904 247.790373 
L 281.327716 256.163666 
L 290.741515 259.873707 
L 300.155313 261.672119 
L 309.569112 259.591183 
L 318.982911 256.453095 
L 328.39671 252.191619 
L 337.810508 247.811204 
L 347.224307 243.961854 
L 356.638106 241.231333 
L 366.051904 238.9716 
L 375.465703 238.075976 
L 384.879502 238.466325 
L 394.293327 238.86104 
L 403.707125 239.963065 
L 413.120924 241.084876 
L 422.534723 242.731373 
L 431.948521 243.145351 
L 441.36232 243.488656 
L 450.776119 244.013832 
L 460.189918 243.912482 
L 469.603716 243.997222 
L 479.017515 243.68409 
L 488.431314 243.488614 
L 497.845112 242.879957 
L 507.258885 243.346334 
L 516.67271 243.267033 
L 526.086483 243.28233 
L 535.500307 243.631653 
L 544.91408 243.806947 
L 554.327905 243.539939 
L 563.741678 243.838137 
L 573.155502 243.730519 
L 582.569275 243.15018 
L 591.9831 243.188628 
L 601.396872 242.789021 
L 610.810697 242.732868 
L 620.22447 242.628123 
L 629.638295 242.73772 
L 639.052067 242.779996 
L 648.465892 242.487293 
L 657.879717 243.026765 
L 667.293489 242.98877 
L 676.707314 243.159639 
L 686.121087 243.524634 
L 695.534912 243.65568 
L 704.948684 243.692667 
L 714.362509 243.670265 
L 723.776282 243.385938 
L 733.190106 243.227559 
L 742.603879 243.301809 
L 752.017704 243.263603 
L 761.431477 243.114477 
L 770.845301 242.794397 
L 780.259074 243.029714 
L 789.672899 242.977279 
L 799.086672 243.171166 
L 808.500496 242.936926 
L 817.914269 243.01382 
L 827.328094 243.163792 
L 836.741918 243.253997 
L 846.155691 242.646063 
L 855.569516 243.710812 
L 864.983289 243.435194 
L 874.397113 243.016769 
L 883.810886 243.224089 
L 893.224711 243.511622 
L 899.5425 243.586131 
" clip-path="url(#pacb0010460)" style="fill: none; stroke: #ff0000; stroke-width: 1.7; stroke-linecap: square"/>
   </g>
   <g id="line2d_11">
    <path d="M 60.1025 243.182448 
L 440.557045 243.182448 
" clip-path="url(#pacb0010460)" style="fill: none; stroke-dasharray: 6.29,2.72; stroke-dashoffset: 0; stroke: #000000; stroke-width: 1.7"/>
   </g>
   <g id="line2d_12">
    <path d="M 90.307065 -1 
L 93.051696 61.552928 
L 102.465498 216.394312 
L 111.879297 308.234006 
L 121.293099 357.289002 
L 130.706897 380.886527 
L 140.120696 387.117286 
L 149.534495 383.366243 
L 158.9483 370.730482 
L 168.362099 348.559382 
L 177.775904 315.018288 
L 187.189703 274.438447 
L 196.603502 233.144318 
L 206.0173 199.894436 
L 215.431099 183.011696 
L 224.844898 181.6118 
L 234.258696 191.351706 
L 243.672495 209.622338 
L 253.086294 225.825928 
L 262.500106 240.50709 
L 271.913904 251.393738 
L 281.327716 258.658338 
L 290.741515 262.383716 
L 300.155313 261.748902 
L 309.569112 259.048683 
L 318.982911 254.63168 
L 328.39671 249.896327 
L 337.810508 244.965525 
L 347.224307 240.741266 
L 356.638106 238.057002 
L 366.051904 237.395675 
L 375.465703 237.498325 
L 384.879502 238.480004 
L 394.293327 239.346236 
L 403.707125 240.871529 
L 413.120924 242.947725 
L 422.534723 243.59166 
L 431.948521 244.448303 
L 441.36232 244.471771 
L 450.776119 244.215599 
L 460.189918 244.117113 
L 469.603716 243.759882 
L 479.017515 243.456589 
L 488.431314 243.114327 
L 497.845112 243.084457 
L 507.258885 243.288473 
L 516.67271 243.590782 
L 526.086483 243.413233 
L 535.500307 243.111992 
L 544.91408 243.683478 
L 554.327905 243.206276 
L 563.741678 243.282254 
L 573.155502 243.246713 
L 582.569275 242.941315 
L 591.9831 242.801127 
L 601.396872 243.050481 
L 610.810697 242.837397 
L 620.22447 242.917417 
L 629.638295 243.076259 
L 639.052067 242.920196 
L 648.465892 243.188533 
L 657.879717 243.228216 
L 667.293489 243.605937 
L 676.707314 243.525234 
L 686.121087 243.430587 
L 695.534912 243.623696 
L 704.948684 243.279657 
L 714.362509 242.96291 
L 723.776282 243.002971 
L 733.190106 242.98394 
L 742.603879 243.090996 
L 752.017704 243.121719 
L 761.431477 242.820795 
L 770.845301 242.85201 
L 780.259074 243.217166 
L 789.672899 243.340173 
L 799.086672 243.387416 
L 808.500496 243.071271 
L 817.914269 243.505188 
L 827.328094 243.112692 
L 836.741918 243.12955 
L 846.155691 242.97379 
L 855.569516 243.254225 
L 864.983289 243.413187 
L 874.397113 243.074143 
L 883.810886 243.29999 
L 893.224711 243.345627 
L 899.5425 243.552487 
" clip-path="url(#pacb0010460)" style="fill: none; stroke: #0000ff; stroke-width: 1.7; stroke-linecap: square"/>
   </g>
   <g id="patch_4">
    <path d="M 60.1025 430.035781 
L 60.1025 41.955781 
" style="fill: none; stroke: #000000; stroke-width: 2; stroke-linejoin: miter; stroke-linecap: square"/>
   </g>
   <g id="patch_5">
    <path d="M 440.557045 430.035781 
L 440.557045 41.955781 
" style="fill: none; stroke: #000000; stroke-width: 2; stroke-linejoin: miter; stroke-linecap: square"/>
   </g>
   <g id="patch_6">
    <path d="M 60.1025 430.035781 
L 440.557045 430.035781 
" style="fill: none; stroke: #000000; stroke-width: 2; stroke-linejoin: miter; stroke-linecap: square"/>
   </g>
   <g id="patch_7">
    <path d="M 60.1025 41.955781 
L 440.557045 41.955781 
" style="fill: none; stroke: #000000; stroke-width: 2; stroke-linejoin: miter; stroke-linecap: square"/>
   </g>
   <g id="legend_1">
    <g id="patch_8">
     <path d="M 327.220483 114.803906 
L 433.557045 114.803906 
L 433.557045 48.955781 
L 327.220483 48.955781 
z
" style="fill: #ffffff; opacity: 0.8; stroke: #000000; stroke-linejoin: miter"/>
    </g>
    <g id="line2d_13">
     <path d="M 332.820483 60.293594 
L 360.820483 60.293594 
" style="fill: none; stroke: #0000ff; stroke-width: 1.7; stroke-linecap: square"/>
    </g>
    <g id="line2d_14"/>
    <g id="text_13">
     <!-- CTRL -->
     <g transform="translate(367.820483 65.193594) scale(0.14 -0.14)">
      <defs>
       <path id="DejaVuSans-43" d="M 4122 4306 
L 4122 3641 
Q 3803 3938 3442 4084 
Q 3081 4231 2675 4231 
Q 1875 4231 1450 3742 
Q 1025 3253 1025 2328 
Q 1025 1406 1450 917 
Q 1875 428 2675 428 
Q 3081 428 3442 575 
Q 3803 722 4122 1019 
L 4122 359 
Q 3791 134 3420 21 
Q 3050 -91 2638 -91 
Q 1578 -91 968 557 
Q 359 1206 359 2328 
Q 359 3453 968 4101 
Q 1578 4750 2638 4750 
Q 3056 4750 3426 4639 
Q 3797 4528 4122 4306 
z
" transform="scale(0.015625)"/>
       <path id="DejaVuSans-54" d="M -19 4666 
L 3928 4666 
L 3928 4134 
L 2272 4134 
L 2272 0 
L 1638 0 
L 1638 4134 
L -19 4134 
L -19 4666 
z
" transform="scale(0.015625)"/>
       <path id="DejaVuSans-52" d="M 2841 2188 
Q 3044 2119 3236 1894 
Q 3428 1669 3622 1275 
L 4263 0 
L 3584 0 
L 2988 1197 
Q 2756 1666 2539 1819 
Q 2322 1972 1947 1972 
L 1259 1972 
L 1259 0 
L 628 0 
L 628 4666 
L 2053 4666 
Q 2853 4666 3247 4331 
Q 3641 3997 3641 3322 
Q 3641 2881 3436 2590 
Q 3231 2300 2841 2188 
z
M 1259 4147 
L 1259 2491 
L 2053 2491 
Q 2509 2491 2742 2702 
Q 2975 2913 2975 3322 
Q 2975 3731 2742 3939 
Q 2509 4147 2053 4147 
L 1259 4147 
z
" transform="scale(0.015625)"/>
       <path id="DejaVuSans-4c" d="M 628 4666 
L 1259 4666 
L 1259 531 
L 3531 531 
L 3531 0 
L 628 0 
L 628 4666 
z
" transform="scale(0.015625)"/>
      </defs>
      <use xlink:href="#DejaVuSans-43"/>
      <use xlink:href="#DejaVuSans-54" x="69.824219"/>
      <use xlink:href="#DejaVuSans-52" x="130.908203"/>
      <use xlink:href="#DejaVuSans-4c" x="200.390625"/>
     </g>
    </g>
    <g id="line2d_15">
     <path d="M 332.820483 80.842969 
L 360.820483 80.842969 
" style="fill: none; stroke: #ff0000; stroke-width: 1.7; stroke-linecap: square"/>
    </g>
    <g id="line2d_16"/>
    <g id="text_14">
     <!-- MS -->
     <g transform="translate(367.820483 85.742969) scale(0.14 -0.14)">
      <defs>
       <path id="DejaVuSans-4d" d="M 628 4666 
L 1569 4666 
L 2759 1491 
L 3956 4666 
L 4897 4666 
L 4897 0 
L 4281 0 
L 4281 4097 
L 3078 897 
L 2444 897 
L 1241 4097 
L 1241 0 
L 628 0 
L 628 4666 
z
" transform="scale(0.015625)"/>
      </defs>
      <use xlink:href="#DejaVuSans-4d"/>
      <use xlink:href="#DejaVuSans-53" x="86.279297"/>
     </g>
    </g>
    <g id="patch_9">
     <path d="M 332.820483 106.292344 
L 360.820483 106.292344 
L 360.820483 96.492344 
L 332.820483 96.492344 
z
" style="fill: #ff0000; fill-opacity: 0.3; stroke: #ff0000; stroke-opacity: 0.3; stroke-linejoin: miter"/>
    </g>
    <g id="text_15">
     <!-- MS-Error -->
     <g transform="translate(367.820483 106.292344) scale(0.14 -0.14)">
      <defs>
       <path id="DejaVuSans-2d" d="M 313 2009 
L 1997 2009 
L 1997 1497 
L 313 1497 
L 313 2009 
z
" transform="scale(0.015625)"/>
       <path id="DejaVuSans-45" d="M 628 4666 
L 3578 4666 
L 3578 4134 
L 1259 4134 
L 1259 2753 
L 3481 2753 
L 3481 2222 
L 1259 2222 
L 1259 531 
L 3634 531 
L 3634 0 
L 628 0 
L 628 4666 
z
" transform="scale(0.015625)"/>
      </defs>
      <use xlink:href="#DejaVuSans-4d"/>
      <use xlink:href="#DejaVuSans-53" x="86.279297"/>
      <use xlink:href="#DejaVuSans-2d" x="149.755859"/>
      <use xlink:href="#DejaVuSans-45" x="185.839844"/>
      <use xlink:href="#DejaVuSans-72" x="249.023438"/>
      <use xlink:href="#DejaVuSans-72" x="288.386719"/>
      <use xlink:href="#DejaVuSans-6f" x="327.25"/>
      <use xlink:href="#DejaVuSans-72" x="388.431641"/>
     </g>
    </g>
   </g>
  </g>
  <g id="axes_3">
   <g id="patch_10">
    <path d="M 516.647955 430.035781 
L 897.1025 430.035781 
L 897.1025 41.955781 
L 516.647955 41.955781 
L 516.647955 430.035781 
z
" style="fill: none"/>
   </g>
   <g id="PolyCollection_2">
    <path d="M 521.355752 -86079.238697 
L 521.355752 -93415.94596 
L 530.769552 -636.943798 
L 540.183352 -190.770601 
L 549.597151 30.128607 
L 559.010953 196.089779 
L 568.424751 292.670075 
L 577.838553 346.272915 
L 587.252352 372.77696 
L 596.666151 381.042919 
L 606.079949 378.496247 
L 615.493755 365.831991 
L 624.907553 342.617201 
L 634.321359 306.170449 
L 643.735157 262.921812 
L 653.148956 220.321573 
L 662.562755 189.348424 
L 671.976553 175.679615 
L 681.390352 176.994383 
L 690.804151 185.696447 
L 700.21795 202.725088 
L 709.631748 218.864361 
L 719.04556 233.705583 
L 728.459359 245.997255 
L 737.87317 254.596157 
L 747.286969 259.706394 
L 756.700768 260.108416 
L 766.114567 257.573993 
L 775.528365 252.652316 
L 784.942164 247.353465 
L 794.355963 242.327137 
L 803.769762 237.982197 
L 813.18356 235.710583 
L 822.597359 235.858567 
L 832.011158 236.661787 
L 841.424956 238.077919 
L 850.838781 238.552007 
L 860.25258 239.818007 
L 869.666378 241.770168 
L 879.080177 242.353494 
L 888.493976 243.505425 
L 897.907775 243.843961 
L 907.321573 243.866466 
L 916.735372 243.871011 
L 926.149171 243.377687 
L 935.56297 243.033015 
L 944.976768 242.687486 
L 954.390567 242.682452 
L 963.80434 242.904519 
L 973.218164 243.505287 
L 982.631937 243.314482 
L 992.045762 242.929923 
L 1001.459535 243.371338 
L 1010.873359 242.989676 
L 1020.287132 243.07704 
L 1029.700957 243.037636 
L 1039.11473 242.773727 
L 1048.528554 242.532501 
L 1057.942327 242.799819 
L 1067.356152 242.679367 
L 1076.769924 242.767563 
L 1086.183749 242.964445 
L 1095.597522 242.760247 
L 1105.011347 243.011708 
L 1114.425171 242.92106 
L 1123.838944 243.387478 
L 1133.252769 243.310166 
L 1142.666541 243.195275 
L 1152.080366 243.453792 
L 1161.494139 243.168054 
L 1170.907964 242.802498 
L 1180.321736 242.775687 
L 1189.735561 242.731583 
L 1199.149334 242.843928 
L 1208.563158 242.970879 
L 1217.976931 242.56492 
L 1227.390756 242.695627 
L 1236.804529 243.09884 
L 1246.218353 243.254157 
L 1255.632126 243.283637 
L 1265.045951 242.91852 
L 1274.459724 243.226295 
L 1283.873548 242.781505 
L 1293.287373 242.769868 
L 1302.701146 242.503443 
L 1312.11497 242.883148 
L 1321.528743 243.124366 
L 1330.942568 242.485888 
L 1340.356341 242.898842 
L 1349.770165 242.827479 
L 1359.183938 243.021182 
L 1368.597763 241.781493 
L 1378.011535 242.911594 
L 1387.425412 242.860477 
L 1396.839185 242.323643 
L 1406.252958 242.629262 
L 1415.666834 239.645184 
L 1425.080607 241.054393 
L 1434.49438 241.43444 
L 1443.908152 239.781189 
L 1453.322029 220.83822 
L 1453.322029 234.642306 
L 1453.322029 234.642306 
L 1443.908152 245.969265 
L 1434.49438 247.141439 
L 1425.080607 242.730333 
L 1415.666834 242.344901 
L 1406.252958 243.859679 
L 1396.839185 243.529925 
L 1387.425412 244.413067 
L 1378.011535 244.726672 
L 1368.597763 242.769395 
L 1359.183938 244.286533 
L 1349.770165 243.863775 
L 1340.356341 243.701138 
L 1330.942568 243.662397 
L 1321.528743 243.702008 
L 1312.11497 243.625302 
L 1302.701146 243.444137 
L 1293.287373 243.489232 
L 1283.873548 243.443878 
L 1274.459724 243.784081 
L 1265.045951 243.224022 
L 1255.632126 243.491195 
L 1246.218353 243.426189 
L 1236.804529 243.335493 
L 1227.390756 243.008393 
L 1217.976931 243.076671 
L 1208.563158 243.272559 
L 1199.149334 243.338065 
L 1189.735561 243.236296 
L 1180.321736 243.230254 
L 1170.907964 243.123322 
L 1161.494139 243.39126 
L 1152.080366 243.7936 
L 1142.666541 243.665898 
L 1133.252769 243.740302 
L 1123.838944 243.824396 
L 1114.425171 243.535372 
L 1105.011347 243.365359 
L 1095.597522 243.080144 
L 1086.183749 243.188073 
L 1076.769924 243.06727 
L 1067.356152 242.995426 
L 1057.942327 243.301142 
L 1048.528554 243.069752 
L 1039.11473 243.108903 
L 1029.700957 243.455791 
L 1020.287132 243.487467 
L 1010.873359 243.422877 
L 1001.459535 243.995618 
L 992.045762 243.294061 
L 982.631937 243.511985 
L 973.218164 243.676277 
L 963.80434 243.672426 
L 954.390567 243.486462 
L 944.976768 243.541168 
L 935.56297 243.880163 
L 926.149171 244.142077 
L 916.735372 244.363215 
L 907.321573 244.564732 
L 897.907775 245.099581 
L 888.493976 245.391182 
L 879.080177 244.829825 
L 869.666378 244.125282 
L 860.25258 241.925051 
L 850.838781 240.140465 
L 841.424956 238.88209 
L 832.011158 238.334863 
L 822.597359 238.932783 
L 813.18356 240.403422 
L 803.769762 243.500335 
L 794.355963 247.603914 
L 784.942164 252.439189 
L 775.528365 256.611044 
L 766.114567 260.523374 
L 756.700768 263.389388 
L 747.286969 265.061038 
L 737.87317 262.720519 
L 728.459359 256.790222 
L 719.04556 247.308597 
L 709.631748 232.787496 
L 700.21795 216.519587 
L 690.804151 197.006964 
L 681.390352 186.229218 
L 671.976553 190.343778 
L 662.562755 210.440448 
L 653.148956 245.967063 
L 643.735157 285.955082 
L 634.321359 323.866128 
L 624.907553 354.501563 
L 615.493755 375.628974 
L 606.079949 388.236239 
L 596.666151 393.191652 
L 587.252352 388.996095 
L 577.838553 368.305089 
L 568.424751 323.797937 
L 559.010953 236.698845 
L 549.597151 92.977248 
L 540.183352 -115.223541 
L 530.769552 -528.737708 
L 521.355752 -86079.238697 
z
" clip-path="url(#p9be782eabb)" style="fill: #0000ff; fill-opacity: 0.3; stroke: #0000ff; stroke-opacity: 0.3"/>
   </g>
   <g id="matplotlib.axis_3">
    <g id="xtick_5">
     <g id="line2d_17">
      <g>
       <use xlink:href="#mfd04074a43" x="516.647955" y="430.035781" style="stroke: #000000; stroke-width: 2"/>
      </g>
     </g>
     <g id="text_16">
      <!-- 0 -->
      <g transform="translate(510.285455 448.732656) scale(0.2 -0.2)">
       <use xlink:href="#DejaVuSans-30"/>
      </g>
     </g>
    </g>
    <g id="xtick_6">
     <g id="line2d_18">
      <g>
       <use xlink:href="#mfd04074a43" x="625.349253" y="430.035781" style="stroke: #000000; stroke-width: 2"/>
      </g>
     </g>
     <g id="text_17">
      <!-- 1 -->
      <g transform="translate(618.986753 448.732656) scale(0.2 -0.2)">
       <use xlink:href="#DejaVuSans-31"/>
      </g>
     </g>
    </g>
    <g id="xtick_7">
     <g id="line2d_19">
      <g>
       <use xlink:href="#mfd04074a43" x="734.050552" y="430.035781" style="stroke: #000000; stroke-width: 2"/>
      </g>
     </g>
     <g id="text_18">
      <!-- 2 -->
      <g transform="translate(727.688052 448.732656) scale(0.2 -0.2)">
       <use xlink:href="#DejaVuSans-32"/>
      </g>
     </g>
    </g>
    <g id="xtick_8">
     <g id="line2d_20">
      <g>
       <use xlink:href="#mfd04074a43" x="842.751851" y="430.035781" style="stroke: #000000; stroke-width: 2"/>
      </g>
     </g>
     <g id="text_19">
      <!-- 3 -->
      <g transform="translate(836.389351 448.732656) scale(0.2 -0.2)">
       <use xlink:href="#DejaVuSans-33"/>
      </g>
     </g>
    </g>
    <g id="text_20">
     <!-- Wavenumber q  [1/μm] -->
     <g transform="translate(590.87679 472.088906) scale(0.2 -0.2)">
      <use xlink:href="#DejaVuSans-57"/>
      <use xlink:href="#DejaVuSans-61" x="92.501953"/>
      <use xlink:href="#DejaVuSans-76" x="153.78125"/>
      <use xlink:href="#DejaVuSans-65" x="212.960938"/>
      <use xlink:href="#DejaVuSans-6e" x="274.484375"/>
      <use xlink:href="#DejaVuSans-75" x="337.863281"/>
      <use xlink:href="#DejaVuSans-6d" x="401.242188"/>
      <use xlink:href="#DejaVuSans-62" x="498.654297"/>
      <use xlink:href="#DejaVuSans-65" x="562.130859"/>
      <use xlink:href="#DejaVuSans-72" x="623.654297"/>
      <use xlink:href="#DejaVuSans-20" x="664.767578"/>
      <use xlink:href="#DejaVuSans-71" x="696.554688"/>
      <use xlink:href="#DejaVuSans-20" x="760.03125"/>
      <use xlink:href="#DejaVuSans-20" x="791.818359"/>
      <use xlink:href="#DejaVuSans-5b" x="823.605469"/>
      <use xlink:href="#DejaVuSans-31" x="862.619141"/>
      <use xlink:href="#DejaVuSans-2f" x="926.242188"/>
      <use xlink:href="#DejaVuSans-3bc" x="959.933594"/>
      <use xlink:href="#DejaVuSans-6d" x="1023.556641"/>
      <use xlink:href="#DejaVuSans-5d" x="1120.96875"/>
     </g>
    </g>
   </g>
   <g id="matplotlib.axis_4">
    <g id="ytick_6">
     <g id="line2d_21">
      <g>
       <use xlink:href="#m0c6f124392" x="516.647955" y="415.662448" style="stroke: #000000; stroke-width: 2"/>
      </g>
     </g>
     <g id="text_21">
      <!-- 0.4 -->
      <g transform="translate(481.341705 423.260885) scale(0.2 -0.2)">
       <use xlink:href="#DejaVuSans-30"/>
       <use xlink:href="#DejaVuSans-2e" x="63.623047"/>
       <use xlink:href="#DejaVuSans-34" x="95.410156"/>
      </g>
     </g>
    </g>
    <g id="ytick_7">
     <g id="line2d_22">
      <g>
       <use xlink:href="#m0c6f124392" x="516.647955" y="329.422448" style="stroke: #000000; stroke-width: 2"/>
      </g>
     </g>
     <g id="text_22">
      <!-- 0.7 -->
      <g transform="translate(481.341705 337.020885) scale(0.2 -0.2)">
       <use xlink:href="#DejaVuSans-30"/>
       <use xlink:href="#DejaVuSans-2e" x="63.623047"/>
       <use xlink:href="#DejaVuSans-37" x="95.410156"/>
      </g>
     </g>
    </g>
    <g id="ytick_8">
     <g id="line2d_23">
      <g>
       <use xlink:href="#m0c6f124392" x="516.647955" y="243.182448" style="stroke: #000000; stroke-width: 2"/>
      </g>
     </g>
     <g id="text_23">
      <!-- 1.0 -->
      <g transform="translate(481.341705 250.780885) scale(0.2 -0.2)">
       <use xlink:href="#DejaVuSans-31"/>
       <use xlink:href="#DejaVuSans-2e" x="63.623047"/>
       <use xlink:href="#DejaVuSans-30" x="95.410156"/>
      </g>
     </g>
    </g>
    <g id="ytick_9">
     <g id="line2d_24">
      <g>
       <use xlink:href="#m0c6f124392" x="516.647955" y="156.942448" style="stroke: #000000; stroke-width: 2"/>
      </g>
     </g>
     <g id="text_24">
      <!-- 1.3 -->
      <g transform="translate(481.341705 164.540885) scale(0.2 -0.2)">
       <use xlink:href="#DejaVuSans-31"/>
       <use xlink:href="#DejaVuSans-2e" x="63.623047"/>
       <use xlink:href="#DejaVuSans-33" x="95.410156"/>
      </g>
     </g>
    </g>
    <g id="ytick_10">
     <g id="line2d_25">
      <g>
       <use xlink:href="#m0c6f124392" x="516.647955" y="70.702448" style="stroke: #000000; stroke-width: 2"/>
      </g>
     </g>
     <g id="text_25">
      <!-- 1.6 -->
      <g transform="translate(481.341705 78.300885) scale(0.2 -0.2)">
       <use xlink:href="#DejaVuSans-31"/>
       <use xlink:href="#DejaVuSans-2e" x="63.623047"/>
       <use xlink:href="#DejaVuSans-36" x="95.410156"/>
      </g>
     </g>
    </g>
   </g>
   <g id="line2d_26">
    <path d="M 545.158009 -1 
L 549.597151 77.38743 
L 559.010953 219.855307 
L 568.424751 313.175706 
L 577.838553 361.889003 
L 587.252352 385.038216 
L 596.666151 393.253805 
L 606.079949 389.868072 
L 615.493755 377.353719 
L 624.907553 356.015402 
L 634.321359 327.609932 
L 643.735157 289.854173 
L 653.148956 250.862624 
L 662.562755 210.181858 
L 671.976553 183.67373 
L 681.390352 174.198644 
L 690.804151 181.32729 
L 700.21795 201.361127 
L 709.631748 219.837956 
L 719.04556 236.346497 
L 728.459359 247.790373 
L 737.87317 256.163666 
L 747.286969 259.873707 
L 756.700768 261.672119 
L 766.114567 259.591183 
L 775.528365 256.453095 
L 784.942164 252.191619 
L 794.355963 247.811204 
L 803.769762 243.961854 
L 813.18356 241.231333 
L 822.597359 238.9716 
L 832.011158 238.075976 
L 841.424956 238.466325 
L 850.838781 238.86104 
L 860.25258 239.963065 
L 869.666378 241.084876 
L 879.080177 242.731373 
L 888.493976 243.145351 
L 897.907775 243.488656 
L 899.5425 243.579854 
" clip-path="url(#p9be782eabb)" style="fill: none; stroke: #ff0000; stroke-width: 1.7; stroke-linecap: square"/>
   </g>
   <g id="line2d_27">
    <path d="M 516.647955 243.182448 
L 897.1025 243.182448 
" clip-path="url(#p9be782eabb)" style="fill: none; stroke-dasharray: 6.29,2.72; stroke-dashoffset: 0; stroke: #000000; stroke-width: 1.7"/>
   </g>
   <g id="line2d_28">
    <path d="M 546.852519 -1 
L 549.597151 61.552928 
L 559.010953 216.394312 
L 568.424751 308.234006 
L 577.838553 357.289002 
L 587.252352 380.886527 
L 596.666151 387.117286 
L 606.079949 383.366243 
L 615.493755 370.730482 
L 624.907553 348.559382 
L 634.321359 315.018288 
L 643.735157 274.438447 
L 653.148956 233.144318 
L 662.562755 199.894436 
L 671.976553 183.011696 
L 681.390352 181.6118 
L 690.804151 191.351706 
L 700.21795 209.622338 
L 709.631748 225.825928 
L 719.04556 240.50709 
L 728.459359 251.393738 
L 737.87317 258.658338 
L 747.286969 262.383716 
L 756.700768 261.748902 
L 766.114567 259.048683 
L 775.528365 254.63168 
L 784.942164 249.896327 
L 794.355963 244.965525 
L 803.769762 240.741266 
L 813.18356 238.057002 
L 822.597359 237.395675 
L 832.011158 237.498325 
L 841.424956 238.480004 
L 850.838781 239.346236 
L 860.25258 240.871529 
L 869.666378 242.947725 
L 879.080177 243.59166 
L 888.493976 244.448303 
L 897.907775 244.471771 
L 899.5425 244.427286 
" clip-path="url(#p9be782eabb)" style="fill: none; stroke: #0000ff; stroke-width: 1.7; stroke-linecap: square"/>
   </g>
   <g id="patch_11">
    <path d="M 516.647955 430.035781 
L 516.647955 41.955781 
" style="fill: none; stroke: #000000; stroke-width: 2; stroke-linejoin: miter; stroke-linecap: square"/>
   </g>
   <g id="patch_12">
    <path d="M 897.1025 430.035781 
L 897.1025 41.955781 
" style="fill: none; stroke: #000000; stroke-width: 2; stroke-linejoin: miter; stroke-linecap: square"/>
   </g>
   <g id="patch_13">
    <path d="M 516.647955 430.035781 
L 897.1025 430.035781 
" style="fill: none; stroke: #000000; stroke-width: 2; stroke-linejoin: miter; stroke-linecap: square"/>
   </g>
   <g id="patch_14">
    <path d="M 516.647955 41.955781 
L 897.1025 41.955781 
" style="fill: none; stroke: #000000; stroke-width: 2; stroke-linejoin: miter; stroke-linecap: square"/>
   </g>
   <g id="legend_2">
    <g id="patch_15">
     <path d="M 769.122813 114.803906 
L 890.1025 114.803906 
L 890.1025 48.955781 
L 769.122813 48.955781 
z
" style="fill: #ffffff; opacity: 0.8; stroke: #000000; stroke-linejoin: miter"/>
    </g>
    <g id="line2d_29">
     <path d="M 774.722813 60.293594 
L 802.722813 60.293594 
" style="fill: none; stroke: #0000ff; stroke-width: 1.7; stroke-linecap: square"/>
    </g>
    <g id="line2d_30"/>
    <g id="text_26">
     <!-- CTRL -->
     <g transform="translate(809.722813 65.193594) scale(0.14 -0.14)">
      <use xlink:href="#DejaVuSans-43"/>
      <use xlink:href="#DejaVuSans-54" x="69.824219"/>
      <use xlink:href="#DejaVuSans-52" x="130.908203"/>
      <use xlink:href="#DejaVuSans-4c" x="200.390625"/>
     </g>
    </g>
    <g id="line2d_31">
     <path d="M 774.722813 80.842969 
L 802.722813 80.842969 
" style="fill: none; stroke: #ff0000; stroke-width: 1.7; stroke-linecap: square"/>
    </g>
    <g id="line2d_32"/>
    <g id="text_27">
     <!-- MS -->
     <g transform="translate(809.722813 85.742969) scale(0.14 -0.14)">
      <use xlink:href="#DejaVuSans-4d"/>
      <use xlink:href="#DejaVuSans-53" x="86.279297"/>
     </g>
    </g>
    <g id="patch_16">
     <path d="M 774.722813 106.292344 
L 802.722813 106.292344 
L 802.722813 96.492344 
L 774.722813 96.492344 
z
" style="fill: #0000ff; fill-opacity: 0.3; stroke: #0000ff; stroke-opacity: 0.3; stroke-linejoin: miter"/>
    </g>
    <g id="text_28">
     <!-- CTRL-Error -->
     <g transform="translate(809.722813 106.292344) scale(0.14 -0.14)">
      <use xlink:href="#DejaVuSans-43"/>
      <use xlink:href="#DejaVuSans-54" x="69.824219"/>
      <use xlink:href="#DejaVuSans-52" x="130.908203"/>
      <use xlink:href="#DejaVuSans-4c" x="200.390625"/>
      <use xlink:href="#DejaVuSans-2d" x="254.353516"/>
      <use xlink:href="#DejaVuSans-45" x="290.4375"/>
      <use xlink:href="#DejaVuSans-72" x="353.621094"/>
      <use xlink:href="#DejaVuSans-72" x="392.984375"/>
      <use xlink:href="#DejaVuSans-6f" x="431.847656"/>
      <use xlink:href="#DejaVuSans-72" x="493.029297"/>
     </g>
    </g>
   </g>
  </g>
 </g>
 <defs>
  <clipPath id="pacb0010460">
   <rect x="60.1025" y="41.955781" width="380.454545" height="388.08"/>
  </clipPath>
  <clipPath id="p9be782eabb">
   <rect x="516.647955" y="41.955781" width="380.454545" height="388.08"/>
  </clipPath>
 </defs>
</svg>
