<?xml version="1.0" encoding="utf-8" standalone="no"?>
<!DOCTYPE svg PUBLIC "-//W3C//DTD SVG 1.1//EN"
  "http://www.w3.org/Graphics/SVG/1.1/DTD/svg11.dtd">
<svg xmlns:xlink="http://www.w3.org/1999/xlink" width="444.689375pt" height="316.078687pt" viewBox="0 0 444.689375 316.078687" xmlns="http://www.w3.org/2000/svg" version="1.1">
 <metadata>
  <rdf:RDF xmlns:dc="http://purl.org/dc/elements/1.1/" xmlns:cc="http://creativecommons.org/ns#" xmlns:rdf="http://www.w3.org/1999/02/22-rdf-syntax-ns#">
   <cc:Work>
    <dc:type rdf:resource="http://purl.org/dc/dcmitype/StillImage"/>
    <dc:date>2022-09-21T11:12:11.713577</dc:date>
    <dc:format>image/svg+xml</dc:format>
    <dc:creator>
     <cc:Agent>
      <dc:title>Matplotlib v3.6.0, https://matplotlib.org/</dc:title>
     </cc:Agent>
    </dc:creator>
   </cc:Work>
  </rdf:RDF>
 </metadata>
 <defs>
  <style type="text/css">*{stroke-linejoin: round; stroke-linecap: butt}</style>
 </defs>
 <g id="figure_1">
  <g id="patch_1">
   <path d="M 0 316.078687 
L 444.689375 316.078687 
L 444.689375 0 
L 0 0 
L 0 316.078687 
z
" style="fill: none"/>
  </g>
  <g id="axes_1">
   <g id="patch_2">
    <path d="M 36.74625 291.782437 
L 427.34625 291.782437 
L 427.34625 9.038437 
L 36.74625 9.038437 
L 36.74625 291.782437 
z
" style="fill: none"/>
   </g>
   <g id="PolyCollection_1">
    <path d="M -212.375959 -238106.040435 
L -212.375959 -275478.539996 
L -189.82468 -1891.491518 
L -167.273398 -711.685177 
L -144.72212 -259.001884 
L -122.170835 104.018169 
L -99.619557 356.862769 
L -77.068271 492.052212 
L -54.516993 553.788499 
L -31.965716 571.769669 
L -9.414438 557.680099 
L 13.136856 522.174655 
L 35.688133 465.974892 
L 58.239427 396.939384 
L 80.790705 307.281267 
L 103.341982 217.474714 
L 125.89326 115.033862 
L 148.444538 48.950224 
L 170.995816 27.4246 
L 193.547094 49.631297 
L 216.098372 102.725845 
L 238.649649 148.46292 
L 261.200958 189.061026 
L 283.752236 217.71122 
L 306.303545 240.022935 
L 328.854823 251.642434 
L 351.406101 258.85711 
L 373.957379 255.970692 
L 396.508656 249.761046 
L 419.059934 238.811019 
L 441.611212 227.369294 
L 464.16249 216.99395 
L 486.713768 210.171074 
L 509.265045 205.035446 
L 531.816323 204.066701 
L 554.367601 206.315476 
L 576.918941 208.283043 
L 599.470219 211.136405 
L 622.021497 213.806192 
L 644.572775 217.186598 
L 667.124052 217.821686 
L 689.67533 218.870911 
L 712.226608 220.758933 
L 734.777886 221.087949 
L 757.329164 221.668188 
L 779.880442 221.335398 
L 802.431719 220.76555 
L 824.982997 219.511502 
L 847.534213 220.318943 
L 870.085553 220.256406 
L 892.636769 220.438027 
L 915.188108 221.360193 
L 937.739324 221.789179 
L 960.290664 221.294474 
L 982.84188 222.067267 
L 1005.39322 221.730125 
L 1027.944436 220.390044 
L 1050.495775 220.737892 
L 1073.046991 219.729151 
L 1095.598331 219.737805 
L 1118.149547 219.469828 
L 1140.700887 219.549608 
L 1163.252103 219.642426 
L 1185.803442 219.027577 
L 1208.354782 220.069095 
L 1230.905998 220.084093 
L 1253.457338 220.590436 
L 1276.008554 221.392815 
L 1298.559894 221.836549 
L 1321.111109 221.977483 
L 1343.662449 221.921251 
L 1366.213665 221.103262 
L 1388.765005 220.759857 
L 1411.316221 220.883316 
L 1433.867561 220.731502 
L 1456.418776 220.610435 
L 1478.970116 219.415879 
L 1501.521332 220.368964 
L 1524.072672 220.247907 
L 1546.623888 220.707643 
L 1569.175228 219.925698 
L 1591.726443 220.205239 
L 1614.277783 220.747388 
L 1636.829123 220.696111 
L 1659.380339 219.359482 
L 1681.931679 221.889069 
L 1704.482895 221.130985 
L 1727.034234 219.942243 
L 1749.58545 220.651577 
L 1772.13679 220.671758 
L 1794.688006 221.777862 
L 1817.239346 220.426314 
L 1839.790562 218.295522 
L 1862.342026 221.144494 
L 1884.893241 218.962281 
L 1907.444457 217.931423 
L 1929.995921 214.531536 
L 1952.547137 221.511101 
L 1975.098353 221.077734 
L 1997.649568 207.894051 
L 2020.201032 229.220051 
L 2020.201032 252.674669 
L 2020.201032 252.674669 
L 1997.649568 228.66928 
L 1975.098353 225.675674 
L 1952.547137 231.422653 
L 1929.995921 219.384546 
L 1907.444457 222.227169 
L 1884.893241 223.763968 
L 1862.342026 223.193199 
L 1839.790562 220.01811 
L 1817.239346 223.008132 
L 1794.688006 222.579832 
L 1772.13679 223.139947 
L 1749.58545 221.746084 
L 1727.034234 221.435847 
L 1704.482895 222.304861 
L 1681.931679 222.902226 
L 1659.380339 220.195526 
L 1636.829123 221.84863 
L 1614.277783 221.353742 
L 1591.726443 221.15835 
L 1569.175228 221.059735 
L 1546.623888 221.42975 
L 1524.072672 220.935976 
L 1501.521332 221.072786 
L 1478.970116 220.868618 
L 1456.418776 221.248168 
L 1433.867561 221.860481 
L 1411.316221 221.896558 
L 1388.765005 221.654868 
L 1366.213665 222.090349 
L 1343.662449 222.670641 
L 1321.111109 222.724578 
L 1298.559894 222.683616 
L 1276.008554 222.482884 
L 1253.457338 221.490269 
L 1230.905998 221.156301 
L 1208.354782 221.358153 
L 1185.803442 219.746625 
L 1163.252103 220.571248 
L 1140.700887 220.456157 
L 1118.149547 219.996956 
L 1095.598331 220.244099 
L 1073.046991 220.528906 
L 1050.495775 221.485376 
L 1027.944436 221.64414 
L 1005.39322 223.158087 
L 982.84188 223.350193 
L 960.290664 222.656494 
L 937.739324 223.474894 
L 915.188108 223.041807 
L 892.636769 222.246053 
L 870.085553 222.352446 
L 847.534213 222.679899 
L 824.982997 221.193763 
L 802.431719 222.933006 
L 779.880442 223.324482 
L 757.329164 224.531632 
L 734.777886 224.695128 
L 712.226608 225.52257 
L 689.67533 224.827853 
L 667.124052 224.188753 
L 644.572775 222.787955 
L 622.021497 218.071123 
L 599.470219 215.224006 
L 576.918941 212.657767 
L 554.367601 212.684183 
L 531.816323 213.013277 
L 509.265045 216.449081 
L 486.713768 222.426494 
L 464.16249 229.031935 
L 441.611212 237.587141 
L 419.059934 247.687674 
L 396.508656 257.694975 
L 373.957379 266.917997 
L 351.406101 274.265327 
L 328.854823 272.635668 
L 306.303545 266.009715 
L 283.752236 247.142771 
L 261.200958 219.513617 
L 238.649649 178.925079 
L 216.098372 133.795749 
L 193.547094 88.366748 
L 170.995816 75.515782 
L 148.444538 100.587279 
L 125.89326 164.866825 
L 103.341982 262.48817 
L 80.790705 364.436486 
L 58.239427 460.455796 
L 35.688133 531.114334 
L 13.136856 579.853365 
L -9.414438 605.89172 
L -31.965716 608.452703 
L -54.516993 586.030779 
L -77.068271 533.922542 
L -99.619557 429.54695 
L -122.170835 223.455158 
L -144.72212 -114.161454 
L -167.273398 -478.979121 
L -189.82468 -1725.297789 
L -212.375959 -238106.040435 
z
" clip-path="url(#p3595726eef)" style="fill: #ff0000; fill-opacity: 0.3; stroke: #ff0000; stroke-opacity: 0.3"/>
   </g>
   <g id="matplotlib.axis_1">
    <g id="xtick_1">
     <g id="line2d_1">
      <defs>
       <path id="m1fe6f06c47" d="M 0 0 
L 0 -6 
" style="stroke: #000000; stroke-width: 2"/>
      </defs>
      <g>
       <use xlink:href="#m1fe6f06c47" x="36.74625" y="291.782437" style="stroke: #000000; stroke-width: 2"/>
      </g>
     </g>
     <g id="text_1">
      <!-- 1.0 -->
      <g transform="translate(20.843125 310.479312) scale(0.2 -0.2)">
       <defs>
        <path id="DejaVuSans-31" d="M 794 531 
L 1825 531 
L 1825 4091 
L 703 3866 
L 703 4441 
L 1819 4666 
L 2450 4666 
L 2450 531 
L 3481 531 
L 3481 0 
L 794 0 
L 794 531 
z
" transform="scale(0.015625)"/>
        <path id="DejaVuSans-2e" d="M 684 794 
L 1344 794 
L 1344 0 
L 684 0 
L 684 794 
z
" transform="scale(0.015625)"/>
        <path id="DejaVuSans-30" d="M 2034 4250 
Q 1547 4250 1301 3770 
Q 1056 3291 1056 2328 
Q 1056 1369 1301 889 
Q 1547 409 2034 409 
Q 2525 409 2770 889 
Q 3016 1369 3016 2328 
Q 3016 3291 2770 3770 
Q 2525 4250 2034 4250 
z
M 2034 4750 
Q 2819 4750 3233 4129 
Q 3647 3509 3647 2328 
Q 3647 1150 3233 529 
Q 2819 -91 2034 -91 
Q 1250 -91 836 529 
Q 422 1150 422 2328 
Q 422 3509 836 4129 
Q 1250 4750 2034 4750 
z
" transform="scale(0.015625)"/>
       </defs>
       <use xlink:href="#DejaVuSans-31"/>
       <use xlink:href="#DejaVuSans-2e" x="63.623047"/>
       <use xlink:href="#DejaVuSans-30" x="95.410156"/>
      </g>
     </g>
    </g>
    <g id="xtick_2">
     <g id="line2d_2">
      <g>
       <use xlink:href="#m1fe6f06c47" x="166.94625" y="291.782437" style="stroke: #000000; stroke-width: 2"/>
      </g>
     </g>
     <g id="text_2">
      <!-- 1.5 -->
      <g transform="translate(151.043125 310.479312) scale(0.2 -0.2)">
       <defs>
        <path id="DejaVuSans-35" d="M 691 4666 
L 3169 4666 
L 3169 4134 
L 1269 4134 
L 1269 2991 
Q 1406 3038 1543 3061 
Q 1681 3084 1819 3084 
Q 2600 3084 3056 2656 
Q 3513 2228 3513 1497 
Q 3513 744 3044 326 
Q 2575 -91 1722 -91 
Q 1428 -91 1123 -41 
Q 819 9 494 109 
L 494 744 
Q 775 591 1075 516 
Q 1375 441 1709 441 
Q 2250 441 2565 725 
Q 2881 1009 2881 1497 
Q 2881 1984 2565 2268 
Q 2250 2553 1709 2553 
Q 1456 2553 1204 2497 
Q 953 2441 691 2322 
L 691 4666 
z
" transform="scale(0.015625)"/>
       </defs>
       <use xlink:href="#DejaVuSans-31"/>
       <use xlink:href="#DejaVuSans-2e" x="63.623047"/>
       <use xlink:href="#DejaVuSans-35" x="95.410156"/>
      </g>
     </g>
    </g>
    <g id="xtick_3">
     <g id="line2d_3">
      <g>
       <use xlink:href="#m1fe6f06c47" x="297.14625" y="291.782437" style="stroke: #000000; stroke-width: 2"/>
      </g>
     </g>
     <g id="text_3">
      <!-- 2.0 -->
      <g transform="translate(281.243125 310.479312) scale(0.2 -0.2)">
       <defs>
        <path id="DejaVuSans-32" d="M 1228 531 
L 3431 531 
L 3431 0 
L 469 0 
L 469 531 
Q 828 903 1448 1529 
Q 2069 2156 2228 2338 
Q 2531 2678 2651 2914 
Q 2772 3150 2772 3378 
Q 2772 3750 2511 3984 
Q 2250 4219 1831 4219 
Q 1534 4219 1204 4116 
Q 875 4013 500 3803 
L 500 4441 
Q 881 4594 1212 4672 
Q 1544 4750 1819 4750 
Q 2544 4750 2975 4387 
Q 3406 4025 3406 3419 
Q 3406 3131 3298 2873 
Q 3191 2616 2906 2266 
Q 2828 2175 2409 1742 
Q 1991 1309 1228 531 
z
" transform="scale(0.015625)"/>
       </defs>
       <use xlink:href="#DejaVuSans-32"/>
       <use xlink:href="#DejaVuSans-2e" x="63.623047"/>
       <use xlink:href="#DejaVuSans-30" x="95.410156"/>
      </g>
     </g>
    </g>
    <g id="xtick_4">
     <g id="line2d_4">
      <g>
       <use xlink:href="#m1fe6f06c47" x="427.34625" y="291.782437" style="stroke: #000000; stroke-width: 2"/>
      </g>
     </g>
     <g id="text_4">
      <!-- 2.5 -->
      <g transform="translate(411.443125 310.479312) scale(0.2 -0.2)">
       <use xlink:href="#DejaVuSans-32"/>
       <use xlink:href="#DejaVuSans-2e" x="63.623047"/>
       <use xlink:href="#DejaVuSans-35" x="95.410156"/>
      </g>
     </g>
    </g>
   </g>
   <g id="matplotlib.axis_2">
    <g id="ytick_1">
     <g id="line2d_5">
      <defs>
       <path id="mca74dfde80" d="M 0 0 
L 6 0 
" style="stroke: #000000; stroke-width: 2"/>
      </defs>
      <g>
       <use xlink:href="#mca74dfde80" x="36.74625" y="221.096438" style="stroke: #000000; stroke-width: 2"/>
      </g>
     </g>
     <g id="text_5">
      <!-- 1.0 -->
      <g transform="translate(1.44 228.694875) scale(0.2 -0.2)">
       <use xlink:href="#DejaVuSans-31"/>
       <use xlink:href="#DejaVuSans-2e" x="63.623047"/>
       <use xlink:href="#DejaVuSans-30" x="95.410156"/>
      </g>
     </g>
    </g>
    <g id="ytick_2">
     <g id="line2d_6">
      <g>
       <use xlink:href="#mca74dfde80" x="36.74625" y="150.410438" style="stroke: #000000; stroke-width: 2"/>
      </g>
     </g>
     <g id="text_6">
      <!-- 1.1 -->
      <g transform="translate(1.44 158.008875) scale(0.2 -0.2)">
       <use xlink:href="#DejaVuSans-31"/>
       <use xlink:href="#DejaVuSans-2e" x="63.623047"/>
       <use xlink:href="#DejaVuSans-31" x="95.410156"/>
      </g>
     </g>
    </g>
    <g id="ytick_3">
     <g id="line2d_7">
      <g>
       <use xlink:href="#mca74dfde80" x="36.74625" y="79.724438" style="stroke: #000000; stroke-width: 2"/>
      </g>
     </g>
     <g id="text_7">
      <!-- 1.2 -->
      <g transform="translate(1.44 87.322875) scale(0.2 -0.2)">
       <use xlink:href="#DejaVuSans-31"/>
       <use xlink:href="#DejaVuSans-2e" x="63.623047"/>
       <use xlink:href="#DejaVuSans-32" x="95.410156"/>
      </g>
     </g>
    </g>
    <g id="ytick_4">
     <g id="line2d_8">
      <g>
       <use xlink:href="#mca74dfde80" x="36.74625" y="9.038438" style="stroke: #000000; stroke-width: 2"/>
      </g>
     </g>
     <g id="text_8">
      <!-- 1.3 -->
      <g transform="translate(1.44 16.636875) scale(0.2 -0.2)">
       <defs>
        <path id="DejaVuSans-33" d="M 2597 2516 
Q 3050 2419 3304 2112 
Q 3559 1806 3559 1356 
Q 3559 666 3084 287 
Q 2609 -91 1734 -91 
Q 1441 -91 1130 -33 
Q 819 25 488 141 
L 488 750 
Q 750 597 1062 519 
Q 1375 441 1716 441 
Q 2309 441 2620 675 
Q 2931 909 2931 1356 
Q 2931 1769 2642 2001 
Q 2353 2234 1838 2234 
L 1294 2234 
L 1294 2753 
L 1863 2753 
Q 2328 2753 2575 2939 
Q 2822 3125 2822 3475 
Q 2822 3834 2567 4026 
Q 2313 4219 1838 4219 
Q 1578 4219 1281 4162 
Q 984 4106 628 3988 
L 628 4550 
Q 988 4650 1302 4700 
Q 1616 4750 1894 4750 
Q 2613 4750 3031 4423 
Q 3450 4097 3450 3541 
Q 3450 3153 3228 2886 
Q 3006 2619 2597 2516 
z
" transform="scale(0.015625)"/>
       </defs>
       <use xlink:href="#DejaVuSans-31"/>
       <use xlink:href="#DejaVuSans-2e" x="63.623047"/>
       <use xlink:href="#DejaVuSans-33" x="95.410156"/>
      </g>
     </g>
    </g>
   </g>
   <g id="line2d_9">
    <path d="M 85.207982 317.078687 
L 103.341982 239.981442 
L 125.89326 139.950343 
L 148.444538 74.768751 
L 170.995816 51.470191 
L 193.547094 68.999023 
L 216.098372 118.260797 
L 238.649649 163.694 
L 261.200958 204.287321 
L 283.752236 232.426996 
L 306.303545 253.016325 
L 328.854823 262.139051 
L 351.406101 266.561219 
L 373.957379 261.444344 
L 396.508656 253.728011 
L 419.059934 243.249347 
L 441.611212 232.478218 
L 445.689375 230.766522 
" clip-path="url(#p3595726eef)" style="fill: none; stroke: #ff0000; stroke-width: 1.7; stroke-linecap: square"/>
   </g>
   <g id="line2d_10">
    <path d="M 36.74625 221.096438 
L 427.34625 221.096438 
" clip-path="url(#p3595726eef)" style="fill: none; stroke-dasharray: 6.29,2.72; stroke-dashoffset: 0; stroke: #000000; stroke-width: 1.7"/>
   </g>
   <g id="line2d_11">
    <path d="M 76.468169 317.078687 
L 80.790705 297.952706 
L 103.341982 196.413393 
L 125.89326 114.654308 
L 148.444538 73.140857 
L 170.995816 69.698613 
L 193.547094 93.648344 
L 216.098372 138.574523 
L 238.649649 178.417996 
L 261.200958 214.517923 
L 283.752236 241.287414 
L 306.303545 259.150546 
L 328.854823 268.310985 
L 351.406101 266.750022 
L 373.957379 260.110377 
L 396.508656 249.249281 
L 419.059934 237.605386 
L 441.611212 225.480898 
L 445.689375 223.60249 
" clip-path="url(#p3595726eef)" style="fill: none; stroke: #0000ff; stroke-width: 1.7; stroke-linecap: square"/>
   </g>
   <g id="patch_3">
    <path d="M 36.74625 291.782438 
L 36.74625 9.038438 
" style="fill: none; stroke: #000000; stroke-width: 2; stroke-linejoin: miter; stroke-linecap: square"/>
   </g>
   <g id="patch_4">
    <path d="M 427.34625 291.782438 
L 427.34625 9.038438 
" style="fill: none; stroke: #000000; stroke-width: 2; stroke-linejoin: miter; stroke-linecap: square"/>
   </g>
   <g id="patch_5">
    <path d="M 36.74625 291.782437 
L 427.34625 291.782437 
" style="fill: none; stroke: #000000; stroke-width: 2; stroke-linejoin: miter; stroke-linecap: square"/>
   </g>
   <g id="patch_6">
    <path d="M 36.74625 9.038437 
L 427.34625 9.038437 
" style="fill: none; stroke: #000000; stroke-width: 2; stroke-linejoin: miter; stroke-linecap: square"/>
   </g>
  </g>
 </g>
 <defs>
  <clipPath id="p3595726eef">
   <rect x="36.74625" y="9.038437" width="390.6" height="282.744"/>
  </clipPath>
 </defs>
</svg>
