<?xml version="1.0" encoding="utf-8" standalone="no"?>
<!DOCTYPE svg PUBLIC "-//W3C//DTD SVG 1.1//EN"
  "http://www.w3.org/Graphics/SVG/1.1/DTD/svg11.dtd">
<svg xmlns:xlink="http://www.w3.org/1999/xlink" width="436.610937pt" height="392.719687pt" viewBox="0 0 436.610937 392.719687" xmlns="http://www.w3.org/2000/svg" version="1.1">
 <metadata>
  <rdf:RDF xmlns:dc="http://purl.org/dc/elements/1.1/" xmlns:cc="http://creativecommons.org/ns#" xmlns:rdf="http://www.w3.org/1999/02/22-rdf-syntax-ns#">
   <cc:Work>
    <dc:type rdf:resource="http://purl.org/dc/dcmitype/StillImage"/>
    <dc:date>2022-10-05T18:29:43.025173</dc:date>
    <dc:format>image/svg+xml</dc:format>
    <dc:creator>
     <cc:Agent>
      <dc:title>Matplotlib v3.6.0, https://matplotlib.org/</dc:title>
     </cc:Agent>
    </dc:creator>
   </cc:Work>
  </rdf:RDF>
 </metadata>
 <defs>
  <style type="text/css">*{stroke-linejoin: round; stroke-linecap: butt}</style>
 </defs>
 <g id="figure_1">
  <g id="patch_1">
   <path d="M 0 392.719687 
L 436.610937 392.719687 
L 436.610937 0 
L 0 0 
L 0 392.719687 
z
" style="fill: none"/>
  </g>
  <g id="axes_1">
   <g id="patch_2">
    <path d="M 44.570937 351.9525 
L 435.170938 351.9525 
L 435.170938 19.3125 
L 44.570937 19.3125 
L 44.570937 351.9525 
z
" style="fill: none"/>
   </g>
   <g id="matplotlib.axis_1">
    <g id="xtick_1">
     <g id="line2d_1">
      <path d="M 103.529428 351.9525 
L 103.529428 19.3125 
" clip-path="url(#p9944598f5f)" style="fill: none; stroke-dasharray: 2.96,1.28; stroke-dashoffset: 0; stroke: #b0b0b0; stroke-width: 0.8"/>
     </g>
     <g id="line2d_2">
      <defs>
       <path id="m73cc9e6a74" d="M 0 0 
L 0 -6 
" style="stroke: #000000; stroke-width: 2"/>
      </defs>
      <g>
       <use xlink:href="#m73cc9e6a74" x="103.529428" y="351.9525" style="stroke: #000000; stroke-width: 2"/>
      </g>
     </g>
     <g id="text_1">
      <!-- −1 -->
      <g transform="translate(95.105991 368.809062) scale(0.18 -0.18)">
       <defs>
        <path id="Montserrat-Regular-2212" d="M 448 2048 
L 3232 2048 
L 3232 2426 
L 448 2426 
L 448 2048 
z
" transform="scale(0.015625)"/>
        <path id="Montserrat-Regular-31" d="M 58 4480 
L 58 4070 
L 1114 4070 
L 1114 0 
L 1574 0 
L 1574 4480 
L 58 4480 
z
" transform="scale(0.015625)"/>
       </defs>
       <use xlink:href="#Montserrat-Regular-2212"/>
       <use xlink:href="#Montserrat-Regular-31" x="57.499985"/>
      </g>
     </g>
    </g>
    <g id="xtick_2">
     <g id="line2d_3">
      <path d="M 177.227541 351.9525 
L 177.227541 19.3125 
" clip-path="url(#p9944598f5f)" style="fill: none; stroke-dasharray: 2.96,1.28; stroke-dashoffset: 0; stroke: #b0b0b0; stroke-width: 0.8"/>
     </g>
     <g id="line2d_4">
      <g>
       <use xlink:href="#m73cc9e6a74" x="177.227541" y="351.9525" style="stroke: #000000; stroke-width: 2"/>
      </g>
     </g>
     <g id="text_2">
      <!-- 0 -->
      <g transform="translate(171.26926 368.809062) scale(0.18 -0.18)">
       <defs>
        <path id="Montserrat-Regular-30" d="M 2118 -38 
C 3155 -38 3910 813 3910 2240 
C 3910 3667 3155 4518 2118 4518 
C 1082 4518 333 3667 333 2240 
C 333 813 1082 -38 2118 -38 
z
M 2118 384 
C 1338 384 800 1043 800 2240 
C 800 3437 1338 4096 2118 4096 
C 2899 4096 3437 3437 3437 2240 
C 3437 1043 2899 384 2118 384 
z
" transform="scale(0.015625)"/>
       </defs>
       <use xlink:href="#Montserrat-Regular-30"/>
      </g>
     </g>
    </g>
    <g id="xtick_3">
     <g id="line2d_5">
      <path d="M 250.925654 351.9525 
L 250.925654 19.3125 
" clip-path="url(#p9944598f5f)" style="fill: none; stroke-dasharray: 2.96,1.28; stroke-dashoffset: 0; stroke: #b0b0b0; stroke-width: 0.8"/>
     </g>
     <g id="line2d_6">
      <g>
       <use xlink:href="#m73cc9e6a74" x="250.925654" y="351.9525" style="stroke: #000000; stroke-width: 2"/>
      </g>
     </g>
     <g id="text_3">
      <!-- 1 -->
      <g transform="translate(247.677217 368.809062) scale(0.18 -0.18)">
       <use xlink:href="#Montserrat-Regular-31"/>
      </g>
     </g>
    </g>
    <g id="xtick_4">
     <g id="line2d_7">
      <path d="M 324.623768 351.9525 
L 324.623768 19.3125 
" clip-path="url(#p9944598f5f)" style="fill: none; stroke-dasharray: 2.96,1.28; stroke-dashoffset: 0; stroke: #b0b0b0; stroke-width: 0.8"/>
     </g>
     <g id="line2d_8">
      <g>
       <use xlink:href="#m73cc9e6a74" x="324.623768" y="351.9525" style="stroke: #000000; stroke-width: 2"/>
      </g>
     </g>
     <g id="text_4">
      <!-- 2 -->
      <g transform="translate(319.512049 368.809062) scale(0.18 -0.18)">
       <defs>
        <path id="Montserrat-Regular-32" d="M 928 410 
L 2451 1907 
C 3053 2496 3187 2880 3187 3309 
C 3187 4058 2611 4518 1702 4518 
C 1018 4518 461 4288 115 3878 
L 442 3597 
C 736 3936 1139 4096 1664 4096 
C 2349 4096 2714 3776 2714 3258 
C 2714 2950 2618 2650 2112 2150 
L 250 326 
L 250 0 
L 3392 0 
L 3392 410 
L 928 410 
z
" transform="scale(0.015625)"/>
       </defs>
       <use xlink:href="#Montserrat-Regular-32"/>
      </g>
     </g>
    </g>
    <g id="xtick_5">
     <g id="line2d_9">
      <path d="M 398.321881 351.9525 
L 398.321881 19.3125 
" clip-path="url(#p9944598f5f)" style="fill: none; stroke-dasharray: 2.96,1.28; stroke-dashoffset: 0; stroke: #b0b0b0; stroke-width: 0.8"/>
     </g>
     <g id="line2d_10">
      <g>
       <use xlink:href="#m73cc9e6a74" x="398.321881" y="351.9525" style="stroke: #000000; stroke-width: 2"/>
      </g>
     </g>
     <g id="text_5">
      <!-- 3 -->
      <g transform="translate(393.245318 368.809062) scale(0.18 -0.18)">
       <defs>
        <path id="Montserrat-Regular-33" d="M 1856 2560 
L 3123 4154 
L 3123 4480 
L 243 4480 
L 243 4070 
L 2534 4070 
L 1293 2515 
L 1293 2176 
L 1613 2176 
C 2445 2176 2822 1824 2822 1286 
C 2822 730 2413 384 1670 384 
C 1088 384 570 602 282 902 
L 58 538 
C 403 186 1024 -38 1670 -38 
C 2752 -38 3296 538 3296 1286 
C 3296 2003 2816 2509 1856 2560 
z
" transform="scale(0.015625)"/>
       </defs>
       <use xlink:href="#Montserrat-Regular-33"/>
      </g>
     </g>
    </g>
    <g id="text_6">
     <!-- Volume -->
     <g transform="translate(208.414688 388.174687) scale(0.16 -0.16)">
      <defs>
       <path id="Montserrat-Regular-56" d="M 3974 4480 
L 2246 589 
L 531 4480 
L 19 4480 
L 2003 0 
L 2470 0 
L 4454 4480 
L 3974 4480 
z
" transform="scale(0.015625)"/>
       <path id="Montserrat-Regular-6f" d="M 2010 -32 
C 2995 -32 3718 685 3718 1683 
C 3718 2682 2995 3392 2010 3392 
C 1024 3392 294 2682 294 1683 
C 294 685 1024 -32 2010 -32 
z
M 2010 371 
C 1293 371 755 896 755 1683 
C 755 2470 1293 2995 2010 2995 
C 2726 2995 3258 2470 3258 1683 
C 3258 896 2726 371 2010 371 
z
" transform="scale(0.015625)"/>
       <path id="Montserrat-Regular-6c" d="M 634 0 
L 1088 0 
L 1088 4749 
L 634 4749 
L 634 0 
z
" transform="scale(0.015625)"/>
       <path id="Montserrat-Regular-75" d="M 3213 3366 
L 3213 1600 
C 3213 832 2771 378 2067 378 
C 1427 378 1056 742 1056 1459 
L 1056 3366 
L 602 3366 
L 602 1414 
C 602 448 1165 -32 2022 -32 
C 2560 -32 2995 205 3232 614 
L 3232 0 
L 3667 0 
L 3667 3366 
L 3213 3366 
z
" transform="scale(0.015625)"/>
       <path id="Montserrat-Regular-6d" d="M 4832 3392 
C 4224 3392 3744 3117 3501 2682 
C 3296 3155 2861 3392 2304 3392 
C 1741 3392 1306 3155 1069 2752 
L 1069 3366 
L 634 3366 
L 634 0 
L 1088 0 
L 1088 1766 
C 1088 2534 1530 2982 2214 2982 
C 2829 2982 3187 2618 3187 1907 
L 3187 0 
L 3642 0 
L 3642 1766 
C 3642 2534 4077 2982 4768 2982 
C 5376 2982 5734 2618 5734 1907 
L 5734 0 
L 6189 0 
L 6189 1952 
C 6189 2918 5651 3392 4832 3392 
z
" transform="scale(0.015625)"/>
       <path id="Montserrat-Regular-65" d="M 3571 1683 
C 3571 2694 2886 3392 1939 3392 
C 992 3392 294 2682 294 1683 
C 294 685 1011 -32 2061 -32 
C 2592 -32 3059 160 3360 518 
L 3104 813 
C 2848 518 2483 371 2074 371 
C 1338 371 800 838 749 1542 
L 3565 1542 
C 3565 1594 3571 1645 3571 1683 
z
M 1939 3002 
C 2598 3002 3078 2541 3136 1882 
L 749 1882 
C 806 2541 1286 3002 1939 3002 
z
" transform="scale(0.015625)"/>
      </defs>
      <use xlink:href="#Montserrat-Regular-56"/>
      <use xlink:href="#Montserrat-Regular-6f" x="69.799988"/>
      <use xlink:href="#Montserrat-Regular-6c" x="132.499985"/>
      <use xlink:href="#Montserrat-Regular-75" x="159.399979"/>
      <use xlink:href="#Montserrat-Regular-6d" x="226.699966"/>
      <use xlink:href="#Montserrat-Regular-65" x="332.799957"/>
     </g>
    </g>
   </g>
   <g id="matplotlib.axis_2">
    <g id="ytick_1">
     <g id="line2d_11">
      <path d="M 44.570937 313.570962 
L 435.170938 313.570962 
" clip-path="url(#p9944598f5f)" style="fill: none; stroke-dasharray: 2.96,1.28; stroke-dashoffset: 0; stroke: #b0b0b0; stroke-width: 0.8"/>
     </g>
     <g id="line2d_12">
      <defs>
       <path id="m2aebbd1979" d="M 0 0 
L 6 0 
" style="stroke: #000000; stroke-width: 2"/>
      </defs>
      <g>
       <use xlink:href="#m2aebbd1979" x="44.570937" y="313.570962" style="stroke: #000000; stroke-width: 2"/>
      </g>
     </g>
     <g id="text_7">
      <!-- −2 -->
      <g transform="translate(20.4975 320.249243) scale(0.18 -0.18)">
       <use xlink:href="#Montserrat-Regular-2212"/>
       <use xlink:href="#Montserrat-Regular-32" x="57.499985"/>
      </g>
     </g>
    </g>
    <g id="ytick_2">
     <g id="line2d_13">
      <path d="M 44.570937 249.601731 
L 435.170938 249.601731 
" clip-path="url(#p9944598f5f)" style="fill: none; stroke-dasharray: 2.96,1.28; stroke-dashoffset: 0; stroke: #b0b0b0; stroke-width: 0.8"/>
     </g>
     <g id="line2d_14">
      <g>
       <use xlink:href="#m2aebbd1979" x="44.570937" y="249.601731" style="stroke: #000000; stroke-width: 2"/>
      </g>
     </g>
     <g id="text_8">
      <!-- −1 -->
      <g transform="translate(24.224062 256.280012) scale(0.18 -0.18)">
       <use xlink:href="#Montserrat-Regular-2212"/>
       <use xlink:href="#Montserrat-Regular-31" x="57.499985"/>
      </g>
     </g>
    </g>
    <g id="ytick_3">
     <g id="line2d_15">
      <path d="M 44.570937 185.6325 
L 435.170938 185.6325 
" clip-path="url(#p9944598f5f)" style="fill: none; stroke-dasharray: 2.96,1.28; stroke-dashoffset: 0; stroke: #b0b0b0; stroke-width: 0.8"/>
     </g>
     <g id="line2d_16">
      <g>
       <use xlink:href="#m2aebbd1979" x="44.570937" y="185.6325" style="stroke: #000000; stroke-width: 2"/>
      </g>
     </g>
     <g id="text_9">
      <!-- 0 -->
      <g transform="translate(29.154375 192.310781) scale(0.18 -0.18)">
       <use xlink:href="#Montserrat-Regular-30"/>
      </g>
     </g>
    </g>
    <g id="ytick_4">
     <g id="line2d_17">
      <path d="M 44.570937 121.663269 
L 435.170938 121.663269 
" clip-path="url(#p9944598f5f)" style="fill: none; stroke-dasharray: 2.96,1.28; stroke-dashoffset: 0; stroke: #b0b0b0; stroke-width: 0.8"/>
     </g>
     <g id="line2d_18">
      <g>
       <use xlink:href="#m2aebbd1979" x="44.570937" y="121.663269" style="stroke: #000000; stroke-width: 2"/>
      </g>
     </g>
     <g id="text_10">
      <!-- 1 -->
      <g transform="translate(34.574062 128.34155) scale(0.18 -0.18)">
       <use xlink:href="#Montserrat-Regular-31"/>
      </g>
     </g>
    </g>
    <g id="ytick_5">
     <g id="line2d_19">
      <path d="M 44.570937 57.694038 
L 435.170938 57.694038 
" clip-path="url(#p9944598f5f)" style="fill: none; stroke-dasharray: 2.96,1.28; stroke-dashoffset: 0; stroke: #b0b0b0; stroke-width: 0.8"/>
     </g>
     <g id="line2d_20">
      <g>
       <use xlink:href="#m2aebbd1979" x="44.570937" y="57.694038" style="stroke: #000000; stroke-width: 2"/>
      </g>
     </g>
     <g id="text_11">
      <!-- 2 -->
      <g transform="translate(30.8475 64.37232) scale(0.18 -0.18)">
       <use xlink:href="#Montserrat-Regular-32"/>
      </g>
     </g>
    </g>
    <g id="text_12">
     <!-- Heterogeneity -->
     <g transform="translate(13.3125 243.5775) rotate(-90) scale(0.16 -0.16)">
      <defs>
       <path id="Montserrat-Regular-48" d="M 4006 4480 
L 4006 2483 
L 1203 2483 
L 1203 4480 
L 730 4480 
L 730 0 
L 1203 0 
L 1203 2067 
L 4006 2067 
L 4006 0 
L 4474 0 
L 4474 4480 
L 4006 4480 
z
" transform="scale(0.015625)"/>
       <path id="Montserrat-Regular-74" d="M 2246 531 
C 2118 416 1933 358 1747 358 
C 1370 358 1165 576 1165 973 
L 1165 2982 
L 2189 2982 
L 2189 3366 
L 1165 3366 
L 1165 4102 
L 710 4102 
L 710 3366 
L 109 3366 
L 109 2982 
L 710 2982 
L 710 947 
C 710 326 1062 -32 1696 -32 
C 1958 -32 2227 45 2406 205 
L 2246 531 
z
" transform="scale(0.015625)"/>
       <path id="Montserrat-Regular-72" d="M 1069 2707 
L 1069 3366 
L 634 3366 
L 634 0 
L 1088 0 
L 1088 1715 
C 1088 2509 1517 2957 2221 2957 
C 2253 2957 2291 2950 2330 2950 
L 2330 3392 
C 1709 3392 1280 3155 1069 2707 
z
" transform="scale(0.015625)"/>
       <path id="Montserrat-Regular-67" d="M 3315 3366 
L 3315 2720 
C 3034 3162 2547 3392 1984 3392 
C 1024 3392 294 2733 294 1766 
C 294 800 1024 128 1984 128 
C 2534 128 3014 352 3296 781 
L 3296 352 
C 3296 -480 2906 -870 2054 -870 
C 1536 -870 1050 -698 730 -410 
L 499 -755 
C 851 -1088 1453 -1274 2067 -1274 
C 3181 -1274 3750 -749 3750 410 
L 3750 3366 
L 3315 3366 
z
M 2029 531 
C 1286 531 755 1037 755 1766 
C 755 2496 1286 2995 2029 2995 
C 2771 2995 3309 2496 3309 1766 
C 3309 1037 2771 531 2029 531 
z
" transform="scale(0.015625)"/>
       <path id="Montserrat-Regular-6e" d="M 2349 3392 
C 1766 3392 1312 3155 1069 2746 
L 1069 3366 
L 634 3366 
L 634 0 
L 1088 0 
L 1088 1766 
C 1088 2534 1542 2982 2266 2982 
C 2906 2982 3277 2618 3277 1907 
L 3277 0 
L 3731 0 
L 3731 1952 
C 3731 2918 3168 3392 2349 3392 
z
" transform="scale(0.015625)"/>
       <path id="Montserrat-Regular-69" d="M 864 4102 
C 1056 4102 1197 4250 1197 4435 
C 1197 4608 1050 4749 864 4749 
C 678 4749 531 4602 531 4429 
C 531 4250 678 4102 864 4102 
z
M 634 0 
L 1088 0 
L 1088 3366 
L 634 3366 
L 634 0 
z
" transform="scale(0.015625)"/>
       <path id="Montserrat-Regular-79" d="M 3014 3366 
L 1747 506 
L 480 3366 
L 6 3366 
L 1510 6 
L 1363 -320 
C 1171 -742 966 -883 666 -883 
C 422 -883 218 -794 51 -627 
L -160 -966 
C 45 -1171 346 -1274 659 -1274 
C 1139 -1274 1498 -1062 1779 -403 
L 3462 3366 
L 3014 3366 
z
" transform="scale(0.015625)"/>
      </defs>
      <use xlink:href="#Montserrat-Regular-48"/>
      <use xlink:href="#Montserrat-Regular-65" x="81.299988"/>
      <use xlink:href="#Montserrat-Regular-74" x="141.699982"/>
      <use xlink:href="#Montserrat-Regular-65" x="182.299973"/>
      <use xlink:href="#Montserrat-Regular-72" x="242.699966"/>
      <use xlink:href="#Montserrat-Regular-6f" x="282.799957"/>
      <use xlink:href="#Montserrat-Regular-67" x="345.499954"/>
      <use xlink:href="#Montserrat-Regular-65" x="414.099945"/>
      <use xlink:href="#Montserrat-Regular-6e" x="474.499939"/>
      <use xlink:href="#Montserrat-Regular-65" x="542.199921"/>
      <use xlink:href="#Montserrat-Regular-69" x="602.599915"/>
      <use xlink:href="#Montserrat-Regular-74" x="629.499908"/>
      <use xlink:href="#Montserrat-Regular-79" x="670.099899"/>
     </g>
    </g>
   </g>
   <g id="line2d_21">
    <path d="M 190.149764 256.124056 
L 188.024865 254.756531 
L 186.042348 253.218416 
L 184.208565 251.514637 
L 182.52939 249.650652 
L 181.010202 247.632432 
L 179.655866 245.466443 
L 178.470722 243.159621 
L 177.458566 240.719358 
L 176.622639 238.153468 
L 175.965621 235.470173 
L 175.44797 232.361502 
L 175.155825 229.130799 
L 175.09034 225.790838 
L 175.251774 222.354828 
L 175.639489 218.836357 
L 176.251952 215.249337 
L 177.08674 211.607954 
L 178.257828 207.556833 
L 179.688314 203.476743 
L 181.371354 199.387203 
L 183.298896 195.307782 
L 185.461716 191.257996 
L 187.849468 187.257224 
L 190.450727 183.324605 
L 193.253046 179.478956 
L 196.243018 175.738678 
L 199.406337 172.121665 
L 202.727869 168.645222 
L 206.191721 165.325985 
L 209.781321 162.179832 
L 213.479492 159.221818 
L 217.268543 156.466095 
L 221.130343 153.925848 
L 225.046416 151.613231 
L 228.998025 149.539308 
L 232.966264 147.714003 
L 236.932145 146.146049 
L 240.876695 144.842948 
L 244.428254 143.893412 
L 247.932539 143.171686 
L 251.375693 142.680623 
L 254.744101 142.422166 
L 258.024441 142.397337 
L 261.203741 142.606233 
L 264.269431 143.04803 
L 266.921384 143.64335 
L 269.46299 144.424009 
L 271.886108 145.387506 
L 274.182977 146.530754 
L 276.346238 147.850091 
L 278.368962 149.341292 
L 280.24467 150.999578 
L 281.967353 152.819638 
L 283.531492 154.795643 
L 284.932078 156.921262 
L 286.164624 159.189685 
L 287.225182 161.593648 
L 288.110354 164.125449 
L 288.817305 166.776978 
L 289.34377 169.539741 
L 289.71502 172.729163 
L 289.859911 176.032365 
L 289.777872 179.436285 
L 289.469227 182.927462 
L 288.935196 186.492091 
L 288.17789 190.116075 
L 287.200306 193.785084 
L 285.87518 197.855677 
L 284.294552 201.943715 
L 282.465984 206.02964 
L 280.398226 210.093901 
L 278.10117 214.117054 
L 275.585808 218.079848 
L 272.864174 221.963325 
L 269.949289 225.748903 
L 266.8551 229.41847 
L 263.596412 232.954469 
L 260.188816 236.339982 
L 256.648615 239.55881 
L 252.992748 242.595553 
L 249.238707 245.435681 
L 245.404453 248.065607 
L 241.50833 250.472746 
L 237.568981 252.645581 
L 233.605253 254.573717 
L 229.636111 256.247929 
L 225.680546 257.660206 
L 222.112287 258.711084 
L 218.585001 259.535732 
L 215.112637 260.130888 
L 211.708926 260.494199 
L 208.387329 260.624228 
L 205.16098 260.520462 
L 202.042637 260.183309 
L 199.338675 259.68141 
L 196.740855 258.993145 
L 194.257498 258.120717 
L 191.896559 257.066923 
L 190.149764 256.124056 
L 190.149764 256.124056 
" clip-path="url(#p9944598f5f)" style="fill: none; stroke: #0000ff; stroke-width: 2.5; stroke-linecap: square"/>
   </g>
   <g id="line2d_22">
    <path d="M 180.494711 272.757681 
L 178.560452 271.415427 
L 176.767246 269.916276 
L 175.120836 268.265029 
L 173.626498 266.466976 
L 172.289017 264.527877 
L 171.112679 262.453943 
L 170.10125 260.251817 
L 169.257972 257.928554 
L 168.521477 255.214141 
L 167.998808 252.370106 
L 167.692033 249.407695 
L 167.602365 246.338625 
L 167.730158 243.17503 
L 168.074908 239.929422 
L 168.63525 236.614635 
L 169.497967 232.904119 
L 170.614724 229.143515 
L 171.980179 225.350816 
L 173.587798 221.544168 
L 175.429889 217.741784 
L 177.49764 213.961857 
L 179.781156 210.222472 
L 182.269513 206.541521 
L 185.203688 202.613267 
L 188.350748 198.797871 
L 191.692775 195.117058 
L 195.21074 191.591784 
L 198.884614 188.24212 
L 202.693479 185.087139 
L 206.61565 182.144803 
L 210.628794 179.431865 
L 214.367921 177.159741 
L 218.146405 175.104241 
L 221.94617 173.275199 
L 225.749034 171.681367 
L 229.536803 170.33037 
L 233.291354 169.228672 
L 236.994723 168.381544 
L 240.629191 167.79304 
L 243.858822 167.484854 
L 247.004364 167.393968 
L 250.053375 167.52074 
L 252.993801 167.864669 
L 255.814012 168.424396 
L 258.502856 169.197706 
L 261.049701 170.181542 
L 263.212115 171.243795 
L 265.244417 172.47003 
L 267.140098 173.856319 
L 268.893084 175.398222 
L 270.49776 177.0908 
L 271.948985 178.92863 
L 273.242112 180.905825 
L 274.372998 183.016052 
L 275.33802 185.252552 
L 276.134088 187.608159 
L 276.817367 190.356005 
L 277.286222 193.230707 
L 277.538801 196.220898 
L 277.574103 199.314753 
L 277.39199 202.500037 
L 276.993181 205.764155 
L 276.379253 209.094198 
L 275.458393 212.817667 
L 274.284602 216.587152 
L 272.863494 220.384619 
L 271.201869 224.191898 
L 269.307678 227.990773 
L 267.189983 231.763068 
L 264.858917 235.490734 
L 262.085718 239.485431 
L 259.08767 243.383053 
L 255.881842 247.161407 
L 252.486488 250.798983 
L 248.920939 254.275068 
L 245.205495 257.569872 
L 241.361311 260.664635 
L 237.410274 263.541738 
L 233.37488 266.184798 
L 229.621279 268.389127 
L 225.834056 270.373589 
L 222.031331 272.128687 
L 218.231298 273.646026 
L 214.452138 274.918346 
L 210.711934 275.939558 
L 207.02858 276.704778 
L 203.4197 277.210343 
L 200.218063 277.442568 
L 197.104911 277.457271 
L 194.092554 277.254393 
L 191.192904 276.834736 
L 188.417429 276.19996 
L 185.777103 275.352575 
L 183.525003 274.410901 
L 181.398054 273.302733 
L 180.494711 272.757681 
L 180.494711 272.757681 
" clip-path="url(#p9944598f5f)" style="fill: none; stroke: #00ffff; stroke-width: 2.5; stroke-linecap: square"/>
   </g>
   <g id="line2d_23">
    <path d="M 267.945099 174.823566 
L 273.945438 173.955283 
L 279.963399 173.305092 
L 285.97019 172.876105 
L 291.937071 172.670373 
L 297.835493 172.688882 
L 303.637236 172.931542 
L 309.314539 173.397193 
L 314.84024 174.083607 
L 320.187901 174.987499 
L 324.873365 175.99432 
L 329.372002 177.173332 
L 333.666024 178.519873 
L 337.73845 180.028618 
L 341.573175 181.6936 
L 345.155035 183.508236 
L 348.150781 185.263443 
L 350.920624 187.128441 
L 353.455692 189.097257 
L 355.747862 191.163583 
L 357.789794 193.320801 
L 359.574945 195.562001 
L 360.941536 197.618883 
L 362.097251 199.731245 
L 363.039163 201.893741 
L 363.764889 204.100898 
L 364.272593 206.347127 
L 364.560987 208.626745 
L 364.629344 210.93398 
L 364.47749 213.262993 
L 364.105809 215.60789 
L 363.515241 217.962733 
L 362.707283 220.321564 
L 361.683978 222.678411 
L 360.278601 225.320067 
L 358.608471 227.9432 
L 356.678938 230.539409 
L 354.496184 233.100377 
L 352.0672 235.6179 
L 349.399768 238.083915 
L 346.166709 240.753918 
L 342.662621 243.340023 
L 338.90136 245.832005 
L 334.8978 248.220008 
L 330.667773 250.494589 
L 326.228005 252.646754 
L 321.122988 254.862603 
L 315.809871 256.909439 
L 310.314075 258.777469 
L 304.661894 260.457756 
L 298.880371 261.942261 
L 292.99717 263.22388 
L 287.040437 264.296481 
L 281.038673 265.154933 
L 275.020595 265.795129 
L 269.014995 266.214005 
L 263.050609 266.409557 
L 257.155972 266.380849 
L 251.359288 266.12802 
L 245.688291 265.652278 
L 240.170115 264.9559 
L 234.831162 264.042217 
L 230.154605 263.026686 
L 225.665782 261.839181 
L 221.382444 260.484398 
L 217.321528 258.967694 
L 213.499095 257.295068 
L 209.930258 255.473133 
L 206.946817 253.711676 
L 204.189791 251.840751 
L 201.668012 249.866349 
L 199.389558 247.794797 
L 197.361728 245.632729 
L 195.591018 243.387072 
L 194.23751 241.326569 
L 193.095078 239.210915 
L 192.166613 237.045466 
L 191.454465 234.835703 
L 190.960437 232.587219 
L 190.685779 230.305705 
L 190.631186 227.996937 
L 190.796797 225.666758 
L 191.182192 223.321066 
L 191.786395 220.965798 
L 192.607879 218.606916 
L 193.644562 216.250391 
L 195.064774 213.609543 
L 196.749463 210.987686 
L 198.693234 208.393217 
L 200.889858 205.834449 
L 203.3323 203.319577 
L 206.012736 200.856657 
L 209.259659 198.190601 
L 212.776943 195.608962 
L 216.550681 193.121949 
L 220.565948 190.739396 
L 224.806867 188.470726 
L 229.256667 186.324909 
L 234.371681 184.116519 
L 239.69366 182.077604 
L 245.197142 180.21792 
L 250.855794 178.546365 
L 256.642542 177.070936 
L 262.5297 175.798692 
L 267.945099 174.823566 
L 267.945099 174.823566 
" clip-path="url(#p9944598f5f)" style="fill: none; stroke: #1e90ff; stroke-width: 2.5; stroke-linecap: square"/>
   </g>
   <g id="line2d_24">
    <path d="M 189.32302 184.94682 
L 193.942168 183.829031 
L 198.611312 182.932521 
L 203.303868 182.262393 
L 207.993119 181.822464 
L 212.652365 181.615238 
L 217.255079 181.641894 
L 221.775056 181.902282 
L 226.18656 182.394918 
L 230.113683 183.048153 
L 233.909756 183.891074 
L 237.556615 184.919647 
L 241.036813 186.128951 
L 244.333698 187.513201 
L 247.431496 189.065774 
L 250.315386 190.77924 
L 252.739849 192.469671 
L 254.966524 194.279621 
L 256.986607 196.201933 
L 258.792108 198.229004 
L 260.375888 200.35282 
L 261.731684 202.564981 
L 262.854135 204.85674 
L 263.738801 207.219033 
L 264.328784 209.397689 
L 264.721427 211.618936 
L 264.91547 213.875658 
L 264.910293 216.160627 
L 264.67093 218.723706 
L 264.186598 221.302483 
L 263.459212 223.886761 
L 262.49165 226.466321 
L 261.287737 229.030962 
L 259.852233 231.570542 
L 258.190817 234.07502 
L 256.310058 236.53449 
L 253.996782 239.176322 
L 251.438186 241.739292 
L 248.646511 244.211137 
L 245.635115 246.58003 
L 242.418405 248.834638 
L 239.011771 250.964172 
L 235.431514 252.958445 
L 231.34791 254.968557 
L 227.10133 256.794908 
L 222.715952 258.427101 
L 218.216744 259.855843 
L 213.629322 261.072999 
L 208.979807 262.071639 
L 204.294669 262.846077 
L 199.600585 263.391904 
L 194.92428 263.706013 
L 190.292379 263.786614 
L 185.731255 263.633249 
L 181.266876 263.246792 
L 177.281238 262.689629 
L 173.417328 261.941103 
L 169.693634 261.004797 
L 166.127972 259.885188 
L 162.737403 258.587634 
L 159.538147 257.118344 
L 156.545513 255.484347 
L 154.016305 253.862532 
L 151.679705 252.117462 
L 149.544955 250.256036 
L 147.620496 248.285616 
L 145.913937 246.213994 
L 144.432028 244.049362 
L 143.180629 241.80028 
L 142.164688 239.475642 
L 141.454998 237.326459 
L 140.941568 235.130402 
L 140.626044 232.894507 
L 140.509437 230.625935 
L 140.613602 228.075817 
L 140.963377 225.504416 
L 141.557378 222.921899 
L 142.393256 220.338479 
L 143.467706 217.764373 
L 144.776479 215.209759 
L 146.314399 212.68474 
L 148.075386 210.1993 
L 150.261775 207.522756 
L 152.699169 204.918797 
L 155.375905 202.399882 
L 158.279178 199.978064 
L 161.395095 197.66493 
L 164.70875 195.471547 
L 168.204286 193.408409 
L 172.205361 191.317838 
L 176.380192 189.405908 
L 180.70501 187.683504 
L 185.15519 186.160433 
L 189.32302 184.94682 
L 189.32302 184.94682 
" clip-path="url(#p9944598f5f)" style="fill: none; stroke: #4169e1; stroke-width: 2.5; stroke-linecap: square"/>
   </g>
   <g id="line2d_25">
    <path d="M 76.817005 304.213838 
L 75.217632 302.931645 
L 73.773884 301.495753 
L 72.490389 299.910762 
L 71.371256 298.18175 
L 70.420071 296.314254 
L 69.63988 294.314257 
L 69.033184 292.188166 
L 68.564902 289.68625 
L 68.315047 287.046972 
L 68.284609 284.280771 
L 68.473706 281.398583 
L 68.881591 278.411808 
L 69.581014 275.019663 
L 70.539855 271.531496 
L 71.753525 267.963996 
L 73.216218 264.33423 
L 74.920936 260.659568 
L 77.047042 256.620302 
L 79.439344 252.571529 
L 82.084222 248.536299 
L 84.966616 244.537588 
L 88.070116 240.598163 
L 91.377052 236.740453 
L 94.868595 232.986422 
L 98.524866 229.357445 
L 102.647552 225.591116 
L 106.579198 222.288063 
L 110.608896 219.170975 
L 114.713704 216.2576 
L 118.87025 213.564524 
L 123.054869 211.107082 
L 127.243735 208.899265 
L 131.412998 206.953642 
L 135.538922 205.281293 
L 139.598013 203.891738 
L 143.240391 202.873193 
L 146.789759 202.103813 
L 150.229135 201.58728 
L 153.542064 201.326065 
L 156.43074 201.311229 
L 159.190382 201.508506 
L 161.810079 201.917116 
L 164.27947 202.535442 
L 166.588791 203.361041 
L 168.522757 204.278615 
L 170.313467 205.358506 
L 171.955182 206.597255 
L 173.442644 207.990894 
L 174.771089 209.534957 
L 175.93626 211.2245 
L 176.934426 213.05411 
L 177.762389 215.017925 
L 178.417497 217.109657 
L 178.94013 219.575665 
L 179.244718 222.181559 
L 179.330056 224.917037 
L 179.195807 227.771279 
L 178.842501 230.732999 
L 178.202548 234.101039 
L 177.302308 237.568833 
L 176.146087 241.11979 
L 174.739417 244.73692 
L 173.08903 248.402916 
L 171.019957 252.437302 
L 168.682038 256.485995 
L 166.088585 260.525946 
L 163.254364 264.534151 
L 160.19551 268.48779 
L 156.929441 272.364353 
L 153.474752 276.141767 
L 149.851112 279.798527 
L 145.758796 283.599732 
L 141.519768 287.209516 
L 137.501082 290.350843 
L 133.404392 293.290614 
L 129.253024 296.012093 
L 125.070613 298.499782 
L 120.880973 300.73952 
L 116.707957 302.718554 
L 112.575325 304.425615 
L 108.506607 305.850986 
L 104.852888 306.903157 
L 101.289826 307.706757 
L 97.834469 308.257942 
L 94.503349 308.554074 
L 91.596292 308.600743 
L 88.816586 308.435253 
L 86.175223 308.058261 
L 83.682649 307.471256 
L 81.348719 306.67656 
L 79.391467 305.786339 
L 77.57647 304.733274 
L 76.817005 304.213838 
L 76.817005 304.213838 
" clip-path="url(#p9944598f5f)" style="fill: none; stroke: #6a5acd; stroke-width: 2.5; stroke-linecap: square"/>
   </g>
   <g id="line2d_26">
    <path d="M 70.603802 243.265832 
L 68.749291 241.75698 
L 67.074028 240.074415 
L 65.58338 238.223526 
L 64.282123 236.210243 
L 63.174424 234.041014 
L 62.263831 231.722788 
L 61.553262 229.262992 
L 61.044993 226.669504 
L 60.740652 223.950633 
L 60.641213 221.115088 
L 60.746996 218.171951 
L 61.10479 214.78709 
L 61.714095 211.294433 
L 62.5725 207.70779 
L 63.676613 204.041346 
L 65.022065 200.309599 
L 66.774434 196.146871 
L 68.803982 191.942903 
L 71.101 187.71781 
L 73.654497 183.491807 
L 76.452257 179.285112 
L 79.480892 175.117854 
L 82.725913 171.00997 
L 86.171793 166.981116 
L 90.140618 162.698773 
L 94.306248 158.557794 
L 98.644965 154.581756 
L 103.132067 150.793298 
L 107.742007 147.213989 
L 112.448536 143.864208 
L 116.824828 141.011524 
L 121.238832 138.381398 
L 125.669428 135.986413 
L 130.095418 133.83803 
L 134.495626 131.946526 
L 138.848999 130.320953 
L 143.134708 128.969087 
L 146.954827 127.983101 
L 150.686969 127.23258 
L 154.316372 126.720493 
L 157.828687 126.448863 
L 161.210022 126.418766 
L 164.447008 126.63032 
L 167.226283 127.026659 
L 169.869356 127.6168 
L 172.367759 128.398854 
L 174.71349 129.370314 
L 176.899034 130.52807 
L 178.917391 131.868411 
L 180.762095 133.387046 
L 182.427237 135.07911 
L 183.907482 136.939181 
L 185.19809 138.961302 
L 186.294926 141.138995 
L 187.194477 143.465285 
L 187.893861 145.932719 
L 188.390837 148.533394 
L 188.683815 151.25898 
L 188.771854 154.100744 
L 188.654674 157.049584 
L 188.284263 160.440157 
L 187.662438 163.937845 
L 186.791658 167.528817 
L 185.675367 171.198873 
L 184.317979 174.9335 
L 182.55282 179.098536 
L 180.510893 183.303901 
L 178.201969 187.529475 
L 175.637095 191.755039 
L 172.828542 195.960377 
L 169.789748 200.125367 
L 166.535253 204.230082 
L 163.080627 208.254883 
L 159.103143 212.531818 
L 154.929821 216.666389 
L 150.584421 220.635055 
L 146.091685 224.415222 
L 141.477193 227.985365 
L 136.767217 231.325159 
L 132.388755 234.168015 
L 127.973538 236.787718 
L 123.542691 239.171733 
L 119.117414 241.308654 
L 114.71888 243.188257 
L 110.368133 244.801548 
L 106.08599 246.140809 
L 102.269913 247.115107 
L 98.542561 247.853768 
L 94.918674 248.353873 
L 91.412583 248.613444 
L 88.038152 248.631453 
L 84.808725 248.407831 
L 82.036787 248.000686 
L 79.401533 247.399828 
L 76.911406 246.60718 
L 74.574382 245.625283 
L 72.397947 244.457281 
L 70.603802 243.265832 
L 70.603802 243.265832 
" clip-path="url(#p9944598f5f)" style="fill: none; stroke: #87cefa; stroke-width: 2.5; stroke-linecap: square"/>
   </g>
   <g id="line2d_27">
    <path d="M 126.115358 196.030487 
L 124.403977 195.549972 
L 122.764039 194.830317 
L 121.200797 193.873827 
L 119.719258 192.683565 
L 118.32417 191.263346 
L 117.02 189.617718 
L 115.810926 187.751952 
L 114.583743 185.427986 
L 113.483589 182.848831 
L 112.514816 180.024685 
L 111.605465 176.648518 
L 110.864058 173.005599 
L 110.294144 169.113357 
L 109.871186 164.604837 
L 109.657956 159.847456 
L 109.655667 154.868299 
L 109.864332 149.695718 
L 110.327034 143.907993 
L 111.032809 137.966511 
L 111.97694 131.910971 
L 113.153118 125.781833 
L 114.553487 119.620047 
L 116.168688 113.466786 
L 117.98793 107.36316 
L 119.999058 101.349952 
L 122.188635 95.467339 
L 124.54203 89.754625 
L 127.043519 84.24998 
L 129.67639 78.990183 
L 132.423049 74.010378 
L 135.265147 69.343836 
L 137.956916 65.341306 
L 140.698503 61.65508 
L 143.4743 58.306144 
L 146.035337 55.548908 
L 148.599587 53.104326 
L 151.154782 50.984096 
L 153.459539 49.346642 
L 155.737593 47.992125 
L 157.979936 46.925901 
L 159.960179 46.216299 
L 161.897968 45.745918 
L 163.787095 45.516264 
L 165.621509 45.528073 
L 167.395335 45.781307 
L 169.102889 46.275155 
L 170.738701 47.008036 
L 172.297533 47.9776 
L 173.774391 49.180744 
L 175.164543 50.613612 
L 176.463537 52.271615 
L 177.667211 54.149441 
L 178.888154 56.486394 
L 179.981837 59.078049 
L 180.943937 61.914159 
L 181.845743 65.302812 
L 182.579425 68.957451 
L 183.141473 72.860592 
L 183.555732 77.380004 
L 183.760189 82.147176 
L 183.75368 87.134966 
L 183.536243 92.314975 
L 183.064124 98.109336 
L 182.349084 104.055945 
L 181.395902 110.115067 
L 180.210945 116.246221 
L 178.802132 122.40844 
L 177.178874 128.560552 
L 175.352019 134.661451 
L 173.333771 140.670374 
L 171.137616 146.547173 
L 168.778228 152.252582 
L 166.27137 157.74848 
L 163.633792 162.998147 
L 160.883118 167.966506 
L 158.037726 172.620362 
L 155.343573 176.610156 
L 152.600246 180.282734 
L 149.823366 183.617189 
L 147.261917 186.360489 
L 144.697812 188.790569 
L 142.14332 190.895803 
L 139.839683 192.519255 
L 137.563201 193.859475 
L 135.322878 194.911164 
L 133.344828 195.607529 
L 131.409581 196.064569 
L 129.523337 196.28082 
L 127.692136 196.255591 
L 126.115358 196.030487 
L 126.115358 196.030487 
" clip-path="url(#p9944598f5f)" style="fill: none; stroke: #ff0000; stroke-width: 2.5; stroke-linecap: square"/>
   </g>
   <g id="line2d_28">
    <path d="M 171.642016 150.222649 
L 175.804031 146.99201 
L 180.097949 143.918393 
L 184.503223 141.016503 
L 188.998779 138.300225 
L 193.563105 135.782555 
L 198.174364 133.475539 
L 202.810494 131.390214 
L 207.449312 129.536559 
L 212.068624 127.923442 
L 216.646328 126.558581 
L 221.160522 125.448507 
L 225.589608 124.59853 
L 229.912395 124.012717 
L 233.732543 123.711776 
L 237.432633 123.632675 
L 240.998034 123.775726 
L 244.414646 124.140363 
L 247.668959 124.725145 
L 250.448424 125.437779 
L 253.077091 126.324585 
L 255.546538 127.382723 
L 257.848856 128.608802 
L 259.976669 129.998896 
L 261.923162 131.548552 
L 263.682099 133.252805 
L 265.247846 135.106197 
L 266.615387 137.10279 
L 267.780341 139.236189 
L 268.738978 141.499559 
L 269.488225 143.885651 
L 270.025684 146.386821 
L 270.349632 148.995057 
L 270.459032 151.702005 
L 270.353533 154.498992 
L 270.033473 157.37706 
L 269.499877 160.326989 
L 268.658652 163.677469 
L 267.559256 167.091746 
L 266.206037 170.556319 
L 264.604346 174.057487 
L 262.760516 177.581405 
L 260.461363 181.467358 
L 257.889065 185.345384 
L 255.055929 189.196928 
L 251.975511 193.003562 
L 248.66255 196.747073 
L 245.132895 200.409551 
L 241.403435 203.973471 
L 237.492013 207.421783 
L 233.417345 210.737987 
L 229.198925 213.906217 
L 224.856937 216.911314 
L 220.412155 219.738901 
L 215.885845 222.375449 
L 211.299664 224.808342 
L 206.675555 227.025941 
L 202.035642 229.017636 
L 197.402124 230.773897 
L 192.797171 232.286321 
L 188.242816 233.547672 
L 183.760849 234.551915 
L 179.372714 235.294245 
L 175.482602 235.738797 
L 171.702779 235.962185 
L 168.048192 235.963523 
L 164.533292 235.742808 
L 161.17198 235.300911 
L 157.977546 234.639581 
L 155.255693 233.858911 
L 152.687972 232.905108 
L 150.282608 231.781227 
L 148.047307 230.490868 
L 145.989229 229.038165 
L 144.114966 227.42777 
L 142.430523 225.664843 
L 140.941295 223.755031 
L 139.652052 221.704451 
L 138.566925 219.519673 
L 137.68939 217.207694 
L 137.022256 214.77592 
L 136.567663 212.232142 
L 136.327065 209.584507 
L 136.301233 206.841497 
L 136.49025 204.011899 
L 136.893511 201.104776 
L 137.591258 197.795051 
L 138.549133 194.414206 
L 139.763348 190.975612 
L 141.229102 187.492865 
L 142.940597 183.97974 
L 144.891067 180.450127 
L 147.303366 176.56517 
L 149.98393 172.69574 
L 152.919934 168.860351 
L 156.097329 165.077354 
L 159.500915 161.364848 
L 163.114405 157.740596 
L 166.920512 154.221939 
L 170.901025 150.825711 
L 171.642016 150.222649 
L 171.642016 150.222649 
" clip-path="url(#p9944598f5f)" style="fill: none; stroke: #ff6347; stroke-width: 2.5; stroke-linecap: square"/>
   </g>
   <g id="line2d_29">
    <path d="M 157.034698 137.410122 
L 161.036124 134.781439 
L 165.175933 132.34299 
L 169.430555 130.108658 
L 173.775765 128.091165 
L 178.186824 126.301997 
L 182.638617 124.751341 
L 187.105798 123.448026 
L 191.192508 122.476966 
L 195.251223 121.724638 
L 199.262522 121.194643 
L 203.207215 120.889515 
L 207.066427 120.810716 
L 210.821694 120.958621 
L 214.455048 121.332524 
L 217.949106 121.930635 
L 220.990564 122.666545 
L 223.891048 123.582489 
L 226.639089 124.674845 
L 229.223821 125.939292 
L 231.635021 127.370831 
L 233.863154 128.963801 
L 235.899411 130.711902 
L 237.735738 132.608222 
L 239.211473 134.435451 
L 240.514647 136.370817 
L 241.641083 138.40812 
L 242.587173 140.540834 
L 243.349888 142.762128 
L 243.926784 145.064887 
L 244.347615 147.710072 
L 244.535109 150.436257 
L 244.488524 153.232661 
L 244.208045 156.088228 
L 243.694779 158.991664 
L 242.950758 161.931487 
L 241.978923 164.896074 
L 240.783118 167.873699 
L 239.214715 171.150094 
L 237.388552 174.412342 
L 235.313367 177.644836 
L 232.999087 180.832109 
L 230.456786 183.958912 
L 227.698627 187.010284 
L 224.737808 189.971625 
L 221.588494 192.828769 
L 217.955629 195.810765 
L 214.137072 198.635521 
L 210.154563 201.286952 
L 206.030778 203.749962 
L 201.789195 206.010529 
L 197.453965 208.055781 
L 193.04977 209.874074 
L 188.601685 211.455055 
L 184.135037 212.789723 
L 180.046023 213.790274 
L 175.982343 214.572664 
L 171.963442 215.13315 
L 168.008547 215.469052 
L 164.136581 215.57876 
L 160.36607 215.461752 
L 156.715054 215.118586 
L 153.201001 214.550904 
L 150.139422 213.842267 
L 147.217046 212.953115 
L 144.44543 211.886962 
L 141.835534 210.648026 
L 139.397679 209.241206 
L 137.141506 207.672065 
L 135.075936 205.946807 
L 133.209137 204.072256 
L 131.705086 202.263629 
L 130.372847 200.345864 
L 129.216689 198.325106 
L 128.240314 196.207827 
L 127.446851 194.000809 
L 126.838841 191.711123 
L 126.38313 189.078999 
L 126.160566 186.364284 
L 126.172028 183.577713 
L 126.417471 180.730306 
L 126.895926 177.833323 
L 127.605499 174.89822 
L 128.543385 171.936602 
L 129.705875 168.960183 
L 131.238519 165.683073 
L 133.03002 162.417974 
L 135.071807 159.180508 
L 137.35411 155.986165 
L 139.866009 152.850229 
L 142.595487 149.787702 
L 145.529485 146.813239 
L 148.653963 143.94107 
L 152.262139 140.940595 
L 156.058653 138.095285 
L 157.034698 137.410122 
L 157.034698 137.410122 
" clip-path="url(#p9944598f5f)" style="fill: none; stroke: #dc143c; stroke-width: 2.5; stroke-linecap: square"/>
   </g>
   <g id="line2d_30">
    <path d="M 99.834522 212.580078 
L 97.693097 211.338324 
L 95.689815 209.913697 
L 93.8326 208.311832 
L 92.128794 206.539063 
L 90.585136 204.6024 
L 89.207729 202.509501 
L 88.002022 200.268644 
L 86.972781 197.888689 
L 86.124077 195.379048 
L 85.459265 192.749644 
L 84.980976 190.010877 
L 84.672526 186.884854 
L 84.593515 183.654571 
L 84.744323 180.335482 
L 85.124228 176.943467 
L 85.731411 173.494756 
L 86.562968 170.00585 
L 87.61492 166.493441 
L 89.007922 162.654665 
L 90.649271 158.829776 
L 92.529624 155.04055 
L 94.638274 151.308563 
L 96.963215 147.655062 
L 99.49121 144.100848 
L 102.207865 140.666158 
L 105.097714 137.370548 
L 108.144302 134.232782 
L 111.330284 131.270724 
L 114.637519 128.501239 
L 118.047179 125.940096 
L 121.539849 123.601876 
L 125.095645 121.499893 
L 128.69432 119.646113 
L 132.013278 118.173897 
L 135.335171 116.92617 
L 138.644107 115.908902 
L 141.924254 115.126961 
L 145.159916 114.584088 
L 148.335614 114.28288 
L 151.436153 114.224779 
L 154.177114 114.383176 
L 156.832855 114.742104 
L 159.392875 115.300145 
L 161.84705 116.055092 
L 164.185676 117.003958 
L 166.399505 118.142993 
L 168.479781 119.467692 
L 170.41828 120.972815 
L 172.207334 122.652412 
L 173.83987 124.49984 
L 175.309432 126.507795 
L 176.610208 128.668335 
L 177.737054 130.972916 
L 178.685515 133.412426 
L 179.451839 135.977218 
L 180.032997 138.657149 
L 180.42669 141.441621 
L 180.641394 144.612134 
L 180.626371 147.880641 
L 180.381693 151.231504 
L 179.908529 154.648691 
L 179.209144 158.115853 
L 178.286884 161.6164 
L 177.146162 165.133584 
L 175.659023 168.969712 
L 173.926878 172.783771 
L 171.959588 176.554045 
L 169.768354 180.259069 
L 167.365653 183.877747 
L 164.765164 187.389477 
L 161.981694 190.774263 
L 159.03109 194.012835 
L 155.930152 197.086753 
L 152.696535 199.978515 
L 149.34865 202.671658 
L 145.905558 205.150847 
L 142.386864 207.401968 
L 138.8126 209.412203 
L 135.203118 211.170106 
L 131.881037 212.551277 
L 128.562525 213.705385 
L 125.26346 214.626908 
L 121.999624 215.311436 
L 118.786636 215.755694 
L 115.639867 215.957557 
L 112.574374 215.91606 
L 109.87044 215.667299 
L 107.256496 215.218547 
L 104.742877 214.571578 
L 102.339524 213.728952 
L 100.055941 212.694 
L 99.834522 212.580078 
L 99.834522 212.580078 
" clip-path="url(#p9944598f5f)" style="fill: none; stroke: #ff8c00; stroke-width: 2.5; stroke-linecap: square"/>
   </g>
   <g id="line2d_31">
    <path d="M 128.622287 225.185543 
L 126.369029 224.017066 
L 124.248398 222.647025 
L 122.267186 221.079809 
L 120.431741 219.320438 
L 118.747941 217.374548 
L 117.221181 215.248371 
L 115.85635 212.948719 
L 114.657822 210.482958 
L 113.629434 207.858987 
L 112.774482 205.085212 
L 112.095704 202.170516 
L 111.595275 199.124238 
L 111.250346 195.59704 
L 111.12893 191.933399 
L 111.231507 188.147802 
L 111.55767 184.25522 
L 112.10613 180.271044 
L 112.874719 176.211031 
L 113.970761 171.676593 
L 115.324219 167.091518 
L 116.928616 162.477744 
L 118.776277 157.857346 
L 120.85836 153.25243 
L 123.164905 148.685029 
L 125.684875 144.176995 
L 128.406214 139.749898 
L 131.315901 135.424918 
L 134.400015 131.22275 
L 137.643799 127.163499 
L 141.031733 123.266586 
L 144.547609 119.550656 
L 148.174603 116.033489 
L 151.895363 112.731912 
L 155.692086 109.661722 
L 159.546606 106.837608 
L 163.440482 104.273083 
L 167.355083 101.980417 
L 170.916036 100.141341 
L 174.464556 98.543297 
L 177.986612 97.192602 
L 181.468275 96.094599 
L 184.895777 95.253629 
L 188.255565 94.673019 
L 191.210491 94.374995 
L 194.090337 94.290691 
L 196.885878 94.420374 
L 199.588159 94.763631 
L 202.188523 95.319362 
L 204.678641 96.085786 
L 207.050537 97.060449 
L 209.296612 98.240227 
L 211.409672 99.621343 
L 213.382948 101.199372 
L 215.210118 102.969259 
L 216.885331 104.925334 
L 218.403219 107.061332 
L 219.75892 109.370411 
L 220.948092 111.845173 
L 221.966925 114.477691 
L 222.812157 117.259533 
L 223.481078 120.181788 
L 224.014954 123.582019 
L 224.326421 127.130586 
L 224.414247 130.813457 
L 224.278085 134.616067 
L 223.918474 138.523379 
L 223.336834 142.519943 
L 222.535468 146.589954 
L 221.403987 151.132581 
L 220.015902 155.722865 
L 218.377854 160.338843 
L 216.49768 164.958432 
L 214.384377 169.559526 
L 212.048056 174.120114 
L 209.499894 178.618373 
L 206.752084 183.032783 
L 203.817773 187.342222 
L 200.710999 191.526071 
L 197.446628 195.564312 
L 194.040278 199.437625 
L 190.508247 203.127477 
L 186.867434 206.616215 
L 183.135258 209.887145 
L 179.329577 212.924619 
L 175.468599 215.714102 
L 171.570797 218.24225 
L 167.65482 220.496965 
L 164.094834 222.300327 
L 160.549391 223.861648 
L 157.03251 225.174755 
L 153.558098 226.234456 
L 150.139894 227.036558 
L 146.791417 227.577892 
L 143.848353 227.840343 
L 140.981924 227.888983 
L 138.201312 227.723657 
L 135.515425 227.344893 
L 132.932866 226.753904 
L 130.461907 225.952585 
L 128.622287 225.185543 
L 128.622287 225.185543 
" clip-path="url(#p9944598f5f)" style="fill: none; stroke: #8b0000; stroke-width: 2.5; stroke-linecap: square"/>
   </g>
   <g id="line2d_32">
    <path d="M 124.688907 139.423808 
L 128.646006 136.479084 
L 132.733694 133.693401 
L 136.932412 131.080087 
L 141.222072 128.651645 
L 145.58215 126.419695 
L 149.991784 124.394914 
L 154.429877 122.586991 
L 158.875194 121.004576 
L 163.306466 119.65524 
L 167.702492 118.545439 
L 172.042239 117.680483 
L 176.304943 117.064509 
L 180.470209 116.700467 
L 184.15548 116.589625 
L 187.729175 116.688883 
L 191.177159 116.997847 
L 194.4858 117.515297 
L 197.642012 118.239185 
L 200.633315 119.166649 
L 203.1747 120.17241 
L 205.564777 121.336885 
L 207.79589 122.656344 
L 209.860892 124.126561 
L 211.753169 125.742825 
L 213.466658 127.499961 
L 214.995872 129.392338 
L 216.335911 131.413895 
L 217.482484 133.558157 
L 218.431916 135.818255 
L 219.181168 138.186949 
L 219.727838 140.656651 
L 220.070175 143.21945 
L 220.207084 145.867136 
L 220.138125 148.59123 
L 219.86352 151.383003 
L 219.318304 154.553468 
L 218.522462 157.783907 
L 217.479139 161.061544 
L 216.192463 164.373418 
L 214.667521 167.706434 
L 212.910343 171.04741 
L 210.717535 174.715911 
L 208.26264 178.360506 
L 205.557405 181.963757 
L 202.614771 185.508426 
L 199.448818 188.977552 
L 196.074695 192.354537 
L 192.508544 195.623224 
L 188.767428 198.767973 
L 184.869247 201.773738 
L 180.832651 204.626139 
L 176.676954 207.311527 
L 172.422039 209.817054 
L 168.088264 212.130733 
L 163.696364 214.241493 
L 159.267352 216.139236 
L 154.82242 217.814882 
L 150.382833 219.260413 
L 145.969834 220.468913 
L 141.604537 221.4346 
L 137.307827 222.152854 
L 133.100263 222.620238 
L 129.001975 222.834517 
L 125.387598 222.808792 
L 121.894037 222.573128 
L 118.535109 222.128458 
L 115.324095 221.476539 
L 112.273694 220.61995 
L 109.395968 219.562078 
L 106.963072 218.441338 
L 104.687063 217.164527 
L 102.575232 215.735735 
L 100.634344 214.15954 
L 98.870616 212.44099 
L 97.289697 210.58559 
L 95.896653 208.599283 
L 94.695945 206.488433 
L 93.691419 204.259802 
L 92.886293 201.920527 
L 92.283147 199.478102 
L 91.883912 196.940352 
L 91.689868 194.315406 
L 91.701635 191.611671 
L 91.919177 188.83781 
L 92.40136 185.684307 
L 93.134802 182.467673 
L 94.116603 179.200627 
L 95.342881 175.896088 
L 96.808786 172.567125 
L 98.508521 169.2269 
L 100.640254 165.555412 
L 103.036571 161.903847 
L 105.686005 158.289677 
L 108.575881 154.730194 
L 111.692372 151.242427 
L 115.020567 147.843065 
L 118.544542 144.548372 
L 122.247436 141.374112 
L 124.688907 139.423808 
L 124.688907 139.423808 
" clip-path="url(#p9944598f5f)" style="fill: none; stroke: #b22222; stroke-width: 2.5; stroke-linecap: square"/>
   </g>
   <g id="patch_3">
    <path d="M 44.570937 351.9525 
L 44.570937 19.3125 
" style="fill: none; stroke: #000000; stroke-width: 2; stroke-linejoin: miter; stroke-linecap: square"/>
   </g>
   <g id="patch_4">
    <path d="M 435.170938 351.9525 
L 435.170938 19.3125 
" style="fill: none; stroke: #000000; stroke-width: 2; stroke-linejoin: miter; stroke-linecap: square"/>
   </g>
   <g id="patch_5">
    <path d="M 44.570937 351.9525 
L 435.170938 351.9525 
" style="fill: none; stroke: #000000; stroke-width: 2; stroke-linejoin: miter; stroke-linecap: square"/>
   </g>
   <g id="patch_6">
    <path d="M 44.570937 19.3125 
L 435.170938 19.3125 
" style="fill: none; stroke: #000000; stroke-width: 2; stroke-linejoin: miter; stroke-linecap: square"/>
   </g>
   <g id="text_13">
    <!-- Feature Space -->
    <g transform="translate(182.087188 13.3125) scale(0.16 -0.16)">
     <defs>
      <path id="Montserrat-Regular-46" d="M 3802 4070 
L 3802 4480 
L 730 4480 
L 730 0 
L 1203 0 
L 1203 1901 
L 3520 1901 
L 3520 2310 
L 1203 2310 
L 1203 4070 
L 3802 4070 
z
" transform="scale(0.015625)"/>
      <path id="Montserrat-Regular-61" d="M 1811 3392 
C 1280 3392 781 3226 442 2938 
L 646 2598 
C 922 2842 1331 2995 1766 2995 
C 2394 2995 2720 2682 2720 2106 
L 2720 1901 
L 1651 1901 
C 685 1901 352 1466 352 947 
C 352 365 819 -32 1581 -32 
C 2138 -32 2534 179 2739 525 
L 2739 0 
L 3174 0 
L 3174 2086 
C 3174 2957 2682 3392 1811 3392 
z
M 1651 326 
C 1114 326 800 570 800 960 
C 800 1306 1011 1562 1664 1562 
L 2720 1562 
L 2720 1011 
C 2541 570 2163 326 1651 326 
z
" transform="scale(0.015625)"/>
      <path id="Montserrat-Regular-20" transform="scale(0.015625)"/>
      <path id="Montserrat-Regular-53" d="M 1965 -38 
C 3110 -38 3635 525 3635 1184 
C 3635 2816 877 2074 877 3302 
C 877 3750 1242 4115 2061 4115 
C 2458 4115 2906 3994 3290 3744 
L 3450 4122 
C 3091 4371 2566 4518 2061 4518 
C 922 4518 410 3949 410 3290 
C 410 1632 3168 2387 3168 1158 
C 3168 717 2803 365 1965 365 
C 1376 365 806 595 486 909 
L 301 544 
C 634 198 1293 -38 1965 -38 
z
" transform="scale(0.015625)"/>
      <path id="Montserrat-Regular-70" d="M 2368 3392 
C 1811 3392 1344 3149 1069 2701 
L 1069 3366 
L 634 3366 
L 634 -1242 
L 1088 -1242 
L 1088 634 
C 1370 198 1830 -32 2368 -32 
C 3328 -32 4045 659 4045 1683 
C 4045 2701 3328 3392 2368 3392 
z
M 2336 371 
C 1619 371 1082 896 1082 1683 
C 1082 2464 1619 2995 2336 2995 
C 3046 2995 3590 2464 3590 1683 
C 3590 896 3046 371 2336 371 
z
" transform="scale(0.015625)"/>
      <path id="Montserrat-Regular-63" d="M 2029 -32 
C 2598 -32 3078 198 3347 634 
L 3008 864 
C 2778 525 2419 371 2029 371 
C 1293 371 755 890 755 1683 
C 755 2470 1293 2995 2029 2995 
C 2419 2995 2778 2835 3008 2496 
L 3347 2726 
C 3078 3168 2598 3392 2029 3392 
C 1024 3392 294 2688 294 1683 
C 294 678 1024 -32 2029 -32 
z
" transform="scale(0.015625)"/>
     </defs>
     <use xlink:href="#Montserrat-Regular-46"/>
     <use xlink:href="#Montserrat-Regular-65" x="63.299988"/>
     <use xlink:href="#Montserrat-Regular-61" x="123.699982"/>
     <use xlink:href="#Montserrat-Regular-74" x="182.699966"/>
     <use xlink:href="#Montserrat-Regular-75" x="223.299957"/>
     <use xlink:href="#Montserrat-Regular-72" x="290.599945"/>
     <use xlink:href="#Montserrat-Regular-65" x="330.699936"/>
     <use xlink:href="#Montserrat-Regular-20" x="391.09993"/>
     <use xlink:href="#Montserrat-Regular-53" x="417.299927"/>
     <use xlink:href="#Montserrat-Regular-70" x="478.799911"/>
     <use xlink:href="#Montserrat-Regular-61" x="546.599899"/>
     <use xlink:href="#Montserrat-Regular-63" x="605.599884"/>
     <use xlink:href="#Montserrat-Regular-65" x="661.899872"/>
    </g>
   </g>
   <g id="legend_1">
    <g id="line2d_33">
     <path d="M 383.295313 34.816875 
L 395.295313 34.816875 
L 407.295313 34.816875 
" style="fill: none; stroke: #0000ff; stroke-width: 2.5; stroke-linecap: square"/>
    </g>
    <g id="text_14">
     <!-- 1 -->
     <g transform="translate(412.095313 39.016875) scale(0.12 -0.12)">
      <use xlink:href="#Montserrat-Regular-31"/>
     </g>
    </g>
    <g id="line2d_34">
     <path d="M 383.295313 52.05 
L 395.295313 52.05 
L 407.295313 52.05 
" style="fill: none; stroke: #00ffff; stroke-width: 2.5; stroke-linecap: square"/>
    </g>
    <g id="text_15">
     <!-- 2 -->
     <g transform="translate(412.095313 56.25) scale(0.12 -0.12)">
      <use xlink:href="#Montserrat-Regular-32"/>
     </g>
    </g>
    <g id="line2d_35">
     <path d="M 383.295313 69.283125 
L 395.295313 69.283125 
L 407.295313 69.283125 
" style="fill: none; stroke: #1e90ff; stroke-width: 2.5; stroke-linecap: square"/>
    </g>
    <g id="text_16">
     <!-- 3 -->
     <g transform="translate(412.095313 73.483125) scale(0.12 -0.12)">
      <use xlink:href="#Montserrat-Regular-33"/>
     </g>
    </g>
    <g id="line2d_36">
     <path d="M 383.295313 86.51625 
L 395.295313 86.51625 
L 407.295313 86.51625 
" style="fill: none; stroke: #4169e1; stroke-width: 2.5; stroke-linecap: square"/>
    </g>
    <g id="text_17">
     <!-- 4 -->
     <g transform="translate(412.095313 90.71625) scale(0.12 -0.12)">
      <defs>
       <path id="Montserrat-Regular-34" d="M 4141 1587 
L 3245 1587 
L 3245 2624 
L 2797 2624 
L 2797 1587 
L 851 1587 
L 3142 4480 
L 2630 4480 
L 256 1510 
L 256 1178 
L 2784 1178 
L 2784 0 
L 3245 0 
L 3245 1178 
L 4141 1178 
L 4141 1587 
z
" transform="scale(0.015625)"/>
      </defs>
      <use xlink:href="#Montserrat-Regular-34"/>
     </g>
    </g>
    <g id="line2d_37">
     <path d="M 383.295313 103.749375 
L 395.295313 103.749375 
L 407.295313 103.749375 
" style="fill: none; stroke: #6a5acd; stroke-width: 2.5; stroke-linecap: square"/>
    </g>
    <g id="text_18">
     <!-- 5 -->
     <g transform="translate(412.095313 107.949375) scale(0.12 -0.12)">
      <defs>
       <path id="Montserrat-Regular-35" d="M 1510 2643 
L 934 2643 
L 1088 4070 
L 3136 4070 
L 3136 4480 
L 685 4480 
L 454 2234 
L 1408 2234 
C 2547 2234 2906 1875 2906 1299 
C 2906 755 2502 384 1741 384 
C 1165 384 653 602 365 902 
L 141 538 
C 486 186 1101 -38 1747 -38 
C 2842 -38 3373 557 3373 1318 
C 3373 2112 2861 2643 1510 2643 
z
" transform="scale(0.015625)"/>
      </defs>
      <use xlink:href="#Montserrat-Regular-35"/>
     </g>
    </g>
    <g id="line2d_38">
     <path d="M 383.295313 120.9825 
L 395.295313 120.9825 
L 407.295313 120.9825 
" style="fill: none; stroke: #87cefa; stroke-width: 2.5; stroke-linecap: square"/>
    </g>
    <g id="text_19">
     <!-- 6 -->
     <g transform="translate(412.095313 125.1825) scale(0.12 -0.12)">
      <defs>
       <path id="Montserrat-Regular-36" d="M 2189 2682 
C 1568 2682 1043 2406 819 1914 
C 806 2048 800 2176 800 2278 
C 800 3494 1421 4115 2387 4115 
C 2720 4115 3027 4058 3258 3904 
L 3443 4275 
C 3162 4448 2784 4518 2381 4518 
C 1165 4518 333 3725 333 2202 
C 333 787 979 -38 2170 -38 
C 3040 -38 3699 499 3699 1338 
C 3699 2157 3078 2682 2189 2682 
z
M 2150 352 
C 1376 352 966 819 966 1312 
C 966 1869 1434 2291 2118 2291 
C 2810 2291 3245 1914 3245 1325 
C 3245 730 2797 352 2150 352 
z
" transform="scale(0.015625)"/>
      </defs>
      <use xlink:href="#Montserrat-Regular-36"/>
     </g>
    </g>
    <g id="line2d_39">
     <path d="M 383.295313 138.215625 
L 395.295313 138.215625 
L 407.295313 138.215625 
" style="fill: none; stroke: #ff0000; stroke-width: 2.5; stroke-linecap: square"/>
    </g>
    <g id="text_20">
     <!-- 7 -->
     <g transform="translate(412.095313 142.415625) scale(0.12 -0.12)">
      <defs>
       <path id="Montserrat-Regular-37" d="M 205 4480 
L 205 3232 
L 659 3232 
L 659 4070 
L 2963 4070 
L 1120 0 
L 1619 0 
L 3494 4154 
L 3494 4480 
L 205 4480 
z
" transform="scale(0.015625)"/>
      </defs>
      <use xlink:href="#Montserrat-Regular-37"/>
     </g>
    </g>
    <g id="line2d_40">
     <path d="M 383.295313 155.44875 
L 395.295313 155.44875 
L 407.295313 155.44875 
" style="fill: none; stroke: #ff6347; stroke-width: 2.5; stroke-linecap: square"/>
    </g>
    <g id="text_21">
     <!-- 8 -->
     <g transform="translate(412.095313 159.64875) scale(0.12 -0.12)">
      <defs>
       <path id="Montserrat-Regular-38" d="M 2899 2349 
C 3360 2528 3616 2867 3616 3334 
C 3616 4064 2982 4518 2035 4518 
C 1088 4518 467 4064 467 3334 
C 467 2867 717 2528 1171 2349 
C 614 2163 307 1786 307 1248 
C 307 454 960 -38 2035 -38 
C 3104 -38 3776 454 3776 1248 
C 3776 1779 3462 2163 2899 2349 
z
M 928 3322 
C 928 3821 1357 4128 2035 4128 
C 2707 4128 3149 3821 3149 3315 
C 3149 2829 2733 2515 2035 2515 
C 1338 2515 928 2829 928 3322 
z
M 2035 352 
C 1242 352 774 698 774 1254 
C 774 1805 1242 2150 2035 2150 
C 2829 2150 3302 1805 3302 1254 
C 3302 698 2829 352 2035 352 
z
" transform="scale(0.015625)"/>
      </defs>
      <use xlink:href="#Montserrat-Regular-38"/>
     </g>
    </g>
    <g id="line2d_41">
     <path d="M 383.295313 172.681875 
L 395.295313 172.681875 
L 407.295313 172.681875 
" style="fill: none; stroke: #dc143c; stroke-width: 2.5; stroke-linecap: square"/>
    </g>
    <g id="text_22">
     <!-- 9 -->
     <g transform="translate(412.095313 176.881875) scale(0.12 -0.12)">
      <defs>
       <path id="Montserrat-Regular-39" d="M 1728 4518 
C 858 4518 198 3981 198 3142 
C 198 2323 819 1798 1709 1798 
C 2330 1798 2854 2074 3078 2566 
C 3091 2432 3098 2304 3098 2202 
C 3098 986 2477 365 1510 365 
C 1178 365 870 422 640 576 
L 454 205 
C 736 32 1114 -38 1517 -38 
C 2733 -38 3565 755 3565 2278 
C 3565 3693 2918 4518 1728 4518 
z
M 1779 2189 
C 1088 2189 653 2566 653 3155 
C 653 3750 1101 4128 1747 4128 
C 2522 4128 2931 3661 2931 3168 
C 2931 2611 2464 2189 1779 2189 
z
" transform="scale(0.015625)"/>
      </defs>
      <use xlink:href="#Montserrat-Regular-39"/>
     </g>
    </g>
    <g id="line2d_42">
     <path d="M 383.295313 189.915 
L 395.295313 189.915 
L 407.295313 189.915 
" style="fill: none; stroke: #ff8c00; stroke-width: 2.5; stroke-linecap: square"/>
    </g>
    <g id="text_23">
     <!-- 10 -->
     <g transform="translate(412.095313 194.115) scale(0.12 -0.12)">
      <use xlink:href="#Montserrat-Regular-31"/>
      <use xlink:href="#Montserrat-Regular-30" x="36.099991"/>
     </g>
    </g>
    <g id="line2d_43">
     <path d="M 383.295313 207.148125 
L 395.295313 207.148125 
L 407.295313 207.148125 
" style="fill: none; stroke: #8b0000; stroke-width: 2.5; stroke-linecap: square"/>
    </g>
    <g id="text_24">
     <!-- 11 -->
     <g transform="translate(412.095313 211.348125) scale(0.12 -0.12)">
      <use xlink:href="#Montserrat-Regular-31"/>
      <use xlink:href="#Montserrat-Regular-31" x="36.099991"/>
     </g>
    </g>
    <g id="line2d_44">
     <path d="M 383.295313 224.38125 
L 395.295313 224.38125 
L 407.295313 224.38125 
" style="fill: none; stroke: #b22222; stroke-width: 2.5; stroke-linecap: square"/>
    </g>
    <g id="text_25">
     <!-- 12 -->
     <g transform="translate(412.095313 228.58125) scale(0.12 -0.12)">
      <use xlink:href="#Montserrat-Regular-31"/>
      <use xlink:href="#Montserrat-Regular-32" x="36.099991"/>
     </g>
    </g>
   </g>
  </g>
 </g>
 <defs>
  <clipPath id="p9944598f5f">
   <rect x="44.570937" y="19.3125" width="390.6" height="332.64"/>
  </clipPath>
 </defs>
</svg>
