<?xml version="1.0" encoding="utf-8" standalone="no"?>
<!DOCTYPE svg PUBLIC "-//W3C//DTD SVG 1.1//EN"
  "http://www.w3.org/Graphics/SVG/1.1/DTD/svg11.dtd">
<svg xmlns:xlink="http://www.w3.org/1999/xlink" width="415.263281pt" height="315.355281pt" viewBox="0 0 415.263281 315.355281" xmlns="http://www.w3.org/2000/svg" version="1.1">
 <metadata>
  <rdf:RDF xmlns:dc="http://purl.org/dc/elements/1.1/" xmlns:cc="http://creativecommons.org/ns#" xmlns:rdf="http://www.w3.org/1999/02/22-rdf-syntax-ns#">
   <cc:Work>
    <dc:type rdf:resource="http://purl.org/dc/dcmitype/StillImage"/>
    <dc:date>2022-10-05T18:29:15.377290</dc:date>
    <dc:format>image/svg+xml</dc:format>
    <dc:creator>
     <cc:Agent>
      <dc:title>Matplotlib v3.6.0, https://matplotlib.org/</dc:title>
     </cc:Agent>
    </dc:creator>
   </cc:Work>
  </rdf:RDF>
 </metadata>
 <defs>
  <style type="text/css">*{stroke-linejoin: round; stroke-linecap: butt}</style>
 </defs>
 <g id="figure_1">
  <g id="patch_1">
   <path d="M 0 315.355281 
L 415.263281 315.355281 
L 415.263281 0 
L 0 0 
L 0 315.355281 
z
" style="fill: none"/>
  </g>
  <g id="axes_1">
   <g id="patch_2">
    <path d="M 56.703281 267.552 
L 413.823281 267.552 
L 413.823281 1.44 
L 56.703281 1.44 
L 56.703281 267.552 
z
" style="fill: none"/>
   </g>
   <g id="matplotlib.axis_1">
    <g id="xtick_1">
     <g id="line2d_1">
      <path d="M 88.346826 267.552 
L 88.346826 1.44 
" clip-path="url(#pbdb09e0871)" style="fill: none; stroke: #b0b0b0; stroke-width: 0.8; stroke-linecap: square"/>
     </g>
     <g id="line2d_2">
      <defs>
       <path id="m6800c039f0" d="M 0 0 
L 0 6 
" style="stroke: #000000; stroke-width: 2"/>
      </defs>
      <g>
       <use xlink:href="#m6800c039f0" x="88.346826" y="267.552" style="stroke: #000000; stroke-width: 2"/>
      </g>
     </g>
     <g id="text_1">
      <!-- −2 -->
      <g transform="translate(79.77456 288.182469) scale(0.15 -0.15)">
       <defs>
        <path id="Montserrat-Regular-2212" d="M 448 2048 
L 3232 2048 
L 3232 2426 
L 448 2426 
L 448 2048 
z
" transform="scale(0.015625)"/>
        <path id="Montserrat-Regular-32" d="M 928 410 
L 2451 1907 
C 3053 2496 3187 2880 3187 3309 
C 3187 4058 2611 4518 1702 4518 
C 1018 4518 461 4288 115 3878 
L 442 3597 
C 736 3936 1139 4096 1664 4096 
C 2349 4096 2714 3776 2714 3258 
C 2714 2950 2618 2650 2112 2150 
L 250 326 
L 250 0 
L 3392 0 
L 3392 410 
L 928 410 
z
" transform="scale(0.015625)"/>
       </defs>
       <use xlink:href="#Montserrat-Regular-2212"/>
       <use xlink:href="#Montserrat-Regular-32" x="57.499985"/>
      </g>
     </g>
    </g>
    <g id="xtick_2">
     <g id="line2d_3">
      <path d="M 178.756952 267.552 
L 178.756952 1.44 
" clip-path="url(#pbdb09e0871)" style="fill: none; stroke: #b0b0b0; stroke-width: 0.8; stroke-linecap: square"/>
     </g>
     <g id="line2d_4">
      <g>
       <use xlink:href="#m6800c039f0" x="178.756952" y="267.552" style="stroke: #000000; stroke-width: 2"/>
      </g>
     </g>
     <g id="text_2">
      <!-- 0 -->
      <g transform="translate(173.791718 288.182469) scale(0.15 -0.15)">
       <defs>
        <path id="Montserrat-Regular-30" d="M 2118 -38 
C 3155 -38 3910 813 3910 2240 
C 3910 3667 3155 4518 2118 4518 
C 1082 4518 333 3667 333 2240 
C 333 813 1082 -38 2118 -38 
z
M 2118 384 
C 1338 384 800 1043 800 2240 
C 800 3437 1338 4096 2118 4096 
C 2899 4096 3437 3437 3437 2240 
C 3437 1043 2899 384 2118 384 
z
" transform="scale(0.015625)"/>
       </defs>
       <use xlink:href="#Montserrat-Regular-30"/>
      </g>
     </g>
    </g>
    <g id="xtick_3">
     <g id="line2d_5">
      <path d="M 269.167079 267.552 
L 269.167079 1.44 
" clip-path="url(#pbdb09e0871)" style="fill: none; stroke: #b0b0b0; stroke-width: 0.8; stroke-linecap: square"/>
     </g>
     <g id="line2d_6">
      <g>
       <use xlink:href="#m6800c039f0" x="269.167079" y="267.552" style="stroke: #000000; stroke-width: 2"/>
      </g>
     </g>
     <g id="text_3">
      <!-- 2 -->
      <g transform="translate(264.907313 288.182469) scale(0.15 -0.15)">
       <use xlink:href="#Montserrat-Regular-32"/>
      </g>
     </g>
    </g>
    <g id="xtick_4">
     <g id="line2d_7">
      <path d="M 359.577205 267.552 
L 359.577205 1.44 
" clip-path="url(#pbdb09e0871)" style="fill: none; stroke: #b0b0b0; stroke-width: 0.8; stroke-linecap: square"/>
     </g>
     <g id="line2d_8">
      <g>
       <use xlink:href="#m6800c039f0" x="359.577205" y="267.552" style="stroke: #000000; stroke-width: 2"/>
      </g>
     </g>
     <g id="text_4">
      <!-- 4 -->
      <g transform="translate(354.620174 288.182469) scale(0.15 -0.15)">
       <defs>
        <path id="Montserrat-Regular-34" d="M 4141 1587 
L 3245 1587 
L 3245 2624 
L 2797 2624 
L 2797 1587 
L 851 1587 
L 3142 4480 
L 2630 4480 
L 256 1510 
L 256 1178 
L 2784 1178 
L 2784 0 
L 3245 0 
L 3245 1178 
L 4141 1178 
L 4141 1587 
z
" transform="scale(0.015625)"/>
       </defs>
       <use xlink:href="#Montserrat-Regular-34"/>
      </g>
     </g>
    </g>
    <g id="text_5">
     <!-- Heterogeneity -->
     <g transform="translate(162.832031 309.934031) scale(0.2 -0.2)">
      <defs>
       <path id="Montserrat-Regular-48" d="M 4006 4480 
L 4006 2483 
L 1203 2483 
L 1203 4480 
L 730 4480 
L 730 0 
L 1203 0 
L 1203 2067 
L 4006 2067 
L 4006 0 
L 4474 0 
L 4474 4480 
L 4006 4480 
z
" transform="scale(0.015625)"/>
       <path id="Montserrat-Regular-65" d="M 3571 1683 
C 3571 2694 2886 3392 1939 3392 
C 992 3392 294 2682 294 1683 
C 294 685 1011 -32 2061 -32 
C 2592 -32 3059 160 3360 518 
L 3104 813 
C 2848 518 2483 371 2074 371 
C 1338 371 800 838 749 1542 
L 3565 1542 
C 3565 1594 3571 1645 3571 1683 
z
M 1939 3002 
C 2598 3002 3078 2541 3136 1882 
L 749 1882 
C 806 2541 1286 3002 1939 3002 
z
" transform="scale(0.015625)"/>
       <path id="Montserrat-Regular-74" d="M 2246 531 
C 2118 416 1933 358 1747 358 
C 1370 358 1165 576 1165 973 
L 1165 2982 
L 2189 2982 
L 2189 3366 
L 1165 3366 
L 1165 4102 
L 710 4102 
L 710 3366 
L 109 3366 
L 109 2982 
L 710 2982 
L 710 947 
C 710 326 1062 -32 1696 -32 
C 1958 -32 2227 45 2406 205 
L 2246 531 
z
" transform="scale(0.015625)"/>
       <path id="Montserrat-Regular-72" d="M 1069 2707 
L 1069 3366 
L 634 3366 
L 634 0 
L 1088 0 
L 1088 1715 
C 1088 2509 1517 2957 2221 2957 
C 2253 2957 2291 2950 2330 2950 
L 2330 3392 
C 1709 3392 1280 3155 1069 2707 
z
" transform="scale(0.015625)"/>
       <path id="Montserrat-Regular-6f" d="M 2010 -32 
C 2995 -32 3718 685 3718 1683 
C 3718 2682 2995 3392 2010 3392 
C 1024 3392 294 2682 294 1683 
C 294 685 1024 -32 2010 -32 
z
M 2010 371 
C 1293 371 755 896 755 1683 
C 755 2470 1293 2995 2010 2995 
C 2726 2995 3258 2470 3258 1683 
C 3258 896 2726 371 2010 371 
z
" transform="scale(0.015625)"/>
       <path id="Montserrat-Regular-67" d="M 3315 3366 
L 3315 2720 
C 3034 3162 2547 3392 1984 3392 
C 1024 3392 294 2733 294 1766 
C 294 800 1024 128 1984 128 
C 2534 128 3014 352 3296 781 
L 3296 352 
C 3296 -480 2906 -870 2054 -870 
C 1536 -870 1050 -698 730 -410 
L 499 -755 
C 851 -1088 1453 -1274 2067 -1274 
C 3181 -1274 3750 -749 3750 410 
L 3750 3366 
L 3315 3366 
z
M 2029 531 
C 1286 531 755 1037 755 1766 
C 755 2496 1286 2995 2029 2995 
C 2771 2995 3309 2496 3309 1766 
C 3309 1037 2771 531 2029 531 
z
" transform="scale(0.015625)"/>
       <path id="Montserrat-Regular-6e" d="M 2349 3392 
C 1766 3392 1312 3155 1069 2746 
L 1069 3366 
L 634 3366 
L 634 0 
L 1088 0 
L 1088 1766 
C 1088 2534 1542 2982 2266 2982 
C 2906 2982 3277 2618 3277 1907 
L 3277 0 
L 3731 0 
L 3731 1952 
C 3731 2918 3168 3392 2349 3392 
z
" transform="scale(0.015625)"/>
       <path id="Montserrat-Regular-69" d="M 864 4102 
C 1056 4102 1197 4250 1197 4435 
C 1197 4608 1050 4749 864 4749 
C 678 4749 531 4602 531 4429 
C 531 4250 678 4102 864 4102 
z
M 634 0 
L 1088 0 
L 1088 3366 
L 634 3366 
L 634 0 
z
" transform="scale(0.015625)"/>
       <path id="Montserrat-Regular-79" d="M 3014 3366 
L 1747 506 
L 480 3366 
L 6 3366 
L 1510 6 
L 1363 -320 
C 1171 -742 966 -883 666 -883 
C 422 -883 218 -794 51 -627 
L -160 -966 
C 45 -1171 346 -1274 659 -1274 
C 1139 -1274 1498 -1062 1779 -403 
L 3462 3366 
L 3014 3366 
z
" transform="scale(0.015625)"/>
      </defs>
      <use xlink:href="#Montserrat-Regular-48"/>
      <use xlink:href="#Montserrat-Regular-65" x="81.299988"/>
      <use xlink:href="#Montserrat-Regular-74" x="141.699982"/>
      <use xlink:href="#Montserrat-Regular-65" x="182.299973"/>
      <use xlink:href="#Montserrat-Regular-72" x="242.699966"/>
      <use xlink:href="#Montserrat-Regular-6f" x="282.799957"/>
      <use xlink:href="#Montserrat-Regular-67" x="345.499954"/>
      <use xlink:href="#Montserrat-Regular-65" x="414.099945"/>
      <use xlink:href="#Montserrat-Regular-6e" x="474.499939"/>
      <use xlink:href="#Montserrat-Regular-65" x="542.199921"/>
      <use xlink:href="#Montserrat-Regular-69" x="602.599915"/>
      <use xlink:href="#Montserrat-Regular-74" x="629.499908"/>
      <use xlink:href="#Montserrat-Regular-79" x="670.099899"/>
     </g>
    </g>
   </g>
   <g id="matplotlib.axis_2">
    <g id="ytick_1">
     <g id="line2d_9">
      <path d="M 56.703281 267.552 
L 413.823281 267.552 
" clip-path="url(#pbdb09e0871)" style="fill: none; stroke: #b0b0b0; stroke-width: 0.8; stroke-linecap: square"/>
     </g>
     <g id="line2d_10">
      <defs>
       <path id="m84c062d95c" d="M 0 0 
L -6 0 
" style="stroke: #000000; stroke-width: 2"/>
      </defs>
      <g>
       <use xlink:href="#m84c062d95c" x="56.703281" y="267.552" style="stroke: #000000; stroke-width: 2"/>
      </g>
     </g>
     <g id="text_6">
      <!-- 0.0 -->
      <g transform="translate(24.161875 273.117234) scale(0.15 -0.15)">
       <defs>
        <path id="Montserrat-Regular-2e" d="M 678 -32 
C 864 -32 1024 122 1024 320 
C 1024 518 864 666 678 666 
C 493 666 339 518 339 320 
C 339 122 493 -32 678 -32 
z
" transform="scale(0.015625)"/>
       </defs>
       <use xlink:href="#Montserrat-Regular-30"/>
       <use xlink:href="#Montserrat-Regular-2e" x="66.199997"/>
       <use xlink:href="#Montserrat-Regular-30" x="87.399994"/>
      </g>
     </g>
    </g>
    <g id="ytick_2">
     <g id="line2d_11">
      <path d="M 56.703281 210.796157 
L 413.823281 210.796157 
" clip-path="url(#pbdb09e0871)" style="fill: none; stroke: #b0b0b0; stroke-width: 0.8; stroke-linecap: square"/>
     </g>
     <g id="line2d_12">
      <g>
       <use xlink:href="#m84c062d95c" x="56.703281" y="210.796157" style="stroke: #000000; stroke-width: 2"/>
      </g>
     </g>
     <g id="text_7">
      <!-- 0.1 -->
      <g transform="translate(28.678281 216.361391) scale(0.15 -0.15)">
       <defs>
        <path id="Montserrat-Regular-31" d="M 58 4480 
L 58 4070 
L 1114 4070 
L 1114 0 
L 1574 0 
L 1574 4480 
L 58 4480 
z
" transform="scale(0.015625)"/>
       </defs>
       <use xlink:href="#Montserrat-Regular-30"/>
       <use xlink:href="#Montserrat-Regular-2e" x="66.199997"/>
       <use xlink:href="#Montserrat-Regular-31" x="87.399994"/>
      </g>
     </g>
    </g>
    <g id="ytick_3">
     <g id="line2d_13">
      <path d="M 56.703281 154.040314 
L 413.823281 154.040314 
" clip-path="url(#pbdb09e0871)" style="fill: none; stroke: #b0b0b0; stroke-width: 0.8; stroke-linecap: square"/>
     </g>
     <g id="line2d_14">
      <g>
       <use xlink:href="#m84c062d95c" x="56.703281" y="154.040314" style="stroke: #000000; stroke-width: 2"/>
      </g>
     </g>
     <g id="text_8">
      <!-- 0.2 -->
      <g transform="translate(25.572813 159.605548) scale(0.15 -0.15)">
       <use xlink:href="#Montserrat-Regular-30"/>
       <use xlink:href="#Montserrat-Regular-2e" x="66.199997"/>
       <use xlink:href="#Montserrat-Regular-32" x="87.399994"/>
      </g>
     </g>
    </g>
    <g id="ytick_4">
     <g id="line2d_15">
      <path d="M 56.703281 97.28447 
L 413.823281 97.28447 
" clip-path="url(#pbdb09e0871)" style="fill: none; stroke: #b0b0b0; stroke-width: 0.8; stroke-linecap: square"/>
     </g>
     <g id="line2d_16">
      <g>
       <use xlink:href="#m84c062d95c" x="56.703281" y="97.28447" style="stroke: #000000; stroke-width: 2"/>
      </g>
     </g>
     <g id="text_9">
      <!-- 0.3 -->
      <g transform="translate(25.631406 102.849705) scale(0.15 -0.15)">
       <defs>
        <path id="Montserrat-Regular-33" d="M 1856 2560 
L 3123 4154 
L 3123 4480 
L 243 4480 
L 243 4070 
L 2534 4070 
L 1293 2515 
L 1293 2176 
L 1613 2176 
C 2445 2176 2822 1824 2822 1286 
C 2822 730 2413 384 1670 384 
C 1088 384 570 602 282 902 
L 58 538 
C 403 186 1024 -38 1670 -38 
C 2752 -38 3296 538 3296 1286 
C 3296 2003 2816 2509 1856 2560 
z
" transform="scale(0.015625)"/>
       </defs>
       <use xlink:href="#Montserrat-Regular-30"/>
       <use xlink:href="#Montserrat-Regular-2e" x="66.199997"/>
       <use xlink:href="#Montserrat-Regular-33" x="87.399994"/>
      </g>
     </g>
    </g>
    <g id="ytick_5">
     <g id="line2d_17">
      <path d="M 56.703281 40.528627 
L 413.823281 40.528627 
" clip-path="url(#pbdb09e0871)" style="fill: none; stroke: #b0b0b0; stroke-width: 0.8; stroke-linecap: square"/>
     </g>
     <g id="line2d_18">
      <g>
       <use xlink:href="#m84c062d95c" x="56.703281" y="40.528627" style="stroke: #000000; stroke-width: 2"/>
      </g>
     </g>
     <g id="text_10">
      <!-- 0.4 -->
      <g transform="translate(24.178281 46.093862) scale(0.15 -0.15)">
       <use xlink:href="#Montserrat-Regular-30"/>
       <use xlink:href="#Montserrat-Regular-2e" x="66.199997"/>
       <use xlink:href="#Montserrat-Regular-34" x="87.399994"/>
      </g>
     </g>
    </g>
    <g id="text_11">
     <!-- Frequency -->
     <g transform="translate(16.180625 188.246) rotate(-90) scale(0.2 -0.2)">
      <defs>
       <path id="Montserrat-Regular-46" d="M 3802 4070 
L 3802 4480 
L 730 4480 
L 730 0 
L 1203 0 
L 1203 1901 
L 3520 1901 
L 3520 2310 
L 1203 2310 
L 1203 4070 
L 3802 4070 
z
" transform="scale(0.015625)"/>
       <path id="Montserrat-Regular-71" d="M 3270 3366 
L 3270 2701 
C 2995 3149 2528 3392 1971 3392 
C 1011 3392 294 2701 294 1683 
C 294 659 1011 -32 1971 -32 
C 2509 -32 2970 198 3251 634 
L 3251 -1242 
L 3706 -1242 
L 3706 3366 
L 3270 3366 
z
M 2010 371 
C 1293 371 755 896 755 1683 
C 755 2464 1293 2995 2010 2995 
C 2720 2995 3258 2464 3258 1683 
C 3258 896 2720 371 2010 371 
z
" transform="scale(0.015625)"/>
       <path id="Montserrat-Regular-75" d="M 3213 3366 
L 3213 1600 
C 3213 832 2771 378 2067 378 
C 1427 378 1056 742 1056 1459 
L 1056 3366 
L 602 3366 
L 602 1414 
C 602 448 1165 -32 2022 -32 
C 2560 -32 2995 205 3232 614 
L 3232 0 
L 3667 0 
L 3667 3366 
L 3213 3366 
z
" transform="scale(0.015625)"/>
       <path id="Montserrat-Regular-63" d="M 2029 -32 
C 2598 -32 3078 198 3347 634 
L 3008 864 
C 2778 525 2419 371 2029 371 
C 1293 371 755 890 755 1683 
C 755 2470 1293 2995 2029 2995 
C 2419 2995 2778 2835 3008 2496 
L 3347 2726 
C 3078 3168 2598 3392 2029 3392 
C 1024 3392 294 2688 294 1683 
C 294 678 1024 -32 2029 -32 
z
" transform="scale(0.015625)"/>
      </defs>
      <use xlink:href="#Montserrat-Regular-46"/>
      <use xlink:href="#Montserrat-Regular-72" x="63.299988"/>
      <use xlink:href="#Montserrat-Regular-65" x="103.399979"/>
      <use xlink:href="#Montserrat-Regular-71" x="163.799973"/>
      <use xlink:href="#Montserrat-Regular-75" x="231.59996"/>
      <use xlink:href="#Montserrat-Regular-65" x="298.899948"/>
      <use xlink:href="#Montserrat-Regular-6e" x="359.299942"/>
      <use xlink:href="#Montserrat-Regular-63" x="426.999924"/>
      <use xlink:href="#Montserrat-Regular-79" x="483.299911"/>
     </g>
    </g>
   </g>
   <g id="patch_3">
    <path d="M 56.703281 267.552 
L 56.703281 1.44 
" style="fill: none; stroke: #000000; stroke-width: 2; stroke-linejoin: miter; stroke-linecap: square"/>
   </g>
   <g id="patch_4">
    <path d="M 413.823281 267.552 
L 413.823281 1.44 
" style="fill: none; stroke: #000000; stroke-width: 2; stroke-linejoin: miter; stroke-linecap: square"/>
   </g>
   <g id="patch_5">
    <path d="M 56.703281 267.552 
L 413.823281 267.552 
" style="fill: none; stroke: #000000; stroke-width: 2; stroke-linejoin: miter; stroke-linecap: square"/>
   </g>
   <g id="patch_6">
    <path d="M 56.703281 1.44 
L 413.823281 1.44 
" style="fill: none; stroke: #000000; stroke-width: 2; stroke-linejoin: miter; stroke-linecap: square"/>
   </g>
   <g id="patch_7">
    <path d="M 20.277059 267.552 
L 26.049167 267.552 
L 26.049167 267.320759 
L 20.277059 267.320759 
z
" clip-path="url(#pbdb09e0871)" style="fill: #0000ff; stroke: #000000; stroke-linejoin: miter"/>
   </g>
   <g id="patch_8">
    <path d="M 26.049167 267.552 
L 31.821276 267.552 
L 31.821276 267.166599 
L 26.049167 267.166599 
z
" clip-path="url(#pbdb09e0871)" style="fill: #0000ff; stroke: #000000; stroke-linejoin: miter"/>
   </g>
   <g id="patch_9">
    <path d="M 31.821276 267.552 
L 37.593384 267.552 
L 37.593384 267.320759 
L 31.821276 267.320759 
z
" clip-path="url(#pbdb09e0871)" style="fill: #0000ff; stroke: #000000; stroke-linejoin: miter"/>
   </g>
   <g id="patch_10">
    <path d="M 37.593384 267.552 
L 43.365493 267.552 
L 43.365493 267.166599 
L 37.593384 267.166599 
z
" clip-path="url(#pbdb09e0871)" style="fill: #0000ff; stroke: #000000; stroke-linejoin: miter"/>
   </g>
   <g id="patch_11">
    <path d="M 43.365493 267.552 
L 49.137601 267.552 
L 49.137601 266.549956 
L 43.365493 266.549956 
z
" clip-path="url(#pbdb09e0871)" style="fill: #0000ff; stroke: #000000; stroke-linejoin: miter"/>
   </g>
   <g id="patch_12">
    <path d="M 49.137601 267.552 
L 54.909709 267.552 
L 54.909709 265.470832 
L 49.137601 265.470832 
z
" clip-path="url(#pbdb09e0871)" style="fill: #0000ff; stroke: #000000; stroke-linejoin: miter"/>
   </g>
   <g id="patch_13">
    <path d="M 54.909709 267.552 
L 60.681818 267.552 
L 60.681818 264.468788 
L 54.909709 264.468788 
z
" clip-path="url(#pbdb09e0871)" style="fill: #0000ff; stroke: #000000; stroke-linejoin: miter"/>
   </g>
   <g id="patch_14">
    <path d="M 60.681818 267.552 
L 66.453926 267.552 
L 66.453926 262.15638 
L 60.681818 262.15638 
z
" clip-path="url(#pbdb09e0871)" style="fill: #0000ff; stroke: #000000; stroke-linejoin: miter"/>
   </g>
   <g id="patch_15">
    <path d="M 66.453926 267.552 
L 72.226035 267.552 
L 72.226035 256.683679 
L 66.453926 256.683679 
z
" clip-path="url(#pbdb09e0871)" style="fill: #0000ff; stroke: #000000; stroke-linejoin: miter"/>
   </g>
   <g id="patch_16">
    <path d="M 72.226035 267.552 
L 77.998143 267.552 
L 77.998143 254.679591 
L 72.226035 254.679591 
z
" clip-path="url(#pbdb09e0871)" style="fill: #0000ff; stroke: #000000; stroke-linejoin: miter"/>
   </g>
   <g id="patch_17">
    <path d="M 77.998143 267.552 
L 83.770252 267.552 
L 83.770252 243.271708 
L 77.998143 243.271708 
z
" clip-path="url(#pbdb09e0871)" style="fill: #0000ff; stroke: #000000; stroke-linejoin: miter"/>
   </g>
   <g id="patch_18">
    <path d="M 83.770252 267.552 
L 89.54236 267.552 
L 89.54236 235.872 
L 83.770252 235.872 
z
" clip-path="url(#pbdb09e0871)" style="fill: #0000ff; stroke: #000000; stroke-linejoin: miter"/>
   </g>
   <g id="patch_19">
    <path d="M 89.54236 267.552 
L 95.314469 267.552 
L 95.314469 217.37273 
L 89.54236 217.37273 
z
" clip-path="url(#pbdb09e0871)" style="fill: #0000ff; stroke: #000000; stroke-linejoin: miter"/>
   </g>
   <g id="patch_20">
    <path d="M 95.314469 267.552 
L 101.086577 267.552 
L 101.086577 207.121051 
L 95.314469 207.121051 
z
" clip-path="url(#pbdb09e0871)" style="fill: #0000ff; stroke: #000000; stroke-linejoin: miter"/>
   </g>
   <g id="patch_21">
    <path d="M 101.086577 267.552 
L 106.858686 267.552 
L 106.858686 187.696818 
L 101.086577 187.696818 
z
" clip-path="url(#pbdb09e0871)" style="fill: #0000ff; stroke: #000000; stroke-linejoin: miter"/>
   </g>
   <g id="patch_22">
    <path d="M 106.858686 267.552 
L 112.630794 267.552 
L 112.630794 162.799883 
L 106.858686 162.799883 
z
" clip-path="url(#pbdb09e0871)" style="fill: #0000ff; stroke: #000000; stroke-linejoin: miter"/>
   </g>
   <g id="patch_23">
    <path d="M 112.630794 267.552 
L 118.402903 267.552 
L 118.402903 146.07346 
L 112.630794 146.07346 
z
" clip-path="url(#pbdb09e0871)" style="fill: #0000ff; stroke: #000000; stroke-linejoin: miter"/>
   </g>
   <g id="patch_24">
    <path d="M 118.402903 267.552 
L 124.175011 267.552 
L 124.175011 120.020321 
L 118.402903 120.020321 
z
" clip-path="url(#pbdb09e0871)" style="fill: #0000ff; stroke: #000000; stroke-linejoin: miter"/>
   </g>
   <g id="patch_25">
    <path d="M 124.175011 267.552 
L 129.947119 267.552 
L 129.947119 101.366891 
L 124.175011 101.366891 
z
" clip-path="url(#pbdb09e0871)" style="fill: #0000ff; stroke: #000000; stroke-linejoin: miter"/>
   </g>
   <g id="patch_26">
    <path d="M 129.947119 267.552 
L 135.719228 267.552 
L 135.719228 66.603679 
L 129.947119 66.603679 
z
" clip-path="url(#pbdb09e0871)" style="fill: #0000ff; stroke: #000000; stroke-linejoin: miter"/>
   </g>
   <g id="patch_27">
    <path d="M 135.719228 267.552 
L 141.491336 267.552 
L 141.491336 58.124847 
L 135.719228 58.124847 
z
" clip-path="url(#pbdb09e0871)" style="fill: #0000ff; stroke: #000000; stroke-linejoin: miter"/>
   </g>
   <g id="patch_28">
    <path d="M 141.491336 267.552 
L 147.263445 267.552 
L 147.263445 39.933898 
L 141.491336 39.933898 
z
" clip-path="url(#pbdb09e0871)" style="fill: #0000ff; stroke: #000000; stroke-linejoin: miter"/>
   </g>
   <g id="patch_29">
    <path d="M 147.263445 267.552 
L 153.035553 267.552 
L 153.035553 30.992584 
L 147.263445 30.992584 
z
" clip-path="url(#pbdb09e0871)" style="fill: #0000ff; stroke: #000000; stroke-linejoin: miter"/>
   </g>
   <g id="patch_30">
    <path d="M 153.035553 267.552 
L 158.807662 267.552 
L 158.807662 27.138569 
L 153.035553 27.138569 
z
" clip-path="url(#pbdb09e0871)" style="fill: #0000ff; stroke: #000000; stroke-linejoin: miter"/>
   </g>
   <g id="patch_31">
    <path d="M 158.807662 267.552 
L 164.57977 267.552 
L 164.57977 26.444847 
L 158.807662 26.444847 
z
" clip-path="url(#pbdb09e0871)" style="fill: #0000ff; stroke: #000000; stroke-linejoin: miter"/>
   </g>
   <g id="patch_32">
    <path d="M 164.57977 267.552 
L 170.351879 267.552 
L 170.351879 14.112 
L 164.57977 14.112 
z
" clip-path="url(#pbdb09e0871)" style="fill: #0000ff; stroke: #000000; stroke-linejoin: miter"/>
   </g>
   <g id="patch_33">
    <path d="M 170.351879 267.552 
L 176.123987 267.552 
L 176.123987 26.059445 
L 170.351879 26.059445 
z
" clip-path="url(#pbdb09e0871)" style="fill: #0000ff; stroke: #000000; stroke-linejoin: miter"/>
   </g>
   <g id="patch_34">
    <path d="M 176.123987 267.552 
L 181.896096 267.552 
L 181.896096 45.86908 
L 176.123987 45.86908 
z
" clip-path="url(#pbdb09e0871)" style="fill: #0000ff; stroke: #000000; stroke-linejoin: miter"/>
   </g>
   <g id="patch_35">
    <path d="M 181.896096 267.552 
L 187.668204 267.552 
L 187.668204 54.964555 
L 181.896096 54.964555 
z
" clip-path="url(#pbdb09e0871)" style="fill: #0000ff; stroke: #000000; stroke-linejoin: miter"/>
   </g>
   <g id="patch_36">
    <path d="M 187.668204 267.552 
L 193.440312 267.552 
L 193.440312 78.396964 
L 187.668204 78.396964 
z
" clip-path="url(#pbdb09e0871)" style="fill: #0000ff; stroke: #000000; stroke-linejoin: miter"/>
   </g>
   <g id="patch_37">
    <path d="M 193.440312 267.552 
L 199.212421 267.552 
L 199.212421 94.352584 
L 193.440312 94.352584 
z
" clip-path="url(#pbdb09e0871)" style="fill: #0000ff; stroke: #000000; stroke-linejoin: miter"/>
   </g>
   <g id="patch_38">
    <path d="M 199.212421 267.552 
L 204.984529 267.552 
L 204.984529 110.308204 
L 199.212421 110.308204 
z
" clip-path="url(#pbdb09e0871)" style="fill: #0000ff; stroke: #000000; stroke-linejoin: miter"/>
   </g>
   <g id="patch_39">
    <path d="M 204.984529 267.552 
L 210.756638 267.552 
L 210.756638 124.182657 
L 204.984529 124.182657 
z
" clip-path="url(#pbdb09e0871)" style="fill: #0000ff; stroke: #000000; stroke-linejoin: miter"/>
   </g>
   <g id="patch_40">
    <path d="M 210.756638 267.552 
L 216.528746 267.552 
L 216.528746 145.610978 
L 210.756638 145.610978 
z
" clip-path="url(#pbdb09e0871)" style="fill: #0000ff; stroke: #000000; stroke-linejoin: miter"/>
   </g>
   <g id="patch_41">
    <path d="M 216.528746 267.552 
L 222.300855 267.552 
L 222.300855 161.258277 
L 216.528746 161.258277 
z
" clip-path="url(#pbdb09e0871)" style="fill: #0000ff; stroke: #000000; stroke-linejoin: miter"/>
   </g>
   <g id="patch_42">
    <path d="M 222.300855 267.552 
L 228.072963 267.552 
L 228.072963 176.057693 
L 222.300855 176.057693 
z
" clip-path="url(#pbdb09e0871)" style="fill: #0000ff; stroke: #000000; stroke-linejoin: miter"/>
   </g>
   <g id="patch_43">
    <path d="M 228.072963 267.552 
L 233.845072 267.552 
L 233.845072 194.248642 
L 228.072963 194.248642 
z
" clip-path="url(#pbdb09e0871)" style="fill: #0000ff; stroke: #000000; stroke-linejoin: miter"/>
   </g>
   <g id="patch_44">
    <path d="M 233.845072 267.552 
L 239.61718 267.552 
L 239.61718 211.206307 
L 233.845072 211.206307 
z
" clip-path="url(#pbdb09e0871)" style="fill: #0000ff; stroke: #000000; stroke-linejoin: miter"/>
   </g>
   <g id="patch_45">
    <path d="M 239.61718 267.552 
L 245.389289 267.552 
L 245.389289 217.526891 
L 239.61718 217.526891 
z
" clip-path="url(#pbdb09e0871)" style="fill: #0000ff; stroke: #000000; stroke-linejoin: miter"/>
   </g>
   <g id="patch_46">
    <path d="M 245.389289 267.552 
L 251.161397 267.552 
L 251.161397 227.85565 
L 245.389289 227.85565 
z
" clip-path="url(#pbdb09e0871)" style="fill: #0000ff; stroke: #000000; stroke-linejoin: miter"/>
   </g>
   <g id="patch_47">
    <path d="M 251.161397 267.552 
L 256.933506 267.552 
L 256.933506 233.790832 
L 251.161397 233.790832 
z
" clip-path="url(#pbdb09e0871)" style="fill: #0000ff; stroke: #000000; stroke-linejoin: miter"/>
   </g>
   <g id="patch_48">
    <path d="M 256.933506 267.552 
L 262.705614 267.552 
L 262.705614 244.119591 
L 256.933506 244.119591 
z
" clip-path="url(#pbdb09e0871)" style="fill: #0000ff; stroke: #000000; stroke-linejoin: miter"/>
   </g>
   <g id="patch_49">
    <path d="M 262.705614 267.552 
L 268.477722 267.552 
L 268.477722 248.359007 
L 262.705614 248.359007 
z
" clip-path="url(#pbdb09e0871)" style="fill: #0000ff; stroke: #000000; stroke-linejoin: miter"/>
   </g>
   <g id="patch_50">
    <path d="M 268.477722 267.552 
L 274.249831 267.552 
L 274.249831 254.525431 
L 268.477722 254.525431 
z
" clip-path="url(#pbdb09e0871)" style="fill: #0000ff; stroke: #000000; stroke-linejoin: miter"/>
   </g>
   <g id="patch_51">
    <path d="M 274.249831 267.552 
L 280.021939 267.552 
L 280.021939 255.527474 
L 274.249831 255.527474 
z
" clip-path="url(#pbdb09e0871)" style="fill: #0000ff; stroke: #000000; stroke-linejoin: miter"/>
   </g>
   <g id="patch_52">
    <path d="M 280.021939 267.552 
L 285.794048 267.552 
L 285.794048 258.610686 
L 280.021939 258.610686 
z
" clip-path="url(#pbdb09e0871)" style="fill: #0000ff; stroke: #000000; stroke-linejoin: miter"/>
   </g>
   <g id="patch_53">
    <path d="M 285.794048 267.552 
L 291.566156 267.552 
L 291.566156 260.229372 
L 285.794048 260.229372 
z
" clip-path="url(#pbdb09e0871)" style="fill: #0000ff; stroke: #000000; stroke-linejoin: miter"/>
   </g>
   <g id="patch_54">
    <path d="M 291.566156 267.552 
L 297.338265 267.552 
L 297.338265 261.154336 
L 291.566156 261.154336 
z
" clip-path="url(#pbdb09e0871)" style="fill: #0000ff; stroke: #000000; stroke-linejoin: miter"/>
   </g>
   <g id="patch_55">
    <path d="M 297.338265 267.552 
L 303.110373 267.552 
L 303.110373 263.775066 
L 297.338265 263.775066 
z
" clip-path="url(#pbdb09e0871)" style="fill: #0000ff; stroke: #000000; stroke-linejoin: miter"/>
   </g>
   <g id="patch_56">
    <path d="M 303.110373 267.552 
L 308.882482 267.552 
L 308.882482 265.702073 
L 303.110373 265.702073 
z
" clip-path="url(#pbdb09e0871)" style="fill: #0000ff; stroke: #000000; stroke-linejoin: miter"/>
   </g>
   <g id="patch_57">
    <path d="M 308.882482 267.552 
L 314.65459 267.552 
L 314.65459 265.547912 
L 308.882482 265.547912 
z
" clip-path="url(#pbdb09e0871)" style="fill: #0000ff; stroke: #000000; stroke-linejoin: miter"/>
   </g>
   <g id="patch_58">
    <path d="M 314.65459 267.552 
L 320.426699 267.552 
L 320.426699 266.627036 
L 314.65459 266.627036 
z
" clip-path="url(#pbdb09e0871)" style="fill: #0000ff; stroke: #000000; stroke-linejoin: miter"/>
   </g>
   <g id="patch_59">
    <path d="M 320.426699 267.552 
L 326.198807 267.552 
L 326.198807 266.781197 
L 320.426699 266.781197 
z
" clip-path="url(#pbdb09e0871)" style="fill: #0000ff; stroke: #000000; stroke-linejoin: miter"/>
   </g>
   <g id="patch_60">
    <path d="M 326.198807 267.552 
L 331.970915 267.552 
L 331.970915 267.166599 
L 326.198807 267.166599 
z
" clip-path="url(#pbdb09e0871)" style="fill: #0000ff; stroke: #000000; stroke-linejoin: miter"/>
   </g>
   <g id="patch_61">
    <path d="M 331.970915 267.552 
L 337.743024 267.552 
L 337.743024 267.089518 
L 331.970915 267.089518 
z
" clip-path="url(#pbdb09e0871)" style="fill: #0000ff; stroke: #000000; stroke-linejoin: miter"/>
   </g>
   <g id="patch_62">
    <path d="M 337.743024 267.552 
L 343.515132 267.552 
L 343.515132 267.47492 
L 337.743024 267.47492 
z
" clip-path="url(#pbdb09e0871)" style="fill: #0000ff; stroke: #000000; stroke-linejoin: miter"/>
   </g>
   <g id="patch_63">
    <path d="M 343.515132 267.552 
L 349.287241 267.552 
L 349.287241 267.397839 
L 343.515132 267.397839 
z
" clip-path="url(#pbdb09e0871)" style="fill: #0000ff; stroke: #000000; stroke-linejoin: miter"/>
   </g>
   <g id="patch_64">
    <path d="M 349.287241 267.552 
L 355.059349 267.552 
L 355.059349 267.47492 
L 349.287241 267.47492 
z
" clip-path="url(#pbdb09e0871)" style="fill: #0000ff; stroke: #000000; stroke-linejoin: miter"/>
   </g>
   <g id="patch_65">
    <path d="M 355.059349 267.552 
L 360.831458 267.552 
L 360.831458 267.552 
L 355.059349 267.552 
z
" clip-path="url(#pbdb09e0871)" style="fill: #0000ff; stroke: #000000; stroke-linejoin: miter"/>
   </g>
   <g id="patch_66">
    <path d="M 360.831458 267.552 
L 366.603566 267.552 
L 366.603566 267.552 
L 360.831458 267.552 
z
" clip-path="url(#pbdb09e0871)" style="fill: #0000ff; stroke: #000000; stroke-linejoin: miter"/>
   </g>
   <g id="patch_67">
    <path d="M 366.603566 267.552 
L 372.375675 267.552 
L 372.375675 267.552 
L 366.603566 267.552 
z
" clip-path="url(#pbdb09e0871)" style="fill: #0000ff; stroke: #000000; stroke-linejoin: miter"/>
   </g>
   <g id="patch_68">
    <path d="M 372.375675 267.552 
L 378.147783 267.552 
L 378.147783 267.552 
L 372.375675 267.552 
z
" clip-path="url(#pbdb09e0871)" style="fill: #0000ff; stroke: #000000; stroke-linejoin: miter"/>
   </g>
   <g id="patch_69">
    <path d="M 378.147783 267.552 
L 383.919892 267.552 
L 383.919892 267.552 
L 378.147783 267.552 
z
" clip-path="url(#pbdb09e0871)" style="fill: #0000ff; stroke: #000000; stroke-linejoin: miter"/>
   </g>
   <g id="patch_70">
    <path d="M 383.919892 267.552 
L 389.692 267.552 
L 389.692 267.552 
L 383.919892 267.552 
z
" clip-path="url(#pbdb09e0871)" style="fill: #0000ff; stroke: #000000; stroke-linejoin: miter"/>
   </g>
   <g id="patch_71">
    <path d="M 389.692 267.552 
L 395.464109 267.552 
L 395.464109 267.552 
L 389.692 267.552 
z
" clip-path="url(#pbdb09e0871)" style="fill: #0000ff; stroke: #000000; stroke-linejoin: miter"/>
   </g>
   <g id="patch_72">
    <path d="M 395.464109 267.552 
L 401.236217 267.552 
L 401.236217 267.552 
L 395.464109 267.552 
z
" clip-path="url(#pbdb09e0871)" style="fill: #0000ff; stroke: #000000; stroke-linejoin: miter"/>
   </g>
   <g id="patch_73">
    <path d="M 401.236217 267.552 
L 407.008325 267.552 
L 407.008325 267.552 
L 401.236217 267.552 
z
" clip-path="url(#pbdb09e0871)" style="fill: #0000ff; stroke: #000000; stroke-linejoin: miter"/>
   </g>
   <g id="patch_74">
    <path d="M 407.008325 267.552 
L 412.780434 267.552 
L 412.780434 267.552 
L 407.008325 267.552 
z
" clip-path="url(#pbdb09e0871)" style="fill: #0000ff; stroke: #000000; stroke-linejoin: miter"/>
   </g>
   <g id="patch_75">
    <path d="M 412.780434 267.552 
L 418.552542 267.552 
L 418.552542 267.552 
L 412.780434 267.552 
z
" clip-path="url(#pbdb09e0871)" style="fill: #0000ff; stroke: #000000; stroke-linejoin: miter"/>
   </g>
   <g id="patch_76">
    <path d="M 418.552542 267.552 
L 424.324651 267.552 
L 424.324651 267.47492 
L 418.552542 267.47492 
z
" clip-path="url(#pbdb09e0871)" style="fill: #0000ff; stroke: #000000; stroke-linejoin: miter"/>
   </g>
  </g>
 </g>
 <defs>
  <clipPath id="pbdb09e0871">
   <rect x="56.703281" y="1.44" width="357.12" height="266.112"/>
  </clipPath>
 </defs>
</svg>
