<?xml version="1.0" encoding="utf-8" standalone="no"?>
<!DOCTYPE svg PUBLIC "-//W3C//DTD SVG 1.1//EN"
  "http://www.w3.org/Graphics/SVG/1.1/DTD/svg11.dtd">
<svg xmlns:xlink="http://www.w3.org/1999/xlink" width="415.263281pt" height="315.255281pt" viewBox="0 0 415.263281 315.255281" xmlns="http://www.w3.org/2000/svg" version="1.1">
 <metadata>
  <rdf:RDF xmlns:dc="http://purl.org/dc/elements/1.1/" xmlns:cc="http://creativecommons.org/ns#" xmlns:rdf="http://www.w3.org/1999/02/22-rdf-syntax-ns#">
   <cc:Work>
    <dc:type rdf:resource="http://purl.org/dc/dcmitype/StillImage"/>
    <dc:date>2022-10-05T18:29:16.344368</dc:date>
    <dc:format>image/svg+xml</dc:format>
    <dc:creator>
     <cc:Agent>
      <dc:title>Matplotlib v3.6.0, https://matplotlib.org/</dc:title>
     </cc:Agent>
    </dc:creator>
   </cc:Work>
  </rdf:RDF>
 </metadata>
 <defs>
  <style type="text/css">*{stroke-linejoin: round; stroke-linecap: butt}</style>
 </defs>
 <g id="figure_1">
  <g id="patch_1">
   <path d="M 0 315.255281 
L 415.263281 315.255281 
L 415.263281 0 
L 0 0 
L 0 315.255281 
z
" style="fill: none"/>
  </g>
  <g id="axes_1">
   <g id="patch_2">
    <path d="M 56.703281 267.552 
L 413.823281 267.552 
L 413.823281 1.44 
L 56.703281 1.44 
L 56.703281 267.552 
z
" style="fill: none"/>
   </g>
   <g id="matplotlib.axis_1">
    <g id="xtick_1">
     <g id="line2d_1">
      <path d="M 88.346826 267.552 
L 88.346826 1.44 
" clip-path="url(#pa593b9ec1a)" style="fill: none; stroke: #b0b0b0; stroke-width: 0.8; stroke-linecap: square"/>
     </g>
     <g id="line2d_2">
      <defs>
       <path id="m465545a21c" d="M 0 0 
L 0 6 
" style="stroke: #000000; stroke-width: 2"/>
      </defs>
      <g>
       <use xlink:href="#m465545a21c" x="88.346826" y="267.552" style="stroke: #000000; stroke-width: 2"/>
      </g>
     </g>
     <g id="text_1">
      <!-- −2 -->
      <g transform="translate(79.77456 288.182469) scale(0.15 -0.15)">
       <defs>
        <path id="Montserrat-Regular-2212" d="M 448 2048 
L 3232 2048 
L 3232 2426 
L 448 2426 
L 448 2048 
z
" transform="scale(0.015625)"/>
        <path id="Montserrat-Regular-32" d="M 928 410 
L 2451 1907 
C 3053 2496 3187 2880 3187 3309 
C 3187 4058 2611 4518 1702 4518 
C 1018 4518 461 4288 115 3878 
L 442 3597 
C 736 3936 1139 4096 1664 4096 
C 2349 4096 2714 3776 2714 3258 
C 2714 2950 2618 2650 2112 2150 
L 250 326 
L 250 0 
L 3392 0 
L 3392 410 
L 928 410 
z
" transform="scale(0.015625)"/>
       </defs>
       <use xlink:href="#Montserrat-Regular-2212"/>
       <use xlink:href="#Montserrat-Regular-32" x="57.499985"/>
      </g>
     </g>
    </g>
    <g id="xtick_2">
     <g id="line2d_3">
      <path d="M 178.756952 267.552 
L 178.756952 1.44 
" clip-path="url(#pa593b9ec1a)" style="fill: none; stroke: #b0b0b0; stroke-width: 0.8; stroke-linecap: square"/>
     </g>
     <g id="line2d_4">
      <g>
       <use xlink:href="#m465545a21c" x="178.756952" y="267.552" style="stroke: #000000; stroke-width: 2"/>
      </g>
     </g>
     <g id="text_2">
      <!-- 0 -->
      <g transform="translate(173.791718 288.182469) scale(0.15 -0.15)">
       <defs>
        <path id="Montserrat-Regular-30" d="M 2118 -38 
C 3155 -38 3910 813 3910 2240 
C 3910 3667 3155 4518 2118 4518 
C 1082 4518 333 3667 333 2240 
C 333 813 1082 -38 2118 -38 
z
M 2118 384 
C 1338 384 800 1043 800 2240 
C 800 3437 1338 4096 2118 4096 
C 2899 4096 3437 3437 3437 2240 
C 3437 1043 2899 384 2118 384 
z
" transform="scale(0.015625)"/>
       </defs>
       <use xlink:href="#Montserrat-Regular-30"/>
      </g>
     </g>
    </g>
    <g id="xtick_3">
     <g id="line2d_5">
      <path d="M 269.167079 267.552 
L 269.167079 1.44 
" clip-path="url(#pa593b9ec1a)" style="fill: none; stroke: #b0b0b0; stroke-width: 0.8; stroke-linecap: square"/>
     </g>
     <g id="line2d_6">
      <g>
       <use xlink:href="#m465545a21c" x="269.167079" y="267.552" style="stroke: #000000; stroke-width: 2"/>
      </g>
     </g>
     <g id="text_3">
      <!-- 2 -->
      <g transform="translate(264.907313 288.182469) scale(0.15 -0.15)">
       <use xlink:href="#Montserrat-Regular-32"/>
      </g>
     </g>
    </g>
    <g id="xtick_4">
     <g id="line2d_7">
      <path d="M 359.577205 267.552 
L 359.577205 1.44 
" clip-path="url(#pa593b9ec1a)" style="fill: none; stroke: #b0b0b0; stroke-width: 0.8; stroke-linecap: square"/>
     </g>
     <g id="line2d_8">
      <g>
       <use xlink:href="#m465545a21c" x="359.577205" y="267.552" style="stroke: #000000; stroke-width: 2"/>
      </g>
     </g>
     <g id="text_4">
      <!-- 4 -->
      <g transform="translate(354.620174 288.182469) scale(0.15 -0.15)">
       <defs>
        <path id="Montserrat-Regular-34" d="M 4141 1587 
L 3245 1587 
L 3245 2624 
L 2797 2624 
L 2797 1587 
L 851 1587 
L 3142 4480 
L 2630 4480 
L 256 1510 
L 256 1178 
L 2784 1178 
L 2784 0 
L 3245 0 
L 3245 1178 
L 4141 1178 
L 4141 1587 
z
" transform="scale(0.015625)"/>
       </defs>
       <use xlink:href="#Montserrat-Regular-34"/>
      </g>
     </g>
    </g>
    <g id="text_5">
     <!-- NN-Distance -->
     <g transform="translate(170.942969 309.934031) scale(0.2 -0.2)">
      <defs>
       <path id="Montserrat-Regular-4e" d="M 4006 4480 
L 4006 845 
L 1120 4480 
L 730 4480 
L 730 0 
L 1203 0 
L 1203 3635 
L 4083 0 
L 4474 0 
L 4474 4480 
L 4006 4480 
z
" transform="scale(0.015625)"/>
       <path id="Montserrat-Regular-2d" d="M 384 1536 
L 2061 1536 
L 2061 1933 
L 384 1933 
L 384 1536 
z
" transform="scale(0.015625)"/>
       <path id="Montserrat-Regular-44" d="M 730 0 
L 2554 0 
C 3987 0 4954 922 4954 2240 
C 4954 3558 3987 4480 2554 4480 
L 730 4480 
L 730 0 
z
M 1203 410 
L 1203 4070 
L 2528 4070 
C 3718 4070 4486 3315 4486 2240 
C 4486 1165 3718 410 2528 410 
L 1203 410 
z
" transform="scale(0.015625)"/>
       <path id="Montserrat-Regular-69" d="M 864 4102 
C 1056 4102 1197 4250 1197 4435 
C 1197 4608 1050 4749 864 4749 
C 678 4749 531 4602 531 4429 
C 531 4250 678 4102 864 4102 
z
M 634 0 
L 1088 0 
L 1088 3366 
L 634 3366 
L 634 0 
z
" transform="scale(0.015625)"/>
       <path id="Montserrat-Regular-73" d="M 1536 -32 
C 2413 -32 2925 346 2925 928 
C 2925 2221 742 1536 742 2445 
C 742 2765 1011 3002 1619 3002 
C 1965 3002 2317 2918 2611 2714 
L 2810 3078 
C 2528 3270 2054 3392 1619 3392 
C 762 3392 288 2982 288 2432 
C 288 1101 2470 1792 2470 915 
C 2470 582 2208 365 1568 365 
C 1094 365 640 531 371 742 
L 166 384 
C 442 147 979 -32 1536 -32 
z
" transform="scale(0.015625)"/>
       <path id="Montserrat-Regular-74" d="M 2246 531 
C 2118 416 1933 358 1747 358 
C 1370 358 1165 576 1165 973 
L 1165 2982 
L 2189 2982 
L 2189 3366 
L 1165 3366 
L 1165 4102 
L 710 4102 
L 710 3366 
L 109 3366 
L 109 2982 
L 710 2982 
L 710 947 
C 710 326 1062 -32 1696 -32 
C 1958 -32 2227 45 2406 205 
L 2246 531 
z
" transform="scale(0.015625)"/>
       <path id="Montserrat-Regular-61" d="M 1811 3392 
C 1280 3392 781 3226 442 2938 
L 646 2598 
C 922 2842 1331 2995 1766 2995 
C 2394 2995 2720 2682 2720 2106 
L 2720 1901 
L 1651 1901 
C 685 1901 352 1466 352 947 
C 352 365 819 -32 1581 -32 
C 2138 -32 2534 179 2739 525 
L 2739 0 
L 3174 0 
L 3174 2086 
C 3174 2957 2682 3392 1811 3392 
z
M 1651 326 
C 1114 326 800 570 800 960 
C 800 1306 1011 1562 1664 1562 
L 2720 1562 
L 2720 1011 
C 2541 570 2163 326 1651 326 
z
" transform="scale(0.015625)"/>
       <path id="Montserrat-Regular-6e" d="M 2349 3392 
C 1766 3392 1312 3155 1069 2746 
L 1069 3366 
L 634 3366 
L 634 0 
L 1088 0 
L 1088 1766 
C 1088 2534 1542 2982 2266 2982 
C 2906 2982 3277 2618 3277 1907 
L 3277 0 
L 3731 0 
L 3731 1952 
C 3731 2918 3168 3392 2349 3392 
z
" transform="scale(0.015625)"/>
       <path id="Montserrat-Regular-63" d="M 2029 -32 
C 2598 -32 3078 198 3347 634 
L 3008 864 
C 2778 525 2419 371 2029 371 
C 1293 371 755 890 755 1683 
C 755 2470 1293 2995 2029 2995 
C 2419 2995 2778 2835 3008 2496 
L 3347 2726 
C 3078 3168 2598 3392 2029 3392 
C 1024 3392 294 2688 294 1683 
C 294 678 1024 -32 2029 -32 
z
" transform="scale(0.015625)"/>
       <path id="Montserrat-Regular-65" d="M 3571 1683 
C 3571 2694 2886 3392 1939 3392 
C 992 3392 294 2682 294 1683 
C 294 685 1011 -32 2061 -32 
C 2592 -32 3059 160 3360 518 
L 3104 813 
C 2848 518 2483 371 2074 371 
C 1338 371 800 838 749 1542 
L 3565 1542 
C 3565 1594 3571 1645 3571 1683 
z
M 1939 3002 
C 2598 3002 3078 2541 3136 1882 
L 749 1882 
C 806 2541 1286 3002 1939 3002 
z
" transform="scale(0.015625)"/>
      </defs>
      <use xlink:href="#Montserrat-Regular-4e"/>
      <use xlink:href="#Montserrat-Regular-4e" x="81.299988"/>
      <use xlink:href="#Montserrat-Regular-2d" x="162.599976"/>
      <use xlink:href="#Montserrat-Regular-44" x="200.799973"/>
      <use xlink:href="#Montserrat-Regular-69" x="283.399963"/>
      <use xlink:href="#Montserrat-Regular-73" x="310.299957"/>
      <use xlink:href="#Montserrat-Regular-74" x="359.199951"/>
      <use xlink:href="#Montserrat-Regular-61" x="399.799942"/>
      <use xlink:href="#Montserrat-Regular-6e" x="458.799927"/>
      <use xlink:href="#Montserrat-Regular-63" x="526.499908"/>
      <use xlink:href="#Montserrat-Regular-65" x="582.799896"/>
     </g>
    </g>
   </g>
   <g id="matplotlib.axis_2">
    <g id="ytick_1">
     <g id="line2d_9">
      <path d="M 56.703281 267.552 
L 413.823281 267.552 
" clip-path="url(#pa593b9ec1a)" style="fill: none; stroke: #b0b0b0; stroke-width: 0.8; stroke-linecap: square"/>
     </g>
     <g id="line2d_10">
      <defs>
       <path id="m13f92b10de" d="M 0 0 
L -6 0 
" style="stroke: #000000; stroke-width: 2"/>
      </defs>
      <g>
       <use xlink:href="#m13f92b10de" x="56.703281" y="267.552" style="stroke: #000000; stroke-width: 2"/>
      </g>
     </g>
     <g id="text_6">
      <!-- 0.0 -->
      <g transform="translate(24.161875 273.117234) scale(0.15 -0.15)">
       <defs>
        <path id="Montserrat-Regular-2e" d="M 678 -32 
C 864 -32 1024 122 1024 320 
C 1024 518 864 666 678 666 
C 493 666 339 518 339 320 
C 339 122 493 -32 678 -32 
z
" transform="scale(0.015625)"/>
       </defs>
       <use xlink:href="#Montserrat-Regular-30"/>
       <use xlink:href="#Montserrat-Regular-2e" x="66.199997"/>
       <use xlink:href="#Montserrat-Regular-30" x="87.399994"/>
      </g>
     </g>
    </g>
    <g id="ytick_2">
     <g id="line2d_11">
      <path d="M 56.703281 222.644464 
L 413.823281 222.644464 
" clip-path="url(#pa593b9ec1a)" style="fill: none; stroke: #b0b0b0; stroke-width: 0.8; stroke-linecap: square"/>
     </g>
     <g id="line2d_12">
      <g>
       <use xlink:href="#m13f92b10de" x="56.703281" y="222.644464" style="stroke: #000000; stroke-width: 2"/>
      </g>
     </g>
     <g id="text_7">
      <!-- 0.1 -->
      <g transform="translate(28.678281 228.209699) scale(0.15 -0.15)">
       <defs>
        <path id="Montserrat-Regular-31" d="M 58 4480 
L 58 4070 
L 1114 4070 
L 1114 0 
L 1574 0 
L 1574 4480 
L 58 4480 
z
" transform="scale(0.015625)"/>
       </defs>
       <use xlink:href="#Montserrat-Regular-30"/>
       <use xlink:href="#Montserrat-Regular-2e" x="66.199997"/>
       <use xlink:href="#Montserrat-Regular-31" x="87.399994"/>
      </g>
     </g>
    </g>
    <g id="ytick_3">
     <g id="line2d_13">
      <path d="M 56.703281 177.736928 
L 413.823281 177.736928 
" clip-path="url(#pa593b9ec1a)" style="fill: none; stroke: #b0b0b0; stroke-width: 0.8; stroke-linecap: square"/>
     </g>
     <g id="line2d_14">
      <g>
       <use xlink:href="#m13f92b10de" x="56.703281" y="177.736928" style="stroke: #000000; stroke-width: 2"/>
      </g>
     </g>
     <g id="text_8">
      <!-- 0.2 -->
      <g transform="translate(25.572813 183.302163) scale(0.15 -0.15)">
       <use xlink:href="#Montserrat-Regular-30"/>
       <use xlink:href="#Montserrat-Regular-2e" x="66.199997"/>
       <use xlink:href="#Montserrat-Regular-32" x="87.399994"/>
      </g>
     </g>
    </g>
    <g id="ytick_4">
     <g id="line2d_15">
      <path d="M 56.703281 132.829393 
L 413.823281 132.829393 
" clip-path="url(#pa593b9ec1a)" style="fill: none; stroke: #b0b0b0; stroke-width: 0.8; stroke-linecap: square"/>
     </g>
     <g id="line2d_16">
      <g>
       <use xlink:href="#m13f92b10de" x="56.703281" y="132.829393" style="stroke: #000000; stroke-width: 2"/>
      </g>
     </g>
     <g id="text_9">
      <!-- 0.3 -->
      <g transform="translate(25.631406 138.394627) scale(0.15 -0.15)">
       <defs>
        <path id="Montserrat-Regular-33" d="M 1856 2560 
L 3123 4154 
L 3123 4480 
L 243 4480 
L 243 4070 
L 2534 4070 
L 1293 2515 
L 1293 2176 
L 1613 2176 
C 2445 2176 2822 1824 2822 1286 
C 2822 730 2413 384 1670 384 
C 1088 384 570 602 282 902 
L 58 538 
C 403 186 1024 -38 1670 -38 
C 2752 -38 3296 538 3296 1286 
C 3296 2003 2816 2509 1856 2560 
z
" transform="scale(0.015625)"/>
       </defs>
       <use xlink:href="#Montserrat-Regular-30"/>
       <use xlink:href="#Montserrat-Regular-2e" x="66.199997"/>
       <use xlink:href="#Montserrat-Regular-33" x="87.399994"/>
      </g>
     </g>
    </g>
    <g id="ytick_5">
     <g id="line2d_17">
      <path d="M 56.703281 87.921857 
L 413.823281 87.921857 
" clip-path="url(#pa593b9ec1a)" style="fill: none; stroke: #b0b0b0; stroke-width: 0.8; stroke-linecap: square"/>
     </g>
     <g id="line2d_18">
      <g>
       <use xlink:href="#m13f92b10de" x="56.703281" y="87.921857" style="stroke: #000000; stroke-width: 2"/>
      </g>
     </g>
     <g id="text_10">
      <!-- 0.4 -->
      <g transform="translate(24.178281 93.487091) scale(0.15 -0.15)">
       <use xlink:href="#Montserrat-Regular-30"/>
       <use xlink:href="#Montserrat-Regular-2e" x="66.199997"/>
       <use xlink:href="#Montserrat-Regular-34" x="87.399994"/>
      </g>
     </g>
    </g>
    <g id="ytick_6">
     <g id="line2d_19">
      <path d="M 56.703281 43.014321 
L 413.823281 43.014321 
" clip-path="url(#pa593b9ec1a)" style="fill: none; stroke: #b0b0b0; stroke-width: 0.8; stroke-linecap: square"/>
     </g>
     <g id="line2d_20">
      <g>
       <use xlink:href="#m13f92b10de" x="56.703281" y="43.014321" style="stroke: #000000; stroke-width: 2"/>
      </g>
     </g>
     <g id="text_11">
      <!-- 0.5 -->
      <g transform="translate(25.603281 48.579556) scale(0.15 -0.15)">
       <defs>
        <path id="Montserrat-Regular-35" d="M 1510 2643 
L 934 2643 
L 1088 4070 
L 3136 4070 
L 3136 4480 
L 685 4480 
L 454 2234 
L 1408 2234 
C 2547 2234 2906 1875 2906 1299 
C 2906 755 2502 384 1741 384 
C 1165 384 653 602 365 902 
L 141 538 
C 486 186 1101 -38 1747 -38 
C 2842 -38 3373 557 3373 1318 
C 3373 2112 2861 2643 1510 2643 
z
" transform="scale(0.015625)"/>
       </defs>
       <use xlink:href="#Montserrat-Regular-30"/>
       <use xlink:href="#Montserrat-Regular-2e" x="66.199997"/>
       <use xlink:href="#Montserrat-Regular-35" x="87.399994"/>
      </g>
     </g>
    </g>
    <g id="text_12">
     <!-- Frequency -->
     <g transform="translate(16.180625 188.246) rotate(-90) scale(0.2 -0.2)">
      <defs>
       <path id="Montserrat-Regular-46" d="M 3802 4070 
L 3802 4480 
L 730 4480 
L 730 0 
L 1203 0 
L 1203 1901 
L 3520 1901 
L 3520 2310 
L 1203 2310 
L 1203 4070 
L 3802 4070 
z
" transform="scale(0.015625)"/>
       <path id="Montserrat-Regular-72" d="M 1069 2707 
L 1069 3366 
L 634 3366 
L 634 0 
L 1088 0 
L 1088 1715 
C 1088 2509 1517 2957 2221 2957 
C 2253 2957 2291 2950 2330 2950 
L 2330 3392 
C 1709 3392 1280 3155 1069 2707 
z
" transform="scale(0.015625)"/>
       <path id="Montserrat-Regular-71" d="M 3270 3366 
L 3270 2701 
C 2995 3149 2528 3392 1971 3392 
C 1011 3392 294 2701 294 1683 
C 294 659 1011 -32 1971 -32 
C 2509 -32 2970 198 3251 634 
L 3251 -1242 
L 3706 -1242 
L 3706 3366 
L 3270 3366 
z
M 2010 371 
C 1293 371 755 896 755 1683 
C 755 2464 1293 2995 2010 2995 
C 2720 2995 3258 2464 3258 1683 
C 3258 896 2720 371 2010 371 
z
" transform="scale(0.015625)"/>
       <path id="Montserrat-Regular-75" d="M 3213 3366 
L 3213 1600 
C 3213 832 2771 378 2067 378 
C 1427 378 1056 742 1056 1459 
L 1056 3366 
L 602 3366 
L 602 1414 
C 602 448 1165 -32 2022 -32 
C 2560 -32 2995 205 3232 614 
L 3232 0 
L 3667 0 
L 3667 3366 
L 3213 3366 
z
" transform="scale(0.015625)"/>
       <path id="Montserrat-Regular-79" d="M 3014 3366 
L 1747 506 
L 480 3366 
L 6 3366 
L 1510 6 
L 1363 -320 
C 1171 -742 966 -883 666 -883 
C 422 -883 218 -794 51 -627 
L -160 -966 
C 45 -1171 346 -1274 659 -1274 
C 1139 -1274 1498 -1062 1779 -403 
L 3462 3366 
L 3014 3366 
z
" transform="scale(0.015625)"/>
      </defs>
      <use xlink:href="#Montserrat-Regular-46"/>
      <use xlink:href="#Montserrat-Regular-72" x="63.299988"/>
      <use xlink:href="#Montserrat-Regular-65" x="103.399979"/>
      <use xlink:href="#Montserrat-Regular-71" x="163.799973"/>
      <use xlink:href="#Montserrat-Regular-75" x="231.59996"/>
      <use xlink:href="#Montserrat-Regular-65" x="298.899948"/>
      <use xlink:href="#Montserrat-Regular-6e" x="359.299942"/>
      <use xlink:href="#Montserrat-Regular-63" x="426.999924"/>
      <use xlink:href="#Montserrat-Regular-79" x="483.299911"/>
     </g>
    </g>
   </g>
   <g id="patch_3">
    <path d="M 56.703281 267.552 
L 56.703281 1.44 
" style="fill: none; stroke: #000000; stroke-width: 2; stroke-linejoin: miter; stroke-linecap: square"/>
   </g>
   <g id="patch_4">
    <path d="M 413.823281 267.552 
L 413.823281 1.44 
" style="fill: none; stroke: #000000; stroke-width: 2; stroke-linejoin: miter; stroke-linecap: square"/>
   </g>
   <g id="patch_5">
    <path d="M 56.703281 267.552 
L 413.823281 267.552 
" style="fill: none; stroke: #000000; stroke-width: 2; stroke-linejoin: miter; stroke-linecap: square"/>
   </g>
   <g id="patch_6">
    <path d="M 56.703281 1.44 
L 413.823281 1.44 
" style="fill: none; stroke: #000000; stroke-width: 2; stroke-linejoin: miter; stroke-linecap: square"/>
   </g>
   <g id="patch_7">
    <path d="M 28.652349 267.552 
L 40.370198 267.552 
L 40.370198 267.491915 
L 28.652349 267.491915 
z
" clip-path="url(#pa593b9ec1a)" style="fill: #0000ff; stroke: #000000; stroke-linejoin: miter"/>
   </g>
   <g id="patch_8">
    <path d="M 40.370198 267.552 
L 52.088047 267.552 
L 52.088047 267.371744 
L 40.370198 267.371744 
z
" clip-path="url(#pa593b9ec1a)" style="fill: #0000ff; stroke: #000000; stroke-linejoin: miter"/>
   </g>
   <g id="patch_9">
    <path d="M 52.088047 267.552 
L 63.805896 267.552 
L 63.805896 267.131403 
L 52.088047 267.131403 
z
" clip-path="url(#pa593b9ec1a)" style="fill: #0000ff; stroke: #000000; stroke-linejoin: miter"/>
   </g>
   <g id="patch_10">
    <path d="M 63.805896 267.552 
L 75.523745 267.552 
L 75.523745 267.251573 
L 63.805896 267.251573 
z
" clip-path="url(#pa593b9ec1a)" style="fill: #0000ff; stroke: #000000; stroke-linejoin: miter"/>
   </g>
   <g id="patch_11">
    <path d="M 75.523745 267.552 
L 87.241593 267.552 
L 87.241593 267.431829 
L 75.523745 267.431829 
z
" clip-path="url(#pa593b9ec1a)" style="fill: #0000ff; stroke: #000000; stroke-linejoin: miter"/>
   </g>
   <g id="patch_12">
    <path d="M 87.241593 267.552 
L 98.959442 267.552 
L 98.959442 266.891061 
L 87.241593 266.891061 
z
" clip-path="url(#pa593b9ec1a)" style="fill: #0000ff; stroke: #000000; stroke-linejoin: miter"/>
   </g>
   <g id="patch_13">
    <path d="M 98.959442 267.552 
L 110.677291 267.552 
L 110.677291 266.500506 
L 98.959442 266.500506 
z
" clip-path="url(#pa593b9ec1a)" style="fill: #0000ff; stroke: #000000; stroke-linejoin: miter"/>
   </g>
   <g id="patch_14">
    <path d="M 110.677291 267.552 
L 122.39514 267.552 
L 122.39514 261.994105 
L 110.677291 261.994105 
z
" clip-path="url(#pa593b9ec1a)" style="fill: #0000ff; stroke: #000000; stroke-linejoin: miter"/>
   </g>
   <g id="patch_15">
    <path d="M 122.39514 267.552 
L 134.112989 267.552 
L 134.112989 244.539312 
L 122.39514 244.539312 
z
" clip-path="url(#pa593b9ec1a)" style="fill: #0000ff; stroke: #000000; stroke-linejoin: miter"/>
   </g>
   <g id="patch_16">
    <path d="M 134.112989 267.552 
L 145.830837 267.552 
L 145.830837 206.835755 
L 134.112989 206.835755 
z
" clip-path="url(#pa593b9ec1a)" style="fill: #0000ff; stroke: #000000; stroke-linejoin: miter"/>
   </g>
   <g id="patch_17">
    <path d="M 145.830837 267.552 
L 157.548686 267.552 
L 157.548686 142.664603 
L 145.830837 142.664603 
z
" clip-path="url(#pa593b9ec1a)" style="fill: #0000ff; stroke: #000000; stroke-linejoin: miter"/>
   </g>
   <g id="patch_18">
    <path d="M 157.548686 267.552 
L 169.266535 267.552 
L 169.266535 64.283266 
L 157.548686 64.283266 
z
" clip-path="url(#pa593b9ec1a)" style="fill: #0000ff; stroke: #000000; stroke-linejoin: miter"/>
   </g>
   <g id="patch_19">
    <path d="M 169.266535 267.552 
L 180.984384 267.552 
L 180.984384 14.112 
L 169.266535 14.112 
z
" clip-path="url(#pa593b9ec1a)" style="fill: #0000ff; stroke: #000000; stroke-linejoin: miter"/>
   </g>
   <g id="patch_20">
    <path d="M 180.984384 267.552 
L 192.702232 267.552 
L 192.702232 18.37806 
L 180.984384 18.37806 
z
" clip-path="url(#pa593b9ec1a)" style="fill: #0000ff; stroke: #000000; stroke-linejoin: miter"/>
   </g>
   <g id="patch_21">
    <path d="M 192.702232 267.552 
L 204.420081 267.552 
L 204.420081 46.708302 
L 192.702232 46.708302 
z
" clip-path="url(#pa593b9ec1a)" style="fill: #0000ff; stroke: #000000; stroke-linejoin: miter"/>
   </g>
   <g id="patch_22">
    <path d="M 204.420081 267.552 
L 216.13793 267.552 
L 216.13793 92.97402 
L 204.420081 92.97402 
z
" clip-path="url(#pa593b9ec1a)" style="fill: #0000ff; stroke: #000000; stroke-linejoin: miter"/>
   </g>
   <g id="patch_23">
    <path d="M 216.13793 267.552 
L 227.855779 267.552 
L 227.855779 139.60025 
L 216.13793 139.60025 
z
" clip-path="url(#pa593b9ec1a)" style="fill: #0000ff; stroke: #000000; stroke-linejoin: miter"/>
   </g>
   <g id="patch_24">
    <path d="M 227.855779 267.552 
L 239.573628 267.552 
L 239.573628 179.316666 
L 227.855779 179.316666 
z
" clip-path="url(#pa593b9ec1a)" style="fill: #0000ff; stroke: #000000; stroke-linejoin: miter"/>
   </g>
   <g id="patch_25">
    <path d="M 239.573628 267.552 
L 251.291476 267.552 
L 251.291476 209.779937 
L 239.573628 209.779937 
z
" clip-path="url(#pa593b9ec1a)" style="fill: #0000ff; stroke: #000000; stroke-linejoin: miter"/>
   </g>
   <g id="patch_26">
    <path d="M 251.291476 267.552 
L 263.009325 267.552 
L 263.009325 227.565201 
L 251.291476 227.565201 
z
" clip-path="url(#pa593b9ec1a)" style="fill: #0000ff; stroke: #000000; stroke-linejoin: miter"/>
   </g>
   <g id="patch_27">
    <path d="M 263.009325 267.552 
L 274.727174 267.552 
L 274.727174 241.054361 
L 263.009325 241.054361 
z
" clip-path="url(#pa593b9ec1a)" style="fill: #0000ff; stroke: #000000; stroke-linejoin: miter"/>
   </g>
   <g id="patch_28">
    <path d="M 274.727174 267.552 
L 286.445023 267.552 
L 286.445023 249.406225 
L 274.727174 249.406225 
z
" clip-path="url(#pa593b9ec1a)" style="fill: #0000ff; stroke: #000000; stroke-linejoin: miter"/>
   </g>
   <g id="patch_29">
    <path d="M 286.445023 267.552 
L 298.162872 267.552 
L 298.162872 255.144376 
L 286.445023 255.144376 
z
" clip-path="url(#pa593b9ec1a)" style="fill: #0000ff; stroke: #000000; stroke-linejoin: miter"/>
   </g>
   <g id="patch_30">
    <path d="M 298.162872 267.552 
L 309.88072 267.552 
L 309.88072 257.908302 
L 298.162872 257.908302 
z
" clip-path="url(#pa593b9ec1a)" style="fill: #0000ff; stroke: #000000; stroke-linejoin: miter"/>
   </g>
   <g id="patch_31">
    <path d="M 309.88072 267.552 
L 321.598569 267.552 
L 321.598569 260.25163 
L 309.88072 260.25163 
z
" clip-path="url(#pa593b9ec1a)" style="fill: #0000ff; stroke: #000000; stroke-linejoin: miter"/>
   </g>
   <g id="patch_32">
    <path d="M 321.598569 267.552 
L 333.316418 267.552 
L 333.316418 262.324575 
L 321.598569 262.324575 
z
" clip-path="url(#pa593b9ec1a)" style="fill: #0000ff; stroke: #000000; stroke-linejoin: miter"/>
   </g>
   <g id="patch_33">
    <path d="M 333.316418 267.552 
L 345.034267 267.552 
L 345.034267 262.805257 
L 333.316418 262.805257 
z
" clip-path="url(#pa593b9ec1a)" style="fill: #0000ff; stroke: #000000; stroke-linejoin: miter"/>
   </g>
   <g id="patch_34">
    <path d="M 345.034267 267.552 
L 356.752116 267.552 
L 356.752116 264.457605 
L 345.034267 264.457605 
z
" clip-path="url(#pa593b9ec1a)" style="fill: #0000ff; stroke: #000000; stroke-linejoin: miter"/>
   </g>
   <g id="patch_35">
    <path d="M 356.752116 267.552 
L 368.469964 267.552 
L 368.469964 265.118543 
L 356.752116 265.118543 
z
" clip-path="url(#pa593b9ec1a)" style="fill: #0000ff; stroke: #000000; stroke-linejoin: miter"/>
   </g>
   <g id="patch_36">
    <path d="M 368.469964 267.552 
L 380.187813 267.552 
L 380.187813 265.809525 
L 368.469964 265.809525 
z
" clip-path="url(#pa593b9ec1a)" style="fill: #0000ff; stroke: #000000; stroke-linejoin: miter"/>
   </g>
   <g id="patch_37">
    <path d="M 380.187813 267.552 
L 391.905662 267.552 
L 391.905662 265.959738 
L 380.187813 265.959738 
z
" clip-path="url(#pa593b9ec1a)" style="fill: #0000ff; stroke: #000000; stroke-linejoin: miter"/>
   </g>
   <g id="patch_38">
    <path d="M 391.905662 267.552 
L 403.623511 267.552 
L 403.623511 266.139994 
L 391.905662 266.139994 
z
" clip-path="url(#pa593b9ec1a)" style="fill: #0000ff; stroke: #000000; stroke-linejoin: miter"/>
   </g>
   <g id="patch_39">
    <path d="M 403.623511 267.552 
L 415.341359 267.552 
L 415.341359 266.65072 
L 403.623511 266.65072 
z
" clip-path="url(#pa593b9ec1a)" style="fill: #0000ff; stroke: #000000; stroke-linejoin: miter"/>
   </g>
   <g id="patch_40">
    <path d="M 415.341359 267.552 
L 427.059208 267.552 
L 427.059208 266.891061 
L 415.341359 266.891061 
z
" clip-path="url(#pa593b9ec1a)" style="fill: #0000ff; stroke: #000000; stroke-linejoin: miter"/>
   </g>
   <g id="patch_41">
    <path d="M 427.059208 267.552 
L 438.777057 267.552 
L 438.777057 266.861018 
L 427.059208 266.861018 
z
" clip-path="url(#pa593b9ec1a)" style="fill: #0000ff; stroke: #000000; stroke-linejoin: miter"/>
   </g>
   <g id="patch_42">
    <path d="M 438.777057 267.552 
L 450.494906 267.552 
L 450.494906 266.951147 
L 438.777057 266.951147 
z
" clip-path="url(#pa593b9ec1a)" style="fill: #0000ff; stroke: #000000; stroke-linejoin: miter"/>
   </g>
   <g id="patch_43">
    <path d="M 450.494906 267.552 
L 462.212755 267.552 
L 462.212755 267.011232 
L 450.494906 267.011232 
z
" clip-path="url(#pa593b9ec1a)" style="fill: #0000ff; stroke: #000000; stroke-linejoin: miter"/>
   </g>
   <g id="patch_44">
    <path d="M 462.212755 267.552 
L 473.930603 267.552 
L 473.930603 267.311659 
L 462.212755 267.311659 
z
" clip-path="url(#pa593b9ec1a)" style="fill: #0000ff; stroke: #000000; stroke-linejoin: miter"/>
   </g>
   <g id="patch_45">
    <path d="M 473.930603 267.552 
L 485.648452 267.552 
L 485.648452 267.221531 
L 473.930603 267.221531 
z
" clip-path="url(#pa593b9ec1a)" style="fill: #0000ff; stroke: #000000; stroke-linejoin: miter"/>
   </g>
   <g id="patch_46">
    <path d="M 485.648452 267.552 
L 497.366301 267.552 
L 497.366301 267.221531 
L 485.648452 267.221531 
z
" clip-path="url(#pa593b9ec1a)" style="fill: #0000ff; stroke: #000000; stroke-linejoin: miter"/>
   </g>
   <g id="patch_47">
    <path d="M 497.366301 267.552 
L 509.08415 267.552 
L 509.08415 267.341701 
L 497.366301 267.341701 
z
" clip-path="url(#pa593b9ec1a)" style="fill: #0000ff; stroke: #000000; stroke-linejoin: miter"/>
   </g>
   <g id="patch_48">
    <path d="M 509.08415 267.552 
L 520.801999 267.552 
L 520.801999 267.251573 
L 509.08415 267.251573 
z
" clip-path="url(#pa593b9ec1a)" style="fill: #0000ff; stroke: #000000; stroke-linejoin: miter"/>
   </g>
   <g id="patch_49">
    <path d="M 520.801999 267.552 
L 532.519847 267.552 
L 532.519847 267.461872 
L 520.801999 267.461872 
z
" clip-path="url(#pa593b9ec1a)" style="fill: #0000ff; stroke: #000000; stroke-linejoin: miter"/>
   </g>
   <g id="patch_50">
    <path d="M 532.519847 267.552 
L 544.237696 267.552 
L 544.237696 267.431829 
L 532.519847 267.431829 
z
" clip-path="url(#pa593b9ec1a)" style="fill: #0000ff; stroke: #000000; stroke-linejoin: miter"/>
   </g>
   <g id="patch_51">
    <path d="M 544.237696 267.552 
L 555.955545 267.552 
L 555.955545 267.461872 
L 544.237696 267.461872 
z
" clip-path="url(#pa593b9ec1a)" style="fill: #0000ff; stroke: #000000; stroke-linejoin: miter"/>
   </g>
   <g id="patch_52">
    <path d="M 555.955545 267.552 
L 567.673394 267.552 
L 567.673394 267.401787 
L 555.955545 267.401787 
z
" clip-path="url(#pa593b9ec1a)" style="fill: #0000ff; stroke: #000000; stroke-linejoin: miter"/>
   </g>
   <g id="patch_53">
    <path d="M 567.673394 267.552 
L 579.391243 267.552 
L 579.391243 267.461872 
L 567.673394 267.461872 
z
" clip-path="url(#pa593b9ec1a)" style="fill: #0000ff; stroke: #000000; stroke-linejoin: miter"/>
   </g>
   <g id="patch_54">
    <path d="M 579.391243 267.552 
L 591.109091 267.552 
L 591.109091 267.431829 
L 579.391243 267.431829 
z
" clip-path="url(#pa593b9ec1a)" style="fill: #0000ff; stroke: #000000; stroke-linejoin: miter"/>
   </g>
   <g id="patch_55">
    <path d="M 591.109091 267.552 
L 602.82694 267.552 
L 602.82694 267.521957 
L 591.109091 267.521957 
z
" clip-path="url(#pa593b9ec1a)" style="fill: #0000ff; stroke: #000000; stroke-linejoin: miter"/>
   </g>
   <g id="patch_56">
    <path d="M 602.82694 267.552 
L 614.544789 267.552 
L 614.544789 267.401787 
L 602.82694 267.401787 
z
" clip-path="url(#pa593b9ec1a)" style="fill: #0000ff; stroke: #000000; stroke-linejoin: miter"/>
   </g>
   <g id="patch_57">
    <path d="M 614.544789 267.552 
L 626.262638 267.552 
L 626.262638 267.491915 
L 614.544789 267.491915 
z
" clip-path="url(#pa593b9ec1a)" style="fill: #0000ff; stroke: #000000; stroke-linejoin: miter"/>
   </g>
   <g id="patch_58">
    <path d="M 626.262638 267.552 
L 637.980487 267.552 
L 637.980487 267.521957 
L 626.262638 267.521957 
z
" clip-path="url(#pa593b9ec1a)" style="fill: #0000ff; stroke: #000000; stroke-linejoin: miter"/>
   </g>
   <g id="patch_59">
    <path d="M 637.980487 267.552 
L 649.698335 267.552 
L 649.698335 267.521957 
L 637.980487 267.521957 
z
" clip-path="url(#pa593b9ec1a)" style="fill: #0000ff; stroke: #000000; stroke-linejoin: miter"/>
   </g>
   <g id="patch_60">
    <path d="M 649.698335 267.552 
L 661.416184 267.552 
L 661.416184 267.552 
L 649.698335 267.552 
z
" clip-path="url(#pa593b9ec1a)" style="fill: #0000ff; stroke: #000000; stroke-linejoin: miter"/>
   </g>
   <g id="patch_61">
    <path d="M 661.416184 267.552 
L 673.134033 267.552 
L 673.134033 267.521957 
L 661.416184 267.521957 
z
" clip-path="url(#pa593b9ec1a)" style="fill: #0000ff; stroke: #000000; stroke-linejoin: miter"/>
   </g>
   <g id="patch_62">
    <path d="M 673.134033 267.552 
L 684.851882 267.552 
L 684.851882 267.521957 
L 673.134033 267.521957 
z
" clip-path="url(#pa593b9ec1a)" style="fill: #0000ff; stroke: #000000; stroke-linejoin: miter"/>
   </g>
   <g id="patch_63">
    <path d="M 684.851882 267.552 
L 696.56973 267.552 
L 696.56973 267.552 
L 684.851882 267.552 
z
" clip-path="url(#pa593b9ec1a)" style="fill: #0000ff; stroke: #000000; stroke-linejoin: miter"/>
   </g>
   <g id="patch_64">
    <path d="M 696.56973 267.552 
L 708.287579 267.552 
L 708.287579 267.491915 
L 696.56973 267.491915 
z
" clip-path="url(#pa593b9ec1a)" style="fill: #0000ff; stroke: #000000; stroke-linejoin: miter"/>
   </g>
   <g id="patch_65">
    <path d="M 708.287579 267.552 
L 720.005428 267.552 
L 720.005428 267.552 
L 708.287579 267.552 
z
" clip-path="url(#pa593b9ec1a)" style="fill: #0000ff; stroke: #000000; stroke-linejoin: miter"/>
   </g>
   <g id="patch_66">
    <path d="M 720.005428 267.552 
L 731.723277 267.552 
L 731.723277 267.552 
L 720.005428 267.552 
z
" clip-path="url(#pa593b9ec1a)" style="fill: #0000ff; stroke: #000000; stroke-linejoin: miter"/>
   </g>
   <g id="patch_67">
    <path d="M 731.723277 267.552 
L 743.441126 267.552 
L 743.441126 267.552 
L 731.723277 267.552 
z
" clip-path="url(#pa593b9ec1a)" style="fill: #0000ff; stroke: #000000; stroke-linejoin: miter"/>
   </g>
   <g id="patch_68">
    <path d="M 743.441126 267.552 
L 755.158974 267.552 
L 755.158974 267.552 
L 743.441126 267.552 
z
" clip-path="url(#pa593b9ec1a)" style="fill: #0000ff; stroke: #000000; stroke-linejoin: miter"/>
   </g>
   <g id="patch_69">
    <path d="M 755.158974 267.552 
L 766.876823 267.552 
L 766.876823 267.552 
L 755.158974 267.552 
z
" clip-path="url(#pa593b9ec1a)" style="fill: #0000ff; stroke: #000000; stroke-linejoin: miter"/>
   </g>
   <g id="patch_70">
    <path d="M 766.876823 267.552 
L 778.594672 267.552 
L 778.594672 267.552 
L 766.876823 267.552 
z
" clip-path="url(#pa593b9ec1a)" style="fill: #0000ff; stroke: #000000; stroke-linejoin: miter"/>
   </g>
   <g id="patch_71">
    <path d="M 778.594672 267.552 
L 790.312521 267.552 
L 790.312521 267.552 
L 778.594672 267.552 
z
" clip-path="url(#pa593b9ec1a)" style="fill: #0000ff; stroke: #000000; stroke-linejoin: miter"/>
   </g>
   <g id="patch_72">
    <path d="M 790.312521 267.552 
L 802.03037 267.552 
L 802.03037 267.552 
L 790.312521 267.552 
z
" clip-path="url(#pa593b9ec1a)" style="fill: #0000ff; stroke: #000000; stroke-linejoin: miter"/>
   </g>
   <g id="patch_73">
    <path d="M 802.03037 267.552 
L 813.748218 267.552 
L 813.748218 267.552 
L 802.03037 267.552 
z
" clip-path="url(#pa593b9ec1a)" style="fill: #0000ff; stroke: #000000; stroke-linejoin: miter"/>
   </g>
   <g id="patch_74">
    <path d="M 813.748218 267.552 
L 825.466067 267.552 
L 825.466067 267.491915 
L 813.748218 267.491915 
z
" clip-path="url(#pa593b9ec1a)" style="fill: #0000ff; stroke: #000000; stroke-linejoin: miter"/>
   </g>
   <g id="patch_75">
    <path d="M 825.466067 267.552 
L 837.183916 267.552 
L 837.183916 267.552 
L 825.466067 267.552 
z
" clip-path="url(#pa593b9ec1a)" style="fill: #0000ff; stroke: #000000; stroke-linejoin: miter"/>
   </g>
   <g id="patch_76">
    <path d="M 837.183916 267.552 
L 848.901765 267.552 
L 848.901765 267.521957 
L 837.183916 267.521957 
z
" clip-path="url(#pa593b9ec1a)" style="fill: #0000ff; stroke: #000000; stroke-linejoin: miter"/>
   </g>
  </g>
 </g>
 <defs>
  <clipPath id="pa593b9ec1a">
   <rect x="56.703281" y="1.44" width="357.12" height="266.112"/>
  </clipPath>
 </defs>
</svg>
