<?xml version="1.0" encoding="utf-8" standalone="no"?>
<!DOCTYPE svg PUBLIC "-//W3C//DTD SVG 1.1//EN"
  "http://www.w3.org/Graphics/SVG/1.1/DTD/svg11.dtd">
<svg xmlns:xlink="http://www.w3.org/1999/xlink" width="415.263281pt" height="319.542845pt" viewBox="0 0 415.263281 319.542845" xmlns="http://www.w3.org/2000/svg" version="1.1">
 <metadata>
  <rdf:RDF xmlns:dc="http://purl.org/dc/elements/1.1/" xmlns:cc="http://creativecommons.org/ns#" xmlns:rdf="http://www.w3.org/1999/02/22-rdf-syntax-ns#">
   <cc:Work>
    <dc:type rdf:resource="http://purl.org/dc/dcmitype/StillImage"/>
    <dc:date>2022-10-05T18:29:14.655066</dc:date>
    <dc:format>image/svg+xml</dc:format>
    <dc:creator>
     <cc:Agent>
      <dc:title>Matplotlib v3.6.0, https://matplotlib.org/</dc:title>
     </cc:Agent>
    </dc:creator>
   </cc:Work>
  </rdf:RDF>
 </metadata>
 <defs>
  <style type="text/css">*{stroke-linejoin: round; stroke-linecap: butt}</style>
 </defs>
 <g id="figure_1">
  <g id="patch_1">
   <path d="M 0 319.542845 
L 415.263281 319.542845 
L 415.263281 0 
L 0 0 
L 0 319.542845 
z
" style="fill: none"/>
  </g>
  <g id="axes_1">
   <g id="patch_2">
    <path d="M 56.703281 271.839564 
L 413.823281 271.839564 
L 413.823281 5.727564 
L 56.703281 5.727564 
L 56.703281 271.839564 
z
" style="fill: none"/>
   </g>
   <g id="matplotlib.axis_1">
    <g id="xtick_1">
     <g id="line2d_1">
      <path d="M 88.346826 271.839564 
L 88.346826 5.727564 
" clip-path="url(#pe96a97cf96)" style="fill: none; stroke: #b0b0b0; stroke-width: 0.8; stroke-linecap: square"/>
     </g>
     <g id="line2d_2">
      <defs>
       <path id="m8f5deac6f0" d="M 0 0 
L 0 6 
" style="stroke: #000000; stroke-width: 2"/>
      </defs>
      <g>
       <use xlink:href="#m8f5deac6f0" x="88.346826" y="271.839564" style="stroke: #000000; stroke-width: 2"/>
      </g>
     </g>
     <g id="text_1">
      <!-- −2 -->
      <g transform="translate(79.77456 292.470033) scale(0.15 -0.15)">
       <defs>
        <path id="Montserrat-Regular-2212" d="M 448 2048 
L 3232 2048 
L 3232 2426 
L 448 2426 
L 448 2048 
z
" transform="scale(0.015625)"/>
        <path id="Montserrat-Regular-32" d="M 928 410 
L 2451 1907 
C 3053 2496 3187 2880 3187 3309 
C 3187 4058 2611 4518 1702 4518 
C 1018 4518 461 4288 115 3878 
L 442 3597 
C 736 3936 1139 4096 1664 4096 
C 2349 4096 2714 3776 2714 3258 
C 2714 2950 2618 2650 2112 2150 
L 250 326 
L 250 0 
L 3392 0 
L 3392 410 
L 928 410 
z
" transform="scale(0.015625)"/>
       </defs>
       <use xlink:href="#Montserrat-Regular-2212"/>
       <use xlink:href="#Montserrat-Regular-32" x="57.499985"/>
      </g>
     </g>
    </g>
    <g id="xtick_2">
     <g id="line2d_3">
      <path d="M 178.756952 271.839564 
L 178.756952 5.727564 
" clip-path="url(#pe96a97cf96)" style="fill: none; stroke: #b0b0b0; stroke-width: 0.8; stroke-linecap: square"/>
     </g>
     <g id="line2d_4">
      <g>
       <use xlink:href="#m8f5deac6f0" x="178.756952" y="271.839564" style="stroke: #000000; stroke-width: 2"/>
      </g>
     </g>
     <g id="text_2">
      <!-- 0 -->
      <g transform="translate(173.791718 292.470033) scale(0.15 -0.15)">
       <defs>
        <path id="Montserrat-Regular-30" d="M 2118 -38 
C 3155 -38 3910 813 3910 2240 
C 3910 3667 3155 4518 2118 4518 
C 1082 4518 333 3667 333 2240 
C 333 813 1082 -38 2118 -38 
z
M 2118 384 
C 1338 384 800 1043 800 2240 
C 800 3437 1338 4096 2118 4096 
C 2899 4096 3437 3437 3437 2240 
C 3437 1043 2899 384 2118 384 
z
" transform="scale(0.015625)"/>
       </defs>
       <use xlink:href="#Montserrat-Regular-30"/>
      </g>
     </g>
    </g>
    <g id="xtick_3">
     <g id="line2d_5">
      <path d="M 269.167079 271.839564 
L 269.167079 5.727564 
" clip-path="url(#pe96a97cf96)" style="fill: none; stroke: #b0b0b0; stroke-width: 0.8; stroke-linecap: square"/>
     </g>
     <g id="line2d_6">
      <g>
       <use xlink:href="#m8f5deac6f0" x="269.167079" y="271.839564" style="stroke: #000000; stroke-width: 2"/>
      </g>
     </g>
     <g id="text_3">
      <!-- 2 -->
      <g transform="translate(264.907313 292.470033) scale(0.15 -0.15)">
       <use xlink:href="#Montserrat-Regular-32"/>
      </g>
     </g>
    </g>
    <g id="xtick_4">
     <g id="line2d_7">
      <path d="M 359.577205 271.839564 
L 359.577205 5.727564 
" clip-path="url(#pe96a97cf96)" style="fill: none; stroke: #b0b0b0; stroke-width: 0.8; stroke-linecap: square"/>
     </g>
     <g id="line2d_8">
      <g>
       <use xlink:href="#m8f5deac6f0" x="359.577205" y="271.839564" style="stroke: #000000; stroke-width: 2"/>
      </g>
     </g>
     <g id="text_4">
      <!-- 4 -->
      <g transform="translate(354.620174 292.470033) scale(0.15 -0.15)">
       <defs>
        <path id="Montserrat-Regular-34" d="M 4141 1587 
L 3245 1587 
L 3245 2624 
L 2797 2624 
L 2797 1587 
L 851 1587 
L 3142 4480 
L 2630 4480 
L 256 1510 
L 256 1178 
L 2784 1178 
L 2784 0 
L 3245 0 
L 3245 1178 
L 4141 1178 
L 4141 1587 
z
" transform="scale(0.015625)"/>
       </defs>
       <use xlink:href="#Montserrat-Regular-34"/>
      </g>
     </g>
    </g>
    <g id="text_5">
     <!-- Volume -->
     <g transform="translate(195.942969 314.221595) scale(0.2 -0.2)">
      <defs>
       <path id="Montserrat-Regular-56" d="M 3974 4480 
L 2246 589 
L 531 4480 
L 19 4480 
L 2003 0 
L 2470 0 
L 4454 4480 
L 3974 4480 
z
" transform="scale(0.015625)"/>
       <path id="Montserrat-Regular-6f" d="M 2010 -32 
C 2995 -32 3718 685 3718 1683 
C 3718 2682 2995 3392 2010 3392 
C 1024 3392 294 2682 294 1683 
C 294 685 1024 -32 2010 -32 
z
M 2010 371 
C 1293 371 755 896 755 1683 
C 755 2470 1293 2995 2010 2995 
C 2726 2995 3258 2470 3258 1683 
C 3258 896 2726 371 2010 371 
z
" transform="scale(0.015625)"/>
       <path id="Montserrat-Regular-6c" d="M 634 0 
L 1088 0 
L 1088 4749 
L 634 4749 
L 634 0 
z
" transform="scale(0.015625)"/>
       <path id="Montserrat-Regular-75" d="M 3213 3366 
L 3213 1600 
C 3213 832 2771 378 2067 378 
C 1427 378 1056 742 1056 1459 
L 1056 3366 
L 602 3366 
L 602 1414 
C 602 448 1165 -32 2022 -32 
C 2560 -32 2995 205 3232 614 
L 3232 0 
L 3667 0 
L 3667 3366 
L 3213 3366 
z
" transform="scale(0.015625)"/>
       <path id="Montserrat-Regular-6d" d="M 4832 3392 
C 4224 3392 3744 3117 3501 2682 
C 3296 3155 2861 3392 2304 3392 
C 1741 3392 1306 3155 1069 2752 
L 1069 3366 
L 634 3366 
L 634 0 
L 1088 0 
L 1088 1766 
C 1088 2534 1530 2982 2214 2982 
C 2829 2982 3187 2618 3187 1907 
L 3187 0 
L 3642 0 
L 3642 1766 
C 3642 2534 4077 2982 4768 2982 
C 5376 2982 5734 2618 5734 1907 
L 5734 0 
L 6189 0 
L 6189 1952 
C 6189 2918 5651 3392 4832 3392 
z
" transform="scale(0.015625)"/>
       <path id="Montserrat-Regular-65" d="M 3571 1683 
C 3571 2694 2886 3392 1939 3392 
C 992 3392 294 2682 294 1683 
C 294 685 1011 -32 2061 -32 
C 2592 -32 3059 160 3360 518 
L 3104 813 
C 2848 518 2483 371 2074 371 
C 1338 371 800 838 749 1542 
L 3565 1542 
C 3565 1594 3571 1645 3571 1683 
z
M 1939 3002 
C 2598 3002 3078 2541 3136 1882 
L 749 1882 
C 806 2541 1286 3002 1939 3002 
z
" transform="scale(0.015625)"/>
      </defs>
      <use xlink:href="#Montserrat-Regular-56"/>
      <use xlink:href="#Montserrat-Regular-6f" x="69.799988"/>
      <use xlink:href="#Montserrat-Regular-6c" x="132.499985"/>
      <use xlink:href="#Montserrat-Regular-75" x="159.399979"/>
      <use xlink:href="#Montserrat-Regular-6d" x="226.699966"/>
      <use xlink:href="#Montserrat-Regular-65" x="332.799957"/>
     </g>
    </g>
   </g>
   <g id="matplotlib.axis_2">
    <g id="ytick_1">
     <g id="line2d_9">
      <path d="M 56.703281 271.839564 
L 413.823281 271.839564 
" clip-path="url(#pe96a97cf96)" style="fill: none; stroke: #b0b0b0; stroke-width: 0.8; stroke-linecap: square"/>
     </g>
     <g id="line2d_10">
      <defs>
       <path id="mdb25957865" d="M 0 0 
L -6 0 
" style="stroke: #000000; stroke-width: 2"/>
      </defs>
      <g>
       <use xlink:href="#mdb25957865" x="56.703281" y="271.839564" style="stroke: #000000; stroke-width: 2"/>
      </g>
     </g>
     <g id="text_6">
      <!-- 0.0 -->
      <g transform="translate(24.161875 277.404799) scale(0.15 -0.15)">
       <defs>
        <path id="Montserrat-Regular-2e" d="M 678 -32 
C 864 -32 1024 122 1024 320 
C 1024 518 864 666 678 666 
C 493 666 339 518 339 320 
C 339 122 493 -32 678 -32 
z
" transform="scale(0.015625)"/>
       </defs>
       <use xlink:href="#Montserrat-Regular-30"/>
       <use xlink:href="#Montserrat-Regular-2e" x="66.199997"/>
       <use xlink:href="#Montserrat-Regular-30" x="87.399994"/>
      </g>
     </g>
    </g>
    <g id="ytick_2">
     <g id="line2d_11">
      <path d="M 56.703281 227.700509 
L 413.823281 227.700509 
" clip-path="url(#pe96a97cf96)" style="fill: none; stroke: #b0b0b0; stroke-width: 0.8; stroke-linecap: square"/>
     </g>
     <g id="line2d_12">
      <g>
       <use xlink:href="#mdb25957865" x="56.703281" y="227.700509" style="stroke: #000000; stroke-width: 2"/>
      </g>
     </g>
     <g id="text_7">
      <!-- 0.1 -->
      <g transform="translate(28.678281 233.265744) scale(0.15 -0.15)">
       <defs>
        <path id="Montserrat-Regular-31" d="M 58 4480 
L 58 4070 
L 1114 4070 
L 1114 0 
L 1574 0 
L 1574 4480 
L 58 4480 
z
" transform="scale(0.015625)"/>
       </defs>
       <use xlink:href="#Montserrat-Regular-30"/>
       <use xlink:href="#Montserrat-Regular-2e" x="66.199997"/>
       <use xlink:href="#Montserrat-Regular-31" x="87.399994"/>
      </g>
     </g>
    </g>
    <g id="ytick_3">
     <g id="line2d_13">
      <path d="M 56.703281 183.561454 
L 413.823281 183.561454 
" clip-path="url(#pe96a97cf96)" style="fill: none; stroke: #b0b0b0; stroke-width: 0.8; stroke-linecap: square"/>
     </g>
     <g id="line2d_14">
      <g>
       <use xlink:href="#mdb25957865" x="56.703281" y="183.561454" style="stroke: #000000; stroke-width: 2"/>
      </g>
     </g>
     <g id="text_8">
      <!-- 0.2 -->
      <g transform="translate(25.572813 189.126689) scale(0.15 -0.15)">
       <use xlink:href="#Montserrat-Regular-30"/>
       <use xlink:href="#Montserrat-Regular-2e" x="66.199997"/>
       <use xlink:href="#Montserrat-Regular-32" x="87.399994"/>
      </g>
     </g>
    </g>
    <g id="ytick_4">
     <g id="line2d_15">
      <path d="M 56.703281 139.422399 
L 413.823281 139.422399 
" clip-path="url(#pe96a97cf96)" style="fill: none; stroke: #b0b0b0; stroke-width: 0.8; stroke-linecap: square"/>
     </g>
     <g id="line2d_16">
      <g>
       <use xlink:href="#mdb25957865" x="56.703281" y="139.422399" style="stroke: #000000; stroke-width: 2"/>
      </g>
     </g>
     <g id="text_9">
      <!-- 0.3 -->
      <g transform="translate(25.631406 144.987634) scale(0.15 -0.15)">
       <defs>
        <path id="Montserrat-Regular-33" d="M 1856 2560 
L 3123 4154 
L 3123 4480 
L 243 4480 
L 243 4070 
L 2534 4070 
L 1293 2515 
L 1293 2176 
L 1613 2176 
C 2445 2176 2822 1824 2822 1286 
C 2822 730 2413 384 1670 384 
C 1088 384 570 602 282 902 
L 58 538 
C 403 186 1024 -38 1670 -38 
C 2752 -38 3296 538 3296 1286 
C 3296 2003 2816 2509 1856 2560 
z
" transform="scale(0.015625)"/>
       </defs>
       <use xlink:href="#Montserrat-Regular-30"/>
       <use xlink:href="#Montserrat-Regular-2e" x="66.199997"/>
       <use xlink:href="#Montserrat-Regular-33" x="87.399994"/>
      </g>
     </g>
    </g>
    <g id="ytick_5">
     <g id="line2d_17">
      <path d="M 56.703281 95.283344 
L 413.823281 95.283344 
" clip-path="url(#pe96a97cf96)" style="fill: none; stroke: #b0b0b0; stroke-width: 0.8; stroke-linecap: square"/>
     </g>
     <g id="line2d_18">
      <g>
       <use xlink:href="#mdb25957865" x="56.703281" y="95.283344" style="stroke: #000000; stroke-width: 2"/>
      </g>
     </g>
     <g id="text_10">
      <!-- 0.4 -->
      <g transform="translate(24.178281 100.848579) scale(0.15 -0.15)">
       <use xlink:href="#Montserrat-Regular-30"/>
       <use xlink:href="#Montserrat-Regular-2e" x="66.199997"/>
       <use xlink:href="#Montserrat-Regular-34" x="87.399994"/>
      </g>
     </g>
    </g>
    <g id="ytick_6">
     <g id="line2d_19">
      <path d="M 56.703281 51.144289 
L 413.823281 51.144289 
" clip-path="url(#pe96a97cf96)" style="fill: none; stroke: #b0b0b0; stroke-width: 0.8; stroke-linecap: square"/>
     </g>
     <g id="line2d_20">
      <g>
       <use xlink:href="#mdb25957865" x="56.703281" y="51.144289" style="stroke: #000000; stroke-width: 2"/>
      </g>
     </g>
     <g id="text_11">
      <!-- 0.5 -->
      <g transform="translate(25.603281 56.709524) scale(0.15 -0.15)">
       <defs>
        <path id="Montserrat-Regular-35" d="M 1510 2643 
L 934 2643 
L 1088 4070 
L 3136 4070 
L 3136 4480 
L 685 4480 
L 454 2234 
L 1408 2234 
C 2547 2234 2906 1875 2906 1299 
C 2906 755 2502 384 1741 384 
C 1165 384 653 602 365 902 
L 141 538 
C 486 186 1101 -38 1747 -38 
C 2842 -38 3373 557 3373 1318 
C 3373 2112 2861 2643 1510 2643 
z
" transform="scale(0.015625)"/>
       </defs>
       <use xlink:href="#Montserrat-Regular-30"/>
       <use xlink:href="#Montserrat-Regular-2e" x="66.199997"/>
       <use xlink:href="#Montserrat-Regular-35" x="87.399994"/>
      </g>
     </g>
    </g>
    <g id="ytick_7">
     <g id="line2d_21">
      <path d="M 56.703281 7.005234 
L 413.823281 7.005234 
" clip-path="url(#pe96a97cf96)" style="fill: none; stroke: #b0b0b0; stroke-width: 0.8; stroke-linecap: square"/>
     </g>
     <g id="line2d_22">
      <g>
       <use xlink:href="#mdb25957865" x="56.703281" y="7.005234" style="stroke: #000000; stroke-width: 2"/>
      </g>
     </g>
     <g id="text_12">
      <!-- 0.6 -->
      <g transform="translate(24.956406 12.570469) scale(0.15 -0.15)">
       <defs>
        <path id="Montserrat-Regular-36" d="M 2189 2682 
C 1568 2682 1043 2406 819 1914 
C 806 2048 800 2176 800 2278 
C 800 3494 1421 4115 2387 4115 
C 2720 4115 3027 4058 3258 3904 
L 3443 4275 
C 3162 4448 2784 4518 2381 4518 
C 1165 4518 333 3725 333 2202 
C 333 787 979 -38 2170 -38 
C 3040 -38 3699 499 3699 1338 
C 3699 2157 3078 2682 2189 2682 
z
M 2150 352 
C 1376 352 966 819 966 1312 
C 966 1869 1434 2291 2118 2291 
C 2810 2291 3245 1914 3245 1325 
C 3245 730 2797 352 2150 352 
z
" transform="scale(0.015625)"/>
       </defs>
       <use xlink:href="#Montserrat-Regular-30"/>
       <use xlink:href="#Montserrat-Regular-2e" x="66.199997"/>
       <use xlink:href="#Montserrat-Regular-36" x="87.399994"/>
      </g>
     </g>
    </g>
    <g id="text_13">
     <!-- Frequency -->
     <g transform="translate(16.180625 192.533564) rotate(-90) scale(0.2 -0.2)">
      <defs>
       <path id="Montserrat-Regular-46" d="M 3802 4070 
L 3802 4480 
L 730 4480 
L 730 0 
L 1203 0 
L 1203 1901 
L 3520 1901 
L 3520 2310 
L 1203 2310 
L 1203 4070 
L 3802 4070 
z
" transform="scale(0.015625)"/>
       <path id="Montserrat-Regular-72" d="M 1069 2707 
L 1069 3366 
L 634 3366 
L 634 0 
L 1088 0 
L 1088 1715 
C 1088 2509 1517 2957 2221 2957 
C 2253 2957 2291 2950 2330 2950 
L 2330 3392 
C 1709 3392 1280 3155 1069 2707 
z
" transform="scale(0.015625)"/>
       <path id="Montserrat-Regular-71" d="M 3270 3366 
L 3270 2701 
C 2995 3149 2528 3392 1971 3392 
C 1011 3392 294 2701 294 1683 
C 294 659 1011 -32 1971 -32 
C 2509 -32 2970 198 3251 634 
L 3251 -1242 
L 3706 -1242 
L 3706 3366 
L 3270 3366 
z
M 2010 371 
C 1293 371 755 896 755 1683 
C 755 2464 1293 2995 2010 2995 
C 2720 2995 3258 2464 3258 1683 
C 3258 896 2720 371 2010 371 
z
" transform="scale(0.015625)"/>
       <path id="Montserrat-Regular-6e" d="M 2349 3392 
C 1766 3392 1312 3155 1069 2746 
L 1069 3366 
L 634 3366 
L 634 0 
L 1088 0 
L 1088 1766 
C 1088 2534 1542 2982 2266 2982 
C 2906 2982 3277 2618 3277 1907 
L 3277 0 
L 3731 0 
L 3731 1952 
C 3731 2918 3168 3392 2349 3392 
z
" transform="scale(0.015625)"/>
       <path id="Montserrat-Regular-63" d="M 2029 -32 
C 2598 -32 3078 198 3347 634 
L 3008 864 
C 2778 525 2419 371 2029 371 
C 1293 371 755 890 755 1683 
C 755 2470 1293 2995 2029 2995 
C 2419 2995 2778 2835 3008 2496 
L 3347 2726 
C 3078 3168 2598 3392 2029 3392 
C 1024 3392 294 2688 294 1683 
C 294 678 1024 -32 2029 -32 
z
" transform="scale(0.015625)"/>
       <path id="Montserrat-Regular-79" d="M 3014 3366 
L 1747 506 
L 480 3366 
L 6 3366 
L 1510 6 
L 1363 -320 
C 1171 -742 966 -883 666 -883 
C 422 -883 218 -794 51 -627 
L -160 -966 
C 45 -1171 346 -1274 659 -1274 
C 1139 -1274 1498 -1062 1779 -403 
L 3462 3366 
L 3014 3366 
z
" transform="scale(0.015625)"/>
      </defs>
      <use xlink:href="#Montserrat-Regular-46"/>
      <use xlink:href="#Montserrat-Regular-72" x="63.299988"/>
      <use xlink:href="#Montserrat-Regular-65" x="103.399979"/>
      <use xlink:href="#Montserrat-Regular-71" x="163.799973"/>
      <use xlink:href="#Montserrat-Regular-75" x="231.59996"/>
      <use xlink:href="#Montserrat-Regular-65" x="298.899948"/>
      <use xlink:href="#Montserrat-Regular-6e" x="359.299942"/>
      <use xlink:href="#Montserrat-Regular-63" x="426.999924"/>
      <use xlink:href="#Montserrat-Regular-79" x="483.299911"/>
     </g>
    </g>
   </g>
   <g id="patch_3">
    <path d="M 56.703281 271.839564 
L 56.703281 5.727564 
" style="fill: none; stroke: #000000; stroke-width: 2; stroke-linejoin: miter; stroke-linecap: square"/>
   </g>
   <g id="patch_4">
    <path d="M 413.823281 271.839564 
L 413.823281 5.727564 
" style="fill: none; stroke: #000000; stroke-width: 2; stroke-linejoin: miter; stroke-linecap: square"/>
   </g>
   <g id="patch_5">
    <path d="M 56.703281 271.839564 
L 413.823281 271.839564 
" style="fill: none; stroke: #000000; stroke-width: 2; stroke-linejoin: miter; stroke-linecap: square"/>
   </g>
   <g id="patch_6">
    <path d="M 56.703281 5.727564 
L 413.823281 5.727564 
" style="fill: none; stroke: #000000; stroke-width: 2; stroke-linejoin: miter; stroke-linecap: square"/>
   </g>
   <g id="patch_7">
    <path d="M 102.843943 271.839564 
L 109.005358 271.839564 
L 109.005358 268.133152 
L 102.843943 268.133152 
z
" clip-path="url(#pe96a97cf96)" style="fill: #0000ff; stroke: #000000; stroke-linejoin: miter"/>
   </g>
   <g id="patch_8">
    <path d="M 109.005358 271.839564 
L 115.166773 271.839564 
L 115.166773 266.223787 
L 109.005358 266.223787 
z
" clip-path="url(#pe96a97cf96)" style="fill: #0000ff; stroke: #000000; stroke-linejoin: miter"/>
   </g>
   <g id="patch_9">
    <path d="M 115.166773 271.839564 
L 121.328188 271.839564 
L 121.328188 265.718368 
L 115.166773 265.718368 
z
" clip-path="url(#pe96a97cf96)" style="fill: #0000ff; stroke: #000000; stroke-linejoin: miter"/>
   </g>
   <g id="patch_10">
    <path d="M 121.328188 271.839564 
L 127.489603 271.839564 
L 127.489603 262.461217 
L 121.328188 262.461217 
z
" clip-path="url(#pe96a97cf96)" style="fill: #0000ff; stroke: #000000; stroke-linejoin: miter"/>
   </g>
   <g id="patch_11">
    <path d="M 127.489603 271.839564 
L 133.651018 271.839564 
L 133.651018 258.642489 
L 127.489603 258.642489 
z
" clip-path="url(#pe96a97cf96)" style="fill: #0000ff; stroke: #000000; stroke-linejoin: miter"/>
   </g>
   <g id="patch_12">
    <path d="M 133.651018 271.839564 
L 139.812433 271.839564 
L 139.812433 253.812921 
L 133.651018 253.812921 
z
" clip-path="url(#pe96a97cf96)" style="fill: #0000ff; stroke: #000000; stroke-linejoin: miter"/>
   </g>
   <g id="patch_13">
    <path d="M 139.812433 271.839564 
L 145.973848 271.839564 
L 145.973848 246.343938 
L 139.812433 246.343938 
z
" clip-path="url(#pe96a97cf96)" style="fill: #0000ff; stroke: #000000; stroke-linejoin: miter"/>
   </g>
   <g id="patch_14">
    <path d="M 145.973848 271.839564 
L 152.135263 271.839564 
L 152.135263 236.909433 
L 145.973848 236.909433 
z
" clip-path="url(#pe96a97cf96)" style="fill: #0000ff; stroke: #000000; stroke-linejoin: miter"/>
   </g>
   <g id="patch_15">
    <path d="M 152.135263 271.839564 
L 158.296678 271.839564 
L 158.296678 223.712358 
L 152.135263 223.712358 
z
" clip-path="url(#pe96a97cf96)" style="fill: #0000ff; stroke: #000000; stroke-linejoin: miter"/>
   </g>
   <g id="patch_16">
    <path d="M 158.296678 271.839564 
L 164.458093 271.839564 
L 164.458093 200.968463 
L 158.296678 200.968463 
z
" clip-path="url(#pe96a97cf96)" style="fill: #0000ff; stroke: #000000; stroke-linejoin: miter"/>
   </g>
   <g id="patch_17">
    <path d="M 164.458093 271.839564 
L 170.619508 271.839564 
L 170.619508 184.795026 
L 164.458093 184.795026 
z
" clip-path="url(#pe96a97cf96)" style="fill: #0000ff; stroke: #000000; stroke-linejoin: miter"/>
   </g>
   <g id="patch_18">
    <path d="M 170.619508 271.839564 
L 176.780923 271.839564 
L 176.780923 156.659985 
L 170.619508 156.659985 
z
" clip-path="url(#pe96a97cf96)" style="fill: #0000ff; stroke: #000000; stroke-linejoin: miter"/>
   </g>
   <g id="patch_19">
    <path d="M 176.780923 271.839564 
L 182.942338 271.839564 
L 182.942338 127.289473 
L 176.780923 127.289473 
z
" clip-path="url(#pe96a97cf96)" style="fill: #0000ff; stroke: #000000; stroke-linejoin: miter"/>
   </g>
   <g id="patch_20">
    <path d="M 182.942338 271.839564 
L 189.103753 271.839564 
L 189.103753 99.266748 
L 182.942338 99.266748 
z
" clip-path="url(#pe96a97cf96)" style="fill: #0000ff; stroke: #000000; stroke-linejoin: miter"/>
   </g>
   <g id="patch_21">
    <path d="M 189.103753 271.839564 
L 195.265168 271.839564 
L 195.265168 65.066668 
L 189.103753 65.066668 
z
" clip-path="url(#pe96a97cf96)" style="fill: #0000ff; stroke: #000000; stroke-linejoin: miter"/>
   </g>
   <g id="patch_22">
    <path d="M 195.265168 271.839564 
L 201.426583 271.839564 
L 201.426583 35.527683 
L 195.265168 35.527683 
z
" clip-path="url(#pe96a97cf96)" style="fill: #0000ff; stroke: #000000; stroke-linejoin: miter"/>
   </g>
   <g id="patch_23">
    <path d="M 201.426583 271.839564 
L 207.587998 271.839564 
L 207.587998 22.948343 
L 201.426583 22.948343 
z
" clip-path="url(#pe96a97cf96)" style="fill: #0000ff; stroke: #000000; stroke-linejoin: miter"/>
   </g>
   <g id="patch_24">
    <path d="M 207.587998 271.839564 
L 213.749412 271.839564 
L 213.749412 18.399564 
L 207.587998 18.399564 
z
" clip-path="url(#pe96a97cf96)" style="fill: #0000ff; stroke: #000000; stroke-linejoin: miter"/>
   </g>
   <g id="patch_25">
    <path d="M 213.749412 271.839564 
L 219.910827 271.839564 
L 219.910827 21.544399 
L 213.749412 21.544399 
z
" clip-path="url(#pe96a97cf96)" style="fill: #0000ff; stroke: #000000; stroke-linejoin: miter"/>
   </g>
   <g id="patch_26">
    <path d="M 219.910827 271.839564 
L 226.072242 271.839564 
L 226.072242 36.763154 
L 219.910827 36.763154 
z
" clip-path="url(#pe96a97cf96)" style="fill: #0000ff; stroke: #000000; stroke-linejoin: miter"/>
   </g>
   <g id="patch_27">
    <path d="M 226.072242 271.839564 
L 232.233657 271.839564 
L 232.233657 62.202622 
L 226.072242 62.202622 
z
" clip-path="url(#pe96a97cf96)" style="fill: #0000ff; stroke: #000000; stroke-linejoin: miter"/>
   </g>
   <g id="patch_28">
    <path d="M 232.233657 271.839564 
L 238.395072 271.839564 
L 238.395072 83.823362 
L 232.233657 83.823362 
z
" clip-path="url(#pe96a97cf96)" style="fill: #0000ff; stroke: #000000; stroke-linejoin: miter"/>
   </g>
   <g id="patch_29">
    <path d="M 238.395072 271.839564 
L 244.556487 271.839564 
L 244.556487 117.798811 
L 238.395072 117.798811 
z
" clip-path="url(#pe96a97cf96)" style="fill: #0000ff; stroke: #000000; stroke-linejoin: miter"/>
   </g>
   <g id="patch_30">
    <path d="M 244.556487 271.839564 
L 250.717902 271.839564 
L 250.717902 152.616626 
L 244.556487 152.616626 
z
" clip-path="url(#pe96a97cf96)" style="fill: #0000ff; stroke: #000000; stroke-linejoin: miter"/>
   </g>
   <g id="patch_31">
    <path d="M 250.717902 271.839564 
L 256.879317 271.839564 
L 256.879317 174.967417 
L 250.717902 174.967417 
z
" clip-path="url(#pe96a97cf96)" style="fill: #0000ff; stroke: #000000; stroke-linejoin: miter"/>
   </g>
   <g id="patch_32">
    <path d="M 256.879317 271.839564 
L 263.040732 271.839564 
L 263.040732 199.396045 
L 256.879317 199.396045 
z
" clip-path="url(#pe96a97cf96)" style="fill: #0000ff; stroke: #000000; stroke-linejoin: miter"/>
   </g>
   <g id="patch_33">
    <path d="M 263.040732 271.839564 
L 269.202147 271.839564 
L 269.202147 217.478846 
L 263.040732 217.478846 
z
" clip-path="url(#pe96a97cf96)" style="fill: #0000ff; stroke: #000000; stroke-linejoin: miter"/>
   </g>
   <g id="patch_34">
    <path d="M 269.202147 271.839564 
L 275.363562 271.839564 
L 275.363562 230.732079 
L 269.202147 230.732079 
z
" clip-path="url(#pe96a97cf96)" style="fill: #0000ff; stroke: #000000; stroke-linejoin: miter"/>
   </g>
   <g id="patch_35">
    <path d="M 275.363562 271.839564 
L 281.524977 271.839564 
L 281.524977 242.918314 
L 275.363562 242.918314 
z
" clip-path="url(#pe96a97cf96)" style="fill: #0000ff; stroke: #000000; stroke-linejoin: miter"/>
   </g>
   <g id="patch_36">
    <path d="M 281.524977 271.839564 
L 287.686392 271.839564 
L 287.686392 248.871038 
L 281.524977 248.871038 
z
" clip-path="url(#pe96a97cf96)" style="fill: #0000ff; stroke: #000000; stroke-linejoin: miter"/>
   </g>
   <g id="patch_37">
    <path d="M 287.686392 271.839564 
L 293.847807 271.839564 
L 293.847807 253.981394 
L 287.686392 253.981394 
z
" clip-path="url(#pe96a97cf96)" style="fill: #0000ff; stroke: #000000; stroke-linejoin: miter"/>
   </g>
   <g id="patch_38">
    <path d="M 293.847807 271.839564 
L 300.009222 271.839564 
L 300.009222 260.720326 
L 293.847807 260.720326 
z
" clip-path="url(#pe96a97cf96)" style="fill: #0000ff; stroke: #000000; stroke-linejoin: miter"/>
   </g>
   <g id="patch_39">
    <path d="M 300.009222 271.839564 
L 306.170637 271.839564 
L 306.170637 262.798164 
L 300.009222 262.798164 
z
" clip-path="url(#pe96a97cf96)" style="fill: #0000ff; stroke: #000000; stroke-linejoin: miter"/>
   </g>
   <g id="patch_40">
    <path d="M 306.170637 271.839564 
L 312.332052 271.839564 
L 312.332052 266.67305 
L 306.170637 266.67305 
z
" clip-path="url(#pe96a97cf96)" style="fill: #0000ff; stroke: #000000; stroke-linejoin: miter"/>
   </g>
   <g id="patch_41">
    <path d="M 312.332052 271.839564 
L 318.493467 271.839564 
L 318.493467 267.571574 
L 312.332052 267.571574 
z
" clip-path="url(#pe96a97cf96)" style="fill: #0000ff; stroke: #000000; stroke-linejoin: miter"/>
   </g>
   <g id="patch_42">
    <path d="M 318.493467 271.839564 
L 324.654882 271.839564 
L 324.654882 268.694729 
L 318.493467 268.694729 
z
" clip-path="url(#pe96a97cf96)" style="fill: #0000ff; stroke: #000000; stroke-linejoin: miter"/>
   </g>
   <g id="patch_43">
    <path d="M 324.654882 271.839564 
L 330.816297 271.839564 
L 330.816297 270.267147 
L 324.654882 270.267147 
z
" clip-path="url(#pe96a97cf96)" style="fill: #0000ff; stroke: #000000; stroke-linejoin: miter"/>
   </g>
   <g id="patch_44">
    <path d="M 330.816297 271.839564 
L 336.977711 271.839564 
L 336.977711 269.986358 
L 330.816297 269.986358 
z
" clip-path="url(#pe96a97cf96)" style="fill: #0000ff; stroke: #000000; stroke-linejoin: miter"/>
   </g>
   <g id="patch_45">
    <path d="M 336.977711 271.839564 
L 343.139126 271.839564 
L 343.139126 270.323304 
L 336.977711 270.323304 
z
" clip-path="url(#pe96a97cf96)" style="fill: #0000ff; stroke: #000000; stroke-linejoin: miter"/>
   </g>
   <g id="patch_46">
    <path d="M 343.139126 271.839564 
L 349.300541 271.839564 
L 349.300541 270.604093 
L 343.139126 270.604093 
z
" clip-path="url(#pe96a97cf96)" style="fill: #0000ff; stroke: #000000; stroke-linejoin: miter"/>
   </g>
   <g id="patch_47">
    <path d="M 349.300541 271.839564 
L 355.461956 271.839564 
L 355.461956 271.277986 
L 349.300541 271.277986 
z
" clip-path="url(#pe96a97cf96)" style="fill: #0000ff; stroke: #000000; stroke-linejoin: miter"/>
   </g>
   <g id="patch_48">
    <path d="M 355.461956 271.839564 
L 361.623371 271.839564 
L 361.623371 271.053355 
L 355.461956 271.053355 
z
" clip-path="url(#pe96a97cf96)" style="fill: #0000ff; stroke: #000000; stroke-linejoin: miter"/>
   </g>
   <g id="patch_49">
    <path d="M 361.623371 271.839564 
L 367.784786 271.839564 
L 367.784786 271.277986 
L 361.623371 271.277986 
z
" clip-path="url(#pe96a97cf96)" style="fill: #0000ff; stroke: #000000; stroke-linejoin: miter"/>
   </g>
   <g id="patch_50">
    <path d="M 367.784786 271.839564 
L 373.946201 271.839564 
L 373.946201 271.334144 
L 367.784786 271.334144 
z
" clip-path="url(#pe96a97cf96)" style="fill: #0000ff; stroke: #000000; stroke-linejoin: miter"/>
   </g>
   <g id="patch_51">
    <path d="M 373.946201 271.839564 
L 380.107616 271.839564 
L 380.107616 271.44646 
L 373.946201 271.44646 
z
" clip-path="url(#pe96a97cf96)" style="fill: #0000ff; stroke: #000000; stroke-linejoin: miter"/>
   </g>
   <g id="patch_52">
    <path d="M 380.107616 271.839564 
L 386.269031 271.839564 
L 386.269031 271.727249 
L 380.107616 271.727249 
z
" clip-path="url(#pe96a97cf96)" style="fill: #0000ff; stroke: #000000; stroke-linejoin: miter"/>
   </g>
   <g id="patch_53">
    <path d="M 386.269031 271.839564 
L 392.430446 271.839564 
L 392.430446 271.44646 
L 386.269031 271.44646 
z
" clip-path="url(#pe96a97cf96)" style="fill: #0000ff; stroke: #000000; stroke-linejoin: miter"/>
   </g>
   <g id="patch_54">
    <path d="M 392.430446 271.839564 
L 398.591861 271.839564 
L 398.591861 271.783406 
L 392.430446 271.783406 
z
" clip-path="url(#pe96a97cf96)" style="fill: #0000ff; stroke: #000000; stroke-linejoin: miter"/>
   </g>
   <g id="patch_55">
    <path d="M 398.591861 271.839564 
L 404.753276 271.839564 
L 404.753276 271.671091 
L 398.591861 271.671091 
z
" clip-path="url(#pe96a97cf96)" style="fill: #0000ff; stroke: #000000; stroke-linejoin: miter"/>
   </g>
   <g id="patch_56">
    <path d="M 404.753276 271.839564 
L 410.914691 271.839564 
L 410.914691 271.277986 
L 404.753276 271.277986 
z
" clip-path="url(#pe96a97cf96)" style="fill: #0000ff; stroke: #000000; stroke-linejoin: miter"/>
   </g>
   <g id="patch_57">
    <path d="M 410.914691 271.839564 
L 417.076106 271.839564 
L 417.076106 271.502618 
L 410.914691 271.502618 
z
" clip-path="url(#pe96a97cf96)" style="fill: #0000ff; stroke: #000000; stroke-linejoin: miter"/>
   </g>
   <g id="patch_58">
    <path d="M 417.076106 271.839564 
L 423.237521 271.839564 
L 423.237521 271.614933 
L 417.076106 271.614933 
z
" clip-path="url(#pe96a97cf96)" style="fill: #0000ff; stroke: #000000; stroke-linejoin: miter"/>
   </g>
   <g id="patch_59">
    <path d="M 423.237521 271.839564 
L 429.398936 271.839564 
L 429.398936 271.671091 
L 423.237521 271.671091 
z
" clip-path="url(#pe96a97cf96)" style="fill: #0000ff; stroke: #000000; stroke-linejoin: miter"/>
   </g>
   <g id="patch_60">
    <path d="M 429.398936 271.839564 
L 435.560351 271.839564 
L 435.560351 271.783406 
L 429.398936 271.783406 
z
" clip-path="url(#pe96a97cf96)" style="fill: #0000ff; stroke: #000000; stroke-linejoin: miter"/>
   </g>
   <g id="patch_61">
    <path d="M 435.560351 271.839564 
L 441.721766 271.839564 
L 441.721766 271.502618 
L 435.560351 271.502618 
z
" clip-path="url(#pe96a97cf96)" style="fill: #0000ff; stroke: #000000; stroke-linejoin: miter"/>
   </g>
   <g id="patch_62">
    <path d="M 441.721766 271.839564 
L 447.883181 271.839564 
L 447.883181 271.614933 
L 441.721766 271.614933 
z
" clip-path="url(#pe96a97cf96)" style="fill: #0000ff; stroke: #000000; stroke-linejoin: miter"/>
   </g>
   <g id="patch_63">
    <path d="M 447.883181 271.839564 
L 454.044596 271.839564 
L 454.044596 271.502618 
L 447.883181 271.502618 
z
" clip-path="url(#pe96a97cf96)" style="fill: #0000ff; stroke: #000000; stroke-linejoin: miter"/>
   </g>
   <g id="patch_64">
    <path d="M 454.044596 271.839564 
L 460.206011 271.839564 
L 460.206011 271.44646 
L 454.044596 271.44646 
z
" clip-path="url(#pe96a97cf96)" style="fill: #0000ff; stroke: #000000; stroke-linejoin: miter"/>
   </g>
   <g id="patch_65">
    <path d="M 460.206011 271.839564 
L 466.367425 271.839564 
L 466.367425 271.558775 
L 460.206011 271.558775 
z
" clip-path="url(#pe96a97cf96)" style="fill: #0000ff; stroke: #000000; stroke-linejoin: miter"/>
   </g>
   <g id="patch_66">
    <path d="M 466.367425 271.839564 
L 472.52884 271.839564 
L 472.52884 271.614933 
L 466.367425 271.614933 
z
" clip-path="url(#pe96a97cf96)" style="fill: #0000ff; stroke: #000000; stroke-linejoin: miter"/>
   </g>
   <g id="patch_67">
    <path d="M 472.52884 271.839564 
L 478.690255 271.839564 
L 478.690255 271.558775 
L 472.52884 271.558775 
z
" clip-path="url(#pe96a97cf96)" style="fill: #0000ff; stroke: #000000; stroke-linejoin: miter"/>
   </g>
   <g id="patch_68">
    <path d="M 478.690255 271.839564 
L 484.85167 271.839564 
L 484.85167 271.671091 
L 478.690255 271.671091 
z
" clip-path="url(#pe96a97cf96)" style="fill: #0000ff; stroke: #000000; stroke-linejoin: miter"/>
   </g>
   <g id="patch_69">
    <path d="M 484.85167 271.839564 
L 491.013085 271.839564 
L 491.013085 271.783406 
L 484.85167 271.783406 
z
" clip-path="url(#pe96a97cf96)" style="fill: #0000ff; stroke: #000000; stroke-linejoin: miter"/>
   </g>
   <g id="patch_70">
    <path d="M 491.013085 271.839564 
L 497.1745 271.839564 
L 497.1745 271.671091 
L 491.013085 271.671091 
z
" clip-path="url(#pe96a97cf96)" style="fill: #0000ff; stroke: #000000; stroke-linejoin: miter"/>
   </g>
   <g id="patch_71">
    <path d="M 497.1745 271.839564 
L 503.335915 271.839564 
L 503.335915 271.502618 
L 497.1745 271.502618 
z
" clip-path="url(#pe96a97cf96)" style="fill: #0000ff; stroke: #000000; stroke-linejoin: miter"/>
   </g>
   <g id="patch_72">
    <path d="M 503.335915 271.839564 
L 509.49733 271.839564 
L 509.49733 271.671091 
L 503.335915 271.671091 
z
" clip-path="url(#pe96a97cf96)" style="fill: #0000ff; stroke: #000000; stroke-linejoin: miter"/>
   </g>
   <g id="patch_73">
    <path d="M 509.49733 271.839564 
L 515.658745 271.839564 
L 515.658745 271.839564 
L 509.49733 271.839564 
z
" clip-path="url(#pe96a97cf96)" style="fill: #0000ff; stroke: #000000; stroke-linejoin: miter"/>
   </g>
   <g id="patch_74">
    <path d="M 515.658745 271.839564 
L 521.82016 271.839564 
L 521.82016 271.727249 
L 515.658745 271.727249 
z
" clip-path="url(#pe96a97cf96)" style="fill: #0000ff; stroke: #000000; stroke-linejoin: miter"/>
   </g>
   <g id="patch_75">
    <path d="M 521.82016 271.839564 
L 527.981575 271.839564 
L 527.981575 271.558775 
L 521.82016 271.558775 
z
" clip-path="url(#pe96a97cf96)" style="fill: #0000ff; stroke: #000000; stroke-linejoin: miter"/>
   </g>
   <g id="patch_76">
    <path d="M 527.981575 271.839564 
L 534.14299 271.839564 
L 534.14299 271.671091 
L 527.981575 271.671091 
z
" clip-path="url(#pe96a97cf96)" style="fill: #0000ff; stroke: #000000; stroke-linejoin: miter"/>
   </g>
  </g>
 </g>
 <defs>
  <clipPath id="pe96a97cf96">
   <rect x="56.703281" y="5.727564" width="357.12" height="266.112"/>
  </clipPath>
 </defs>
</svg>
