<?xml version="1.0" encoding="utf-8" standalone="no"?>
<!DOCTYPE svg PUBLIC "-//W3C//DTD SVG 1.1//EN"
  "http://www.w3.org/Graphics/SVG/1.1/DTD/svg11.dtd">
<svg xmlns:xlink="http://www.w3.org/1999/xlink" width="505.614687pt" height="638.8725pt" viewBox="0 0 505.614687 638.8725" xmlns="http://www.w3.org/2000/svg" version="1.1">
 <metadata>
  <rdf:RDF xmlns:dc="http://purl.org/dc/elements/1.1/" xmlns:cc="http://creativecommons.org/ns#" xmlns:rdf="http://www.w3.org/1999/02/22-rdf-syntax-ns#">
   <cc:Work>
    <dc:type rdf:resource="http://purl.org/dc/dcmitype/StillImage"/>
    <dc:date>2022-10-05T13:52:18.184352</dc:date>
    <dc:format>image/svg+xml</dc:format>
    <dc:creator>
     <cc:Agent>
      <dc:title>Matplotlib v3.6.0, https://matplotlib.org/</dc:title>
     </cc:Agent>
    </dc:creator>
   </cc:Work>
  </rdf:RDF>
 </metadata>
 <defs>
  <style type="text/css">*{stroke-linejoin: round; stroke-linecap: butt}</style>
 </defs>
 <g id="figure_1">
  <g id="patch_1">
   <path d="M 0 638.8725 
L 505.614687 638.8725 
L 505.614687 0 
L 0 0 
L 0 638.8725 
z
" style="fill: none"/>
  </g>
  <g id="axes_1">
   <g id="patch_2">
    <path d="M 36.589688 613.082812 
L 493.059687 613.082812 
L 493.059687 65.862812 
L 36.589688 65.862812 
L 36.589688 613.082812 
z
" style="fill: none"/>
   </g>
   <g id="matplotlib.axis_1">
    <g id="xtick_1">
     <g id="text_1">
      <!-- 0.0 -->
      <g style="fill: #ffffff" transform="translate(22.764844 633.439375) scale(0.18 -0.18)">
       <defs>
        <path id="Montserrat-Regular-30" d="M 2118 -38 
C 3155 -38 3910 813 3910 2240 
C 3910 3667 3155 4518 2118 4518 
C 1082 4518 333 3667 333 2240 
C 333 813 1082 -38 2118 -38 
z
M 2118 384 
C 1338 384 800 1043 800 2240 
C 800 3437 1338 4096 2118 4096 
C 2899 4096 3437 3437 3437 2240 
C 3437 1043 2899 384 2118 384 
z
" transform="scale(0.015625)"/>
        <path id="Montserrat-Regular-2e" d="M 678 -32 
C 864 -32 1024 122 1024 320 
C 1024 518 864 666 678 666 
C 493 666 339 518 339 320 
C 339 122 493 -32 678 -32 
z
" transform="scale(0.015625)"/>
       </defs>
       <use xlink:href="#Montserrat-Regular-30"/>
       <use xlink:href="#Montserrat-Regular-2e" x="66.199997"/>
       <use xlink:href="#Montserrat-Regular-30" x="87.399994"/>
      </g>
     </g>
    </g>
    <g id="xtick_2">
     <g id="text_2">
      <!-- 0.2 -->
      <g style="fill: #ffffff" transform="translate(114.905406 633.439375) scale(0.18 -0.18)">
       <defs>
        <path id="Montserrat-Regular-32" d="M 928 410 
L 2451 1907 
C 3053 2496 3187 2880 3187 3309 
C 3187 4058 2611 4518 1702 4518 
C 1018 4518 461 4288 115 3878 
L 442 3597 
C 736 3936 1139 4096 1664 4096 
C 2349 4096 2714 3776 2714 3258 
C 2714 2950 2618 2650 2112 2150 
L 250 326 
L 250 0 
L 3392 0 
L 3392 410 
L 928 410 
z
" transform="scale(0.015625)"/>
       </defs>
       <use xlink:href="#Montserrat-Regular-30"/>
       <use xlink:href="#Montserrat-Regular-2e" x="66.199997"/>
       <use xlink:href="#Montserrat-Regular-32" x="87.399994"/>
      </g>
     </g>
    </g>
    <g id="xtick_3">
     <g id="text_3">
      <!-- 0.4 -->
      <g style="fill: #ffffff" transform="translate(205.362687 633.439375) scale(0.18 -0.18)">
       <defs>
        <path id="Montserrat-Regular-34" d="M 4141 1587 
L 3245 1587 
L 3245 2624 
L 2797 2624 
L 2797 1587 
L 851 1587 
L 3142 4480 
L 2630 4480 
L 256 1510 
L 256 1178 
L 2784 1178 
L 2784 0 
L 3245 0 
L 3245 1178 
L 4141 1178 
L 4141 1587 
z
" transform="scale(0.015625)"/>
       </defs>
       <use xlink:href="#Montserrat-Regular-30"/>
       <use xlink:href="#Montserrat-Regular-2e" x="66.199997"/>
       <use xlink:href="#Montserrat-Regular-34" x="87.399994"/>
      </g>
     </g>
    </g>
    <g id="xtick_4">
     <g id="text_4">
      <!-- 0.6 -->
      <g style="fill: #ffffff" transform="translate(297.123563 633.439375) scale(0.18 -0.18)">
       <defs>
        <path id="Montserrat-Regular-36" d="M 2189 2682 
C 1568 2682 1043 2406 819 1914 
C 806 2048 800 2176 800 2278 
C 800 3494 1421 4115 2387 4115 
C 2720 4115 3027 4058 3258 3904 
L 3443 4275 
C 3162 4448 2784 4518 2381 4518 
C 1165 4518 333 3725 333 2202 
C 333 787 979 -38 2170 -38 
C 3040 -38 3699 499 3699 1338 
C 3699 2157 3078 2682 2189 2682 
z
M 2150 352 
C 1376 352 966 819 966 1312 
C 966 1869 1434 2291 2118 2291 
C 2810 2291 3245 1914 3245 1325 
C 3245 730 2797 352 2150 352 
z
" transform="scale(0.015625)"/>
       </defs>
       <use xlink:href="#Montserrat-Regular-30"/>
       <use xlink:href="#Montserrat-Regular-2e" x="66.199997"/>
       <use xlink:href="#Montserrat-Regular-36" x="87.399994"/>
      </g>
     </g>
    </g>
    <g id="xtick_5">
     <g id="text_5">
      <!-- 0.8 -->
      <g style="fill: #ffffff" transform="translate(388.157406 633.439375) scale(0.18 -0.18)">
       <defs>
        <path id="Montserrat-Regular-38" d="M 2899 2349 
C 3360 2528 3616 2867 3616 3334 
C 3616 4064 2982 4518 2035 4518 
C 1088 4518 467 4064 467 3334 
C 467 2867 717 2528 1171 2349 
C 614 2163 307 1786 307 1248 
C 307 454 960 -38 2035 -38 
C 3104 -38 3776 454 3776 1248 
C 3776 1779 3462 2163 2899 2349 
z
M 928 3322 
C 928 3821 1357 4128 2035 4128 
C 2707 4128 3149 3821 3149 3315 
C 3149 2829 2733 2515 2035 2515 
C 1338 2515 928 2829 928 3322 
z
M 2035 352 
C 1242 352 774 698 774 1254 
C 774 1805 1242 2150 2035 2150 
C 2829 2150 3302 1805 3302 1254 
C 3302 698 2829 352 2035 352 
z
" transform="scale(0.015625)"/>
       </defs>
       <use xlink:href="#Montserrat-Regular-30"/>
       <use xlink:href="#Montserrat-Regular-2e" x="66.199997"/>
       <use xlink:href="#Montserrat-Regular-38" x="87.399994"/>
      </g>
     </g>
    </g>
    <g id="xtick_6">
     <g id="text_6">
      <!-- 1.0 -->
      <g style="fill: #ffffff" transform="translate(481.944687 633.439375) scale(0.18 -0.18)">
       <defs>
        <path id="Montserrat-Regular-31" d="M 58 4480 
L 58 4070 
L 1114 4070 
L 1114 0 
L 1574 0 
L 1574 4480 
L 58 4480 
z
" transform="scale(0.015625)"/>
       </defs>
       <use xlink:href="#Montserrat-Regular-31"/>
       <use xlink:href="#Montserrat-Regular-2e" x="36.099991"/>
       <use xlink:href="#Montserrat-Regular-30" x="57.299988"/>
      </g>
     </g>
    </g>
   </g>
   <g id="matplotlib.axis_2">
    <g id="ytick_1">
     <g id="text_7">
      <!-- 0.0 -->
      <g style="fill: #ffffff" transform="translate(1.94 619.761094) scale(0.18 -0.18)">
       <use xlink:href="#Montserrat-Regular-30"/>
       <use xlink:href="#Montserrat-Regular-2e" x="66.199997"/>
       <use xlink:href="#Montserrat-Regular-30" x="87.399994"/>
      </g>
     </g>
    </g>
    <g id="ytick_2">
     <g id="text_8">
      <!-- 0.2 -->
      <g style="fill: #ffffff" transform="translate(3.633125 510.317094) scale(0.18 -0.18)">
       <use xlink:href="#Montserrat-Regular-30"/>
       <use xlink:href="#Montserrat-Regular-2e" x="66.199997"/>
       <use xlink:href="#Montserrat-Regular-32" x="87.399994"/>
      </g>
     </g>
    </g>
    <g id="ytick_3">
     <g id="text_9">
      <!-- 0.4 -->
      <g style="fill: #ffffff" transform="translate(1.959688 400.873094) scale(0.18 -0.18)">
       <use xlink:href="#Montserrat-Regular-30"/>
       <use xlink:href="#Montserrat-Regular-2e" x="66.199997"/>
       <use xlink:href="#Montserrat-Regular-34" x="87.399994"/>
      </g>
     </g>
    </g>
    <g id="ytick_4">
     <g id="text_10">
      <!-- 0.6 -->
      <g style="fill: #ffffff" transform="translate(2.893438 291.429094) scale(0.18 -0.18)">
       <use xlink:href="#Montserrat-Regular-30"/>
       <use xlink:href="#Montserrat-Regular-2e" x="66.199997"/>
       <use xlink:href="#Montserrat-Regular-36" x="87.399994"/>
      </g>
     </g>
    </g>
    <g id="ytick_5">
     <g id="text_11">
      <!-- 0.8 -->
      <g style="fill: #ffffff" transform="translate(2.373125 181.985094) scale(0.18 -0.18)">
       <use xlink:href="#Montserrat-Regular-30"/>
       <use xlink:href="#Montserrat-Regular-2e" x="66.199997"/>
       <use xlink:href="#Montserrat-Regular-38" x="87.399994"/>
      </g>
     </g>
    </g>
    <g id="ytick_6">
     <g id="text_12">
      <!-- 1.0 -->
      <g style="fill: #ffffff" transform="translate(7.359688 72.541094) scale(0.18 -0.18)">
       <use xlink:href="#Montserrat-Regular-31"/>
       <use xlink:href="#Montserrat-Regular-2e" x="36.099991"/>
       <use xlink:href="#Montserrat-Regular-30" x="57.299988"/>
      </g>
     </g>
    </g>
   </g>
   <g id="patch_3">
    <path d="M 36.589688 613.082812 
L 36.589688 65.862812 
" style="fill: none"/>
   </g>
   <g id="patch_4">
    <path d="M 493.059687 613.082812 
L 493.059687 65.862812 
" style="fill: none"/>
   </g>
   <g id="patch_5">
    <path d="M 36.589688 613.082812 
L 493.059687 613.082812 
" style="fill: none"/>
   </g>
   <g id="patch_6">
    <path d="M 36.589688 65.862812 
L 493.059687 65.862812 
" style="fill: none"/>
   </g>
   <g id="text_13">
    <!-- Push forward to group means  -->
    <g transform="translate(65.910469 20.862812) scale(0.26 -0.26)">
     <defs>
      <path id="Montserrat-Regular-50" d="M 2406 4480 
L 730 4480 
L 730 0 
L 1203 0 
L 1203 1414 
L 2406 1414 
C 3546 1414 4237 1990 4237 2944 
C 4237 3904 3546 4480 2406 4480 
z
M 2394 1830 
L 1203 1830 
L 1203 4070 
L 2394 4070 
C 3290 4070 3763 3661 3763 2944 
C 3763 2240 3290 1830 2394 1830 
z
" transform="scale(0.015625)"/>
      <path id="Montserrat-Regular-75" d="M 3213 3366 
L 3213 1600 
C 3213 832 2771 378 2067 378 
C 1427 378 1056 742 1056 1459 
L 1056 3366 
L 602 3366 
L 602 1414 
C 602 448 1165 -32 2022 -32 
C 2560 -32 2995 205 3232 614 
L 3232 0 
L 3667 0 
L 3667 3366 
L 3213 3366 
z
" transform="scale(0.015625)"/>
      <path id="Montserrat-Regular-73" d="M 1536 -32 
C 2413 -32 2925 346 2925 928 
C 2925 2221 742 1536 742 2445 
C 742 2765 1011 3002 1619 3002 
C 1965 3002 2317 2918 2611 2714 
L 2810 3078 
C 2528 3270 2054 3392 1619 3392 
C 762 3392 288 2982 288 2432 
C 288 1101 2470 1792 2470 915 
C 2470 582 2208 365 1568 365 
C 1094 365 640 531 371 742 
L 166 384 
C 442 147 979 -32 1536 -32 
z
" transform="scale(0.015625)"/>
      <path id="Montserrat-Regular-68" d="M 2349 3392 
C 1779 3392 1338 3168 1088 2778 
L 1088 4749 
L 634 4749 
L 634 0 
L 1088 0 
L 1088 1766 
C 1088 2534 1542 2982 2266 2982 
C 2906 2982 3277 2618 3277 1907 
L 3277 0 
L 3731 0 
L 3731 1952 
C 3731 2918 3168 3392 2349 3392 
z
" transform="scale(0.015625)"/>
      <path id="Montserrat-Regular-20" transform="scale(0.015625)"/>
      <path id="Montserrat-Regular-66" d="M 1747 4397 
C 1939 4397 2118 4339 2246 4230 
L 2400 4570 
C 2234 4710 1978 4781 1728 4781 
C 1069 4781 710 4384 710 3782 
L 710 3366 
L 109 3366 
L 109 2982 
L 710 2982 
L 710 0 
L 1165 0 
L 1165 2982 
L 2189 2982 
L 2189 3366 
L 1152 3366 
L 1152 3763 
C 1152 4179 1357 4397 1747 4397 
z
" transform="scale(0.015625)"/>
      <path id="Montserrat-Regular-6f" d="M 2010 -32 
C 2995 -32 3718 685 3718 1683 
C 3718 2682 2995 3392 2010 3392 
C 1024 3392 294 2682 294 1683 
C 294 685 1024 -32 2010 -32 
z
M 2010 371 
C 1293 371 755 896 755 1683 
C 755 2470 1293 2995 2010 2995 
C 2726 2995 3258 2470 3258 1683 
C 3258 896 2726 371 2010 371 
z
" transform="scale(0.015625)"/>
      <path id="Montserrat-Regular-72" d="M 1069 2707 
L 1069 3366 
L 634 3366 
L 634 0 
L 1088 0 
L 1088 1715 
C 1088 2509 1517 2957 2221 2957 
C 2253 2957 2291 2950 2330 2950 
L 2330 3392 
C 1709 3392 1280 3155 1069 2707 
z
" transform="scale(0.015625)"/>
      <path id="Montserrat-Regular-77" d="M 5158 3366 
L 4090 506 
L 3014 3366 
L 2624 3366 
L 1542 506 
L 486 3366 
L 51 3366 
L 1318 0 
L 1747 0 
L 2810 2758 
L 3872 0 
L 4301 0 
L 5574 3366 
L 5158 3366 
z
" transform="scale(0.015625)"/>
      <path id="Montserrat-Regular-61" d="M 1811 3392 
C 1280 3392 781 3226 442 2938 
L 646 2598 
C 922 2842 1331 2995 1766 2995 
C 2394 2995 2720 2682 2720 2106 
L 2720 1901 
L 1651 1901 
C 685 1901 352 1466 352 947 
C 352 365 819 -32 1581 -32 
C 2138 -32 2534 179 2739 525 
L 2739 0 
L 3174 0 
L 3174 2086 
C 3174 2957 2682 3392 1811 3392 
z
M 1651 326 
C 1114 326 800 570 800 960 
C 800 1306 1011 1562 1664 1562 
L 2720 1562 
L 2720 1011 
C 2541 570 2163 326 1651 326 
z
" transform="scale(0.015625)"/>
      <path id="Montserrat-Regular-64" d="M 3251 4749 
L 3251 2726 
C 2970 3162 2509 3392 1971 3392 
C 1011 3392 294 2701 294 1683 
C 294 666 1011 -32 1971 -32 
C 2528 -32 2995 211 3270 666 
L 3270 0 
L 3706 0 
L 3706 4749 
L 3251 4749 
z
M 2010 371 
C 1293 371 755 896 755 1683 
C 755 2470 1293 2995 2010 2995 
C 2720 2995 3258 2470 3258 1683 
C 3258 896 2720 371 2010 371 
z
" transform="scale(0.015625)"/>
      <path id="Montserrat-Regular-74" d="M 2246 531 
C 2118 416 1933 358 1747 358 
C 1370 358 1165 576 1165 973 
L 1165 2982 
L 2189 2982 
L 2189 3366 
L 1165 3366 
L 1165 4102 
L 710 4102 
L 710 3366 
L 109 3366 
L 109 2982 
L 710 2982 
L 710 947 
C 710 326 1062 -32 1696 -32 
C 1958 -32 2227 45 2406 205 
L 2246 531 
z
" transform="scale(0.015625)"/>
      <path id="Montserrat-Regular-67" d="M 3315 3366 
L 3315 2720 
C 3034 3162 2547 3392 1984 3392 
C 1024 3392 294 2733 294 1766 
C 294 800 1024 128 1984 128 
C 2534 128 3014 352 3296 781 
L 3296 352 
C 3296 -480 2906 -870 2054 -870 
C 1536 -870 1050 -698 730 -410 
L 499 -755 
C 851 -1088 1453 -1274 2067 -1274 
C 3181 -1274 3750 -749 3750 410 
L 3750 3366 
L 3315 3366 
z
M 2029 531 
C 1286 531 755 1037 755 1766 
C 755 2496 1286 2995 2029 2995 
C 2771 2995 3309 2496 3309 1766 
C 3309 1037 2771 531 2029 531 
z
" transform="scale(0.015625)"/>
      <path id="Montserrat-Regular-70" d="M 2368 3392 
C 1811 3392 1344 3149 1069 2701 
L 1069 3366 
L 634 3366 
L 634 -1242 
L 1088 -1242 
L 1088 634 
C 1370 198 1830 -32 2368 -32 
C 3328 -32 4045 659 4045 1683 
C 4045 2701 3328 3392 2368 3392 
z
M 2336 371 
C 1619 371 1082 896 1082 1683 
C 1082 2464 1619 2995 2336 2995 
C 3046 2995 3590 2464 3590 1683 
C 3590 896 3046 371 2336 371 
z
" transform="scale(0.015625)"/>
      <path id="Montserrat-Regular-6d" d="M 4832 3392 
C 4224 3392 3744 3117 3501 2682 
C 3296 3155 2861 3392 2304 3392 
C 1741 3392 1306 3155 1069 2752 
L 1069 3366 
L 634 3366 
L 634 0 
L 1088 0 
L 1088 1766 
C 1088 2534 1530 2982 2214 2982 
C 2829 2982 3187 2618 3187 1907 
L 3187 0 
L 3642 0 
L 3642 1766 
C 3642 2534 4077 2982 4768 2982 
C 5376 2982 5734 2618 5734 1907 
L 5734 0 
L 6189 0 
L 6189 1952 
C 6189 2918 5651 3392 4832 3392 
z
" transform="scale(0.015625)"/>
      <path id="Montserrat-Regular-65" d="M 3571 1683 
C 3571 2694 2886 3392 1939 3392 
C 992 3392 294 2682 294 1683 
C 294 685 1011 -32 2061 -32 
C 2592 -32 3059 160 3360 518 
L 3104 813 
C 2848 518 2483 371 2074 371 
C 1338 371 800 838 749 1542 
L 3565 1542 
C 3565 1594 3571 1645 3571 1683 
z
M 1939 3002 
C 2598 3002 3078 2541 3136 1882 
L 749 1882 
C 806 2541 1286 3002 1939 3002 
z
" transform="scale(0.015625)"/>
      <path id="Montserrat-Regular-6e" d="M 2349 3392 
C 1766 3392 1312 3155 1069 2746 
L 1069 3366 
L 634 3366 
L 634 0 
L 1088 0 
L 1088 1766 
C 1088 2534 1542 2982 2266 2982 
C 2906 2982 3277 2618 3277 1907 
L 3277 0 
L 3731 0 
L 3731 1952 
C 3731 2918 3168 3392 2349 3392 
z
" transform="scale(0.015625)"/>
     </defs>
     <use xlink:href="#Montserrat-Regular-50"/>
     <use xlink:href="#Montserrat-Regular-75" x="71.799988"/>
     <use xlink:href="#Montserrat-Regular-73" x="139.099976"/>
     <use xlink:href="#Montserrat-Regular-68" x="187.999969"/>
     <use xlink:href="#Montserrat-Regular-20" x="255.699951"/>
     <use xlink:href="#Montserrat-Regular-66" x="281.899948"/>
     <use xlink:href="#Montserrat-Regular-6f" x="315.799942"/>
     <use xlink:href="#Montserrat-Regular-72" x="378.499939"/>
     <use xlink:href="#Montserrat-Regular-77" x="418.59993"/>
     <use xlink:href="#Montserrat-Regular-61" x="506.499924"/>
     <use xlink:href="#Montserrat-Regular-72" x="565.499908"/>
     <use xlink:href="#Montserrat-Regular-64" x="605.599899"/>
     <use xlink:href="#Montserrat-Regular-20" x="673.399887"/>
     <use xlink:href="#Montserrat-Regular-74" x="699.599884"/>
     <use xlink:href="#Montserrat-Regular-6f" x="740.199875"/>
     <use xlink:href="#Montserrat-Regular-20" x="802.899872"/>
     <use xlink:href="#Montserrat-Regular-67" x="829.099869"/>
     <use xlink:href="#Montserrat-Regular-72" x="897.69986"/>
     <use xlink:href="#Montserrat-Regular-6f" x="937.79985"/>
     <use xlink:href="#Montserrat-Regular-75" x="1000.499847"/>
     <use xlink:href="#Montserrat-Regular-70" x="1067.799835"/>
     <use xlink:href="#Montserrat-Regular-20" x="1135.599823"/>
     <use xlink:href="#Montserrat-Regular-6d" x="1161.79982"/>
     <use xlink:href="#Montserrat-Regular-65" x="1267.899811"/>
     <use xlink:href="#Montserrat-Regular-61" x="1328.299805"/>
     <use xlink:href="#Montserrat-Regular-6e" x="1387.299789"/>
     <use xlink:href="#Montserrat-Regular-73" x="1454.999771"/>
     <use xlink:href="#Montserrat-Regular-20" x="1503.899765"/>
    </g>
   </g>
  </g>
  <g id="axes_2">
   <g id="patch_7">
    <path d="M 36.589688 206.175633 
L 237.584687 206.175633 
L 237.584687 65.862812 
L 36.589688 65.862812 
L 36.589688 206.175633 
z
" style="fill: none"/>
   </g>
   <g id="matplotlib.axis_3">
    <g id="xtick_7">
     <g id="line2d_1">
      <defs>
       <path id="mbbbd170964" d="M 0 0 
L 0 4 
" style="stroke: #000000; stroke-width: 2"/>
      </defs>
      <g>
       <use xlink:href="#mbbbd170964" x="61.714062" y="206.175633" style="stroke: #000000; stroke-width: 2"/>
      </g>
     </g>
     <g id="text_14">
      <!-- −3 -->
      <g transform="translate(51.4625 227.032196) scale(0.18 -0.18)">
       <defs>
        <path id="Montserrat-Regular-2212" d="M 448 2048 
L 3232 2048 
L 3232 2426 
L 448 2426 
L 448 2048 
z
" transform="scale(0.015625)"/>
        <path id="Montserrat-Regular-33" d="M 1856 2560 
L 3123 4154 
L 3123 4480 
L 243 4480 
L 243 4070 
L 2534 4070 
L 1293 2515 
L 1293 2176 
L 1613 2176 
C 2445 2176 2822 1824 2822 1286 
C 2822 730 2413 384 1670 384 
C 1088 384 570 602 282 902 
L 58 538 
C 403 186 1024 -38 1670 -38 
C 2752 -38 3296 538 3296 1286 
C 3296 2003 2816 2509 1856 2560 
z
" transform="scale(0.015625)"/>
       </defs>
       <use xlink:href="#Montserrat-Regular-2212"/>
       <use xlink:href="#Montserrat-Regular-33" x="57.499985"/>
      </g>
     </g>
    </g>
    <g id="xtick_8">
     <g id="line2d_2">
      <g>
       <use xlink:href="#mbbbd170964" x="137.087187" y="206.175633" style="stroke: #000000; stroke-width: 2"/>
      </g>
     </g>
     <g id="text_15">
      <!-- 0 -->
      <g transform="translate(131.128906 227.032196) scale(0.18 -0.18)">
       <use xlink:href="#Montserrat-Regular-30"/>
      </g>
     </g>
    </g>
    <g id="xtick_9">
     <g id="line2d_3">
      <g>
       <use xlink:href="#mbbbd170964" x="212.460312" y="206.175633" style="stroke: #000000; stroke-width: 2"/>
      </g>
     </g>
     <g id="text_16">
      <!-- 3 -->
      <g transform="translate(207.38375 227.032196) scale(0.18 -0.18)">
       <use xlink:href="#Montserrat-Regular-33"/>
      </g>
     </g>
    </g>
   </g>
   <g id="matplotlib.axis_4">
    <g id="ytick_7">
     <g id="line2d_4">
      <defs>
       <path id="m5b44f1d58b" d="M 0 0 
L -4 0 
" style="stroke: #000000; stroke-width: 2"/>
      </defs>
      <g>
       <use xlink:href="#m5b44f1d58b" x="36.589688" y="199.797778" style="stroke: #000000; stroke-width: 2"/>
      </g>
     </g>
     <g id="text_17">
      <!-- 0.0 -->
      <g transform="translate(1.44 206.476059) scale(0.18 -0.18)">
       <use xlink:href="#Montserrat-Regular-30"/>
       <use xlink:href="#Montserrat-Regular-2e" x="66.199997"/>
       <use xlink:href="#Montserrat-Regular-30" x="87.399994"/>
      </g>
     </g>
    </g>
    <g id="ytick_8">
     <g id="line2d_5">
      <g>
       <use xlink:href="#m5b44f1d58b" x="36.589688" y="158.18045" style="stroke: #000000; stroke-width: 2"/>
      </g>
     </g>
     <g id="text_18">
      <!-- 0.2 -->
      <g transform="translate(3.133125 164.858731) scale(0.18 -0.18)">
       <use xlink:href="#Montserrat-Regular-30"/>
       <use xlink:href="#Montserrat-Regular-2e" x="66.199997"/>
       <use xlink:href="#Montserrat-Regular-32" x="87.399994"/>
      </g>
     </g>
    </g>
    <g id="ytick_9">
     <g id="line2d_6">
      <g>
       <use xlink:href="#m5b44f1d58b" x="36.589688" y="116.563122" style="stroke: #000000; stroke-width: 2"/>
      </g>
     </g>
     <g id="text_19">
      <!-- 0.4 -->
      <g transform="translate(1.459688 123.241403) scale(0.18 -0.18)">
       <use xlink:href="#Montserrat-Regular-30"/>
       <use xlink:href="#Montserrat-Regular-2e" x="66.199997"/>
       <use xlink:href="#Montserrat-Regular-34" x="87.399994"/>
      </g>
     </g>
    </g>
   </g>
   <g id="line2d_7">
    <path d="M 36.589688 199.797778 
L 84.326 199.797778 
L 84.326 198.757344 
L 86.838437 198.757344 
L 86.838437 198.341171 
L 89.350875 198.341171 
L 89.350875 196.884565 
L 91.863312 196.884565 
L 91.863312 194.595612 
L 94.37575 194.595612 
L 94.37575 193.971352 
L 96.888187 193.971352 
L 96.888187 192.306659 
L 99.400625 192.306659 
L 99.400625 186.272146 
L 101.913062 186.272146 
L 101.913062 182.3185 
L 104.4255 182.3185 
L 104.4255 184.399366 
L 106.937937 184.399366 
L 106.937937 176.492074 
L 111.962812 176.492074 
L 111.962812 170.041388 
L 114.47525 170.041388 
L 114.47525 162.966442 
L 116.987687 162.966442 
L 116.987687 156.723843 
L 119.500125 156.723843 
L 119.500125 147.568031 
L 122.012562 147.568031 
L 122.012562 137.163699 
L 124.525 137.163699 
L 124.525 127.383627 
L 127.037437 127.383627 
L 127.037437 126.551281 
L 129.549875 126.551281 
L 129.549875 114.690342 
L 134.57475 114.690342 
L 134.57475 94.505938 
L 137.087187 94.505938 
L 137.087187 96.170631 
L 139.599625 96.170631 
L 139.599625 93.465505 
L 142.112062 93.465505 
L 142.112062 90.760379 
L 144.6245 90.760379 
L 144.6245 92.425072 
L 147.136937 92.425072 
L 147.136937 92.216985 
L 149.649375 92.216985 
L 149.649375 101.164711 
L 152.161812 101.164711 
L 152.161812 103.66175 
L 154.67425 103.66175 
L 154.67425 110.736696 
L 157.186687 110.736696 
L 157.186687 121.765288 
L 159.699125 121.765288 
L 159.699125 130.088754 
L 162.211562 130.088754 
L 162.211562 140.284999 
L 164.724 140.284999 
L 164.724 152.145937 
L 167.236437 152.145937 
L 167.236437 153.81063 
L 169.748875 153.81063 
L 169.748875 165.879655 
L 172.261312 165.879655 
L 172.261312 167.960522 
L 174.77375 167.960522 
L 174.77375 172.330341 
L 177.286187 172.330341 
L 177.286187 180.653807 
L 179.798625 180.653807 
L 179.798625 182.734673 
L 182.311062 182.734673 
L 182.311062 185.855973 
L 184.8235 185.855973 
L 184.8235 190.850052 
L 187.335937 190.850052 
L 187.335937 189.393446 
L 189.848375 189.393446 
L 189.848375 194.387525 
L 192.360812 194.387525 
L 192.360812 193.763265 
L 194.87325 193.763265 
L 194.87325 196.260305 
L 197.385687 196.260305 
L 197.385687 196.676478 
L 199.898125 196.676478 
L 199.898125 197.508825 
L 202.410562 197.508825 
L 202.410562 197.092651 
L 204.923 197.092651 
L 204.923 198.133084 
L 209.947875 198.133084 
L 209.947875 197.716911 
L 212.460312 197.716911 
L 212.460312 198.341171 
L 217.485187 198.341171 
L 217.485187 199.381604 
L 219.997625 199.381604 
L 219.997625 198.757344 
L 222.510062 198.757344 
L 222.510062 199.173518 
L 225.0225 199.173518 
L 225.0225 199.381604 
L 227.534937 199.381604 
L 227.534937 199.589691 
L 230.047375 199.589691 
L 230.047375 199.381604 
L 235.07225 199.381604 
L 235.07225 199.797778 
L 237.584687 199.797778 
L 237.584687 199.797778 
" clip-path="url(#p30f69733dc)" style="fill: none; stroke: #0000ff; stroke-width: 2.5; stroke-linecap: square"/>
   </g>
   <g id="line2d_8">
    <path d="M 36.589688 199.797778 
L 76.788687 199.797778 
L 76.788687 198.965431 
L 79.301125 198.965431 
L 79.301125 198.549258 
L 81.813562 198.549258 
L 81.813562 197.300738 
L 84.326 197.300738 
L 84.326 196.052218 
L 86.838437 196.052218 
L 86.838437 193.763265 
L 89.350875 193.763265 
L 89.350875 191.890485 
L 91.863312 191.890485 
L 91.863312 186.272146 
L 94.37575 186.272146 
L 94.37575 186.688319 
L 96.888187 186.688319 
L 96.888187 180.653807 
L 99.400625 180.653807 
L 99.400625 176.908247 
L 101.913062 176.908247 
L 101.913062 172.954601 
L 104.4255 172.954601 
L 104.4255 165.047309 
L 106.937937 165.047309 
L 106.937937 157.972363 
L 109.450375 157.972363 
L 109.450375 152.562111 
L 111.962812 152.562111 
L 111.962812 139.244566 
L 114.47525 139.244566 
L 114.47525 128.632147 
L 116.987687 128.632147 
L 116.987687 118.227815 
L 119.500125 118.227815 
L 119.500125 110.52861 
L 122.012562 110.52861 
L 122.012562 101.580884 
L 124.525 101.580884 
L 124.525 82.645 
L 127.037437 82.645 
L 127.037437 87.639079 
L 129.549875 87.639079 
L 129.549875 75.153881 
L 132.062312 75.153881 
L 132.062312 73.905361 
L 134.57475 73.905361 
L 134.57475 85.766299 
L 137.087187 85.766299 
L 137.087187 72.240668 
L 139.599625 72.240668 
L 139.599625 94.714025 
L 142.112062 94.714025 
L 142.112062 95.130198 
L 144.6245 95.130198 
L 144.6245 106.366877 
L 147.136937 106.366877 
L 147.136937 123.013808 
L 149.649375 123.013808 
L 149.649375 127.591714 
L 152.161812 127.591714 
L 152.161812 144.238645 
L 154.67425 144.238645 
L 154.67425 152.562111 
L 157.186687 152.562111 
L 157.186687 164.839222 
L 159.699125 164.839222 
L 159.699125 172.538428 
L 162.211562 172.538428 
L 162.211562 175.867814 
L 164.724 175.867814 
L 164.724 180.029547 
L 167.236437 180.029547 
L 167.236437 186.480233 
L 169.748875 186.480233 
L 169.748875 190.850052 
L 172.261312 190.850052 
L 172.261312 193.555178 
L 174.77375 193.555178 
L 174.77375 194.179438 
L 177.286187 194.179438 
L 177.286187 196.676478 
L 182.311062 196.676478 
L 182.311062 197.716911 
L 187.335937 197.716911 
L 187.335937 197.924998 
L 189.848375 197.924998 
L 189.848375 198.757344 
L 192.360812 198.757344 
L 192.360812 198.341171 
L 194.87325 198.341171 
L 194.87325 198.965431 
L 197.385687 198.965431 
L 197.385687 199.589691 
L 199.898125 199.589691 
L 199.898125 198.757344 
L 202.410562 198.757344 
L 202.410562 197.716911 
L 204.923 197.716911 
L 204.923 199.381604 
L 209.947875 199.381604 
L 209.947875 199.589691 
L 214.97275 199.589691 
L 214.97275 199.173518 
L 217.485187 199.173518 
L 217.485187 199.589691 
L 219.997625 199.589691 
L 219.997625 199.797778 
L 227.534937 199.797778 
L 227.534937 199.589691 
L 230.047375 199.589691 
L 230.047375 199.797778 
L 235.07225 199.797778 
L 235.07225 199.173518 
L 237.584687 199.173518 
L 237.584687 199.173518 
" clip-path="url(#p30f69733dc)" style="fill: none; stroke: #ff0000; stroke-width: 2.5; stroke-linecap: square"/>
   </g>
   <g id="patch_8">
    <path d="M 36.589688 206.175633 
L 36.589688 65.862812 
" style="fill: none; stroke: #000000; stroke-width: 2; stroke-linejoin: miter; stroke-linecap: square"/>
   </g>
   <g id="patch_9">
    <path d="M 237.584687 206.175633 
L 237.584687 65.862812 
" style="fill: none; stroke: #000000; stroke-width: 2; stroke-linejoin: miter; stroke-linecap: square"/>
   </g>
   <g id="patch_10">
    <path d="M 36.589688 206.175633 
L 237.584687 206.175633 
" style="fill: none; stroke: #000000; stroke-width: 2; stroke-linejoin: miter; stroke-linecap: square"/>
   </g>
   <g id="patch_11">
    <path d="M 36.589688 65.862812 
L 237.584687 65.862812 
" style="fill: none; stroke: #000000; stroke-width: 2; stroke-linejoin: miter; stroke-linecap: square"/>
   </g>
   <g id="text_20">
    <!-- Volume -->
    <g transform="translate(94.62125 59.862812) scale(0.216 -0.216)">
     <defs>
      <path id="Montserrat-Regular-56" d="M 3974 4480 
L 2246 589 
L 531 4480 
L 19 4480 
L 2003 0 
L 2470 0 
L 4454 4480 
L 3974 4480 
z
" transform="scale(0.015625)"/>
      <path id="Montserrat-Regular-6c" d="M 634 0 
L 1088 0 
L 1088 4749 
L 634 4749 
L 634 0 
z
" transform="scale(0.015625)"/>
     </defs>
     <use xlink:href="#Montserrat-Regular-56"/>
     <use xlink:href="#Montserrat-Regular-6f" x="69.799988"/>
     <use xlink:href="#Montserrat-Regular-6c" x="132.499985"/>
     <use xlink:href="#Montserrat-Regular-75" x="159.399979"/>
     <use xlink:href="#Montserrat-Regular-6d" x="226.699966"/>
     <use xlink:href="#Montserrat-Regular-65" x="332.799957"/>
    </g>
   </g>
   <g id="legend_1">
    <g id="patch_12">
     <path d="M 176.840312 109.929062 
L 231.584687 109.929062 
L 231.584687 71.862812 
L 176.840312 71.862812 
z
" style="fill: #ffffff; opacity: 0.8; stroke: #000000; stroke-linejoin: miter"/>
    </g>
    <g id="line2d_9">
     <path d="M 181.640312 81.367187 
L 181.640312 81.367187 
L 193.640312 81.367187 
L 193.640312 81.367187 
L 205.640312 81.367187 
" style="fill: none; stroke: #0000ff; stroke-width: 2.5; stroke-linecap: square"/>
    </g>
    <g id="text_21">
     <!-- – – -->
     <g transform="translate(211.640312 85.567187) scale(0.12 -0.12)">
      <defs>
       <path id="Montserrat-Regular-2013" d="M 0 1574 
L 3200 1574 
L 3200 1901 
L 0 1901 
L 0 1574 
z
" transform="scale(0.015625)"/>
      </defs>
      <use xlink:href="#Montserrat-Regular-2013"/>
      <use xlink:href="#Montserrat-Regular-20" x="49.999985"/>
      <use xlink:href="#Montserrat-Regular-2013" x="76.199982"/>
     </g>
    </g>
    <g id="line2d_10">
     <path d="M 181.640312 98.600312 
L 181.640312 98.600312 
L 193.640312 98.600312 
L 193.640312 98.600312 
L 205.640312 98.600312 
" style="fill: none; stroke: #ff0000; stroke-width: 2.5; stroke-linecap: square"/>
    </g>
    <g id="text_22">
     <!-- ++ -->
     <g transform="translate(211.640312 102.800312) scale(0.12 -0.12)">
      <defs>
       <path id="Montserrat-Regular-2b" d="M 3232 2426 
L 2042 2426 
L 2042 3597 
L 1638 3597 
L 1638 2426 
L 448 2426 
L 448 2048 
L 1638 2048 
L 1638 883 
L 2042 883 
L 2042 2048 
L 3232 2048 
L 3232 2426 
z
" transform="scale(0.015625)"/>
      </defs>
      <use xlink:href="#Montserrat-Regular-2b"/>
      <use xlink:href="#Montserrat-Regular-2b" x="57.499985"/>
     </g>
    </g>
   </g>
  </g>
  <g id="axes_3">
   <g id="patch_13">
    <path d="M 292.064687 206.175633 
L 493.059687 206.175633 
L 493.059687 65.862812 
L 292.064687 65.862812 
L 292.064687 206.175633 
z
" style="fill: none"/>
   </g>
   <g id="matplotlib.axis_5">
    <g id="xtick_10">
     <g id="line2d_11">
      <g>
       <use xlink:href="#mbbbd170964" x="317.189062" y="206.175633" style="stroke: #000000; stroke-width: 2"/>
      </g>
     </g>
     <g id="text_23">
      <!-- −3 -->
      <g transform="translate(306.9375 227.032196) scale(0.18 -0.18)">
       <use xlink:href="#Montserrat-Regular-2212"/>
       <use xlink:href="#Montserrat-Regular-33" x="57.499985"/>
      </g>
     </g>
    </g>
    <g id="xtick_11">
     <g id="line2d_12">
      <g>
       <use xlink:href="#mbbbd170964" x="392.562187" y="206.175633" style="stroke: #000000; stroke-width: 2"/>
      </g>
     </g>
     <g id="text_24">
      <!-- 0 -->
      <g transform="translate(386.603906 227.032196) scale(0.18 -0.18)">
       <use xlink:href="#Montserrat-Regular-30"/>
      </g>
     </g>
    </g>
    <g id="xtick_12">
     <g id="line2d_13">
      <g>
       <use xlink:href="#mbbbd170964" x="467.935313" y="206.175633" style="stroke: #000000; stroke-width: 2"/>
      </g>
     </g>
     <g id="text_25">
      <!-- 3 -->
      <g transform="translate(462.85875 227.032196) scale(0.18 -0.18)">
       <use xlink:href="#Montserrat-Regular-33"/>
      </g>
     </g>
    </g>
   </g>
   <g id="matplotlib.axis_6">
    <g id="ytick_10">
     <g id="line2d_14">
      <g>
       <use xlink:href="#m5b44f1d58b" x="292.064687" y="199.797778" style="stroke: #000000; stroke-width: 2"/>
      </g>
     </g>
     <g id="text_26">
      <!-- 0.0 -->
      <g transform="translate(256.915 206.476059) scale(0.18 -0.18)">
       <use xlink:href="#Montserrat-Regular-30"/>
       <use xlink:href="#Montserrat-Regular-2e" x="66.199997"/>
       <use xlink:href="#Montserrat-Regular-30" x="87.399994"/>
      </g>
     </g>
    </g>
    <g id="ytick_11">
     <g id="line2d_15">
      <g>
       <use xlink:href="#m5b44f1d58b" x="292.064687" y="145.59504" style="stroke: #000000; stroke-width: 2"/>
      </g>
     </g>
     <g id="text_27">
      <!-- 0.3 -->
      <g transform="translate(258.678437 152.273321) scale(0.18 -0.18)">
       <use xlink:href="#Montserrat-Regular-30"/>
       <use xlink:href="#Montserrat-Regular-2e" x="66.199997"/>
       <use xlink:href="#Montserrat-Regular-33" x="87.399994"/>
      </g>
     </g>
    </g>
    <g id="ytick_12">
     <g id="line2d_16">
      <g>
       <use xlink:href="#m5b44f1d58b" x="292.064687" y="91.392302" style="stroke: #000000; stroke-width: 2"/>
      </g>
     </g>
     <g id="text_28">
      <!-- 0.6 -->
      <g transform="translate(257.868437 98.070583) scale(0.18 -0.18)">
       <use xlink:href="#Montserrat-Regular-30"/>
       <use xlink:href="#Montserrat-Regular-2e" x="66.199997"/>
       <use xlink:href="#Montserrat-Regular-36" x="87.399994"/>
      </g>
     </g>
    </g>
   </g>
   <g id="line2d_17">
    <path d="M 292.064687 199.797778 
L 319.7015 199.797778 
L 319.7015 199.617102 
L 322.213937 199.617102 
L 322.213937 199.797778 
L 327.238812 199.797778 
L 327.238812 199.617102 
L 329.75125 199.617102 
L 329.75125 199.25575 
L 332.263688 199.25575 
L 332.263688 199.075074 
L 334.776125 199.075074 
L 334.776125 198.713723 
L 337.288563 198.713723 
L 337.288563 197.448992 
L 339.801 197.448992 
L 339.801 196.906965 
L 342.313437 196.906965 
L 342.313437 196.545613 
L 344.825875 196.545613 
L 344.825875 193.835476 
L 347.338312 193.835476 
L 347.338312 193.112773 
L 349.85075 193.112773 
L 349.85075 189.137906 
L 352.363187 189.137906 
L 352.363187 189.499257 
L 354.875625 189.499257 
L 354.875625 181.188171 
L 357.388062 181.188171 
L 357.388062 175.767897 
L 359.9005 175.767897 
L 359.9005 165.469377 
L 362.412937 165.469377 
L 362.412937 161.855861 
L 364.925375 161.855861 
L 364.925375 146.679095 
L 367.437813 146.679095 
L 367.437813 137.645305 
L 369.95025 137.645305 
L 369.95025 123.010566 
L 372.462688 123.010566 
L 372.462688 103.49758 
L 374.975125 103.49758 
L 374.975125 98.619334 
L 377.487563 98.619334 
L 377.487563 86.514056 
L 380 86.514056 
L 380 80.73243 
L 382.512437 80.73243 
L 382.512437 75.854184 
L 385.024875 75.854184 
L 385.024875 72.240668 
L 387.537312 72.240668 
L 387.537312 74.770129 
L 390.04975 74.770129 
L 390.04975 86.33338 
L 392.562187 86.33338 
L 392.562187 94.46379 
L 395.074625 94.46379 
L 395.074625 97.173927 
L 397.587063 97.173927 
L 397.587063 122.649214 
L 400.0995 122.649214 
L 400.0995 134.031789 
L 402.611938 134.031789 
L 402.611938 146.317743 
L 405.124375 146.317743 
L 405.124375 157.519642 
L 407.636813 157.519642 
L 407.636813 169.444244 
L 410.14925 169.444244 
L 410.14925 179.020061 
L 412.661688 179.020061 
L 412.661688 182.814253 
L 415.174125 182.814253 
L 415.174125 191.486691 
L 417.686562 191.486691 
L 417.686562 194.55818 
L 420.199 194.55818 
L 420.199 195.642234 
L 422.711437 195.642234 
L 422.711437 197.99102 
L 425.223875 197.99102 
L 425.223875 199.075074 
L 427.736312 199.075074 
L 427.736312 199.797778 
L 432.761188 199.797778 
L 432.761188 199.617102 
L 435.273625 199.617102 
L 435.273625 199.797778 
L 493.059687 199.797778 
L 493.059687 199.797778 
" clip-path="url(#pe71fa29c14)" style="fill: none; stroke: #0000ff; stroke-width: 2.5; stroke-linecap: square"/>
   </g>
   <g id="line2d_18">
    <path d="M 292.064687 199.797778 
L 329.75125 199.797778 
L 329.75125 199.617102 
L 332.263688 199.617102 
L 332.263688 199.797778 
L 334.776125 199.797778 
L 334.776125 199.436426 
L 337.288563 199.436426 
L 337.288563 199.617102 
L 339.801 199.617102 
L 339.801 199.075074 
L 342.313437 199.075074 
L 342.313437 197.99102 
L 344.825875 197.99102 
L 344.825875 199.25575 
L 347.338312 199.25575 
L 347.338312 197.810344 
L 349.85075 197.810344 
L 349.85075 197.448992 
L 352.363187 197.448992 
L 352.363187 197.268316 
L 354.875625 197.268316 
L 354.875625 194.377504 
L 357.388062 194.377504 
L 357.388062 195.100207 
L 359.9005 195.100207 
L 359.9005 194.377504 
L 362.412937 194.377504 
L 362.412937 191.306015 
L 364.925375 191.306015 
L 364.925375 188.776554 
L 367.437813 188.776554 
L 367.437813 183.898308 
L 369.95025 183.898308 
L 369.95025 180.284792 
L 372.462688 180.284792 
L 372.462688 171.973705 
L 374.975125 171.973705 
L 374.975125 170.708975 
L 377.487563 170.708975 
L 377.487563 160.771806 
L 380 160.771806 
L 380 150.29261 
L 382.512437 150.29261 
L 382.512437 134.393141 
L 385.024875 134.393141 
L 385.024875 130.960301 
L 387.537312 130.960301 
L 387.537312 126.443406 
L 390.04975 126.443406 
L 390.04975 106.569069 
L 392.562187 106.569069 
L 392.562187 104.942986 
L 395.074625 104.942986 
L 395.074625 93.018384 
L 397.587063 93.018384 
L 397.587063 90.669599 
L 400.0995 90.669599 
L 400.0995 89.404868 
L 402.611938 89.404868 
L 402.611938 90.850275 
L 405.124375 90.850275 
L 405.124375 88.501489 
L 407.636813 88.501489 
L 407.636813 101.510146 
L 410.14925 101.510146 
L 410.14925 109.279205 
L 412.661688 109.279205 
L 412.661688 113.615424 
L 415.174125 113.615424 
L 415.174125 119.758401 
L 417.686562 119.758401 
L 417.686562 136.922602 
L 420.199 136.922602 
L 420.199 147.763149 
L 422.711437 147.763149 
L 422.711437 155.712884 
L 425.223875 155.712884 
L 425.223875 163.662619 
L 427.736312 163.662619 
L 427.736312 171.251002 
L 430.24875 171.251002 
L 430.24875 180.284792 
L 432.761188 180.284792 
L 432.761188 186.066417 
L 435.273625 186.066417 
L 435.273625 189.137906 
L 437.786063 189.137906 
L 437.786063 194.196828 
L 440.2985 194.196828 
L 440.2985 194.55818 
L 442.810938 194.55818 
L 442.810938 197.087641 
L 445.323375 197.087641 
L 445.323375 198.533047 
L 447.835812 198.533047 
L 447.835812 199.436426 
L 450.34825 199.436426 
L 450.34825 199.617102 
L 452.860687 199.617102 
L 452.860687 199.797778 
L 493.059687 199.797778 
L 493.059687 199.797778 
" clip-path="url(#pe71fa29c14)" style="fill: none; stroke: #ff0000; stroke-width: 2.5; stroke-linecap: square"/>
   </g>
   <g id="patch_14">
    <path d="M 292.064687 206.175633 
L 292.064687 65.862812 
" style="fill: none; stroke: #000000; stroke-width: 2; stroke-linejoin: miter; stroke-linecap: square"/>
   </g>
   <g id="patch_15">
    <path d="M 493.059687 206.175633 
L 493.059687 65.862812 
" style="fill: none; stroke: #000000; stroke-width: 2; stroke-linejoin: miter; stroke-linecap: square"/>
   </g>
   <g id="patch_16">
    <path d="M 292.064687 206.175633 
L 493.059687 206.175633 
" style="fill: none; stroke: #000000; stroke-width: 2; stroke-linejoin: miter; stroke-linecap: square"/>
   </g>
   <g id="patch_17">
    <path d="M 292.064687 65.862812 
L 493.059687 65.862812 
" style="fill: none; stroke: #000000; stroke-width: 2; stroke-linejoin: miter; stroke-linecap: square"/>
   </g>
   <g id="text_29">
    <!-- Electron density -->
    <g transform="translate(304.61475 59.862812) scale(0.216 -0.216)">
     <defs>
      <path id="Montserrat-Regular-45" d="M 1203 410 
L 1203 2074 
L 3520 2074 
L 3520 2477 
L 1203 2477 
L 1203 4070 
L 3802 4070 
L 3802 4480 
L 730 4480 
L 730 0 
L 3898 0 
L 3898 410 
L 1203 410 
z
" transform="scale(0.015625)"/>
      <path id="Montserrat-Regular-63" d="M 2029 -32 
C 2598 -32 3078 198 3347 634 
L 3008 864 
C 2778 525 2419 371 2029 371 
C 1293 371 755 890 755 1683 
C 755 2470 1293 2995 2029 2995 
C 2419 2995 2778 2835 3008 2496 
L 3347 2726 
C 3078 3168 2598 3392 2029 3392 
C 1024 3392 294 2688 294 1683 
C 294 678 1024 -32 2029 -32 
z
" transform="scale(0.015625)"/>
      <path id="Montserrat-Regular-69" d="M 864 4102 
C 1056 4102 1197 4250 1197 4435 
C 1197 4608 1050 4749 864 4749 
C 678 4749 531 4602 531 4429 
C 531 4250 678 4102 864 4102 
z
M 634 0 
L 1088 0 
L 1088 3366 
L 634 3366 
L 634 0 
z
" transform="scale(0.015625)"/>
      <path id="Montserrat-Regular-79" d="M 3014 3366 
L 1747 506 
L 480 3366 
L 6 3366 
L 1510 6 
L 1363 -320 
C 1171 -742 966 -883 666 -883 
C 422 -883 218 -794 51 -627 
L -160 -966 
C 45 -1171 346 -1274 659 -1274 
C 1139 -1274 1498 -1062 1779 -403 
L 3462 3366 
L 3014 3366 
z
" transform="scale(0.015625)"/>
     </defs>
     <use xlink:href="#Montserrat-Regular-45"/>
     <use xlink:href="#Montserrat-Regular-6c" x="66.899994"/>
     <use xlink:href="#Montserrat-Regular-65" x="93.799988"/>
     <use xlink:href="#Montserrat-Regular-63" x="154.199982"/>
     <use xlink:href="#Montserrat-Regular-74" x="210.499969"/>
     <use xlink:href="#Montserrat-Regular-72" x="251.09996"/>
     <use xlink:href="#Montserrat-Regular-6f" x="291.199951"/>
     <use xlink:href="#Montserrat-Regular-6e" x="353.899948"/>
     <use xlink:href="#Montserrat-Regular-20" x="421.59993"/>
     <use xlink:href="#Montserrat-Regular-64" x="447.799927"/>
     <use xlink:href="#Montserrat-Regular-65" x="515.599915"/>
     <use xlink:href="#Montserrat-Regular-6e" x="575.999908"/>
     <use xlink:href="#Montserrat-Regular-73" x="643.69989"/>
     <use xlink:href="#Montserrat-Regular-69" x="692.599884"/>
     <use xlink:href="#Montserrat-Regular-74" x="719.499878"/>
     <use xlink:href="#Montserrat-Regular-79" x="760.099869"/>
    </g>
   </g>
  </g>
  <g id="axes_4">
   <g id="patch_18">
    <path d="M 36.589688 409.629223 
L 237.584687 409.629223 
L 237.584687 269.316402 
L 36.589688 269.316402 
L 36.589688 409.629223 
z
" style="fill: none"/>
   </g>
   <g id="matplotlib.axis_7">
    <g id="xtick_13">
     <g id="line2d_19">
      <g>
       <use xlink:href="#mbbbd170964" x="61.714062" y="409.629223" style="stroke: #000000; stroke-width: 2"/>
      </g>
     </g>
     <g id="text_30">
      <!-- −3 -->
      <g transform="translate(51.4625 430.485785) scale(0.18 -0.18)">
       <use xlink:href="#Montserrat-Regular-2212"/>
       <use xlink:href="#Montserrat-Regular-33" x="57.499985"/>
      </g>
     </g>
    </g>
    <g id="xtick_14">
     <g id="line2d_20">
      <g>
       <use xlink:href="#mbbbd170964" x="137.087187" y="409.629223" style="stroke: #000000; stroke-width: 2"/>
      </g>
     </g>
     <g id="text_31">
      <!-- 0 -->
      <g transform="translate(131.128906 430.485785) scale(0.18 -0.18)">
       <use xlink:href="#Montserrat-Regular-30"/>
      </g>
     </g>
    </g>
    <g id="xtick_15">
     <g id="line2d_21">
      <g>
       <use xlink:href="#mbbbd170964" x="212.460312" y="409.629223" style="stroke: #000000; stroke-width: 2"/>
      </g>
     </g>
     <g id="text_32">
      <!-- 3 -->
      <g transform="translate(207.38375 430.485785) scale(0.18 -0.18)">
       <use xlink:href="#Montserrat-Regular-33"/>
      </g>
     </g>
    </g>
   </g>
   <g id="matplotlib.axis_8">
    <g id="ytick_13">
     <g id="line2d_22">
      <g>
       <use xlink:href="#m5b44f1d58b" x="36.589688" y="403.251367" style="stroke: #000000; stroke-width: 2"/>
      </g>
     </g>
     <g id="text_33">
      <!-- 0.0 -->
      <g transform="translate(1.44 409.929649) scale(0.18 -0.18)">
       <use xlink:href="#Montserrat-Regular-30"/>
       <use xlink:href="#Montserrat-Regular-2e" x="66.199997"/>
       <use xlink:href="#Montserrat-Regular-30" x="87.399994"/>
      </g>
     </g>
    </g>
    <g id="ytick_14">
     <g id="line2d_23">
      <g>
       <use xlink:href="#m5b44f1d58b" x="36.589688" y="355.477169" style="stroke: #000000; stroke-width: 2"/>
      </g>
     </g>
     <g id="text_34">
      <!-- 0.2 -->
      <g transform="translate(3.133125 362.15545) scale(0.18 -0.18)">
       <use xlink:href="#Montserrat-Regular-30"/>
       <use xlink:href="#Montserrat-Regular-2e" x="66.199997"/>
       <use xlink:href="#Montserrat-Regular-32" x="87.399994"/>
      </g>
     </g>
    </g>
    <g id="ytick_15">
     <g id="line2d_24">
      <g>
       <use xlink:href="#m5b44f1d58b" x="36.589688" y="307.702971" style="stroke: #000000; stroke-width: 2"/>
      </g>
     </g>
     <g id="text_35">
      <!-- 0.4 -->
      <g transform="translate(1.459688 314.381252) scale(0.18 -0.18)">
       <use xlink:href="#Montserrat-Regular-30"/>
       <use xlink:href="#Montserrat-Regular-2e" x="66.199997"/>
       <use xlink:href="#Montserrat-Regular-34" x="87.399994"/>
      </g>
     </g>
    </g>
   </g>
   <g id="line2d_25">
    <path d="M 36.589688 403.251367 
L 61.714062 403.251367 
L 61.714062 403.012496 
L 64.2265 403.012496 
L 64.2265 403.251367 
L 69.251375 403.251367 
L 69.251375 402.534754 
L 71.763813 402.534754 
L 71.763813 402.295883 
L 74.27625 402.295883 
L 74.27625 401.818141 
L 76.788687 401.818141 
L 76.788687 399.907173 
L 79.301125 399.907173 
L 79.301125 398.473947 
L 81.813562 398.473947 
L 81.813562 393.457657 
L 84.326 393.457657 
L 84.326 391.068947 
L 86.838437 391.068947 
L 86.838437 387.247011 
L 89.350875 387.247011 
L 89.350875 374.109106 
L 91.863312 374.109106 
L 91.863312 371.481525 
L 94.37575 371.481525 
L 94.37575 355.238298 
L 96.888187 355.238298 
L 96.888187 352.849588 
L 99.400625 352.849588 
L 99.400625 332.306683 
L 101.913062 332.306683 
L 101.913062 324.662811 
L 104.4255 324.662811 
L 104.4255 320.124262 
L 106.937937 320.124262 
L 106.937937 296.714905 
L 109.450375 296.714905 
L 109.450375 300.059099 
L 111.962812 300.059099 
L 111.962812 276.649742 
L 114.47525 276.649742 
L 114.47525 282.382645 
L 116.987687 282.382645 
L 116.987687 286.921194 
L 119.500125 286.921194 
L 119.500125 285.010226 
L 122.012562 285.010226 
L 122.012562 275.694258 
L 124.525 275.694258 
L 124.525 289.309904 
L 127.037437 289.309904 
L 127.037437 282.860387 
L 129.549875 282.860387 
L 129.549875 292.892969 
L 132.062312 292.892969 
L 132.062312 299.820228 
L 134.57475 299.820228 
L 134.57475 305.792003 
L 137.087187 305.792003 
L 137.087187 320.602004 
L 139.599625 320.602004 
L 139.599625 335.889748 
L 142.112062 335.889748 
L 142.112062 333.97878 
L 144.6245 333.97878 
L 144.6245 337.322974 
L 147.136937 337.322974 
L 147.136937 354.282814 
L 149.649375 354.282814 
L 149.649375 356.910395 
L 152.161812 356.910395 
L 152.161812 364.315396 
L 154.67425 364.315396 
L 154.67425 370.764912 
L 157.186687 370.764912 
L 157.186687 376.736687 
L 159.699125 376.736687 
L 159.699125 380.558623 
L 162.211562 380.558623 
L 162.211562 387.485882 
L 164.724 387.485882 
L 164.724 387.963624 
L 167.236437 387.963624 
L 167.236437 392.979915 
L 169.748875 392.979915 
L 169.748875 395.129754 
L 172.261312 395.129754 
L 172.261312 396.085238 
L 174.77375 396.085238 
L 174.77375 397.518463 
L 177.286187 397.518463 
L 177.286187 397.996205 
L 179.798625 397.996205 
L 179.798625 400.623786 
L 182.311062 400.623786 
L 182.311062 399.668302 
L 184.8235 399.668302 
L 184.8235 400.384915 
L 187.335937 400.384915 
L 187.335937 402.295883 
L 192.360812 402.295883 
L 192.360812 403.012496 
L 194.87325 403.012496 
L 194.87325 402.295883 
L 197.385687 402.295883 
L 197.385687 402.773625 
L 199.898125 402.773625 
L 199.898125 403.251367 
L 202.410562 403.251367 
L 202.410562 402.773625 
L 204.923 402.773625 
L 204.923 403.012496 
L 207.435437 403.012496 
L 207.435437 403.251367 
L 214.97275 403.251367 
L 214.97275 403.012496 
L 217.485187 403.012496 
L 217.485187 403.251367 
L 237.584687 403.251367 
L 237.584687 403.251367 
" clip-path="url(#pb76bfa0e6e)" style="fill: none; stroke: #0000ff; stroke-width: 2.5; stroke-linecap: square"/>
   </g>
   <g id="line2d_26">
    <path d="M 36.589688 403.251367 
L 71.763813 403.251367 
L 71.763813 403.012496 
L 74.27625 403.012496 
L 74.27625 403.251367 
L 76.788687 403.251367 
L 76.788687 403.012496 
L 79.301125 403.012496 
L 79.301125 402.295883 
L 81.813562 402.295883 
L 81.813562 401.818141 
L 86.838437 401.818141 
L 86.838437 401.340399 
L 89.350875 401.340399 
L 89.350875 401.818141 
L 91.863312 401.818141 
L 91.863312 398.712818 
L 94.37575 398.712818 
L 94.37575 397.996205 
L 96.888187 397.996205 
L 96.888187 395.607496 
L 99.400625 395.607496 
L 99.400625 393.218786 
L 101.913062 393.218786 
L 101.913062 385.813785 
L 104.4255 385.813785 
L 104.4255 385.097172 
L 106.937937 385.097172 
L 106.937937 380.558623 
L 109.450375 380.558623 
L 109.450375 368.853944 
L 111.962812 368.853944 
L 111.962812 367.420719 
L 114.47525 367.420719 
L 114.47525 360.49346 
L 116.987687 360.49346 
L 116.987687 351.177491 
L 119.500125 351.177491 
L 119.500125 340.189425 
L 122.012562 340.189425 
L 122.012562 337.322974 
L 124.525 337.322974 
L 124.525 324.185069 
L 127.037437 324.185069 
L 127.037437 315.824584 
L 129.549875 315.824584 
L 129.549875 319.407649 
L 132.062312 319.407649 
L 132.062312 297.670389 
L 134.57475 297.670389 
L 134.57475 306.508616 
L 137.087187 306.508616 
L 137.087187 298.864744 
L 139.599625 298.864744 
L 139.599625 295.042808 
L 142.112062 295.042808 
L 142.112062 297.670389 
L 144.6245 297.670389 
L 144.6245 299.581357 
L 147.136937 299.581357 
L 147.136937 304.119906 
L 149.649375 304.119906 
L 149.649375 298.148131 
L 152.161812 298.148131 
L 152.161812 303.881035 
L 154.67425 303.881035 
L 154.67425 315.107971 
L 157.186687 315.107971 
L 157.186687 312.002648 
L 159.699125 312.002648 
L 159.699125 329.440231 
L 162.211562 329.440231 
L 162.211562 333.262167 
L 164.724 333.262167 
L 164.724 334.934264 
L 167.236437 334.934264 
L 167.236437 347.116684 
L 169.748875 347.116684 
L 169.748875 349.744265 
L 172.261312 349.744265 
L 172.261312 353.566201 
L 174.77375 353.566201 
L 174.77375 360.015718 
L 177.286187 360.015718 
L 177.286187 368.376202 
L 179.798625 368.376202 
L 179.798625 369.809428 
L 182.311062 369.809428 
L 182.311062 374.586848 
L 184.8235 374.586848 
L 184.8235 378.647655 
L 187.335937 378.647655 
L 187.335937 383.663946 
L 189.848375 383.663946 
L 189.848375 389.39685 
L 192.360812 389.39685 
L 192.360812 386.291527 
L 194.87325 386.291527 
L 194.87325 393.696528 
L 197.385687 393.696528 
L 197.385687 394.890883 
L 199.898125 394.890883 
L 199.898125 392.502173 
L 202.410562 392.502173 
L 202.410562 397.996205 
L 204.923 397.996205 
L 204.923 397.757334 
L 207.435437 397.757334 
L 207.435437 399.429431 
L 209.947875 399.429431 
L 209.947875 399.668302 
L 212.460312 399.668302 
L 212.460312 402.057012 
L 214.97275 402.057012 
L 214.97275 400.862657 
L 217.485187 400.862657 
L 217.485187 401.340399 
L 219.997625 401.340399 
L 219.997625 402.057012 
L 222.510062 402.057012 
L 222.510062 403.012496 
L 225.0225 403.012496 
L 225.0225 402.295883 
L 227.534937 402.295883 
L 227.534937 403.012496 
L 230.047375 403.012496 
L 230.047375 402.773625 
L 232.559812 402.773625 
L 232.559812 402.534754 
L 235.07225 402.534754 
L 235.07225 402.773625 
L 237.584687 402.773625 
L 237.584687 402.773625 
" clip-path="url(#pb76bfa0e6e)" style="fill: none; stroke: #ff0000; stroke-width: 2.5; stroke-linecap: square"/>
   </g>
   <g id="patch_19">
    <path d="M 36.589688 409.629223 
L 36.589688 269.316402 
" style="fill: none; stroke: #000000; stroke-width: 2; stroke-linejoin: miter; stroke-linecap: square"/>
   </g>
   <g id="patch_20">
    <path d="M 237.584687 409.629223 
L 237.584687 269.316402 
" style="fill: none; stroke: #000000; stroke-width: 2; stroke-linejoin: miter; stroke-linecap: square"/>
   </g>
   <g id="patch_21">
    <path d="M 36.589688 409.629223 
L 237.584687 409.629223 
" style="fill: none; stroke: #000000; stroke-width: 2; stroke-linejoin: miter; stroke-linecap: square"/>
   </g>
   <g id="patch_22">
    <path d="M 36.589688 269.316402 
L 237.584687 269.316402 
" style="fill: none; stroke: #000000; stroke-width: 2; stroke-linejoin: miter; stroke-linecap: square"/>
   </g>
   <g id="text_36">
    <!-- Heterogeneity -->
    <g transform="translate(58.861437 263.316402) scale(0.216 -0.216)">
     <defs>
      <path id="Montserrat-Regular-48" d="M 4006 4480 
L 4006 2483 
L 1203 2483 
L 1203 4480 
L 730 4480 
L 730 0 
L 1203 0 
L 1203 2067 
L 4006 2067 
L 4006 0 
L 4474 0 
L 4474 4480 
L 4006 4480 
z
" transform="scale(0.015625)"/>
     </defs>
     <use xlink:href="#Montserrat-Regular-48"/>
     <use xlink:href="#Montserrat-Regular-65" x="81.299988"/>
     <use xlink:href="#Montserrat-Regular-74" x="141.699982"/>
     <use xlink:href="#Montserrat-Regular-65" x="182.299973"/>
     <use xlink:href="#Montserrat-Regular-72" x="242.699966"/>
     <use xlink:href="#Montserrat-Regular-6f" x="282.799957"/>
     <use xlink:href="#Montserrat-Regular-67" x="345.499954"/>
     <use xlink:href="#Montserrat-Regular-65" x="414.099945"/>
     <use xlink:href="#Montserrat-Regular-6e" x="474.499939"/>
     <use xlink:href="#Montserrat-Regular-65" x="542.199921"/>
     <use xlink:href="#Montserrat-Regular-69" x="602.599915"/>
     <use xlink:href="#Montserrat-Regular-74" x="629.499908"/>
     <use xlink:href="#Montserrat-Regular-79" x="670.099899"/>
    </g>
   </g>
  </g>
  <g id="axes_5">
   <g id="patch_23">
    <path d="M 292.064687 409.629223 
L 493.059687 409.629223 
L 493.059687 269.316402 
L 292.064687 269.316402 
L 292.064687 409.629223 
z
" style="fill: none"/>
   </g>
   <g id="matplotlib.axis_9">
    <g id="xtick_16">
     <g id="line2d_27">
      <g>
       <use xlink:href="#mbbbd170964" x="317.189062" y="409.629223" style="stroke: #000000; stroke-width: 2"/>
      </g>
     </g>
     <g id="text_37">
      <!-- −3 -->
      <g transform="translate(306.9375 430.485785) scale(0.18 -0.18)">
       <use xlink:href="#Montserrat-Regular-2212"/>
       <use xlink:href="#Montserrat-Regular-33" x="57.499985"/>
      </g>
     </g>
    </g>
    <g id="xtick_17">
     <g id="line2d_28">
      <g>
       <use xlink:href="#mbbbd170964" x="392.562187" y="409.629223" style="stroke: #000000; stroke-width: 2"/>
      </g>
     </g>
     <g id="text_38">
      <!-- 0 -->
      <g transform="translate(386.603906 430.485785) scale(0.18 -0.18)">
       <use xlink:href="#Montserrat-Regular-30"/>
      </g>
     </g>
    </g>
    <g id="xtick_18">
     <g id="line2d_29">
      <g>
       <use xlink:href="#mbbbd170964" x="467.935313" y="409.629223" style="stroke: #000000; stroke-width: 2"/>
      </g>
     </g>
     <g id="text_39">
      <!-- 3 -->
      <g transform="translate(462.85875 430.485785) scale(0.18 -0.18)">
       <use xlink:href="#Montserrat-Regular-33"/>
      </g>
     </g>
    </g>
   </g>
   <g id="matplotlib.axis_10">
    <g id="ytick_16">
     <g id="line2d_30">
      <g>
       <use xlink:href="#m5b44f1d58b" x="292.064687" y="403.251367" style="stroke: #000000; stroke-width: 2"/>
      </g>
     </g>
     <g id="text_40">
      <!-- 0.0 -->
      <g transform="translate(256.915 409.929649) scale(0.18 -0.18)">
       <use xlink:href="#Montserrat-Regular-30"/>
       <use xlink:href="#Montserrat-Regular-2e" x="66.199997"/>
       <use xlink:href="#Montserrat-Regular-30" x="87.399994"/>
      </g>
     </g>
    </g>
    <g id="ytick_17">
     <g id="line2d_31">
      <g>
       <use xlink:href="#m5b44f1d58b" x="292.064687" y="360.732331" style="stroke: #000000; stroke-width: 2"/>
      </g>
     </g>
     <g id="text_41">
      <!-- 0.2 -->
      <g transform="translate(258.608125 367.410612) scale(0.18 -0.18)">
       <use xlink:href="#Montserrat-Regular-30"/>
       <use xlink:href="#Montserrat-Regular-2e" x="66.199997"/>
       <use xlink:href="#Montserrat-Regular-32" x="87.399994"/>
      </g>
     </g>
    </g>
    <g id="ytick_18">
     <g id="line2d_32">
      <g>
       <use xlink:href="#m5b44f1d58b" x="292.064687" y="318.213294" style="stroke: #000000; stroke-width: 2"/>
      </g>
     </g>
     <g id="text_42">
      <!-- 0.4 -->
      <g transform="translate(256.934687 324.891575) scale(0.18 -0.18)">
       <use xlink:href="#Montserrat-Regular-30"/>
       <use xlink:href="#Montserrat-Regular-2e" x="66.199997"/>
       <use xlink:href="#Montserrat-Regular-34" x="87.399994"/>
      </g>
     </g>
    </g>
   </g>
   <g id="line2d_33">
    <path d="M 292.064687 403.251367 
L 292.064687 402.188391 
L 294.577125 402.188391 
L 294.577125 401.763201 
L 297.089562 401.763201 
L 297.089562 402.400987 
L 299.602 402.400987 
L 299.602 402.188391 
L 302.114438 402.188391 
L 302.114438 401.338011 
L 304.626875 401.338011 
L 304.626875 402.188391 
L 307.139312 402.188391 
L 307.139312 401.550606 
L 309.65175 401.550606 
L 309.65175 401.763201 
L 312.164187 401.763201 
L 312.164187 401.125415 
L 314.676625 401.125415 
L 314.676625 401.550606 
L 317.189062 401.550606 
L 317.189062 400.91282 
L 319.7015 400.91282 
L 319.7015 400.48763 
L 322.213937 400.48763 
L 322.213937 398.999464 
L 324.726375 398.999464 
L 324.726375 400.06244 
L 327.238812 400.06244 
L 327.238812 398.999464 
L 329.75125 398.999464 
L 329.75125 398.574273 
L 332.263688 398.574273 
L 332.263688 400.06244 
L 334.776125 400.06244 
L 334.776125 398.574273 
L 337.288563 398.574273 
L 337.288563 396.873512 
L 342.313437 396.873512 
L 342.313437 398.149083 
L 344.825875 398.149083 
L 344.825875 396.873512 
L 347.338312 396.873512 
L 347.338312 393.471989 
L 349.85075 393.471989 
L 349.85075 393.259394 
L 352.363187 393.259394 
L 352.363187 391.346037 
L 357.388062 391.346037 
L 357.388062 387.944514 
L 359.9005 387.944514 
L 359.9005 382.629635 
L 362.412937 382.629635 
L 362.412937 385.180777 
L 364.925375 385.180777 
L 364.925375 380.503683 
L 367.437813 380.503683 
L 367.437813 374.125827 
L 369.95025 374.125827 
L 369.95025 373.062851 
L 372.462688 373.062851 
L 372.462688 360.30714 
L 374.975125 360.30714 
L 374.975125 363.921258 
L 377.487563 363.921258 
L 377.487563 359.45676 
L 380 359.45676 
L 380 344.787692 
L 382.512437 344.787692 
L 382.512437 339.047622 
L 385.024875 339.047622 
L 385.024875 317.575509 
L 387.537312 317.575509 
L 387.537312 315.236962 
L 390.04975 315.236962 
L 390.04975 311.835439 
L 392.562187 311.835439 
L 392.562187 297.378966 
L 395.074625 297.378966 
L 395.074625 291.426301 
L 397.587063 291.426301 
L 397.587063 280.796542 
L 400.0995 280.796542 
L 400.0995 280.371352 
L 402.611938 280.371352 
L 402.611938 275.694258 
L 405.124375 275.694258 
L 405.124375 279.308376 
L 407.636813 279.308376 
L 407.636813 286.111422 
L 410.14925 286.111422 
L 410.14925 288.449969 
L 412.661688 288.449969 
L 412.661688 298.654537 
L 415.174125 298.654537 
L 415.174125 314.811771 
L 417.686562 314.811771 
L 417.686562 332.031981 
L 420.199 332.031981 
L 420.199 343.937311 
L 422.711437 343.937311 
L 422.711437 362.858283 
L 425.223875 362.858283 
L 425.223875 380.503683 
L 427.736312 380.503683 
L 427.736312 387.306729 
L 430.24875 387.306729 
L 430.24875 397.723893 
L 432.761188 397.723893 
L 432.761188 402.188391 
L 435.273625 402.188391 
L 435.273625 403.251367 
L 493.059687 403.251367 
L 493.059687 403.251367 
" clip-path="url(#p16e4416c03)" style="fill: none; stroke: #0000ff; stroke-width: 2.5; stroke-linecap: square"/>
   </g>
   <g id="line2d_34">
    <path d="M 292.064687 403.251367 
L 292.064687 402.826177 
L 294.577125 402.826177 
L 294.577125 402.613582 
L 297.089562 402.613582 
L 297.089562 403.038772 
L 302.114438 403.038772 
L 302.114438 401.763201 
L 304.626875 401.763201 
L 304.626875 402.400987 
L 307.139312 402.400987 
L 307.139312 400.48763 
L 309.65175 400.48763 
L 309.65175 402.613582 
L 312.164187 402.613582 
L 312.164187 401.125415 
L 314.676625 401.125415 
L 314.676625 400.700225 
L 317.189062 400.700225 
L 317.189062 401.550606 
L 319.7015 401.550606 
L 319.7015 399.849844 
L 322.213937 399.849844 
L 322.213937 401.125415 
L 324.726375 401.125415 
L 324.726375 399.849844 
L 327.238812 399.849844 
L 327.238812 400.700225 
L 329.75125 400.700225 
L 329.75125 398.149083 
L 332.263688 398.149083 
L 332.263688 399.212059 
L 334.776125 399.212059 
L 334.776125 396.873512 
L 337.288563 396.873512 
L 337.288563 397.511297 
L 339.801 397.511297 
L 339.801 395.597941 
L 342.313437 395.597941 
L 342.313437 394.960155 
L 347.338312 394.960155 
L 347.338312 391.983823 
L 349.85075 391.983823 
L 349.85075 390.920847 
L 352.363187 390.920847 
L 352.363187 390.495656 
L 354.875625 390.495656 
L 354.875625 386.668943 
L 357.388062 386.668943 
L 357.388062 383.480015 
L 359.9005 383.480015 
L 359.9005 383.69261 
L 362.412937 383.69261 
L 362.412937 377.10216 
L 364.925375 377.10216 
L 364.925375 373.913232 
L 367.437813 373.913232 
L 367.437813 369.448733 
L 369.95025 369.448733 
L 369.95025 360.944926 
L 372.462688 360.944926 
L 372.462688 361.582711 
L 374.975125 361.582711 
L 374.975125 353.71669 
L 377.487563 353.71669 
L 377.487563 344.787692 
L 380 344.787692 
L 380 337.346861 
L 382.512437 337.346861 
L 382.512437 315.449557 
L 385.024875 315.449557 
L 385.024875 324.803745 
L 387.537312 324.803745 
L 387.537312 308.859106 
L 390.04975 308.859106 
L 390.04975 303.544227 
L 392.562187 303.544227 
L 392.562187 294.402634 
L 395.074625 294.402634 
L 395.074625 287.812183 
L 397.587063 287.812183 
L 397.587063 283.98547 
L 400.0995 283.98547 
L 400.0995 278.457995 
L 402.611938 278.457995 
L 402.611938 290.363325 
L 405.124375 290.363325 
L 405.124375 279.308376 
L 407.636813 279.308376 
L 407.636813 293.339658 
L 410.14925 293.339658 
L 410.14925 304.394607 
L 412.661688 304.394607 
L 412.661688 312.685819 
L 415.174125 312.685819 
L 415.174125 332.244576 
L 417.686562 332.244576 
L 417.686562 337.984646 
L 420.199 337.984646 
L 420.199 357.968593 
L 422.711437 357.968593 
L 422.711437 375.188803 
L 425.223875 375.188803 
L 425.223875 384.330396 
L 427.736312 384.330396 
L 427.736312 391.983823 
L 430.24875 391.983823 
L 430.24875 399.212059 
L 432.761188 399.212059 
L 432.761188 402.613582 
L 435.273625 402.613582 
L 435.273625 403.251367 
L 493.059687 403.251367 
L 493.059687 403.251367 
" clip-path="url(#p16e4416c03)" style="fill: none; stroke: #ff0000; stroke-width: 2.5; stroke-linecap: square"/>
   </g>
   <g id="patch_24">
    <path d="M 292.064687 409.629223 
L 292.064687 269.316402 
" style="fill: none; stroke: #000000; stroke-width: 2; stroke-linejoin: miter; stroke-linecap: square"/>
   </g>
   <g id="patch_25">
    <path d="M 493.059687 409.629223 
L 493.059687 269.316402 
" style="fill: none; stroke: #000000; stroke-width: 2; stroke-linejoin: miter; stroke-linecap: square"/>
   </g>
   <g id="patch_26">
    <path d="M 292.064687 409.629223 
L 493.059687 409.629223 
" style="fill: none; stroke: #000000; stroke-width: 2; stroke-linejoin: miter; stroke-linecap: square"/>
   </g>
   <g id="patch_27">
    <path d="M 292.064687 269.316402 
L 493.059687 269.316402 
" style="fill: none; stroke: #000000; stroke-width: 2; stroke-linejoin: miter; stroke-linecap: square"/>
   </g>
   <g id="text_43">
    <!-- Sphericity -->
    <g transform="translate(338.302312 263.316402) scale(0.216 -0.216)">
     <defs>
      <path id="Montserrat-Regular-53" d="M 1965 -38 
C 3110 -38 3635 525 3635 1184 
C 3635 2816 877 2074 877 3302 
C 877 3750 1242 4115 2061 4115 
C 2458 4115 2906 3994 3290 3744 
L 3450 4122 
C 3091 4371 2566 4518 2061 4518 
C 922 4518 410 3949 410 3290 
C 410 1632 3168 2387 3168 1158 
C 3168 717 2803 365 1965 365 
C 1376 365 806 595 486 909 
L 301 544 
C 634 198 1293 -38 1965 -38 
z
" transform="scale(0.015625)"/>
     </defs>
     <use xlink:href="#Montserrat-Regular-53"/>
     <use xlink:href="#Montserrat-Regular-70" x="61.499985"/>
     <use xlink:href="#Montserrat-Regular-68" x="129.299973"/>
     <use xlink:href="#Montserrat-Regular-65" x="196.999954"/>
     <use xlink:href="#Montserrat-Regular-72" x="257.399948"/>
     <use xlink:href="#Montserrat-Regular-69" x="297.499939"/>
     <use xlink:href="#Montserrat-Regular-63" x="324.399933"/>
     <use xlink:href="#Montserrat-Regular-69" x="380.699921"/>
     <use xlink:href="#Montserrat-Regular-74" x="407.599915"/>
     <use xlink:href="#Montserrat-Regular-79" x="448.199905"/>
    </g>
   </g>
  </g>
  <g id="axes_6">
   <g id="patch_28">
    <path d="M 36.589688 613.082812 
L 237.584687 613.082812 
L 237.584687 472.769992 
L 36.589688 472.769992 
L 36.589688 613.082812 
z
" style="fill: none"/>
   </g>
   <g id="matplotlib.axis_11">
    <g id="xtick_19">
     <g id="line2d_35">
      <g>
       <use xlink:href="#mbbbd170964" x="61.714062" y="613.082812" style="stroke: #000000; stroke-width: 2"/>
      </g>
     </g>
     <g id="text_44">
      <!-- −3 -->
      <g transform="translate(51.4625 633.939375) scale(0.18 -0.18)">
       <use xlink:href="#Montserrat-Regular-2212"/>
       <use xlink:href="#Montserrat-Regular-33" x="57.499985"/>
      </g>
     </g>
    </g>
    <g id="xtick_20">
     <g id="line2d_36">
      <g>
       <use xlink:href="#mbbbd170964" x="137.087187" y="613.082812" style="stroke: #000000; stroke-width: 2"/>
      </g>
     </g>
     <g id="text_45">
      <!-- 0 -->
      <g transform="translate(131.128906 633.939375) scale(0.18 -0.18)">
       <use xlink:href="#Montserrat-Regular-30"/>
      </g>
     </g>
    </g>
    <g id="xtick_21">
     <g id="line2d_37">
      <g>
       <use xlink:href="#mbbbd170964" x="212.460312" y="613.082812" style="stroke: #000000; stroke-width: 2"/>
      </g>
     </g>
     <g id="text_46">
      <!-- 3 -->
      <g transform="translate(207.38375 633.939375) scale(0.18 -0.18)">
       <use xlink:href="#Montserrat-Regular-33"/>
      </g>
     </g>
    </g>
   </g>
   <g id="matplotlib.axis_12">
    <g id="ytick_19">
     <g id="line2d_38">
      <g>
       <use xlink:href="#m5b44f1d58b" x="36.589688" y="606.704957" style="stroke: #000000; stroke-width: 2"/>
      </g>
     </g>
     <g id="text_47">
      <!-- 0.0 -->
      <g transform="translate(1.44 613.383238) scale(0.18 -0.18)">
       <use xlink:href="#Montserrat-Regular-30"/>
       <use xlink:href="#Montserrat-Regular-2e" x="66.199997"/>
       <use xlink:href="#Montserrat-Regular-30" x="87.399994"/>
      </g>
     </g>
    </g>
    <g id="ytick_20">
     <g id="line2d_39">
      <g>
       <use xlink:href="#m5b44f1d58b" x="36.589688" y="554.427453" style="stroke: #000000; stroke-width: 2"/>
      </g>
     </g>
     <g id="text_48">
      <!-- 0.2 -->
      <g transform="translate(3.133125 561.105734) scale(0.18 -0.18)">
       <use xlink:href="#Montserrat-Regular-30"/>
       <use xlink:href="#Montserrat-Regular-2e" x="66.199997"/>
       <use xlink:href="#Montserrat-Regular-32" x="87.399994"/>
      </g>
     </g>
    </g>
    <g id="ytick_21">
     <g id="line2d_40">
      <g>
       <use xlink:href="#m5b44f1d58b" x="36.589688" y="502.149949" style="stroke: #000000; stroke-width: 2"/>
      </g>
     </g>
     <g id="text_49">
      <!-- 0.4 -->
      <g transform="translate(1.459688 508.82823) scale(0.18 -0.18)">
       <use xlink:href="#Montserrat-Regular-30"/>
       <use xlink:href="#Montserrat-Regular-2e" x="66.199997"/>
       <use xlink:href="#Montserrat-Regular-34" x="87.399994"/>
      </g>
     </g>
    </g>
   </g>
   <g id="line2d_41">
    <path d="M 36.589688 606.704957 
L 74.27625 606.704957 
L 74.27625 601.215819 
L 76.788687 601.215819 
L 76.788687 599.386106 
L 79.301125 599.386106 
L 79.301125 599.908882 
L 81.813562 599.908882 
L 81.813562 597.817781 
L 84.326 597.817781 
L 84.326 587.885056 
L 86.838437 587.885056 
L 86.838437 586.578118 
L 89.350875 586.578118 
L 89.350875 577.95233 
L 91.863312 577.95233 
L 91.863312 576.90678 
L 94.37575 576.90678 
L 94.37575 570.110704 
L 96.888187 570.110704 
L 96.888187 560.700754 
L 101.913062 560.700754 
L 101.913062 558.086878 
L 104.4255 558.086878 
L 104.4255 548.154153 
L 106.937937 548.154153 
L 106.937937 535.346164 
L 109.450375 535.346164 
L 109.450375 524.367888 
L 111.962812 524.367888 
L 111.962812 523.583726 
L 114.47525 523.583726 
L 114.47525 510.51435 
L 116.987687 510.51435 
L 116.987687 513.651 
L 119.500125 513.651 
L 119.500125 511.298512 
L 122.012562 511.298512 
L 122.012562 499.797462 
L 124.525 499.797462 
L 124.525 497.183586 
L 127.037437 497.183586 
L 127.037437 487.250861 
L 129.549875 487.250861 
L 129.549875 485.682535 
L 132.062312 485.682535 
L 132.062312 479.147847 
L 134.57475 479.147847 
L 134.57475 496.138036 
L 137.087187 496.138036 
L 137.087187 497.444974 
L 139.599625 497.444974 
L 139.599625 492.739998 
L 142.112062 492.739998 
L 142.112062 501.104399 
L 144.6245 501.104399 
L 144.6245 505.025212 
L 147.136937 505.025212 
L 147.136937 519.140138 
L 149.649375 519.140138 
L 149.649375 520.969851 
L 152.161812 520.969851 
L 152.161812 537.437264 
L 154.67425 537.437264 
L 154.67425 543.18779 
L 157.186687 543.18779 
L 157.186687 551.55219 
L 159.699125 551.55219 
L 159.699125 554.166066 
L 162.211562 554.166066 
L 162.211562 567.496829 
L 164.724 567.496829 
L 164.724 568.280992 
L 167.236437 568.280992 
L 167.236437 581.08898 
L 169.748875 581.08898 
L 169.748875 584.748405 
L 172.261312 584.748405 
L 172.261312 591.805868 
L 174.77375 591.805868 
L 174.77375 588.669218 
L 177.286187 588.669218 
L 177.286187 595.465294 
L 179.798625 595.465294 
L 179.798625 598.601944 
L 182.311062 598.601944 
L 182.311062 601.738594 
L 184.8235 601.738594 
L 184.8235 603.568307 
L 187.335937 603.568307 
L 187.335937 604.875244 
L 189.848375 604.875244 
L 189.848375 604.613857 
L 192.360812 604.613857 
L 192.360812 605.920794 
L 197.385687 605.920794 
L 197.385687 606.44357 
L 199.898125 606.44357 
L 199.898125 606.704957 
L 237.584687 606.704957 
L 237.584687 606.704957 
" clip-path="url(#pc4eb0afa3a)" style="fill: none; stroke: #0000ff; stroke-width: 2.5; stroke-linecap: square"/>
   </g>
   <g id="line2d_42">
    <path d="M 36.589688 606.704957 
L 74.27625 606.704957 
L 74.27625 604.352469 
L 76.788687 604.352469 
L 76.788687 604.875244 
L 79.301125 604.875244 
L 79.301125 603.045532 
L 81.813562 603.045532 
L 81.813562 601.215819 
L 84.326 601.215819 
L 84.326 597.817781 
L 86.838437 597.817781 
L 86.838437 596.772231 
L 89.350875 596.772231 
L 89.350875 591.283093 
L 91.863312 591.283093 
L 91.863312 587.100893 
L 94.37575 587.100893 
L 94.37575 582.395918 
L 96.888187 582.395918 
L 96.888187 580.04343 
L 99.400625 580.04343 
L 99.400625 574.292905 
L 101.913062 574.292905 
L 101.913062 570.633479 
L 104.4255 570.633479 
L 104.4255 564.621566 
L 106.937937 564.621566 
L 106.937937 558.609653 
L 109.450375 558.609653 
L 109.450375 557.825491 
L 111.962812 557.825491 
L 111.962812 537.960039 
L 114.47525 537.960039 
L 114.47525 539.789752 
L 116.987687 539.789752 
L 116.987687 525.674826 
L 119.500125 525.674826 
L 119.500125 521.231238 
L 122.012562 521.231238 
L 122.012562 511.037125 
L 124.525 511.037125 
L 124.525 512.082675 
L 127.037437 512.082675 
L 127.037437 512.866837 
L 129.549875 512.866837 
L 129.549875 504.502437 
L 132.062312 504.502437 
L 132.062312 493.262774 
L 134.57475 493.262774 
L 134.57475 480.454785 
L 137.087187 480.454785 
L 137.087187 488.557798 
L 139.599625 488.557798 
L 139.599625 492.739998 
L 142.112062 492.739998 
L 142.112062 501.365787 
L 144.6245 501.365787 
L 144.6245 486.466698 
L 147.136937 486.466698 
L 147.136937 501.365787 
L 149.649375 501.365787 
L 149.649375 508.946025 
L 154.67425 508.946025 
L 154.67425 512.866837 
L 157.186687 512.866837 
L 157.186687 525.674826 
L 159.699125 525.674826 
L 159.699125 540.835302 
L 162.211562 540.835302 
L 162.211562 537.960039 
L 164.724 537.960039 
L 164.724 557.041328 
L 167.236437 557.041328 
L 167.236437 558.086878 
L 169.748875 558.086878 
L 169.748875 568.019604 
L 172.261312 568.019604 
L 172.261312 567.235442 
L 174.77375 567.235442 
L 174.77375 577.429555 
L 177.286187 577.429555 
L 177.286187 587.623668 
L 179.798625 587.623668 
L 179.798625 590.237543 
L 182.311062 590.237543 
L 182.311062 589.976156 
L 184.8235 589.976156 
L 184.8235 595.203906 
L 187.335937 595.203906 
L 187.335937 598.601944 
L 189.848375 598.601944 
L 189.848375 601.999982 
L 192.360812 601.999982 
L 192.360812 603.306919 
L 194.87325 603.306919 
L 194.87325 604.875244 
L 197.385687 604.875244 
L 197.385687 604.613857 
L 199.898125 604.613857 
L 199.898125 605.398019 
L 202.410562 605.398019 
L 202.410562 606.182182 
L 207.435437 606.182182 
L 207.435437 606.704957 
L 237.584687 606.704957 
L 237.584687 606.704957 
" clip-path="url(#pc4eb0afa3a)" style="fill: none; stroke: #ff0000; stroke-width: 2.5; stroke-linecap: square"/>
   </g>
   <g id="patch_29">
    <path d="M 36.589688 613.082812 
L 36.589688 472.769992 
" style="fill: none; stroke: #000000; stroke-width: 2; stroke-linejoin: miter; stroke-linecap: square"/>
   </g>
   <g id="patch_30">
    <path d="M 237.584687 613.082812 
L 237.584687 472.769992 
" style="fill: none; stroke: #000000; stroke-width: 2; stroke-linejoin: miter; stroke-linecap: square"/>
   </g>
   <g id="patch_31">
    <path d="M 36.589688 613.082812 
L 237.584687 613.082812 
" style="fill: none; stroke: #000000; stroke-width: 2; stroke-linejoin: miter; stroke-linecap: square"/>
   </g>
   <g id="patch_32">
    <path d="M 36.589688 472.769992 
L 237.584687 472.769992 
" style="fill: none; stroke: #000000; stroke-width: 2; stroke-linejoin: miter; stroke-linecap: square"/>
   </g>
   <g id="text_50">
    <!-- Num-Neighbors -->
    <g transform="translate(48.819125 466.769992) scale(0.216 -0.216)">
     <defs>
      <path id="Montserrat-Regular-4e" d="M 4006 4480 
L 4006 845 
L 1120 4480 
L 730 4480 
L 730 0 
L 1203 0 
L 1203 3635 
L 4083 0 
L 4474 0 
L 4474 4480 
L 4006 4480 
z
" transform="scale(0.015625)"/>
      <path id="Montserrat-Regular-2d" d="M 384 1536 
L 2061 1536 
L 2061 1933 
L 384 1933 
L 384 1536 
z
" transform="scale(0.015625)"/>
      <path id="Montserrat-Regular-62" d="M 2368 3392 
C 1830 3392 1370 3162 1088 2726 
L 1088 4749 
L 634 4749 
L 634 0 
L 1069 0 
L 1069 666 
C 1344 211 1811 -32 2368 -32 
C 3328 -32 4045 666 4045 1683 
C 4045 2701 3328 3392 2368 3392 
z
M 2336 371 
C 1619 371 1082 896 1082 1683 
C 1082 2470 1619 2995 2336 2995 
C 3046 2995 3590 2470 3590 1683 
C 3590 896 3046 371 2336 371 
z
" transform="scale(0.015625)"/>
     </defs>
     <use xlink:href="#Montserrat-Regular-4e"/>
     <use xlink:href="#Montserrat-Regular-75" x="81.299988"/>
     <use xlink:href="#Montserrat-Regular-6d" x="148.599976"/>
     <use xlink:href="#Montserrat-Regular-2d" x="254.699966"/>
     <use xlink:href="#Montserrat-Regular-4e" x="292.899963"/>
     <use xlink:href="#Montserrat-Regular-65" x="374.199951"/>
     <use xlink:href="#Montserrat-Regular-69" x="434.599945"/>
     <use xlink:href="#Montserrat-Regular-67" x="461.499939"/>
     <use xlink:href="#Montserrat-Regular-68" x="530.09993"/>
     <use xlink:href="#Montserrat-Regular-62" x="597.799911"/>
     <use xlink:href="#Montserrat-Regular-6f" x="665.599899"/>
     <use xlink:href="#Montserrat-Regular-72" x="728.299896"/>
     <use xlink:href="#Montserrat-Regular-73" x="768.399887"/>
    </g>
   </g>
  </g>
  <g id="axes_7">
   <g id="patch_33">
    <path d="M 292.064687 613.082812 
L 493.059687 613.082812 
L 493.059687 472.769992 
L 292.064687 472.769992 
L 292.064687 613.082812 
z
" style="fill: none"/>
   </g>
   <g id="matplotlib.axis_13">
    <g id="xtick_22">
     <g id="line2d_43">
      <g>
       <use xlink:href="#mbbbd170964" x="317.189062" y="613.082812" style="stroke: #000000; stroke-width: 2"/>
      </g>
     </g>
     <g id="text_51">
      <!-- −3 -->
      <g transform="translate(306.9375 633.939375) scale(0.18 -0.18)">
       <use xlink:href="#Montserrat-Regular-2212"/>
       <use xlink:href="#Montserrat-Regular-33" x="57.499985"/>
      </g>
     </g>
    </g>
    <g id="xtick_23">
     <g id="line2d_44">
      <g>
       <use xlink:href="#mbbbd170964" x="392.562187" y="613.082812" style="stroke: #000000; stroke-width: 2"/>
      </g>
     </g>
     <g id="text_52">
      <!-- 0 -->
      <g transform="translate(386.603906 633.939375) scale(0.18 -0.18)">
       <use xlink:href="#Montserrat-Regular-30"/>
      </g>
     </g>
    </g>
    <g id="xtick_24">
     <g id="line2d_45">
      <g>
       <use xlink:href="#mbbbd170964" x="467.935313" y="613.082812" style="stroke: #000000; stroke-width: 2"/>
      </g>
     </g>
     <g id="text_53">
      <!-- 3 -->
      <g transform="translate(462.85875 633.939375) scale(0.18 -0.18)">
       <use xlink:href="#Montserrat-Regular-33"/>
      </g>
     </g>
    </g>
   </g>
   <g id="matplotlib.axis_14">
    <g id="ytick_22">
     <g id="line2d_46">
      <g>
       <use xlink:href="#m5b44f1d58b" x="292.064687" y="606.704957" style="stroke: #000000; stroke-width: 2"/>
      </g>
     </g>
     <g id="text_54">
      <!-- 0.0 -->
      <g transform="translate(256.915 613.383238) scale(0.18 -0.18)">
       <use xlink:href="#Montserrat-Regular-30"/>
       <use xlink:href="#Montserrat-Regular-2e" x="66.199997"/>
       <use xlink:href="#Montserrat-Regular-30" x="87.399994"/>
      </g>
     </g>
    </g>
    <g id="ytick_23">
     <g id="line2d_47">
      <g>
       <use xlink:href="#m5b44f1d58b" x="292.064687" y="565.15541" style="stroke: #000000; stroke-width: 2"/>
      </g>
     </g>
     <g id="text_55">
      <!-- 0.2 -->
      <g transform="translate(258.608125 571.833691) scale(0.18 -0.18)">
       <use xlink:href="#Montserrat-Regular-30"/>
       <use xlink:href="#Montserrat-Regular-2e" x="66.199997"/>
       <use xlink:href="#Montserrat-Regular-32" x="87.399994"/>
      </g>
     </g>
    </g>
    <g id="ytick_24">
     <g id="line2d_48">
      <g>
       <use xlink:href="#m5b44f1d58b" x="292.064687" y="523.605863" style="stroke: #000000; stroke-width: 2"/>
      </g>
     </g>
     <g id="text_56">
      <!-- 0.4 -->
      <g transform="translate(256.934687 530.284144) scale(0.18 -0.18)">
       <use xlink:href="#Montserrat-Regular-30"/>
       <use xlink:href="#Montserrat-Regular-2e" x="66.199997"/>
       <use xlink:href="#Montserrat-Regular-34" x="87.399994"/>
      </g>
     </g>
    </g>
   </g>
   <g id="line2d_49">
    <path d="M 292.064687 606.704957 
L 324.726375 606.704957 
L 324.726375 606.289462 
L 332.263688 606.289462 
L 332.263688 606.497209 
L 334.776125 606.497209 
L 334.776125 605.666218 
L 337.288563 605.666218 
L 337.288563 606.081714 
L 339.801 606.081714 
L 339.801 605.873966 
L 342.313437 605.873966 
L 342.313437 606.289462 
L 344.825875 606.289462 
L 344.825875 604.419732 
L 347.338312 604.419732 
L 347.338312 605.666218 
L 352.363187 605.666218 
L 352.363187 602.965498 
L 357.388062 602.965498 
L 357.388062 596.733066 
L 359.9005 596.733066 
L 359.9005 591.123877 
L 362.412937 591.123877 
L 362.412937 587.17667 
L 364.925375 587.17667 
L 364.925375 578.86676 
L 367.437813 578.86676 
L 367.437813 570.349103 
L 369.95025 570.349103 
L 369.95025 554.14478 
L 372.462688 554.14478 
L 372.462688 540.848925 
L 374.975125 540.848925 
L 374.975125 528.176313 
L 377.487563 528.176313 
L 377.487563 519.450908 
L 380 519.450908 
L 380 506.155053 
L 382.512437 506.155053 
L 382.512437 491.820459 
L 385.024875 491.820459 
L 385.024875 480.394334 
L 387.537312 480.394334 
L 387.537312 493.482441 
L 390.04975 493.482441 
L 390.04975 483.718298 
L 392.562187 483.718298 
L 392.562187 479.147847 
L 395.074625 479.147847 
L 395.074625 492.65145 
L 397.587063 492.65145 
L 397.587063 500.338116 
L 400.0995 500.338116 
L 400.0995 510.725503 
L 402.611938 510.725503 
L 402.611938 516.334692 
L 405.124375 516.334692 
L 405.124375 524.644602 
L 407.636813 524.644602 
L 407.636813 538.5637 
L 410.14925 538.5637 
L 410.14925 550.405321 
L 412.661688 550.405321 
L 412.661688 559.961717 
L 415.174125 559.961717 
L 415.174125 564.947662 
L 417.686562 564.947662 
L 417.686562 572.634328 
L 420.199 572.634328 
L 420.199 577.828022 
L 422.711437 577.828022 
L 422.711437 585.514688 
L 425.223875 585.514688 
L 425.223875 590.085138 
L 427.736312 590.085138 
L 427.736312 589.461895 
L 430.24875 589.461895 
L 430.24875 591.954868 
L 432.761188 591.954868 
L 432.761188 595.278832 
L 435.273625 595.278832 
L 435.273625 597.356309 
L 437.786063 597.356309 
L 437.786063 597.148561 
L 440.2985 597.148561 
L 440.2985 598.602795 
L 442.810938 598.602795 
L 442.810938 600.264777 
L 445.323375 600.264777 
L 445.323375 601.719011 
L 447.835812 601.719011 
L 447.835812 598.810543 
L 450.34825 598.810543 
L 450.34825 601.303516 
L 452.860687 601.303516 
L 452.860687 601.719011 
L 455.373125 601.719011 
L 455.373125 601.511264 
L 457.885562 601.511264 
L 457.885562 602.550002 
L 460.398 602.550002 
L 460.398 602.342255 
L 465.422875 602.342255 
L 465.422875 605.042975 
L 467.935313 605.042975 
L 467.935313 604.62748 
L 470.44775 604.62748 
L 470.44775 604.211984 
L 472.960188 604.211984 
L 472.960188 604.419732 
L 475.472625 604.419732 
L 475.472625 604.004236 
L 480.4975 604.004236 
L 480.4975 604.835227 
L 485.522375 604.835227 
L 485.522375 605.250723 
L 488.034813 605.250723 
L 488.034813 605.458471 
L 490.54725 605.458471 
L 490.54725 605.666218 
L 493.059687 605.666218 
L 493.059687 605.666218 
" clip-path="url(#p1817d06814)" style="fill: none; stroke: #0000ff; stroke-width: 2.5; stroke-linecap: square"/>
   </g>
   <g id="line2d_50">
    <path d="M 292.064687 606.704957 
L 322.213937 606.704957 
L 322.213937 606.289462 
L 327.238812 606.289462 
L 327.238812 605.873966 
L 329.75125 605.873966 
L 329.75125 606.704957 
L 332.263688 606.704957 
L 332.263688 606.081714 
L 337.288563 606.081714 
L 337.288563 605.873966 
L 339.801 605.873966 
L 339.801 605.042975 
L 342.313437 605.042975 
L 342.313437 605.458471 
L 344.825875 605.458471 
L 344.825875 605.042975 
L 347.338312 605.042975 
L 347.338312 604.835227 
L 349.85075 604.835227 
L 349.85075 602.965498 
L 352.363187 602.965498 
L 352.363187 601.095768 
L 354.875625 601.095768 
L 354.875625 594.863336 
L 357.388062 594.863336 
L 357.388062 584.683697 
L 359.9005 584.683697 
L 359.9005 579.697751 
L 362.412937 579.697751 
L 362.412937 574.29631 
L 364.925375 574.29631 
L 364.925375 557.468744 
L 367.437813 557.468744 
L 367.437813 539.186943 
L 369.95025 539.186943 
L 369.95025 532.539015 
L 372.462688 532.539015 
L 372.462688 514.67271 
L 374.975125 514.67271 
L 374.975125 509.479017 
L 377.487563 509.479017 
L 377.487563 497.845144 
L 380 497.845144 
L 380 481.433073 
L 382.512437 481.433073 
L 382.512437 487.665505 
L 385.024875 487.665505 
L 385.024875 484.549289 
L 387.537312 484.549289 
L 387.537312 483.718298 
L 390.04975 483.718298 
L 390.04975 488.704243 
L 392.562187 488.704243 
L 392.562187 494.936675 
L 395.074625 494.936675 
L 395.074625 511.140999 
L 397.587063 511.140999 
L 397.587063 514.049467 
L 400.0995 514.049467 
L 400.0995 524.229106 
L 402.611938 524.229106 
L 402.611938 533.162259 
L 405.124375 533.162259 
L 405.124375 547.912348 
L 407.636813 547.912348 
L 407.636813 553.313789 
L 410.14925 553.313789 
L 410.14925 567.232887 
L 412.661688 567.232887 
L 412.661688 569.933608 
L 415.174125 569.933608 
L 415.174125 577.204779 
L 417.686562 577.204779 
L 417.686562 578.451265 
L 420.199 578.451265 
L 420.199 584.683697 
L 422.711437 584.683697 
L 422.711437 589.669643 
L 425.223875 589.669643 
L 425.223875 591.123877 
L 427.736312 591.123877 
L 427.736312 594.240093 
L 430.24875 594.240093 
L 430.24875 596.109823 
L 432.761188 596.109823 
L 432.761188 596.31757 
L 435.273625 596.31757 
L 435.273625 596.525318 
L 437.786063 596.525318 
L 437.786063 600.680273 
L 440.2985 600.680273 
L 440.2985 601.511264 
L 442.810938 601.511264 
L 442.810938 601.095768 
L 445.323375 601.095768 
L 445.323375 600.472525 
L 447.835812 600.472525 
L 447.835812 604.211984 
L 450.34825 604.211984 
L 450.34825 601.926759 
L 452.860687 601.926759 
L 452.860687 603.588741 
L 455.373125 603.588741 
L 455.373125 604.62748 
L 457.885562 604.62748 
L 457.885562 603.796489 
L 460.398 603.796489 
L 460.398 603.173246 
L 462.910438 603.173246 
L 462.910438 605.042975 
L 465.422875 605.042975 
L 465.422875 604.62748 
L 467.935313 604.62748 
L 467.935313 604.835227 
L 470.44775 604.835227 
L 470.44775 605.458471 
L 475.472625 605.458471 
L 475.472625 606.081714 
L 477.985063 606.081714 
L 477.985063 605.458471 
L 480.4975 605.458471 
L 480.4975 605.042975 
L 483.009937 605.042975 
L 483.009937 605.458471 
L 488.034813 605.458471 
L 488.034813 605.042975 
L 490.54725 605.042975 
L 490.54725 606.289462 
L 493.059687 606.289462 
L 493.059687 606.289462 
" clip-path="url(#p1817d06814)" style="fill: none; stroke: #ff0000; stroke-width: 2.5; stroke-linecap: square"/>
   </g>
   <g id="patch_34">
    <path d="M 292.064687 613.082812 
L 292.064687 472.769992 
" style="fill: none; stroke: #000000; stroke-width: 2; stroke-linejoin: miter; stroke-linecap: square"/>
   </g>
   <g id="patch_35">
    <path d="M 493.059687 613.082812 
L 493.059687 472.769992 
" style="fill: none; stroke: #000000; stroke-width: 2; stroke-linejoin: miter; stroke-linecap: square"/>
   </g>
   <g id="patch_36">
    <path d="M 292.064687 613.082812 
L 493.059687 613.082812 
" style="fill: none; stroke: #000000; stroke-width: 2; stroke-linejoin: miter; stroke-linecap: square"/>
   </g>
   <g id="patch_37">
    <path d="M 292.064687 472.769992 
L 493.059687 472.769992 
" style="fill: none; stroke: #000000; stroke-width: 2; stroke-linejoin: miter; stroke-linecap: square"/>
   </g>
   <g id="text_57">
    <!-- NN-Distance -->
    <g transform="translate(323.09625 466.769992) scale(0.216 -0.216)">
     <defs>
      <path id="Montserrat-Regular-44" d="M 730 0 
L 2554 0 
C 3987 0 4954 922 4954 2240 
C 4954 3558 3987 4480 2554 4480 
L 730 4480 
L 730 0 
z
M 1203 410 
L 1203 4070 
L 2528 4070 
C 3718 4070 4486 3315 4486 2240 
C 4486 1165 3718 410 2528 410 
L 1203 410 
z
" transform="scale(0.015625)"/>
     </defs>
     <use xlink:href="#Montserrat-Regular-4e"/>
     <use xlink:href="#Montserrat-Regular-4e" x="81.299988"/>
     <use xlink:href="#Montserrat-Regular-2d" x="162.599976"/>
     <use xlink:href="#Montserrat-Regular-44" x="200.799973"/>
     <use xlink:href="#Montserrat-Regular-69" x="283.399963"/>
     <use xlink:href="#Montserrat-Regular-73" x="310.299957"/>
     <use xlink:href="#Montserrat-Regular-74" x="359.199951"/>
     <use xlink:href="#Montserrat-Regular-61" x="399.799942"/>
     <use xlink:href="#Montserrat-Regular-6e" x="458.799927"/>
     <use xlink:href="#Montserrat-Regular-63" x="526.499908"/>
     <use xlink:href="#Montserrat-Regular-65" x="582.799896"/>
    </g>
   </g>
  </g>
 </g>
 <defs>
  <clipPath id="p30f69733dc">
   <rect x="36.589688" y="65.862812" width="200.995" height="140.312821"/>
  </clipPath>
  <clipPath id="pe71fa29c14">
   <rect x="292.064687" y="65.862812" width="200.995" height="140.312821"/>
  </clipPath>
  <clipPath id="pb76bfa0e6e">
   <rect x="36.589688" y="269.316402" width="200.995" height="140.312821"/>
  </clipPath>
  <clipPath id="p16e4416c03">
   <rect x="292.064687" y="269.316402" width="200.995" height="140.312821"/>
  </clipPath>
  <clipPath id="pc4eb0afa3a">
   <rect x="36.589688" y="472.769992" width="200.995" height="140.312821"/>
  </clipPath>
  <clipPath id="p1817d06814">
   <rect x="292.064687" y="472.769992" width="200.995" height="140.312821"/>
  </clipPath>
 </defs>
</svg>
