<?xml version="1.0" encoding="utf-8" standalone="no"?>
<!DOCTYPE svg PUBLIC "-//W3C//DTD SVG 1.1//EN"
  "http://www.w3.org/Graphics/SVG/1.1/DTD/svg11.dtd">
<svg xmlns:xlink="http://www.w3.org/1999/xlink" width="505.614687pt" height="638.8725pt" viewBox="0 0 505.614687 638.8725" xmlns="http://www.w3.org/2000/svg" version="1.1">
 <metadata>
  <rdf:RDF xmlns:dc="http://purl.org/dc/elements/1.1/" xmlns:cc="http://creativecommons.org/ns#" xmlns:rdf="http://www.w3.org/1999/02/22-rdf-syntax-ns#">
   <cc:Work>
    <dc:type rdf:resource="http://purl.org/dc/dcmitype/StillImage"/>
    <dc:date>2022-10-05T13:52:12.551821</dc:date>
    <dc:format>image/svg+xml</dc:format>
    <dc:creator>
     <cc:Agent>
      <dc:title>Matplotlib v3.6.0, https://matplotlib.org/</dc:title>
     </cc:Agent>
    </dc:creator>
   </cc:Work>
  </rdf:RDF>
 </metadata>
 <defs>
  <style type="text/css">*{stroke-linejoin: round; stroke-linecap: butt}</style>
 </defs>
 <g id="figure_1">
  <g id="patch_1">
   <path d="M 0 638.8725 
L 505.614687 638.8725 
L 505.614687 0 
L 0 0 
L 0 638.8725 
z
" style="fill: none"/>
  </g>
  <g id="axes_1">
   <g id="patch_2">
    <path d="M 36.589688 613.082812 
L 493.059687 613.082812 
L 493.059687 65.862812 
L 36.589688 65.862812 
L 36.589688 613.082812 
z
" style="fill: none"/>
   </g>
   <g id="matplotlib.axis_1">
    <g id="xtick_1">
     <g id="text_1">
      <!-- 0.0 -->
      <g style="fill: #ffffff" transform="translate(22.764844 633.439375) scale(0.18 -0.18)">
       <defs>
        <path id="Montserrat-Regular-30" d="M 2118 -38 
C 3155 -38 3910 813 3910 2240 
C 3910 3667 3155 4518 2118 4518 
C 1082 4518 333 3667 333 2240 
C 333 813 1082 -38 2118 -38 
z
M 2118 384 
C 1338 384 800 1043 800 2240 
C 800 3437 1338 4096 2118 4096 
C 2899 4096 3437 3437 3437 2240 
C 3437 1043 2899 384 2118 384 
z
" transform="scale(0.015625)"/>
        <path id="Montserrat-Regular-2e" d="M 678 -32 
C 864 -32 1024 122 1024 320 
C 1024 518 864 666 678 666 
C 493 666 339 518 339 320 
C 339 122 493 -32 678 -32 
z
" transform="scale(0.015625)"/>
       </defs>
       <use xlink:href="#Montserrat-Regular-30"/>
       <use xlink:href="#Montserrat-Regular-2e" x="66.199997"/>
       <use xlink:href="#Montserrat-Regular-30" x="87.399994"/>
      </g>
     </g>
    </g>
    <g id="xtick_2">
     <g id="text_2">
      <!-- 0.2 -->
      <g style="fill: #ffffff" transform="translate(114.905406 633.439375) scale(0.18 -0.18)">
       <defs>
        <path id="Montserrat-Regular-32" d="M 928 410 
L 2451 1907 
C 3053 2496 3187 2880 3187 3309 
C 3187 4058 2611 4518 1702 4518 
C 1018 4518 461 4288 115 3878 
L 442 3597 
C 736 3936 1139 4096 1664 4096 
C 2349 4096 2714 3776 2714 3258 
C 2714 2950 2618 2650 2112 2150 
L 250 326 
L 250 0 
L 3392 0 
L 3392 410 
L 928 410 
z
" transform="scale(0.015625)"/>
       </defs>
       <use xlink:href="#Montserrat-Regular-30"/>
       <use xlink:href="#Montserrat-Regular-2e" x="66.199997"/>
       <use xlink:href="#Montserrat-Regular-32" x="87.399994"/>
      </g>
     </g>
    </g>
    <g id="xtick_3">
     <g id="text_3">
      <!-- 0.4 -->
      <g style="fill: #ffffff" transform="translate(205.362687 633.439375) scale(0.18 -0.18)">
       <defs>
        <path id="Montserrat-Regular-34" d="M 4141 1587 
L 3245 1587 
L 3245 2624 
L 2797 2624 
L 2797 1587 
L 851 1587 
L 3142 4480 
L 2630 4480 
L 256 1510 
L 256 1178 
L 2784 1178 
L 2784 0 
L 3245 0 
L 3245 1178 
L 4141 1178 
L 4141 1587 
z
" transform="scale(0.015625)"/>
       </defs>
       <use xlink:href="#Montserrat-Regular-30"/>
       <use xlink:href="#Montserrat-Regular-2e" x="66.199997"/>
       <use xlink:href="#Montserrat-Regular-34" x="87.399994"/>
      </g>
     </g>
    </g>
    <g id="xtick_4">
     <g id="text_4">
      <!-- 0.6 -->
      <g style="fill: #ffffff" transform="translate(297.123563 633.439375) scale(0.18 -0.18)">
       <defs>
        <path id="Montserrat-Regular-36" d="M 2189 2682 
C 1568 2682 1043 2406 819 1914 
C 806 2048 800 2176 800 2278 
C 800 3494 1421 4115 2387 4115 
C 2720 4115 3027 4058 3258 3904 
L 3443 4275 
C 3162 4448 2784 4518 2381 4518 
C 1165 4518 333 3725 333 2202 
C 333 787 979 -38 2170 -38 
C 3040 -38 3699 499 3699 1338 
C 3699 2157 3078 2682 2189 2682 
z
M 2150 352 
C 1376 352 966 819 966 1312 
C 966 1869 1434 2291 2118 2291 
C 2810 2291 3245 1914 3245 1325 
C 3245 730 2797 352 2150 352 
z
" transform="scale(0.015625)"/>
       </defs>
       <use xlink:href="#Montserrat-Regular-30"/>
       <use xlink:href="#Montserrat-Regular-2e" x="66.199997"/>
       <use xlink:href="#Montserrat-Regular-36" x="87.399994"/>
      </g>
     </g>
    </g>
    <g id="xtick_5">
     <g id="text_5">
      <!-- 0.8 -->
      <g style="fill: #ffffff" transform="translate(388.157406 633.439375) scale(0.18 -0.18)">
       <defs>
        <path id="Montserrat-Regular-38" d="M 2899 2349 
C 3360 2528 3616 2867 3616 3334 
C 3616 4064 2982 4518 2035 4518 
C 1088 4518 467 4064 467 3334 
C 467 2867 717 2528 1171 2349 
C 614 2163 307 1786 307 1248 
C 307 454 960 -38 2035 -38 
C 3104 -38 3776 454 3776 1248 
C 3776 1779 3462 2163 2899 2349 
z
M 928 3322 
C 928 3821 1357 4128 2035 4128 
C 2707 4128 3149 3821 3149 3315 
C 3149 2829 2733 2515 2035 2515 
C 1338 2515 928 2829 928 3322 
z
M 2035 352 
C 1242 352 774 698 774 1254 
C 774 1805 1242 2150 2035 2150 
C 2829 2150 3302 1805 3302 1254 
C 3302 698 2829 352 2035 352 
z
" transform="scale(0.015625)"/>
       </defs>
       <use xlink:href="#Montserrat-Regular-30"/>
       <use xlink:href="#Montserrat-Regular-2e" x="66.199997"/>
       <use xlink:href="#Montserrat-Regular-38" x="87.399994"/>
      </g>
     </g>
    </g>
    <g id="xtick_6">
     <g id="text_6">
      <!-- 1.0 -->
      <g style="fill: #ffffff" transform="translate(481.944687 633.439375) scale(0.18 -0.18)">
       <defs>
        <path id="Montserrat-Regular-31" d="M 58 4480 
L 58 4070 
L 1114 4070 
L 1114 0 
L 1574 0 
L 1574 4480 
L 58 4480 
z
" transform="scale(0.015625)"/>
       </defs>
       <use xlink:href="#Montserrat-Regular-31"/>
       <use xlink:href="#Montserrat-Regular-2e" x="36.099991"/>
       <use xlink:href="#Montserrat-Regular-30" x="57.299988"/>
      </g>
     </g>
    </g>
   </g>
   <g id="matplotlib.axis_2">
    <g id="ytick_1">
     <g id="text_7">
      <!-- 0.0 -->
      <g style="fill: #ffffff" transform="translate(1.94 619.761094) scale(0.18 -0.18)">
       <use xlink:href="#Montserrat-Regular-30"/>
       <use xlink:href="#Montserrat-Regular-2e" x="66.199997"/>
       <use xlink:href="#Montserrat-Regular-30" x="87.399994"/>
      </g>
     </g>
    </g>
    <g id="ytick_2">
     <g id="text_8">
      <!-- 0.2 -->
      <g style="fill: #ffffff" transform="translate(3.633125 510.317094) scale(0.18 -0.18)">
       <use xlink:href="#Montserrat-Regular-30"/>
       <use xlink:href="#Montserrat-Regular-2e" x="66.199997"/>
       <use xlink:href="#Montserrat-Regular-32" x="87.399994"/>
      </g>
     </g>
    </g>
    <g id="ytick_3">
     <g id="text_9">
      <!-- 0.4 -->
      <g style="fill: #ffffff" transform="translate(1.959688 400.873094) scale(0.18 -0.18)">
       <use xlink:href="#Montserrat-Regular-30"/>
       <use xlink:href="#Montserrat-Regular-2e" x="66.199997"/>
       <use xlink:href="#Montserrat-Regular-34" x="87.399994"/>
      </g>
     </g>
    </g>
    <g id="ytick_4">
     <g id="text_10">
      <!-- 0.6 -->
      <g style="fill: #ffffff" transform="translate(2.893438 291.429094) scale(0.18 -0.18)">
       <use xlink:href="#Montserrat-Regular-30"/>
       <use xlink:href="#Montserrat-Regular-2e" x="66.199997"/>
       <use xlink:href="#Montserrat-Regular-36" x="87.399994"/>
      </g>
     </g>
    </g>
    <g id="ytick_5">
     <g id="text_11">
      <!-- 0.8 -->
      <g style="fill: #ffffff" transform="translate(2.373125 181.985094) scale(0.18 -0.18)">
       <use xlink:href="#Montserrat-Regular-30"/>
       <use xlink:href="#Montserrat-Regular-2e" x="66.199997"/>
       <use xlink:href="#Montserrat-Regular-38" x="87.399994"/>
      </g>
     </g>
    </g>
    <g id="ytick_6">
     <g id="text_12">
      <!-- 1.0 -->
      <g style="fill: #ffffff" transform="translate(7.359688 72.541094) scale(0.18 -0.18)">
       <use xlink:href="#Montserrat-Regular-31"/>
       <use xlink:href="#Montserrat-Regular-2e" x="36.099991"/>
       <use xlink:href="#Montserrat-Regular-30" x="57.299988"/>
      </g>
     </g>
    </g>
   </g>
   <g id="patch_3">
    <path d="M 36.589688 613.082812 
L 36.589688 65.862812 
" style="fill: none"/>
   </g>
   <g id="patch_4">
    <path d="M 493.059687 613.082812 
L 493.059687 65.862812 
" style="fill: none"/>
   </g>
   <g id="patch_5">
    <path d="M 36.589688 613.082812 
L 493.059687 613.082812 
" style="fill: none"/>
   </g>
   <g id="patch_6">
    <path d="M 36.589688 65.862812 
L 493.059687 65.862812 
" style="fill: none"/>
   </g>
   <g id="text_13">
    <!-- Push forward to group means  -->
    <g transform="translate(65.910469 20.862812) scale(0.26 -0.26)">
     <defs>
      <path id="Montserrat-Regular-50" d="M 2406 4480 
L 730 4480 
L 730 0 
L 1203 0 
L 1203 1414 
L 2406 1414 
C 3546 1414 4237 1990 4237 2944 
C 4237 3904 3546 4480 2406 4480 
z
M 2394 1830 
L 1203 1830 
L 1203 4070 
L 2394 4070 
C 3290 4070 3763 3661 3763 2944 
C 3763 2240 3290 1830 2394 1830 
z
" transform="scale(0.015625)"/>
      <path id="Montserrat-Regular-75" d="M 3213 3366 
L 3213 1600 
C 3213 832 2771 378 2067 378 
C 1427 378 1056 742 1056 1459 
L 1056 3366 
L 602 3366 
L 602 1414 
C 602 448 1165 -32 2022 -32 
C 2560 -32 2995 205 3232 614 
L 3232 0 
L 3667 0 
L 3667 3366 
L 3213 3366 
z
" transform="scale(0.015625)"/>
      <path id="Montserrat-Regular-73" d="M 1536 -32 
C 2413 -32 2925 346 2925 928 
C 2925 2221 742 1536 742 2445 
C 742 2765 1011 3002 1619 3002 
C 1965 3002 2317 2918 2611 2714 
L 2810 3078 
C 2528 3270 2054 3392 1619 3392 
C 762 3392 288 2982 288 2432 
C 288 1101 2470 1792 2470 915 
C 2470 582 2208 365 1568 365 
C 1094 365 640 531 371 742 
L 166 384 
C 442 147 979 -32 1536 -32 
z
" transform="scale(0.015625)"/>
      <path id="Montserrat-Regular-68" d="M 2349 3392 
C 1779 3392 1338 3168 1088 2778 
L 1088 4749 
L 634 4749 
L 634 0 
L 1088 0 
L 1088 1766 
C 1088 2534 1542 2982 2266 2982 
C 2906 2982 3277 2618 3277 1907 
L 3277 0 
L 3731 0 
L 3731 1952 
C 3731 2918 3168 3392 2349 3392 
z
" transform="scale(0.015625)"/>
      <path id="Montserrat-Regular-20" transform="scale(0.015625)"/>
      <path id="Montserrat-Regular-66" d="M 1747 4397 
C 1939 4397 2118 4339 2246 4230 
L 2400 4570 
C 2234 4710 1978 4781 1728 4781 
C 1069 4781 710 4384 710 3782 
L 710 3366 
L 109 3366 
L 109 2982 
L 710 2982 
L 710 0 
L 1165 0 
L 1165 2982 
L 2189 2982 
L 2189 3366 
L 1152 3366 
L 1152 3763 
C 1152 4179 1357 4397 1747 4397 
z
" transform="scale(0.015625)"/>
      <path id="Montserrat-Regular-6f" d="M 2010 -32 
C 2995 -32 3718 685 3718 1683 
C 3718 2682 2995 3392 2010 3392 
C 1024 3392 294 2682 294 1683 
C 294 685 1024 -32 2010 -32 
z
M 2010 371 
C 1293 371 755 896 755 1683 
C 755 2470 1293 2995 2010 2995 
C 2726 2995 3258 2470 3258 1683 
C 3258 896 2726 371 2010 371 
z
" transform="scale(0.015625)"/>
      <path id="Montserrat-Regular-72" d="M 1069 2707 
L 1069 3366 
L 634 3366 
L 634 0 
L 1088 0 
L 1088 1715 
C 1088 2509 1517 2957 2221 2957 
C 2253 2957 2291 2950 2330 2950 
L 2330 3392 
C 1709 3392 1280 3155 1069 2707 
z
" transform="scale(0.015625)"/>
      <path id="Montserrat-Regular-77" d="M 5158 3366 
L 4090 506 
L 3014 3366 
L 2624 3366 
L 1542 506 
L 486 3366 
L 51 3366 
L 1318 0 
L 1747 0 
L 2810 2758 
L 3872 0 
L 4301 0 
L 5574 3366 
L 5158 3366 
z
" transform="scale(0.015625)"/>
      <path id="Montserrat-Regular-61" d="M 1811 3392 
C 1280 3392 781 3226 442 2938 
L 646 2598 
C 922 2842 1331 2995 1766 2995 
C 2394 2995 2720 2682 2720 2106 
L 2720 1901 
L 1651 1901 
C 685 1901 352 1466 352 947 
C 352 365 819 -32 1581 -32 
C 2138 -32 2534 179 2739 525 
L 2739 0 
L 3174 0 
L 3174 2086 
C 3174 2957 2682 3392 1811 3392 
z
M 1651 326 
C 1114 326 800 570 800 960 
C 800 1306 1011 1562 1664 1562 
L 2720 1562 
L 2720 1011 
C 2541 570 2163 326 1651 326 
z
" transform="scale(0.015625)"/>
      <path id="Montserrat-Regular-64" d="M 3251 4749 
L 3251 2726 
C 2970 3162 2509 3392 1971 3392 
C 1011 3392 294 2701 294 1683 
C 294 666 1011 -32 1971 -32 
C 2528 -32 2995 211 3270 666 
L 3270 0 
L 3706 0 
L 3706 4749 
L 3251 4749 
z
M 2010 371 
C 1293 371 755 896 755 1683 
C 755 2470 1293 2995 2010 2995 
C 2720 2995 3258 2470 3258 1683 
C 3258 896 2720 371 2010 371 
z
" transform="scale(0.015625)"/>
      <path id="Montserrat-Regular-74" d="M 2246 531 
C 2118 416 1933 358 1747 358 
C 1370 358 1165 576 1165 973 
L 1165 2982 
L 2189 2982 
L 2189 3366 
L 1165 3366 
L 1165 4102 
L 710 4102 
L 710 3366 
L 109 3366 
L 109 2982 
L 710 2982 
L 710 947 
C 710 326 1062 -32 1696 -32 
C 1958 -32 2227 45 2406 205 
L 2246 531 
z
" transform="scale(0.015625)"/>
      <path id="Montserrat-Regular-67" d="M 3315 3366 
L 3315 2720 
C 3034 3162 2547 3392 1984 3392 
C 1024 3392 294 2733 294 1766 
C 294 800 1024 128 1984 128 
C 2534 128 3014 352 3296 781 
L 3296 352 
C 3296 -480 2906 -870 2054 -870 
C 1536 -870 1050 -698 730 -410 
L 499 -755 
C 851 -1088 1453 -1274 2067 -1274 
C 3181 -1274 3750 -749 3750 410 
L 3750 3366 
L 3315 3366 
z
M 2029 531 
C 1286 531 755 1037 755 1766 
C 755 2496 1286 2995 2029 2995 
C 2771 2995 3309 2496 3309 1766 
C 3309 1037 2771 531 2029 531 
z
" transform="scale(0.015625)"/>
      <path id="Montserrat-Regular-70" d="M 2368 3392 
C 1811 3392 1344 3149 1069 2701 
L 1069 3366 
L 634 3366 
L 634 -1242 
L 1088 -1242 
L 1088 634 
C 1370 198 1830 -32 2368 -32 
C 3328 -32 4045 659 4045 1683 
C 4045 2701 3328 3392 2368 3392 
z
M 2336 371 
C 1619 371 1082 896 1082 1683 
C 1082 2464 1619 2995 2336 2995 
C 3046 2995 3590 2464 3590 1683 
C 3590 896 3046 371 2336 371 
z
" transform="scale(0.015625)"/>
      <path id="Montserrat-Regular-6d" d="M 4832 3392 
C 4224 3392 3744 3117 3501 2682 
C 3296 3155 2861 3392 2304 3392 
C 1741 3392 1306 3155 1069 2752 
L 1069 3366 
L 634 3366 
L 634 0 
L 1088 0 
L 1088 1766 
C 1088 2534 1530 2982 2214 2982 
C 2829 2982 3187 2618 3187 1907 
L 3187 0 
L 3642 0 
L 3642 1766 
C 3642 2534 4077 2982 4768 2982 
C 5376 2982 5734 2618 5734 1907 
L 5734 0 
L 6189 0 
L 6189 1952 
C 6189 2918 5651 3392 4832 3392 
z
" transform="scale(0.015625)"/>
      <path id="Montserrat-Regular-65" d="M 3571 1683 
C 3571 2694 2886 3392 1939 3392 
C 992 3392 294 2682 294 1683 
C 294 685 1011 -32 2061 -32 
C 2592 -32 3059 160 3360 518 
L 3104 813 
C 2848 518 2483 371 2074 371 
C 1338 371 800 838 749 1542 
L 3565 1542 
C 3565 1594 3571 1645 3571 1683 
z
M 1939 3002 
C 2598 3002 3078 2541 3136 1882 
L 749 1882 
C 806 2541 1286 3002 1939 3002 
z
" transform="scale(0.015625)"/>
      <path id="Montserrat-Regular-6e" d="M 2349 3392 
C 1766 3392 1312 3155 1069 2746 
L 1069 3366 
L 634 3366 
L 634 0 
L 1088 0 
L 1088 1766 
C 1088 2534 1542 2982 2266 2982 
C 2906 2982 3277 2618 3277 1907 
L 3277 0 
L 3731 0 
L 3731 1952 
C 3731 2918 3168 3392 2349 3392 
z
" transform="scale(0.015625)"/>
     </defs>
     <use xlink:href="#Montserrat-Regular-50"/>
     <use xlink:href="#Montserrat-Regular-75" x="71.799988"/>
     <use xlink:href="#Montserrat-Regular-73" x="139.099976"/>
     <use xlink:href="#Montserrat-Regular-68" x="187.999969"/>
     <use xlink:href="#Montserrat-Regular-20" x="255.699951"/>
     <use xlink:href="#Montserrat-Regular-66" x="281.899948"/>
     <use xlink:href="#Montserrat-Regular-6f" x="315.799942"/>
     <use xlink:href="#Montserrat-Regular-72" x="378.499939"/>
     <use xlink:href="#Montserrat-Regular-77" x="418.59993"/>
     <use xlink:href="#Montserrat-Regular-61" x="506.499924"/>
     <use xlink:href="#Montserrat-Regular-72" x="565.499908"/>
     <use xlink:href="#Montserrat-Regular-64" x="605.599899"/>
     <use xlink:href="#Montserrat-Regular-20" x="673.399887"/>
     <use xlink:href="#Montserrat-Regular-74" x="699.599884"/>
     <use xlink:href="#Montserrat-Regular-6f" x="740.199875"/>
     <use xlink:href="#Montserrat-Regular-20" x="802.899872"/>
     <use xlink:href="#Montserrat-Regular-67" x="829.099869"/>
     <use xlink:href="#Montserrat-Regular-72" x="897.69986"/>
     <use xlink:href="#Montserrat-Regular-6f" x="937.79985"/>
     <use xlink:href="#Montserrat-Regular-75" x="1000.499847"/>
     <use xlink:href="#Montserrat-Regular-70" x="1067.799835"/>
     <use xlink:href="#Montserrat-Regular-20" x="1135.599823"/>
     <use xlink:href="#Montserrat-Regular-6d" x="1161.79982"/>
     <use xlink:href="#Montserrat-Regular-65" x="1267.899811"/>
     <use xlink:href="#Montserrat-Regular-61" x="1328.299805"/>
     <use xlink:href="#Montserrat-Regular-6e" x="1387.299789"/>
     <use xlink:href="#Montserrat-Regular-73" x="1454.999771"/>
     <use xlink:href="#Montserrat-Regular-20" x="1503.899765"/>
    </g>
   </g>
  </g>
  <g id="axes_2">
   <g id="patch_7">
    <path d="M 36.589688 206.175633 
L 237.584687 206.175633 
L 237.584687 65.862812 
L 36.589688 65.862812 
L 36.589688 206.175633 
z
" style="fill: none"/>
   </g>
   <g id="matplotlib.axis_3">
    <g id="xtick_7">
     <g id="line2d_1">
      <defs>
       <path id="m932ac785d7" d="M 0 0 
L 0 4 
" style="stroke: #000000; stroke-width: 2"/>
      </defs>
      <g>
       <use xlink:href="#m932ac785d7" x="61.714062" y="206.175633" style="stroke: #000000; stroke-width: 2"/>
      </g>
     </g>
     <g id="text_14">
      <!-- −3 -->
      <g transform="translate(51.4625 227.032196) scale(0.18 -0.18)">
       <defs>
        <path id="Montserrat-Regular-2212" d="M 448 2048 
L 3232 2048 
L 3232 2426 
L 448 2426 
L 448 2048 
z
" transform="scale(0.015625)"/>
        <path id="Montserrat-Regular-33" d="M 1856 2560 
L 3123 4154 
L 3123 4480 
L 243 4480 
L 243 4070 
L 2534 4070 
L 1293 2515 
L 1293 2176 
L 1613 2176 
C 2445 2176 2822 1824 2822 1286 
C 2822 730 2413 384 1670 384 
C 1088 384 570 602 282 902 
L 58 538 
C 403 186 1024 -38 1670 -38 
C 2752 -38 3296 538 3296 1286 
C 3296 2003 2816 2509 1856 2560 
z
" transform="scale(0.015625)"/>
       </defs>
       <use xlink:href="#Montserrat-Regular-2212"/>
       <use xlink:href="#Montserrat-Regular-33" x="57.499985"/>
      </g>
     </g>
    </g>
    <g id="xtick_8">
     <g id="line2d_2">
      <g>
       <use xlink:href="#m932ac785d7" x="137.087187" y="206.175633" style="stroke: #000000; stroke-width: 2"/>
      </g>
     </g>
     <g id="text_15">
      <!-- 0 -->
      <g transform="translate(131.128906 227.032196) scale(0.18 -0.18)">
       <use xlink:href="#Montserrat-Regular-30"/>
      </g>
     </g>
    </g>
    <g id="xtick_9">
     <g id="line2d_3">
      <g>
       <use xlink:href="#m932ac785d7" x="212.460312" y="206.175633" style="stroke: #000000; stroke-width: 2"/>
      </g>
     </g>
     <g id="text_16">
      <!-- 3 -->
      <g transform="translate(207.38375 227.032196) scale(0.18 -0.18)">
       <use xlink:href="#Montserrat-Regular-33"/>
      </g>
     </g>
    </g>
   </g>
   <g id="matplotlib.axis_4">
    <g id="ytick_7">
     <g id="line2d_4">
      <defs>
       <path id="m2949193b5c" d="M 0 0 
L -4 0 
" style="stroke: #000000; stroke-width: 2"/>
      </defs>
      <g>
       <use xlink:href="#m2949193b5c" x="36.589688" y="199.797805" style="stroke: #000000; stroke-width: 2"/>
      </g>
     </g>
     <g id="text_17">
      <!-- 0.0 -->
      <g transform="translate(1.44 206.476086) scale(0.18 -0.18)">
       <use xlink:href="#Montserrat-Regular-30"/>
       <use xlink:href="#Montserrat-Regular-2e" x="66.199997"/>
       <use xlink:href="#Montserrat-Regular-30" x="87.399994"/>
      </g>
     </g>
    </g>
    <g id="ytick_8">
     <g id="line2d_5">
      <g>
       <use xlink:href="#m2949193b5c" x="36.589688" y="151.713071" style="stroke: #000000; stroke-width: 2"/>
      </g>
     </g>
     <g id="text_18">
      <!-- 0.2 -->
      <g transform="translate(3.133125 158.391352) scale(0.18 -0.18)">
       <use xlink:href="#Montserrat-Regular-30"/>
       <use xlink:href="#Montserrat-Regular-2e" x="66.199997"/>
       <use xlink:href="#Montserrat-Regular-32" x="87.399994"/>
      </g>
     </g>
    </g>
    <g id="ytick_9">
     <g id="line2d_6">
      <g>
       <use xlink:href="#m2949193b5c" x="36.589688" y="103.628336" style="stroke: #000000; stroke-width: 2"/>
      </g>
     </g>
     <g id="text_19">
      <!-- 0.4 -->
      <g transform="translate(1.459688 110.306618) scale(0.18 -0.18)">
       <use xlink:href="#Montserrat-Regular-30"/>
       <use xlink:href="#Montserrat-Regular-2e" x="66.199997"/>
       <use xlink:href="#Montserrat-Regular-34" x="87.399994"/>
      </g>
     </g>
    </g>
   </g>
   <g id="line2d_7">
    <path d="M 36.589688 199.797387 
L 38.61994 199.797138 
L 40.650193 199.796749 
L 42.680445 199.796148 
L 44.710698 199.795229 
L 46.74095 199.793835 
L 48.771203 199.791742 
L 50.801455 199.788628 
L 52.831708 199.784036 
L 54.86196 199.777331 
L 56.892213 199.767632 
L 58.922465 199.753734 
L 60.952718 199.734007 
L 62.98297 199.706271 
L 65.013223 199.667645 
L 67.043475 199.614365 
L 69.073728 199.541577 
L 71.10398 199.443091 
L 73.134233 199.311119 
L 75.164485 199.135988 
L 77.194738 198.905843 
L 79.224991 198.606362 
L 81.255243 198.220489 
L 83.285496 197.728222 
L 85.315748 197.106482 
L 87.346001 196.329098 
L 89.376253 195.366946 
L 91.406506 194.188268 
L 93.436758 192.759229 
L 95.467011 191.044717 
L 97.497263 189.009419 
L 99.527516 186.619172 
L 101.557768 183.842579 
L 103.588021 180.652855 
L 105.618273 177.02984 
L 107.648526 172.962106 
L 109.678778 168.449051 
L 111.709031 163.502841 
L 113.739283 158.150093 
L 115.769536 152.433122 
L 117.799789 146.410646 
L 119.830041 140.157797 
L 121.860294 133.765377 
L 123.890546 127.338269 
L 125.920799 120.993032 
L 127.951051 114.854687 
L 129.981304 109.052832 
L 132.011556 103.717218 
L 134.041809 98.972993 
L 136.072061 94.935864 
L 138.102314 91.70742 
L 140.132566 89.370891 
L 142.162819 87.987585 
L 144.193071 87.59421 
L 146.223324 88.201263 
L 148.253576 89.792557 
L 150.283829 92.325943 
L 152.314081 95.735166 
L 154.344334 99.932737 
L 156.374586 104.813672 
L 158.404839 110.259839 
L 160.435092 116.144696 
L 162.465344 122.338134 
L 164.495597 128.711178 
L 166.525849 135.140311 
L 168.556102 141.511232 
L 170.586354 147.721893 
L 172.616607 153.684745 
L 174.646859 159.328132 
L 176.677112 164.596874 
L 178.707364 169.452095 
L 180.737617 173.870394 
L 182.767869 177.842488 
L 184.798122 181.37147 
L 186.828374 184.470814 
L 188.858627 187.162272 
L 190.888879 189.473783 
L 192.919132 191.437484 
L 194.949384 193.08791 
L 196.979637 194.460437 
L 199.00989 195.589983 
L 201.040142 196.509999 
L 203.070395 197.251715 
L 205.100647 197.843646 
L 207.1309 198.311305 
L 209.161152 198.677107 
L 211.191405 198.960409 
L 213.221657 199.177662 
L 215.25191 199.342637 
L 217.282162 199.466696 
L 219.312415 199.559085 
L 221.342667 199.627227 
L 223.37292 199.677002 
L 225.403172 199.713013 
L 227.433425 199.738819 
L 229.463677 199.757136 
L 231.49393 199.770015 
L 233.524182 199.778984 
L 235.554435 199.785172 
L 237.584687 199.789401 
" clip-path="url(#pb3f3d9722e)" style="fill: none; stroke: #0000ff; stroke-width: 2.5; stroke-linecap: square"/>
   </g>
   <g id="line2d_8">
    <path d="M 36.589688 199.79753 
L 38.61994 199.797332 
L 40.650193 199.796999 
L 42.680445 199.796449 
L 44.710698 199.795549 
L 46.74095 199.794094 
L 48.771203 199.791771 
L 50.801455 199.788108 
L 52.831708 199.7824 
L 54.86196 199.773613 
L 56.892213 199.760252 
L 58.922465 199.740181 
L 60.952718 199.710402 
L 62.98297 199.666759 
L 65.013223 199.603587 
L 67.043475 199.513275 
L 69.073728 199.385767 
L 71.10398 199.207986 
L 73.134233 198.96322 
L 75.164485 198.630475 
L 77.194738 198.183864 
L 79.224991 197.592072 
L 81.255243 196.81799 
L 83.285496 195.818595 
L 85.315748 194.545192 
L 87.346001 192.944105 
L 89.376253 190.957936 
L 91.406506 188.527447 
L 93.436758 185.594132 
L 95.467011 182.103451 
L 97.497263 178.008676 
L 99.527516 173.275204 
L 101.557768 167.885113 
L 103.588021 161.84168 
L 105.618273 155.173507 
L 107.648526 147.937864 
L 109.678778 140.222849 
L 111.709031 132.148002 
L 113.739283 123.863077 
L 115.769536 115.544793 
L 117.799789 107.391518 
L 119.830041 99.616034 
L 121.860294 92.436698 
L 123.890546 86.067462 
L 125.920799 80.707389 
L 127.951051 76.530367 
L 129.981304 73.675756 
L 132.011556 72.240668 
L 134.041809 72.274488 
L 136.072061 73.776047 
L 138.102314 76.693693 
L 140.132566 80.928239 
L 142.162819 86.33856 
L 144.193071 92.749401 
L 146.223324 99.960788 
L 148.253576 107.758339 
L 150.283829 115.923743 
L 152.314081 124.244693 
L 154.344334 132.523668 
L 156.374586 140.585086 
L 158.404839 148.28052 
L 160.435092 155.491858 
L 162.465344 162.132441 
L 164.495597 168.146369 
L 166.525849 173.506281 
L 168.556102 178.209965 
L 170.586354 182.276207 
L 172.616607 185.740265 
L 174.646859 188.649315 
L 176.677112 191.058159 
L 178.707364 193.025402 
L 180.737617 194.610249 
L 182.767869 195.869964 
L 184.798122 196.858017 
L 186.828374 197.622855 
L 188.858627 198.207231 
L 190.888879 198.647987 
L 192.919132 198.976176 
L 194.949384 199.21745 
L 196.979637 199.392593 
L 199.00989 199.518137 
L 201.040142 199.607007 
L 203.070395 199.669135 
L 205.100647 199.712032 
L 207.1309 199.741286 
L 209.161152 199.760991 
L 211.191405 199.774102 
L 213.221657 199.782719 
L 215.25191 199.788314 
L 217.282162 199.791903 
L 219.312415 199.794177 
L 221.342667 199.7956 
L 223.37292 199.79648 
L 225.403172 199.797018 
L 227.433425 199.797343 
L 229.463677 199.797537 
L 231.49393 199.797651 
L 233.524182 199.797718 
L 235.554435 199.797756 
L 237.584687 199.797778 
" clip-path="url(#pb3f3d9722e)" style="fill: none; stroke: #ff0000; stroke-width: 2.5; stroke-linecap: square"/>
   </g>
   <g id="patch_8">
    <path d="M 36.589688 206.175633 
L 36.589688 65.862812 
" style="fill: none; stroke: #000000; stroke-width: 2; stroke-linejoin: miter; stroke-linecap: square"/>
   </g>
   <g id="patch_9">
    <path d="M 237.584687 206.175633 
L 237.584687 65.862812 
" style="fill: none; stroke: #000000; stroke-width: 2; stroke-linejoin: miter; stroke-linecap: square"/>
   </g>
   <g id="patch_10">
    <path d="M 36.589688 206.175633 
L 237.584687 206.175633 
" style="fill: none; stroke: #000000; stroke-width: 2; stroke-linejoin: miter; stroke-linecap: square"/>
   </g>
   <g id="patch_11">
    <path d="M 36.589688 65.862812 
L 237.584687 65.862812 
" style="fill: none; stroke: #000000; stroke-width: 2; stroke-linejoin: miter; stroke-linecap: square"/>
   </g>
   <g id="text_20">
    <!-- Volume -->
    <g transform="translate(94.62125 59.862812) scale(0.216 -0.216)">
     <defs>
      <path id="Montserrat-Regular-56" d="M 3974 4480 
L 2246 589 
L 531 4480 
L 19 4480 
L 2003 0 
L 2470 0 
L 4454 4480 
L 3974 4480 
z
" transform="scale(0.015625)"/>
      <path id="Montserrat-Regular-6c" d="M 634 0 
L 1088 0 
L 1088 4749 
L 634 4749 
L 634 0 
z
" transform="scale(0.015625)"/>
     </defs>
     <use xlink:href="#Montserrat-Regular-56"/>
     <use xlink:href="#Montserrat-Regular-6f" x="69.799988"/>
     <use xlink:href="#Montserrat-Regular-6c" x="132.499985"/>
     <use xlink:href="#Montserrat-Regular-75" x="159.399979"/>
     <use xlink:href="#Montserrat-Regular-6d" x="226.699966"/>
     <use xlink:href="#Montserrat-Regular-65" x="332.799957"/>
    </g>
   </g>
   <g id="legend_1">
    <g id="patch_12">
     <path d="M 176.840312 109.929062 
L 231.584687 109.929062 
L 231.584687 71.862812 
L 176.840312 71.862812 
z
" style="fill: #ffffff; opacity: 0.8; stroke: #000000; stroke-linejoin: miter"/>
    </g>
    <g id="line2d_9">
     <path d="M 181.640312 81.367187 
L 193.640312 81.367187 
L 205.640312 81.367187 
" style="fill: none; stroke: #0000ff; stroke-width: 2.5; stroke-linecap: square"/>
    </g>
    <g id="text_21">
     <!-- – – -->
     <g transform="translate(211.640312 85.567187) scale(0.12 -0.12)">
      <defs>
       <path id="Montserrat-Regular-2013" d="M 0 1574 
L 3200 1574 
L 3200 1901 
L 0 1901 
L 0 1574 
z
" transform="scale(0.015625)"/>
      </defs>
      <use xlink:href="#Montserrat-Regular-2013"/>
      <use xlink:href="#Montserrat-Regular-20" x="49.999985"/>
      <use xlink:href="#Montserrat-Regular-2013" x="76.199982"/>
     </g>
    </g>
    <g id="line2d_10">
     <path d="M 181.640312 98.600312 
L 193.640312 98.600312 
L 205.640312 98.600312 
" style="fill: none; stroke: #ff0000; stroke-width: 2.5; stroke-linecap: square"/>
    </g>
    <g id="text_22">
     <!-- ++ -->
     <g transform="translate(211.640312 102.800312) scale(0.12 -0.12)">
      <defs>
       <path id="Montserrat-Regular-2b" d="M 3232 2426 
L 2042 2426 
L 2042 3597 
L 1638 3597 
L 1638 2426 
L 448 2426 
L 448 2048 
L 1638 2048 
L 1638 883 
L 2042 883 
L 2042 2048 
L 3232 2048 
L 3232 2426 
z
" transform="scale(0.015625)"/>
      </defs>
      <use xlink:href="#Montserrat-Regular-2b"/>
      <use xlink:href="#Montserrat-Regular-2b" x="57.499985"/>
     </g>
    </g>
   </g>
  </g>
  <g id="axes_3">
   <g id="patch_13">
    <path d="M 292.064687 206.175633 
L 493.059687 206.175633 
L 493.059687 65.862812 
L 292.064687 65.862812 
L 292.064687 206.175633 
z
" style="fill: none"/>
   </g>
   <g id="matplotlib.axis_5">
    <g id="xtick_10">
     <g id="line2d_11">
      <g>
       <use xlink:href="#m932ac785d7" x="317.189062" y="206.175633" style="stroke: #000000; stroke-width: 2"/>
      </g>
     </g>
     <g id="text_23">
      <!-- −3 -->
      <g transform="translate(306.9375 227.032196) scale(0.18 -0.18)">
       <use xlink:href="#Montserrat-Regular-2212"/>
       <use xlink:href="#Montserrat-Regular-33" x="57.499985"/>
      </g>
     </g>
    </g>
    <g id="xtick_11">
     <g id="line2d_12">
      <g>
       <use xlink:href="#m932ac785d7" x="392.562187" y="206.175633" style="stroke: #000000; stroke-width: 2"/>
      </g>
     </g>
     <g id="text_24">
      <!-- 0 -->
      <g transform="translate(386.603906 227.032196) scale(0.18 -0.18)">
       <use xlink:href="#Montserrat-Regular-30"/>
      </g>
     </g>
    </g>
    <g id="xtick_12">
     <g id="line2d_13">
      <g>
       <use xlink:href="#m932ac785d7" x="467.935313" y="206.175633" style="stroke: #000000; stroke-width: 2"/>
      </g>
     </g>
     <g id="text_25">
      <!-- 3 -->
      <g transform="translate(462.85875 227.032196) scale(0.18 -0.18)">
       <use xlink:href="#Montserrat-Regular-33"/>
      </g>
     </g>
    </g>
   </g>
   <g id="matplotlib.axis_6">
    <g id="ytick_10">
     <g id="line2d_14">
      <g>
       <use xlink:href="#m2949193b5c" x="292.064687" y="199.797778" style="stroke: #000000; stroke-width: 2"/>
      </g>
     </g>
     <g id="text_26">
      <!-- 0.0 -->
      <g transform="translate(256.915 206.476059) scale(0.18 -0.18)">
       <use xlink:href="#Montserrat-Regular-30"/>
       <use xlink:href="#Montserrat-Regular-2e" x="66.199997"/>
       <use xlink:href="#Montserrat-Regular-30" x="87.399994"/>
      </g>
     </g>
    </g>
    <g id="ytick_11">
     <g id="line2d_15">
      <g>
       <use xlink:href="#m2949193b5c" x="292.064687" y="141.462271" style="stroke: #000000; stroke-width: 2"/>
      </g>
     </g>
     <g id="text_27">
      <!-- 0.3 -->
      <g transform="translate(258.678437 148.140552) scale(0.18 -0.18)">
       <use xlink:href="#Montserrat-Regular-30"/>
       <use xlink:href="#Montserrat-Regular-2e" x="66.199997"/>
       <use xlink:href="#Montserrat-Regular-33" x="87.399994"/>
      </g>
     </g>
    </g>
    <g id="ytick_12">
     <g id="line2d_16">
      <g>
       <use xlink:href="#m2949193b5c" x="292.064687" y="83.126764" style="stroke: #000000; stroke-width: 2"/>
      </g>
     </g>
     <g id="text_28">
      <!-- 0.6 -->
      <g transform="translate(257.868437 89.805045) scale(0.18 -0.18)">
       <use xlink:href="#Montserrat-Regular-30"/>
       <use xlink:href="#Montserrat-Regular-2e" x="66.199997"/>
       <use xlink:href="#Montserrat-Regular-36" x="87.399994"/>
      </g>
     </g>
    </g>
   </g>
   <g id="line2d_17">
    <path d="M 292.064687 199.797776 
L 294.09494 199.797775 
L 296.125193 199.797771 
L 298.155445 199.797764 
L 300.185698 199.797748 
L 302.21595 199.797717 
L 304.246203 199.797655 
L 306.276455 199.797533 
L 308.306708 199.797297 
L 310.33696 199.796851 
L 312.367213 199.796022 
L 314.397465 199.79451 
L 316.427718 199.791805 
L 318.45797 199.78705 
L 320.488223 199.778849 
L 322.518475 199.764965 
L 324.548728 199.741897 
L 326.57898 199.704281 
L 328.609233 199.644092 
L 330.639485 199.549593 
L 332.669738 199.404027 
L 334.699991 199.184055 
L 336.730243 198.857995 
L 338.760496 198.38398 
L 340.790748 197.708233 
L 342.821001 196.763742 
L 344.851253 195.46971 
L 346.881506 193.732203 
L 348.911758 191.446473 
L 350.942011 188.501348 
L 352.972263 184.785985 
L 355.002516 180.199026 
L 357.032768 174.659893 
L 359.063021 168.121543 
L 361.093273 160.583622 
L 363.123526 152.104556 
L 365.153778 142.810888 
L 367.184031 132.902151 
L 369.214283 122.649721 
L 371.244536 112.388659 
L 373.274789 102.502227 
L 375.305041 93.399718 
L 377.335294 85.489173 
L 379.365546 79.147416 
L 381.395799 74.690429 
L 383.426051 72.34729 
L 385.456304 72.240668 
L 387.486556 74.37618 
L 389.516809 78.641904 
L 391.547061 84.818095 
L 393.577314 92.59594 
L 395.607566 101.603125 
L 397.637819 111.433255 
L 399.668071 121.675927 
L 401.698324 131.94438 
L 403.728576 141.898231 
L 405.758829 151.259628 
L 407.789081 159.822108 
L 409.819334 167.452359 
L 411.849586 174.08587 
L 413.879839 179.717935 
L 415.910092 184.391746 
L 417.940344 188.185276 
L 419.970597 191.198435 
L 422.000849 193.541598 
L 424.031102 195.326232 
L 426.061354 196.657915 
L 428.091607 197.63173 
L 430.121859 198.329765 
L 432.152112 198.820324 
L 434.182364 199.158386 
L 436.212617 199.386871 
L 438.242869 199.538346 
L 440.273122 199.636859 
L 442.303374 199.699717 
L 444.333627 199.739071 
L 446.363879 199.763248 
L 448.394132 199.777825 
L 450.424384 199.786451 
L 452.454637 199.791461 
L 454.48489 199.794316 
L 456.515142 199.795914 
L 458.545395 199.796792 
L 460.575647 199.797266 
L 462.6059 199.797516 
L 464.636152 199.797647 
L 466.666405 199.797713 
L 468.696657 199.797746 
L 470.72691 199.797763 
L 472.757162 199.797771 
L 474.787415 199.797774 
L 476.817667 199.797776 
L 478.84792 199.797777 
L 480.878172 199.797777 
L 482.908425 199.797777 
L 484.938677 199.797777 
L 486.96893 199.797778 
L 488.999182 199.797778 
L 491.029435 199.797778 
L 493.059687 199.797778 
" clip-path="url(#pa19615d4c7)" style="fill: none; stroke: #0000ff; stroke-width: 2.5; stroke-linecap: square"/>
   </g>
   <g id="line2d_18">
    <path d="M 292.064687 199.797777 
L 294.09494 199.797777 
L 296.125193 199.797776 
L 298.155445 199.797775 
L 300.185698 199.797773 
L 302.21595 199.797768 
L 304.246203 199.797759 
L 306.276455 199.797742 
L 308.306708 199.79771 
L 310.33696 199.797652 
L 312.367213 199.797548 
L 314.397465 199.797362 
L 316.427718 199.797036 
L 318.45797 199.796473 
L 320.488223 199.795514 
L 322.518475 199.793902 
L 324.548728 199.791235 
L 326.57898 199.786882 
L 328.609233 199.779879 
L 330.639485 199.768776 
L 332.669738 199.751424 
L 334.699991 199.724698 
L 336.730243 199.68413 
L 338.760496 199.623449 
L 340.790748 199.534004 
L 342.821001 199.404098 
L 344.851253 199.218209 
L 346.881506 198.956155 
L 348.911758 198.592243 
L 350.942011 198.094474 
L 352.972263 197.42392 
L 355.002516 196.534399 
L 357.032768 195.372602 
L 359.063021 193.878842 
L 361.093273 191.98857 
L 363.123526 189.634811 
L 365.153778 186.751574 
L 367.184031 183.278235 
L 369.214283 179.164794 
L 371.244536 174.377738 
L 373.274789 168.906164 
L 375.305041 162.767657 
L 377.335294 156.013334 
L 379.365546 148.73144 
L 381.395799 141.048874 
L 383.426051 133.130152 
L 385.456304 125.173458 
L 387.486556 117.403708 
L 389.516809 110.062814 
L 391.547061 103.397652 
L 393.577314 97.646528 
L 395.607566 93.025148 
L 397.637819 89.71323 
L 399.668071 87.842915 
L 401.698324 87.490027 
L 403.728576 88.668966 
L 405.758829 91.331738 
L 407.789081 95.371195 
L 409.819334 100.628187 
L 411.849586 106.901963 
L 413.879839 113.962869 
L 415.910092 121.566231 
L 417.940344 129.466248 
L 419.970597 137.428836 
L 422.000849 145.242489 
L 424.031102 152.726551 
L 426.061354 159.736541 
L 428.091607 166.166501 
L 430.121859 171.948591 
L 432.152112 177.050372 
L 434.182364 181.470356 
L 436.212617 185.232423 
L 438.242869 188.379754 
L 440.273122 190.968789 
L 442.303374 193.063653 
L 444.333627 194.731354 
L 446.363879 196.037914 
L 448.394132 197.045496 
L 450.424384 197.810476 
L 452.454637 198.382359 
L 454.48489 198.803389 
L 456.515142 199.108685 
L 458.545395 199.326747 
L 460.575647 199.480185 
L 462.6059 199.586554 
L 464.636152 199.659209 
L 466.666405 199.70811 
L 468.696657 199.740543 
L 470.72691 199.761742 
L 472.757162 199.775398 
L 474.787415 199.784068 
L 476.817667 199.789493 
L 478.84792 199.79284 
L 480.878172 199.794875 
L 482.908425 199.796094 
L 484.938677 199.796814 
L 486.96893 199.797234 
L 488.999182 199.797475 
L 491.029435 199.797611 
L 493.059687 199.797688 
" clip-path="url(#pa19615d4c7)" style="fill: none; stroke: #ff0000; stroke-width: 2.5; stroke-linecap: square"/>
   </g>
   <g id="patch_14">
    <path d="M 292.064687 206.175633 
L 292.064687 65.862812 
" style="fill: none; stroke: #000000; stroke-width: 2; stroke-linejoin: miter; stroke-linecap: square"/>
   </g>
   <g id="patch_15">
    <path d="M 493.059687 206.175633 
L 493.059687 65.862812 
" style="fill: none; stroke: #000000; stroke-width: 2; stroke-linejoin: miter; stroke-linecap: square"/>
   </g>
   <g id="patch_16">
    <path d="M 292.064687 206.175633 
L 493.059687 206.175633 
" style="fill: none; stroke: #000000; stroke-width: 2; stroke-linejoin: miter; stroke-linecap: square"/>
   </g>
   <g id="patch_17">
    <path d="M 292.064687 65.862812 
L 493.059687 65.862812 
" style="fill: none; stroke: #000000; stroke-width: 2; stroke-linejoin: miter; stroke-linecap: square"/>
   </g>
   <g id="text_29">
    <!-- Electron density -->
    <g transform="translate(304.61475 59.862812) scale(0.216 -0.216)">
     <defs>
      <path id="Montserrat-Regular-45" d="M 1203 410 
L 1203 2074 
L 3520 2074 
L 3520 2477 
L 1203 2477 
L 1203 4070 
L 3802 4070 
L 3802 4480 
L 730 4480 
L 730 0 
L 3898 0 
L 3898 410 
L 1203 410 
z
" transform="scale(0.015625)"/>
      <path id="Montserrat-Regular-63" d="M 2029 -32 
C 2598 -32 3078 198 3347 634 
L 3008 864 
C 2778 525 2419 371 2029 371 
C 1293 371 755 890 755 1683 
C 755 2470 1293 2995 2029 2995 
C 2419 2995 2778 2835 3008 2496 
L 3347 2726 
C 3078 3168 2598 3392 2029 3392 
C 1024 3392 294 2688 294 1683 
C 294 678 1024 -32 2029 -32 
z
" transform="scale(0.015625)"/>
      <path id="Montserrat-Regular-69" d="M 864 4102 
C 1056 4102 1197 4250 1197 4435 
C 1197 4608 1050 4749 864 4749 
C 678 4749 531 4602 531 4429 
C 531 4250 678 4102 864 4102 
z
M 634 0 
L 1088 0 
L 1088 3366 
L 634 3366 
L 634 0 
z
" transform="scale(0.015625)"/>
      <path id="Montserrat-Regular-79" d="M 3014 3366 
L 1747 506 
L 480 3366 
L 6 3366 
L 1510 6 
L 1363 -320 
C 1171 -742 966 -883 666 -883 
C 422 -883 218 -794 51 -627 
L -160 -966 
C 45 -1171 346 -1274 659 -1274 
C 1139 -1274 1498 -1062 1779 -403 
L 3462 3366 
L 3014 3366 
z
" transform="scale(0.015625)"/>
     </defs>
     <use xlink:href="#Montserrat-Regular-45"/>
     <use xlink:href="#Montserrat-Regular-6c" x="66.899994"/>
     <use xlink:href="#Montserrat-Regular-65" x="93.799988"/>
     <use xlink:href="#Montserrat-Regular-63" x="154.199982"/>
     <use xlink:href="#Montserrat-Regular-74" x="210.499969"/>
     <use xlink:href="#Montserrat-Regular-72" x="251.09996"/>
     <use xlink:href="#Montserrat-Regular-6f" x="291.199951"/>
     <use xlink:href="#Montserrat-Regular-6e" x="353.899948"/>
     <use xlink:href="#Montserrat-Regular-20" x="421.59993"/>
     <use xlink:href="#Montserrat-Regular-64" x="447.799927"/>
     <use xlink:href="#Montserrat-Regular-65" x="515.599915"/>
     <use xlink:href="#Montserrat-Regular-6e" x="575.999908"/>
     <use xlink:href="#Montserrat-Regular-73" x="643.69989"/>
     <use xlink:href="#Montserrat-Regular-69" x="692.599884"/>
     <use xlink:href="#Montserrat-Regular-74" x="719.499878"/>
     <use xlink:href="#Montserrat-Regular-79" x="760.099869"/>
    </g>
   </g>
  </g>
  <g id="axes_4">
   <g id="patch_18">
    <path d="M 36.589688 409.629223 
L 237.584687 409.629223 
L 237.584687 269.316402 
L 36.589688 269.316402 
L 36.589688 409.629223 
z
" style="fill: none"/>
   </g>
   <g id="matplotlib.axis_7">
    <g id="xtick_13">
     <g id="line2d_19">
      <g>
       <use xlink:href="#m932ac785d7" x="61.714062" y="409.629223" style="stroke: #000000; stroke-width: 2"/>
      </g>
     </g>
     <g id="text_30">
      <!-- −3 -->
      <g transform="translate(51.4625 430.485785) scale(0.18 -0.18)">
       <use xlink:href="#Montserrat-Regular-2212"/>
       <use xlink:href="#Montserrat-Regular-33" x="57.499985"/>
      </g>
     </g>
    </g>
    <g id="xtick_14">
     <g id="line2d_20">
      <g>
       <use xlink:href="#m932ac785d7" x="137.087187" y="409.629223" style="stroke: #000000; stroke-width: 2"/>
      </g>
     </g>
     <g id="text_31">
      <!-- 0 -->
      <g transform="translate(131.128906 430.485785) scale(0.18 -0.18)">
       <use xlink:href="#Montserrat-Regular-30"/>
      </g>
     </g>
    </g>
    <g id="xtick_15">
     <g id="line2d_21">
      <g>
       <use xlink:href="#m932ac785d7" x="212.460312" y="409.629223" style="stroke: #000000; stroke-width: 2"/>
      </g>
     </g>
     <g id="text_32">
      <!-- 3 -->
      <g transform="translate(207.38375 430.485785) scale(0.18 -0.18)">
       <use xlink:href="#Montserrat-Regular-33"/>
      </g>
     </g>
    </g>
   </g>
   <g id="matplotlib.axis_8">
    <g id="ytick_13">
     <g id="line2d_22">
      <g>
       <use xlink:href="#m2949193b5c" x="36.589688" y="403.251383" style="stroke: #000000; stroke-width: 2"/>
      </g>
     </g>
     <g id="text_33">
      <!-- 0.0 -->
      <g transform="translate(1.44 409.929664) scale(0.18 -0.18)">
       <use xlink:href="#Montserrat-Regular-30"/>
       <use xlink:href="#Montserrat-Regular-2e" x="66.199997"/>
       <use xlink:href="#Montserrat-Regular-30" x="87.399994"/>
      </g>
     </g>
    </g>
    <g id="ytick_14">
     <g id="line2d_23">
      <g>
       <use xlink:href="#m2949193b5c" x="36.589688" y="352.182002" style="stroke: #000000; stroke-width: 2"/>
      </g>
     </g>
     <g id="text_34">
      <!-- 0.2 -->
      <g transform="translate(3.133125 358.860284) scale(0.18 -0.18)">
       <use xlink:href="#Montserrat-Regular-30"/>
       <use xlink:href="#Montserrat-Regular-2e" x="66.199997"/>
       <use xlink:href="#Montserrat-Regular-32" x="87.399994"/>
      </g>
     </g>
    </g>
    <g id="ytick_15">
     <g id="line2d_24">
      <g>
       <use xlink:href="#m2949193b5c" x="36.589688" y="301.112622" style="stroke: #000000; stroke-width: 2"/>
      </g>
     </g>
     <g id="text_35">
      <!-- 0.4 -->
      <g transform="translate(1.459688 307.790903) scale(0.18 -0.18)">
       <use xlink:href="#Montserrat-Regular-30"/>
       <use xlink:href="#Montserrat-Regular-2e" x="66.199997"/>
       <use xlink:href="#Montserrat-Regular-34" x="87.399994"/>
      </g>
     </g>
    </g>
   </g>
   <g id="line2d_25">
    <path d="M 36.589688 403.242624 
L 38.61994 403.237808 
L 40.650193 403.23056 
L 42.680445 403.219767 
L 44.710698 403.20387 
L 46.74095 403.180706 
L 48.771203 403.147321 
L 50.801455 403.099729 
L 52.831708 403.032623 
L 54.86196 402.93904 
L 56.892213 402.809968 
L 58.922465 402.633919 
L 60.952718 402.39646 
L 62.98297 402.079747 
L 65.013223 401.662071 
L 67.043475 401.117475 
L 69.073728 400.415471 
L 71.10398 399.520942 
L 73.134233 398.394272 
L 75.164485 396.991787 
L 77.194738 395.266566 
L 79.224991 393.169677 
L 81.255243 390.651879 
L 83.285496 387.66579 
L 85.315748 384.168518 
L 87.346001 380.124653 
L 89.376253 375.509541 
L 91.406506 370.31266 
L 93.436758 364.540898 
L 95.467011 358.221493 
L 97.497263 351.404393 
L 99.527516 344.163747 
L 101.557768 336.598325 
L 103.588021 328.830649 
L 105.618273 321.004732 
L 107.648526 313.282383 
L 109.678778 305.838147 
L 111.709031 298.853079 
L 113.739283 292.507609 
L 115.769536 286.973907 
L 117.799789 282.408166 
L 119.830041 278.943303 
L 121.860294 276.682531 
L 123.890546 275.694258 
L 125.920799 276.008644 
L 127.951051 277.616079 
L 129.981304 280.467665 
L 132.011556 284.477687 
L 134.041809 289.527898 
L 136.072061 295.473301 
L 138.102314 302.149057 
L 140.132566 309.37805 
L 142.162819 316.978614 
L 144.193071 324.77199 
L 146.223324 332.589057 
L 148.253576 340.276027 
L 150.283829 347.698867 
L 152.314081 354.746302 
L 154.344334 361.331396 
L 156.374586 367.391783 
L 158.404839 372.8887 
L 160.435092 377.805047 
L 162.465344 382.142718 
L 164.495597 385.919463 
L 166.525849 389.165535 
L 168.556102 391.920345 
L 170.586354 394.2293 
L 172.616607 396.140978 
L 174.646859 397.704714 
L 176.677112 398.968654 
L 178.707364 399.978283 
L 180.737617 400.775396 
L 182.767869 401.397476 
L 184.798122 401.877411 
L 186.828374 402.243481 
L 188.858627 402.519555 
L 190.888879 402.725426 
L 192.919132 402.877236 
L 194.949384 402.987942 
L 196.979637 403.067782 
L 199.00989 403.124729 
L 201.040142 403.164904 
L 203.070395 403.192937 
L 205.100647 403.212285 
L 207.1309 403.225495 
L 209.161152 403.234417 
L 211.191405 403.240377 
L 213.221657 403.244316 
L 215.25191 403.246892 
L 217.282162 403.248558 
L 219.312415 403.249624 
L 221.342667 403.250299 
L 223.37292 403.250721 
L 225.403172 403.250984 
L 227.433425 403.251144 
L 229.463677 403.251242 
L 231.49393 403.2513 
L 233.524182 403.251335 
L 235.554435 403.251355 
L 237.584687 403.251367 
" clip-path="url(#p20e2f8c521)" style="fill: none; stroke: #0000ff; stroke-width: 2.5; stroke-linecap: square"/>
   </g>
   <g id="line2d_26">
    <path d="M 36.589688 403.249611 
L 38.61994 403.248732 
L 40.650193 403.247447 
L 42.680445 403.245582 
L 44.710698 403.242898 
L 46.74095 403.239066 
L 48.771203 403.233635 
L 50.801455 403.226001 
L 52.831708 403.215354 
L 54.86196 403.200623 
L 56.892213 403.180403 
L 58.922465 403.152868 
L 60.952718 403.115672 
L 62.98297 403.065827 
L 65.013223 402.999568 
L 67.043475 402.912199 
L 69.073728 402.797927 
L 71.10398 402.64968 
L 73.134233 402.458925 
L 75.164485 402.215486 
L 77.194738 401.907368 
L 79.224991 401.520617 
L 81.255243 401.039209 
L 83.285496 400.444998 
L 85.315748 399.717746 
L 87.346001 398.835237 
L 89.376253 397.773512 
L 91.406506 396.507237 
L 93.436758 395.010211 
L 95.467011 393.256038 
L 97.497263 391.218951 
L 99.527516 388.874793 
L 101.557768 386.202137 
L 103.588021 383.183513 
L 105.618273 379.806708 
L 107.648526 376.066093 
L 109.678778 371.963905 
L 111.709031 367.511432 
L 113.739283 362.730007 
L 115.769536 357.651762 
L 117.799789 352.320042 
L 119.830041 346.789442 
L 121.860294 341.125393 
L 123.890546 335.403287 
L 125.920799 329.707114 
L 127.951051 324.12764 
L 129.981304 318.760152 
L 132.011556 313.701861 
L 134.041809 309.049034 
L 136.072061 304.893989 
L 138.102314 301.322065 
L 140.132566 298.40872 
L 142.162819 296.21688 
L 144.193071 294.794687 
L 146.223324 294.173734 
L 148.253576 294.367904 
L 150.283829 295.37285 
L 152.314081 297.166158 
L 154.344334 299.708181 
L 156.374586 302.943491 
L 158.404839 306.802891 
L 160.435092 311.205875 
L 162.465344 316.06341 
L 164.495597 321.28092 
L 166.525849 326.76132 
L 168.556102 332.407971 
L 170.586354 338.127431 
L 172.616607 343.831903 
L 174.646859 349.441287 
L 176.677112 354.884788 
L 178.707364 360.102051 
L 180.737617 365.043808 
L 182.767869 369.67208 
L 184.798122 373.959943 
L 186.828374 377.890955 
L 188.858627 381.45827 
L 190.888879 384.66355 
L 192.919132 387.515718 
L 194.949384 390.029654 
L 196.979637 392.224869 
L 199.00989 394.124236 
L 201.040142 395.752809 
L 203.070395 397.136768 
L 205.100647 398.302509 
L 207.1309 399.275895 
L 209.161152 400.081659 
L 211.191405 400.74297 
L 213.221657 401.281122 
L 215.25191 401.715369 
L 217.282162 402.062844 
L 219.312415 402.338577 
L 221.342667 402.555574 
L 223.37292 402.724943 
L 225.403172 402.856058 
L 227.433425 402.956733 
L 229.463677 403.033408 
L 231.49393 403.091334 
L 233.524182 403.134744 
L 235.554435 403.167014 
L 237.584687 403.190811 
" clip-path="url(#p20e2f8c521)" style="fill: none; stroke: #ff0000; stroke-width: 2.5; stroke-linecap: square"/>
   </g>
   <g id="patch_19">
    <path d="M 36.589688 409.629223 
L 36.589688 269.316402 
" style="fill: none; stroke: #000000; stroke-width: 2; stroke-linejoin: miter; stroke-linecap: square"/>
   </g>
   <g id="patch_20">
    <path d="M 237.584687 409.629223 
L 237.584687 269.316402 
" style="fill: none; stroke: #000000; stroke-width: 2; stroke-linejoin: miter; stroke-linecap: square"/>
   </g>
   <g id="patch_21">
    <path d="M 36.589688 409.629223 
L 237.584687 409.629223 
" style="fill: none; stroke: #000000; stroke-width: 2; stroke-linejoin: miter; stroke-linecap: square"/>
   </g>
   <g id="patch_22">
    <path d="M 36.589688 269.316402 
L 237.584687 269.316402 
" style="fill: none; stroke: #000000; stroke-width: 2; stroke-linejoin: miter; stroke-linecap: square"/>
   </g>
   <g id="text_36">
    <!-- Heterogeneity -->
    <g transform="translate(58.861437 263.316402) scale(0.216 -0.216)">
     <defs>
      <path id="Montserrat-Regular-48" d="M 4006 4480 
L 4006 2483 
L 1203 2483 
L 1203 4480 
L 730 4480 
L 730 0 
L 1203 0 
L 1203 2067 
L 4006 2067 
L 4006 0 
L 4474 0 
L 4474 4480 
L 4006 4480 
z
" transform="scale(0.015625)"/>
     </defs>
     <use xlink:href="#Montserrat-Regular-48"/>
     <use xlink:href="#Montserrat-Regular-65" x="81.299988"/>
     <use xlink:href="#Montserrat-Regular-74" x="141.699982"/>
     <use xlink:href="#Montserrat-Regular-65" x="182.299973"/>
     <use xlink:href="#Montserrat-Regular-72" x="242.699966"/>
     <use xlink:href="#Montserrat-Regular-6f" x="282.799957"/>
     <use xlink:href="#Montserrat-Regular-67" x="345.499954"/>
     <use xlink:href="#Montserrat-Regular-65" x="414.099945"/>
     <use xlink:href="#Montserrat-Regular-6e" x="474.499939"/>
     <use xlink:href="#Montserrat-Regular-65" x="542.199921"/>
     <use xlink:href="#Montserrat-Regular-69" x="602.599915"/>
     <use xlink:href="#Montserrat-Regular-74" x="629.499908"/>
     <use xlink:href="#Montserrat-Regular-79" x="670.099899"/>
    </g>
   </g>
  </g>
  <g id="axes_5">
   <g id="patch_23">
    <path d="M 292.064687 409.629223 
L 493.059687 409.629223 
L 493.059687 269.316402 
L 292.064687 269.316402 
L 292.064687 409.629223 
z
" style="fill: none"/>
   </g>
   <g id="matplotlib.axis_9">
    <g id="xtick_16">
     <g id="line2d_27">
      <g>
       <use xlink:href="#m932ac785d7" x="317.189062" y="409.629223" style="stroke: #000000; stroke-width: 2"/>
      </g>
     </g>
     <g id="text_37">
      <!-- −3 -->
      <g transform="translate(306.9375 430.485785) scale(0.18 -0.18)">
       <use xlink:href="#Montserrat-Regular-2212"/>
       <use xlink:href="#Montserrat-Regular-33" x="57.499985"/>
      </g>
     </g>
    </g>
    <g id="xtick_17">
     <g id="line2d_28">
      <g>
       <use xlink:href="#m932ac785d7" x="392.562187" y="409.629223" style="stroke: #000000; stroke-width: 2"/>
      </g>
     </g>
     <g id="text_38">
      <!-- 0 -->
      <g transform="translate(386.603906 430.485785) scale(0.18 -0.18)">
       <use xlink:href="#Montserrat-Regular-30"/>
      </g>
     </g>
    </g>
    <g id="xtick_18">
     <g id="line2d_29">
      <g>
       <use xlink:href="#m932ac785d7" x="467.935313" y="409.629223" style="stroke: #000000; stroke-width: 2"/>
      </g>
     </g>
     <g id="text_39">
      <!-- 3 -->
      <g transform="translate(462.85875 430.485785) scale(0.18 -0.18)">
       <use xlink:href="#Montserrat-Regular-33"/>
      </g>
     </g>
    </g>
   </g>
   <g id="matplotlib.axis_10">
    <g id="ytick_16">
     <g id="line2d_30">
      <g>
       <use xlink:href="#m2949193b5c" x="292.064687" y="403.256469" style="stroke: #000000; stroke-width: 2"/>
      </g>
     </g>
     <g id="text_40">
      <!-- 0.0 -->
      <g transform="translate(256.915 409.93475) scale(0.18 -0.18)">
       <use xlink:href="#Montserrat-Regular-30"/>
       <use xlink:href="#Montserrat-Regular-2e" x="66.199997"/>
       <use xlink:href="#Montserrat-Regular-30" x="87.399994"/>
      </g>
     </g>
    </g>
    <g id="ytick_17">
     <g id="line2d_31">
      <g>
       <use xlink:href="#m2949193b5c" x="292.064687" y="346.085901" style="stroke: #000000; stroke-width: 2"/>
      </g>
     </g>
     <g id="text_41">
      <!-- 0.2 -->
      <g transform="translate(258.608125 352.764182) scale(0.18 -0.18)">
       <use xlink:href="#Montserrat-Regular-30"/>
       <use xlink:href="#Montserrat-Regular-2e" x="66.199997"/>
       <use xlink:href="#Montserrat-Regular-32" x="87.399994"/>
      </g>
     </g>
    </g>
    <g id="ytick_18">
     <g id="line2d_32">
      <g>
       <use xlink:href="#m2949193b5c" x="292.064687" y="288.915333" style="stroke: #000000; stroke-width: 2"/>
      </g>
     </g>
     <g id="text_42">
      <!-- 0.4 -->
      <g transform="translate(256.934687 295.593614) scale(0.18 -0.18)">
       <use xlink:href="#Montserrat-Regular-30"/>
       <use xlink:href="#Montserrat-Regular-2e" x="66.199997"/>
       <use xlink:href="#Montserrat-Regular-34" x="87.399994"/>
      </g>
     </g>
    </g>
   </g>
   <g id="line2d_33">
    <path d="M 292.064687 403.249663 
L 294.09494 403.246491 
L 296.125193 403.241952 
L 298.155445 403.235507 
L 300.185698 403.226432 
L 302.21595 403.213753 
L 304.246203 403.196183 
L 306.276455 403.172032 
L 308.306708 403.139102 
L 310.33696 403.094569 
L 312.367213 403.034832 
L 314.397465 402.955356 
L 316.427718 402.850484 
L 318.45797 402.71324 
L 320.488223 402.535115 
L 322.518475 402.305848 
L 324.548728 402.013218 
L 326.57898 401.642841 
L 328.609233 401.178015 
L 330.639485 400.599598 
L 332.669738 399.885978 
L 334.699991 399.013121 
L 336.730243 397.954746 
L 338.760496 396.682644 
L 340.790748 395.167148 
L 342.821001 393.377792 
L 344.851253 391.284149 
L 346.881506 388.856862 
L 348.911758 386.068848 
L 350.942011 382.896661 
L 352.972263 379.321967 
L 355.002516 375.333094 
L 357.032768 370.92658 
L 359.063021 366.10865 
L 361.093273 360.89654 
L 363.123526 355.319571 
L 365.153778 349.419894 
L 367.184031 343.252812 
L 369.214283 336.886622 
L 371.244536 330.401913 
L 373.274789 323.890302 
L 375.305041 317.452595 
L 377.335294 311.196423 
L 379.365546 305.233405 
L 381.395799 299.675932 
L 383.426051 294.633708 
L 385.456304 290.210177 
L 387.486556 286.49902 
L 389.516809 283.580852 
L 391.547061 281.520323 
L 393.577314 280.36373 
L 395.607566 280.137295 
L 397.637819 280.846169 
L 399.668071 282.474243 
L 401.698324 284.984754 
L 403.728576 288.321666 
L 405.758829 292.411747 
L 407.789081 297.167244 
L 409.819334 302.489004 
L 411.849586 308.269903 
L 413.879839 314.398406 
L 415.910092 320.762102 
L 417.940344 327.251053 
L 419.970597 333.760824 
L 422.000849 340.195094 
L 424.031102 346.467749 
L 426.061354 352.504427 
L 428.091607 358.24349 
L 430.121859 363.63644 
L 432.152112 368.647821 
L 434.182364 373.254672 
L 436.212617 377.445596 
L 438.242869 381.219548 
L 440.273122 384.584421 
L 442.303374 387.555525 
L 444.333627 390.154022 
L 446.363879 392.405418 
L 448.394132 394.338129 
L 450.424384 395.982205 
L 452.454637 397.368211 
L 454.48489 398.526291 
L 456.515142 399.485431 
L 458.545395 400.272893 
L 460.575647 400.913826 
L 462.6059 401.431028 
L 464.636152 401.844834 
L 466.666405 402.173116 
L 468.696657 402.431362 
L 470.72691 402.632816 
L 472.757162 402.78866 
L 474.787415 402.908222 
L 476.817667 402.999193 
L 478.84792 403.067842 
L 480.878172 403.119223 
L 482.908425 403.157365 
L 484.938677 403.185451 
L 486.96893 403.205963 
L 488.999182 403.220823 
L 491.029435 403.231502 
L 493.059687 403.239114 
" clip-path="url(#p05c7e88e1e)" style="fill: none; stroke: #0000ff; stroke-width: 2.5; stroke-linecap: square"/>
   </g>
   <g id="line2d_34">
    <path d="M 292.064687 403.251367 
L 294.09494 403.248837 
L 296.125193 403.245144 
L 298.155445 403.239802 
L 300.185698 403.232139 
L 302.21595 403.221241 
L 304.246203 403.205879 
L 306.276455 403.184409 
L 308.306708 403.154662 
L 310.33696 403.113806 
L 312.367213 403.058183 
L 314.397465 402.983115 
L 316.427718 402.882696 
L 318.45797 402.749548 
L 320.488223 402.574565 
L 322.518475 402.346647 
L 324.548728 402.052433 
L 326.57898 401.676048 
L 328.609233 401.198891 
L 330.639485 400.599478 
L 332.669738 399.853375 
L 334.699991 398.933242 
L 336.730243 397.809032 
L 338.760496 396.448358 
L 340.790748 394.817077 
L 342.821001 392.880087 
L 344.851253 390.602381 
L 346.881506 387.950319 
L 348.911758 384.893148 
L 350.942011 381.404695 
L 352.972263 377.465223 
L 355.002516 373.063339 
L 357.032768 368.197906 
L 359.063021 362.87982 
L 361.093273 357.133568 
L 363.123526 350.998428 
L 365.153778 344.529198 
L 367.184031 337.796365 
L 369.214283 330.885609 
L 371.244536 323.896598 
L 373.274789 316.941057 
L 375.305041 310.140123 
L 377.335294 303.621068 
L 379.365546 297.513475 
L 381.395799 291.945053 
L 383.426051 287.037241 
L 385.456304 282.90083 
L 387.486556 279.631818 
L 389.516809 277.307711 
L 391.547061 275.984467 
L 393.577314 275.694258 
L 395.607566 276.444169 
L 397.637819 278.215913 
L 399.668071 280.966569 
L 401.698324 284.630312 
L 403.728576 289.121032 
L 405.758829 294.335692 
L 407.789081 300.158258 
L 409.819334 306.463969 
L 411.849586 313.123752 
L 413.879839 320.008549 
L 415.910092 326.993361 
L 417.940344 333.960849 
L 419.970597 340.804341 
L 422.000849 347.430165 
L 424.031102 353.759262 
L 426.061354 359.728071 
L 428.091607 365.28872 
L 430.121859 370.408601 
L 432.152112 375.069413 
L 434.182364 379.265797 
L 436.212617 383.003659 
L 438.242869 386.298325 
L 440.273122 389.172614 
L 442.303374 391.654947 
L 444.333627 393.777556 
L 446.363879 395.574858 
L 448.394132 397.082048 
L 450.424384 398.333917 
L 452.454637 399.363915 
L 454.48489 400.203453 
L 456.515142 400.881414 
L 458.545395 401.423866 
L 460.575647 401.853935 
L 462.6059 402.191815 
L 464.636152 402.454876 
L 466.666405 402.657851 
L 468.696657 402.81307 
L 470.72691 402.930714 
L 472.757162 403.019093 
L 474.787415 403.084902 
L 476.817667 403.133476 
L 478.84792 403.169016 
L 480.878172 403.194792 
L 482.908425 403.213325 
L 484.938677 403.226535 
L 486.96893 403.235869 
L 488.999182 403.242408 
L 491.029435 403.24695 
L 493.059687 403.250077 
" clip-path="url(#p05c7e88e1e)" style="fill: none; stroke: #ff0000; stroke-width: 2.5; stroke-linecap: square"/>
   </g>
   <g id="patch_24">
    <path d="M 292.064687 409.629223 
L 292.064687 269.316402 
" style="fill: none; stroke: #000000; stroke-width: 2; stroke-linejoin: miter; stroke-linecap: square"/>
   </g>
   <g id="patch_25">
    <path d="M 493.059687 409.629223 
L 493.059687 269.316402 
" style="fill: none; stroke: #000000; stroke-width: 2; stroke-linejoin: miter; stroke-linecap: square"/>
   </g>
   <g id="patch_26">
    <path d="M 292.064687 409.629223 
L 493.059687 409.629223 
" style="fill: none; stroke: #000000; stroke-width: 2; stroke-linejoin: miter; stroke-linecap: square"/>
   </g>
   <g id="patch_27">
    <path d="M 292.064687 269.316402 
L 493.059687 269.316402 
" style="fill: none; stroke: #000000; stroke-width: 2; stroke-linejoin: miter; stroke-linecap: square"/>
   </g>
   <g id="text_43">
    <!-- Sphericity -->
    <g transform="translate(338.302312 263.316402) scale(0.216 -0.216)">
     <defs>
      <path id="Montserrat-Regular-53" d="M 1965 -38 
C 3110 -38 3635 525 3635 1184 
C 3635 2816 877 2074 877 3302 
C 877 3750 1242 4115 2061 4115 
C 2458 4115 2906 3994 3290 3744 
L 3450 4122 
C 3091 4371 2566 4518 2061 4518 
C 922 4518 410 3949 410 3290 
C 410 1632 3168 2387 3168 1158 
C 3168 717 2803 365 1965 365 
C 1376 365 806 595 486 909 
L 301 544 
C 634 198 1293 -38 1965 -38 
z
" transform="scale(0.015625)"/>
     </defs>
     <use xlink:href="#Montserrat-Regular-53"/>
     <use xlink:href="#Montserrat-Regular-70" x="61.499985"/>
     <use xlink:href="#Montserrat-Regular-68" x="129.299973"/>
     <use xlink:href="#Montserrat-Regular-65" x="196.999954"/>
     <use xlink:href="#Montserrat-Regular-72" x="257.399948"/>
     <use xlink:href="#Montserrat-Regular-69" x="297.499939"/>
     <use xlink:href="#Montserrat-Regular-63" x="324.399933"/>
     <use xlink:href="#Montserrat-Regular-69" x="380.699921"/>
     <use xlink:href="#Montserrat-Regular-74" x="407.599915"/>
     <use xlink:href="#Montserrat-Regular-79" x="448.199905"/>
    </g>
   </g>
  </g>
  <g id="axes_6">
   <g id="patch_28">
    <path d="M 36.589688 613.082812 
L 237.584687 613.082812 
L 237.584687 472.769992 
L 36.589688 472.769992 
L 36.589688 613.082812 
z
" style="fill: none"/>
   </g>
   <g id="matplotlib.axis_11">
    <g id="xtick_19">
     <g id="line2d_35">
      <g>
       <use xlink:href="#m932ac785d7" x="61.714062" y="613.082812" style="stroke: #000000; stroke-width: 2"/>
      </g>
     </g>
     <g id="text_44">
      <!-- −3 -->
      <g transform="translate(51.4625 633.939375) scale(0.18 -0.18)">
       <use xlink:href="#Montserrat-Regular-2212"/>
       <use xlink:href="#Montserrat-Regular-33" x="57.499985"/>
      </g>
     </g>
    </g>
    <g id="xtick_20">
     <g id="line2d_36">
      <g>
       <use xlink:href="#m932ac785d7" x="137.087187" y="613.082812" style="stroke: #000000; stroke-width: 2"/>
      </g>
     </g>
     <g id="text_45">
      <!-- 0 -->
      <g transform="translate(131.128906 633.939375) scale(0.18 -0.18)">
       <use xlink:href="#Montserrat-Regular-30"/>
      </g>
     </g>
    </g>
    <g id="xtick_21">
     <g id="line2d_37">
      <g>
       <use xlink:href="#m932ac785d7" x="212.460312" y="613.082812" style="stroke: #000000; stroke-width: 2"/>
      </g>
     </g>
     <g id="text_46">
      <!-- 3 -->
      <g transform="translate(207.38375 633.939375) scale(0.18 -0.18)">
       <use xlink:href="#Montserrat-Regular-33"/>
      </g>
     </g>
    </g>
   </g>
   <g id="matplotlib.axis_12">
    <g id="ytick_19">
     <g id="line2d_38">
      <g>
       <use xlink:href="#m2949193b5c" x="36.589688" y="606.706079" style="stroke: #000000; stroke-width: 2"/>
      </g>
     </g>
     <g id="text_47">
      <!-- 0.0 -->
      <g transform="translate(1.44 613.38436) scale(0.18 -0.18)">
       <use xlink:href="#Montserrat-Regular-30"/>
       <use xlink:href="#Montserrat-Regular-2e" x="66.199997"/>
       <use xlink:href="#Montserrat-Regular-30" x="87.399994"/>
      </g>
     </g>
    </g>
    <g id="ytick_20">
     <g id="line2d_39">
      <g>
       <use xlink:href="#m2949193b5c" x="36.589688" y="550.422833" style="stroke: #000000; stroke-width: 2"/>
      </g>
     </g>
     <g id="text_48">
      <!-- 0.2 -->
      <g transform="translate(3.133125 557.101114) scale(0.18 -0.18)">
       <use xlink:href="#Montserrat-Regular-30"/>
       <use xlink:href="#Montserrat-Regular-2e" x="66.199997"/>
       <use xlink:href="#Montserrat-Regular-32" x="87.399994"/>
      </g>
     </g>
    </g>
    <g id="ytick_21">
     <g id="line2d_40">
      <g>
       <use xlink:href="#m2949193b5c" x="36.589688" y="494.139587" style="stroke: #000000; stroke-width: 2"/>
      </g>
     </g>
     <g id="text_49">
      <!-- 0.4 -->
      <g transform="translate(1.459688 500.817868) scale(0.18 -0.18)">
       <use xlink:href="#Montserrat-Regular-30"/>
       <use xlink:href="#Montserrat-Regular-2e" x="66.199997"/>
       <use xlink:href="#Montserrat-Regular-34" x="87.399994"/>
      </g>
     </g>
    </g>
   </g>
   <g id="line2d_41">
    <path d="M 36.589688 606.692268 
L 38.61994 606.68571 
L 40.650193 606.67629 
L 42.680445 606.662881 
L 44.710698 606.643962 
L 46.74095 606.617509 
L 48.771203 606.580853 
L 50.801455 606.530517 
L 52.831708 606.462016 
L 54.86196 606.369643 
L 56.892213 606.246208 
L 58.922465 606.082775 
L 60.952718 605.868366 
L 62.98297 605.589674 
L 65.013223 605.23078 
L 67.043475 604.772911 
L 69.073728 604.194247 
L 71.10398 603.469823 
L 73.134233 602.571545 
L 75.164485 601.468366 
L 77.194738 600.126652 
L 79.224991 598.510759 
L 81.255243 596.583874 
L 83.285496 594.309105 
L 85.315748 591.650841 
L 87.346001 588.576365 
L 89.376253 585.057687 
L 91.406506 581.073535 
L 93.436758 576.611439 
L 95.467011 571.6698 
L 97.497263 566.259837 
L 99.527516 560.407277 
L 101.557768 554.153661 
L 103.588021 547.55713 
L 105.618273 540.692582 
L 107.648526 533.651101 
L 109.678778 526.538592 
L 111.709031 519.473623 
L 113.739283 512.584478 
L 115.769536 506.005518 
L 117.799789 499.872975 
L 119.830041 494.320346 
L 121.860294 489.473615 
L 123.890546 485.446522 
L 125.920799 482.336135 
L 127.951051 480.218967 
L 129.981304 479.147847 
L 132.011556 479.14973 
L 134.041809 480.224568 
L 136.072061 482.345314 
L 138.102314 485.459051 
L 140.132566 489.489189 
L 142.162819 494.338593 
L 144.193071 499.893474 
L 146.223324 506.027813 
L 148.253576 512.608094 
L 150.283829 519.498085 
L 152.314081 526.563439 
L 154.344334 533.6759 
L 156.374586 540.716939 
L 158.404839 547.580699 
L 160.435092 554.176152 
L 162.465344 560.428458 
L 164.495597 566.279534 
L 166.525849 571.687896 
L 168.556102 576.627871 
L 170.586354 581.088287 
L 172.616607 585.070785 
L 174.646859 588.587869 
L 176.677112 591.660838 
L 178.707364 594.317703 
L 180.737617 596.591193 
L 182.767869 598.516926 
L 184.798122 600.131797 
L 186.828374 601.472617 
L 188.858627 602.575022 
L 190.888879 603.47264 
L 192.919132 604.196508 
L 194.949384 604.774708 
L 196.979637 605.232195 
L 199.00989 605.590777 
L 201.040142 605.869219 
L 203.070395 606.083428 
L 205.100647 606.246704 
L 207.1309 606.370015 
L 209.161152 606.462293 
L 211.191405 606.530721 
L 213.221657 606.581003 
L 215.25191 606.617618 
L 217.282162 606.64404 
L 219.312415 606.662936 
L 221.342667 606.676329 
L 223.37292 606.685737 
L 225.403172 606.692287 
L 227.433425 606.696807 
L 229.463677 606.699898 
L 231.49393 606.701993 
L 233.524182 606.703401 
L 235.554435 606.704338 
L 237.584687 606.704957 
" clip-path="url(#p2510dc1c7f)" style="fill: none; stroke: #0000ff; stroke-width: 2.5; stroke-linecap: square"/>
   </g>
   <g id="line2d_42">
    <path d="M 36.589688 606.700466 
L 38.61994 606.697729 
L 40.650193 606.693757 
L 42.680445 606.688042 
L 44.710698 606.679887 
L 46.74095 606.668349 
L 48.771203 606.652164 
L 50.801455 606.629654 
L 52.831708 606.598612 
L 54.86196 606.556173 
L 56.892213 606.498648 
L 58.922465 606.421348 
L 60.952718 606.318372 
L 62.98297 606.182381 
L 65.013223 606.004357 
L 67.043475 605.773345 
L 69.073728 605.476212 
L 71.10398 605.097411 
L 73.134233 604.61879 
L 75.164485 604.019457 
L 77.194738 603.27573 
L 79.224991 602.361198 
L 81.255243 601.246925 
L 83.285496 599.901824 
L 85.315748 598.293217 
L 87.346001 596.387623 
L 89.376253 594.151748 
L 91.406506 591.553721 
L 93.436758 588.564514 
L 95.467011 585.159561 
L 97.497263 581.320486 
L 99.527516 577.036912 
L 101.557768 572.308233 
L 103.588021 567.145287 
L 105.618273 561.571795 
L 107.648526 555.625481 
L 109.678778 549.358744 
L 111.709031 542.83881 
L 113.739283 536.147261 
L 115.769536 529.378913 
L 117.799789 522.640012 
L 119.830041 516.045766 
L 121.860294 509.717289 
L 123.890546 503.778037 
L 125.920799 498.349889 
L 127.951051 493.549038 
L 129.981304 489.481877 
L 132.011556 486.241094 
L 134.041809 483.902162 
L 136.072061 482.520419 
L 138.102314 482.12889 
L 140.132566 482.736979 
L 142.162819 484.330091 
L 144.193071 486.870213 
L 146.223324 490.297424 
L 148.253576 494.532245 
L 150.283829 499.478697 
L 152.314081 505.027917 
L 154.344334 511.062127 
L 156.374586 517.458759 
L 158.404839 524.094543 
L 160.435092 530.84936 
L 162.465344 537.609705 
L 164.495597 544.271628 
L 166.525849 550.743053 
L 168.556102 556.945443 
L 170.586354 562.814774 
L 172.616607 568.301862 
L 174.646859 573.372098 
L 176.677112 578.004665 
L 178.707364 582.191342 
L 180.737617 585.935001 
L 182.767869 589.247911 
L 184.798122 592.149941 
L 186.828374 594.666772 
L 188.858627 596.828178 
L 190.888879 598.666456 
L 192.919132 600.215036 
L 194.949384 601.507302 
L 196.979637 602.575644 
L 199.00989 603.450726 
L 201.040142 604.160958 
L 203.070395 604.732173 
L 205.100647 605.187448 
L 207.1309 605.547072 
L 209.161152 605.828618 
L 211.191405 606.047092 
L 213.221657 606.215132 
L 215.25191 606.343252 
L 217.282162 606.440085 
L 219.312415 606.512636 
L 221.342667 606.566525 
L 223.37292 606.606208 
L 225.403172 606.63518 
L 227.433425 606.65615 
L 229.463677 606.671199 
L 231.49393 606.681908 
L 233.524182 606.689463 
L 235.554435 606.694748 
L 237.584687 606.698414 
" clip-path="url(#p2510dc1c7f)" style="fill: none; stroke: #ff0000; stroke-width: 2.5; stroke-linecap: square"/>
   </g>
   <g id="patch_29">
    <path d="M 36.589688 613.082812 
L 36.589688 472.769992 
" style="fill: none; stroke: #000000; stroke-width: 2; stroke-linejoin: miter; stroke-linecap: square"/>
   </g>
   <g id="patch_30">
    <path d="M 237.584687 613.082812 
L 237.584687 472.769992 
" style="fill: none; stroke: #000000; stroke-width: 2; stroke-linejoin: miter; stroke-linecap: square"/>
   </g>
   <g id="patch_31">
    <path d="M 36.589688 613.082812 
L 237.584687 613.082812 
" style="fill: none; stroke: #000000; stroke-width: 2; stroke-linejoin: miter; stroke-linecap: square"/>
   </g>
   <g id="patch_32">
    <path d="M 36.589688 472.769992 
L 237.584687 472.769992 
" style="fill: none; stroke: #000000; stroke-width: 2; stroke-linejoin: miter; stroke-linecap: square"/>
   </g>
   <g id="text_50">
    <!-- Num-Neighbors -->
    <g transform="translate(48.819125 466.769992) scale(0.216 -0.216)">
     <defs>
      <path id="Montserrat-Regular-4e" d="M 4006 4480 
L 4006 845 
L 1120 4480 
L 730 4480 
L 730 0 
L 1203 0 
L 1203 3635 
L 4083 0 
L 4474 0 
L 4474 4480 
L 4006 4480 
z
" transform="scale(0.015625)"/>
      <path id="Montserrat-Regular-2d" d="M 384 1536 
L 2061 1536 
L 2061 1933 
L 384 1933 
L 384 1536 
z
" transform="scale(0.015625)"/>
      <path id="Montserrat-Regular-62" d="M 2368 3392 
C 1830 3392 1370 3162 1088 2726 
L 1088 4749 
L 634 4749 
L 634 0 
L 1069 0 
L 1069 666 
C 1344 211 1811 -32 2368 -32 
C 3328 -32 4045 666 4045 1683 
C 4045 2701 3328 3392 2368 3392 
z
M 2336 371 
C 1619 371 1082 896 1082 1683 
C 1082 2470 1619 2995 2336 2995 
C 3046 2995 3590 2470 3590 1683 
C 3590 896 3046 371 2336 371 
z
" transform="scale(0.015625)"/>
     </defs>
     <use xlink:href="#Montserrat-Regular-4e"/>
     <use xlink:href="#Montserrat-Regular-75" x="81.299988"/>
     <use xlink:href="#Montserrat-Regular-6d" x="148.599976"/>
     <use xlink:href="#Montserrat-Regular-2d" x="254.699966"/>
     <use xlink:href="#Montserrat-Regular-4e" x="292.899963"/>
     <use xlink:href="#Montserrat-Regular-65" x="374.199951"/>
     <use xlink:href="#Montserrat-Regular-69" x="434.599945"/>
     <use xlink:href="#Montserrat-Regular-67" x="461.499939"/>
     <use xlink:href="#Montserrat-Regular-68" x="530.09993"/>
     <use xlink:href="#Montserrat-Regular-62" x="597.799911"/>
     <use xlink:href="#Montserrat-Regular-6f" x="665.599899"/>
     <use xlink:href="#Montserrat-Regular-72" x="728.299896"/>
     <use xlink:href="#Montserrat-Regular-73" x="768.399887"/>
    </g>
   </g>
  </g>
  <g id="axes_7">
   <g id="patch_33">
    <path d="M 292.064687 613.082812 
L 493.059687 613.082812 
L 493.059687 472.769992 
L 292.064687 472.769992 
L 292.064687 613.082812 
z
" style="fill: none"/>
   </g>
   <g id="matplotlib.axis_13">
    <g id="xtick_22">
     <g id="line2d_43">
      <g>
       <use xlink:href="#m932ac785d7" x="317.189062" y="613.082812" style="stroke: #000000; stroke-width: 2"/>
      </g>
     </g>
     <g id="text_51">
      <!-- −3 -->
      <g transform="translate(306.9375 633.939375) scale(0.18 -0.18)">
       <use xlink:href="#Montserrat-Regular-2212"/>
       <use xlink:href="#Montserrat-Regular-33" x="57.499985"/>
      </g>
     </g>
    </g>
    <g id="xtick_23">
     <g id="line2d_44">
      <g>
       <use xlink:href="#m932ac785d7" x="392.562187" y="613.082812" style="stroke: #000000; stroke-width: 2"/>
      </g>
     </g>
     <g id="text_52">
      <!-- 0 -->
      <g transform="translate(386.603906 633.939375) scale(0.18 -0.18)">
       <use xlink:href="#Montserrat-Regular-30"/>
      </g>
     </g>
    </g>
    <g id="xtick_24">
     <g id="line2d_45">
      <g>
       <use xlink:href="#m932ac785d7" x="467.935313" y="613.082812" style="stroke: #000000; stroke-width: 2"/>
      </g>
     </g>
     <g id="text_53">
      <!-- 3 -->
      <g transform="translate(462.85875 633.939375) scale(0.18 -0.18)">
       <use xlink:href="#Montserrat-Regular-33"/>
      </g>
     </g>
    </g>
   </g>
   <g id="matplotlib.axis_14">
    <g id="ytick_22">
     <g id="line2d_46">
      <g>
       <use xlink:href="#m2949193b5c" x="292.064687" y="606.7132" style="stroke: #000000; stroke-width: 2"/>
      </g>
     </g>
     <g id="text_54">
      <!-- 0.0 -->
      <g transform="translate(256.915 613.391482) scale(0.18 -0.18)">
       <use xlink:href="#Montserrat-Regular-30"/>
       <use xlink:href="#Montserrat-Regular-2e" x="66.199997"/>
       <use xlink:href="#Montserrat-Regular-30" x="87.399994"/>
      </g>
     </g>
    </g>
    <g id="ytick_23">
     <g id="line2d_47">
      <g>
       <use xlink:href="#m2949193b5c" x="292.064687" y="548.107311" style="stroke: #000000; stroke-width: 2"/>
      </g>
     </g>
     <g id="text_55">
      <!-- 0.2 -->
      <g transform="translate(258.608125 554.785593) scale(0.18 -0.18)">
       <use xlink:href="#Montserrat-Regular-30"/>
       <use xlink:href="#Montserrat-Regular-2e" x="66.199997"/>
       <use xlink:href="#Montserrat-Regular-32" x="87.399994"/>
      </g>
     </g>
    </g>
    <g id="ytick_24">
     <g id="line2d_48">
      <g>
       <use xlink:href="#m2949193b5c" x="292.064687" y="489.501422" style="stroke: #000000; stroke-width: 2"/>
      </g>
     </g>
     <g id="text_56">
      <!-- 0.4 -->
      <g transform="translate(256.934687 496.179703) scale(0.18 -0.18)">
       <use xlink:href="#Montserrat-Regular-30"/>
       <use xlink:href="#Montserrat-Regular-2e" x="66.199997"/>
       <use xlink:href="#Montserrat-Regular-34" x="87.399994"/>
      </g>
     </g>
    </g>
   </g>
   <g id="line2d_49">
    <path d="M 292.064687 606.689829 
L 294.09494 606.68085 
L 296.125193 606.668703 
L 298.155445 606.652382 
L 300.185698 606.630601 
L 302.21595 606.601727 
L 304.246203 606.56371 
L 306.276455 606.513995 
L 308.306708 606.449424 
L 310.33696 606.366129 
L 312.367213 606.259416 
L 314.397465 606.123642 
L 316.427718 605.952083 
L 318.45797 605.736809 
L 320.488223 605.468561 
L 322.518475 605.13664 
L 324.548728 604.72882 
L 326.57898 604.231287 
L 328.609233 603.628622 
L 330.639485 602.903838 
L 332.669738 602.038474 
L 334.699991 601.012772 
L 336.730243 599.805936 
L 338.760496 598.39648 
L 340.790748 596.762688 
L 342.821001 594.883161 
L 344.851253 592.737477 
L 346.881506 590.306933 
L 348.911758 587.575373 
L 350.942011 584.53007 
L 352.972263 581.16264 
L 355.002516 577.469968 
L 357.032768 573.45508 
L 359.063021 569.127954 
L 361.093273 564.506202 
L 363.123526 559.615586 
L 365.153778 554.490333 
L 367.184031 549.173195 
L 369.214283 543.715247 
L 371.244536 538.175368 
L 373.274789 532.619437 
L 375.305041 527.119204 
L 377.335294 521.750885 
L 379.365546 516.5935 
L 381.395799 511.727001 
L 383.426051 507.230251 
L 385.456304 503.178921 
L 387.486556 499.643387 
L 389.516809 496.686701 
L 391.547061 494.362724 
L 393.577314 492.714497 
L 395.607566 491.772914 
L 397.637819 491.555759 
L 399.668071 492.067147 
L 401.698324 493.297395 
L 403.728576 495.223326 
L 405.758829 497.808998 
L 407.789081 501.006814 
L 409.819334 504.758987 
L 411.849586 508.999265 
L 413.879839 513.654882 
L 415.910092 518.648621 
L 417.940344 523.900928 
L 419.970597 529.331992 
L 422.000849 534.863711 
L 424.031102 540.421489 
L 426.061354 545.935796 
L 428.091607 551.343467 
L 430.121859 556.588696 
L 432.152112 561.623731 
L 434.182364 566.409259 
L 436.212617 570.914498 
L 438.242869 575.117031 
L 440.273122 579.002409 
L 442.303374 582.563552 
L 444.333627 585.800021 
L 446.363879 588.717171 
L 448.394132 591.325254 
L 450.424384 593.638491 
L 452.454637 595.674174 
L 454.48489 597.451796 
L 456.515142 598.992257 
L 458.545395 600.31716 
L 460.575647 601.448188 
L 462.6059 602.406596 
L 464.636152 603.212798 
L 466.666405 603.886054 
L 468.696657 604.444245 
L 470.72691 604.903732 
L 472.757162 605.279285 
L 474.787415 605.584072 
L 476.817667 605.829692 
L 478.84792 606.026251 
L 480.878172 606.182454 
L 482.908425 606.30573 
L 484.938677 606.402349 
L 486.96893 606.477556 
L 488.999182 606.535696 
L 491.029435 606.580336 
L 493.059687 606.614378 
" clip-path="url(#p4f5e32427f)" style="fill: none; stroke: #0000ff; stroke-width: 2.5; stroke-linecap: square"/>
   </g>
   <g id="line2d_50">
    <path d="M 292.064687 606.702764 
L 294.09494 606.697959 
L 296.125193 606.691114 
L 298.155445 606.681443 
L 300.185698 606.66789 
L 302.21595 606.649055 
L 304.246203 606.623094 
L 306.276455 606.587606 
L 308.306708 606.539498 
L 310.33696 606.474824 
L 312.367213 606.388604 
L 314.397465 606.274623 
L 316.427718 606.125209 
L 318.45797 605.931001 
L 320.488223 605.680709 
L 322.518475 605.360887 
L 324.548728 604.955721 
L 326.57898 604.446859 
L 328.609233 603.813303 
L 330.639485 603.031385 
L 332.669738 602.07485 
L 334.699991 600.91508 
L 336.730243 599.521477 
L 338.760496 597.862026 
L 340.790748 595.904066 
L 342.821001 593.615258 
L 344.851253 590.964766 
L 346.881506 587.924628 
L 348.911758 584.471278 
L 350.942011 580.587197 
L 352.972263 576.262606 
L 355.002516 571.497147 
L 357.032768 566.301444 
L 359.063021 560.698468 
L 361.093273 554.724592 
L 363.123526 548.430239 
L 365.153778 541.880045 
L 367.184031 535.152459 
L 369.214283 528.338729 
L 371.244536 521.541258 
L 373.274789 514.871355 
L 375.305041 508.446408 
L 377.335294 502.386594 
L 379.365546 496.811222 
L 381.395799 491.834883 
L 383.426051 487.563557 
L 385.456304 484.090873 
L 387.486556 481.494703 
L 389.516809 479.834258 
L 391.547061 479.147847 
L 393.577314 479.451405 
L 395.607566 480.737876 
L 397.637819 482.977492 
L 399.668071 486.118912 
L 401.698324 490.091181 
L 403.728576 494.806395 
L 405.758829 500.162927 
L 407.789081 506.049066 
L 409.819334 512.346866 
L 411.849586 518.936039 
L 413.879839 525.697702 
L 415.910092 532.51783 
L 417.940344 539.290269 
L 419.970597 545.919219 
L 422.000849 552.321121 
L 424.031102 558.425907 
L 426.061354 564.177636 
L 428.091607 569.534547 
L 430.121859 574.468582 
L 432.152112 578.964481 
L 434.182364 583.018524 
L 436.212617 586.637036 
L 438.242869 589.83474 
L 440.273122 592.633058 
L 442.303374 595.058439 
L 444.333627 597.140778 
L 446.363879 598.911982 
L 448.394132 600.404714 
L 450.424384 601.651342 
L 452.454637 602.68309 
L 454.48489 603.529398 
L 456.515142 604.217472 
L 458.545395 604.771999 
L 460.575647 605.215013 
L 462.6059 605.565883 
L 464.636152 605.841387 
L 466.666405 606.055868 
L 468.696657 606.221422 
L 470.72691 606.348131 
L 472.757162 606.444292 
L 474.787415 606.516659 
L 476.817667 606.570664 
L 478.84792 606.61063 
L 480.878172 606.639962 
L 482.908425 606.661311 
L 484.938677 606.676722 
L 486.96893 606.687754 
L 488.999182 606.695588 
L 491.029435 606.701104 
L 493.059687 606.704957 
" clip-path="url(#p4f5e32427f)" style="fill: none; stroke: #ff0000; stroke-width: 2.5; stroke-linecap: square"/>
   </g>
   <g id="patch_34">
    <path d="M 292.064687 613.082812 
L 292.064687 472.769992 
" style="fill: none; stroke: #000000; stroke-width: 2; stroke-linejoin: miter; stroke-linecap: square"/>
   </g>
   <g id="patch_35">
    <path d="M 493.059687 613.082812 
L 493.059687 472.769992 
" style="fill: none; stroke: #000000; stroke-width: 2; stroke-linejoin: miter; stroke-linecap: square"/>
   </g>
   <g id="patch_36">
    <path d="M 292.064687 613.082812 
L 493.059687 613.082812 
" style="fill: none; stroke: #000000; stroke-width: 2; stroke-linejoin: miter; stroke-linecap: square"/>
   </g>
   <g id="patch_37">
    <path d="M 292.064687 472.769992 
L 493.059687 472.769992 
" style="fill: none; stroke: #000000; stroke-width: 2; stroke-linejoin: miter; stroke-linecap: square"/>
   </g>
   <g id="text_57">
    <!-- NN-Distance -->
    <g transform="translate(323.09625 466.769992) scale(0.216 -0.216)">
     <defs>
      <path id="Montserrat-Regular-44" d="M 730 0 
L 2554 0 
C 3987 0 4954 922 4954 2240 
C 4954 3558 3987 4480 2554 4480 
L 730 4480 
L 730 0 
z
M 1203 410 
L 1203 4070 
L 2528 4070 
C 3718 4070 4486 3315 4486 2240 
C 4486 1165 3718 410 2528 410 
L 1203 410 
z
" transform="scale(0.015625)"/>
     </defs>
     <use xlink:href="#Montserrat-Regular-4e"/>
     <use xlink:href="#Montserrat-Regular-4e" x="81.299988"/>
     <use xlink:href="#Montserrat-Regular-2d" x="162.599976"/>
     <use xlink:href="#Montserrat-Regular-44" x="200.799973"/>
     <use xlink:href="#Montserrat-Regular-69" x="283.399963"/>
     <use xlink:href="#Montserrat-Regular-73" x="310.299957"/>
     <use xlink:href="#Montserrat-Regular-74" x="359.199951"/>
     <use xlink:href="#Montserrat-Regular-61" x="399.799942"/>
     <use xlink:href="#Montserrat-Regular-6e" x="458.799927"/>
     <use xlink:href="#Montserrat-Regular-63" x="526.499908"/>
     <use xlink:href="#Montserrat-Regular-65" x="582.799896"/>
    </g>
   </g>
  </g>
 </g>
 <defs>
  <clipPath id="pb3f3d9722e">
   <rect x="36.589688" y="65.862812" width="200.995" height="140.312821"/>
  </clipPath>
  <clipPath id="pa19615d4c7">
   <rect x="292.064687" y="65.862812" width="200.995" height="140.312821"/>
  </clipPath>
  <clipPath id="p20e2f8c521">
   <rect x="36.589688" y="269.316402" width="200.995" height="140.312821"/>
  </clipPath>
  <clipPath id="p05c7e88e1e">
   <rect x="292.064687" y="269.316402" width="200.995" height="140.312821"/>
  </clipPath>
  <clipPath id="p2510dc1c7f">
   <rect x="36.589688" y="472.769992" width="200.995" height="140.312821"/>
  </clipPath>
  <clipPath id="p4f5e32427f">
   <rect x="292.064687" y="472.769992" width="200.995" height="140.312821"/>
  </clipPath>
 </defs>
</svg>
