<?xml version="1.0" encoding="utf-8" standalone="no"?>
<!DOCTYPE svg PUBLIC "-//W3C//DTD SVG 1.1//EN"
  "http://www.w3.org/Graphics/SVG/1.1/DTD/svg11.dtd">
<svg xmlns:xlink="http://www.w3.org/1999/xlink" width="377.904375pt" height="395.779687pt" viewBox="0 0 377.904375 395.779687" xmlns="http://www.w3.org/2000/svg" version="1.1">
 <metadata>
  <rdf:RDF xmlns:dc="http://purl.org/dc/elements/1.1/" xmlns:cc="http://creativecommons.org/ns#" xmlns:rdf="http://www.w3.org/1999/02/22-rdf-syntax-ns#">
   <cc:Work>
    <dc:type rdf:resource="http://purl.org/dc/dcmitype/StillImage"/>
    <dc:date>2022-10-05T13:36:13.150790</dc:date>
    <dc:format>image/svg+xml</dc:format>
    <dc:creator>
     <cc:Agent>
      <dc:title>Matplotlib v3.6.0, https://matplotlib.org/</dc:title>
     </cc:Agent>
    </dc:creator>
   </cc:Work>
  </rdf:RDF>
 </metadata>
 <defs>
  <style type="text/css">*{stroke-linejoin: round; stroke-linecap: butt}</style>
 </defs>
 <g id="figure_1">
  <g id="patch_1">
   <path d="M 0 395.779687 
L 377.904375 395.779687 
L 377.904375 0 
L 0 0 
L 0 395.779687 
z
" style="fill: none"/>
  </g>
  <g id="axes_1">
   <g id="patch_2">
    <path d="M 40.764375 355.0125 
L 376.464375 355.0125 
L 376.464375 19.3125 
L 40.764375 19.3125 
L 40.764375 355.0125 
z
" style="fill: none"/>
   </g>
   <g id="PathCollection_1">
    <defs>
     <path id="m5e4a3821a1" d="M 0 4.330127 
C 1.148363 4.330127 2.249847 3.873878 3.061862 3.061862 
C 3.873878 2.249847 4.330127 1.148363 4.330127 0 
C 4.330127 -1.148363 3.873878 -2.249847 3.061862 -3.061862 
C 2.249847 -3.873878 1.148363 -4.330127 0 -4.330127 
C -1.148363 -4.330127 -2.249847 -3.873878 -3.061862 -3.061862 
C -3.873878 -2.249847 -4.330127 -1.148363 -4.330127 0 
C -4.330127 1.148363 -3.873878 2.249847 -3.061862 3.061862 
C -2.249847 3.873878 -1.148363 4.330127 0 4.330127 
z
" style="stroke: #0000ff"/>
    </defs>
    <g clip-path="url(#p2c4b7b244f)">
     <use xlink:href="#m5e4a3821a1" x="295.914352" y="143.349228" style="fill: #0000ff; stroke: #0000ff"/>
     <use xlink:href="#m5e4a3821a1" x="306.295356" y="188.254733" style="fill: #0000ff; stroke: #0000ff"/>
     <use xlink:href="#m5e4a3821a1" x="274.778952" y="134.072503" style="fill: #0000ff; stroke: #0000ff"/>
     <use xlink:href="#m5e4a3821a1" x="255.367896" y="208.616303" style="fill: #0000ff; stroke: #0000ff"/>
     <use xlink:href="#m5e4a3821a1" x="307.007661" y="324.745829" style="fill: #0000ff; stroke: #0000ff"/>
     <use xlink:href="#m5e4a3821a1" x="138.870099" y="218.882813" style="fill: #0000ff; stroke: #0000ff"/>
    </g>
   </g>
   <g id="PathCollection_2">
    <defs>
     <path id="maab70158b8" d="M 0 4.330127 
C 1.148363 4.330127 2.249847 3.873878 3.061862 3.061862 
C 3.873878 2.249847 4.330127 1.148363 4.330127 0 
C 4.330127 -1.148363 3.873878 -2.249847 3.061862 -3.061862 
C 2.249847 -3.873878 1.148363 -4.330127 0 -4.330127 
C -1.148363 -4.330127 -2.249847 -3.873878 -3.061862 -3.061862 
C -3.873878 -2.249847 -4.330127 -1.148363 -4.330127 0 
C -4.330127 1.148363 -3.873878 2.249847 -3.061862 3.061862 
C -2.249847 3.873878 -1.148363 4.330127 0 4.330127 
z
" style="stroke: #ff0000"/>
    </defs>
    <g clip-path="url(#p2c4b7b244f)">
     <use xlink:href="#maab70158b8" x="331.253749" y="62.596651" style="fill: #ff0000; stroke: #ff0000"/>
     <use xlink:href="#maab70158b8" x="272.906057" y="135.739004" style="fill: #ff0000; stroke: #ff0000"/>
     <use xlink:href="#maab70158b8" x="164.558555" y="133.931483" style="fill: #ff0000; stroke: #ff0000"/>
     <use xlink:href="#maab70158b8" x="178.929074" y="168.075539" style="fill: #ff0000; stroke: #ff0000"/>
     <use xlink:href="#maab70158b8" x="131.226371" y="132.238114" style="fill: #ff0000; stroke: #ff0000"/>
     <use xlink:href="#maab70158b8" x="70.064379" y="171.647798" style="fill: #ff0000; stroke: #ff0000"/>
    </g>
   </g>
   <g id="matplotlib.axis_1">
    <g id="xtick_1">
     <g id="line2d_1">
      <defs>
       <path id="me06c06c3b9" d="M 0 0 
L 0 -8 
" style="stroke: #000000; stroke-width: 2"/>
      </defs>
      <g>
       <use xlink:href="#me06c06c3b9" x="102.931042" y="355.0125" style="stroke: #000000; stroke-width: 2"/>
      </g>
     </g>
     <g id="text_1">
      <!-- −1 -->
      <g transform="translate(94.507604 371.869062) scale(0.18 -0.18)">
       <defs>
        <path id="Montserrat-Regular-2212" d="M 448 2048 
L 3232 2048 
L 3232 2426 
L 448 2426 
L 448 2048 
z
" transform="scale(0.015625)"/>
        <path id="Montserrat-Regular-31" d="M 58 4480 
L 58 4070 
L 1114 4070 
L 1114 0 
L 1574 0 
L 1574 4480 
L 58 4480 
z
" transform="scale(0.015625)"/>
       </defs>
       <use xlink:href="#Montserrat-Regular-2212"/>
       <use xlink:href="#Montserrat-Regular-31" x="57.499985"/>
      </g>
     </g>
    </g>
    <g id="xtick_2">
     <g id="line2d_2">
      <g>
       <use xlink:href="#me06c06c3b9" x="227.264375" y="355.0125" style="stroke: #000000; stroke-width: 2"/>
      </g>
     </g>
     <g id="text_2">
      <!-- 0 -->
      <g transform="translate(221.306094 371.869062) scale(0.18 -0.18)">
       <defs>
        <path id="Montserrat-Regular-30" d="M 2118 -38 
C 3155 -38 3910 813 3910 2240 
C 3910 3667 3155 4518 2118 4518 
C 1082 4518 333 3667 333 2240 
C 333 813 1082 -38 2118 -38 
z
M 2118 384 
C 1338 384 800 1043 800 2240 
C 800 3437 1338 4096 2118 4096 
C 2899 4096 3437 3437 3437 2240 
C 3437 1043 2899 384 2118 384 
z
" transform="scale(0.015625)"/>
       </defs>
       <use xlink:href="#Montserrat-Regular-30"/>
      </g>
     </g>
    </g>
    <g id="xtick_3">
     <g id="line2d_3">
      <g>
       <use xlink:href="#me06c06c3b9" x="351.597708" y="355.0125" style="stroke: #000000; stroke-width: 2"/>
      </g>
     </g>
     <g id="text_3">
      <!-- 1 -->
      <g transform="translate(348.349271 371.869062) scale(0.18 -0.18)">
       <use xlink:href="#Montserrat-Regular-31"/>
      </g>
     </g>
    </g>
    <g id="text_4">
     <!-- PCA-mode 2 -->
     <g transform="translate(157.925625 391.234687) scale(0.16 -0.16)">
      <defs>
       <path id="Montserrat-Regular-50" d="M 2406 4480 
L 730 4480 
L 730 0 
L 1203 0 
L 1203 1414 
L 2406 1414 
C 3546 1414 4237 1990 4237 2944 
C 4237 3904 3546 4480 2406 4480 
z
M 2394 1830 
L 1203 1830 
L 1203 4070 
L 2394 4070 
C 3290 4070 3763 3661 3763 2944 
C 3763 2240 3290 1830 2394 1830 
z
" transform="scale(0.015625)"/>
       <path id="Montserrat-Regular-43" d="M 2675 -38 
C 3334 -38 3923 186 4320 621 
L 4019 922 
C 3654 544 3206 384 2694 384 
C 1613 384 800 1178 800 2240 
C 800 3302 1613 4096 2694 4096 
C 3206 4096 3654 3936 4019 3565 
L 4320 3866 
C 3923 4301 3334 4518 2682 4518 
C 1331 4518 333 3552 333 2240 
C 333 928 1331 -38 2675 -38 
z
" transform="scale(0.015625)"/>
       <path id="Montserrat-Regular-41" d="M 4077 0 
L 4576 0 
L 2528 4480 
L 2061 4480 
L 13 0 
L 506 0 
L 1043 1197 
L 3539 1197 
L 4077 0 
z
M 1216 1581 
L 2291 3987 
L 3366 1581 
L 1216 1581 
z
" transform="scale(0.015625)"/>
       <path id="Montserrat-Regular-2d" d="M 384 1536 
L 2061 1536 
L 2061 1933 
L 384 1933 
L 384 1536 
z
" transform="scale(0.015625)"/>
       <path id="Montserrat-Regular-6d" d="M 4832 3392 
C 4224 3392 3744 3117 3501 2682 
C 3296 3155 2861 3392 2304 3392 
C 1741 3392 1306 3155 1069 2752 
L 1069 3366 
L 634 3366 
L 634 0 
L 1088 0 
L 1088 1766 
C 1088 2534 1530 2982 2214 2982 
C 2829 2982 3187 2618 3187 1907 
L 3187 0 
L 3642 0 
L 3642 1766 
C 3642 2534 4077 2982 4768 2982 
C 5376 2982 5734 2618 5734 1907 
L 5734 0 
L 6189 0 
L 6189 1952 
C 6189 2918 5651 3392 4832 3392 
z
" transform="scale(0.015625)"/>
       <path id="Montserrat-Regular-6f" d="M 2010 -32 
C 2995 -32 3718 685 3718 1683 
C 3718 2682 2995 3392 2010 3392 
C 1024 3392 294 2682 294 1683 
C 294 685 1024 -32 2010 -32 
z
M 2010 371 
C 1293 371 755 896 755 1683 
C 755 2470 1293 2995 2010 2995 
C 2726 2995 3258 2470 3258 1683 
C 3258 896 2726 371 2010 371 
z
" transform="scale(0.015625)"/>
       <path id="Montserrat-Regular-64" d="M 3251 4749 
L 3251 2726 
C 2970 3162 2509 3392 1971 3392 
C 1011 3392 294 2701 294 1683 
C 294 666 1011 -32 1971 -32 
C 2528 -32 2995 211 3270 666 
L 3270 0 
L 3706 0 
L 3706 4749 
L 3251 4749 
z
M 2010 371 
C 1293 371 755 896 755 1683 
C 755 2470 1293 2995 2010 2995 
C 2720 2995 3258 2470 3258 1683 
C 3258 896 2720 371 2010 371 
z
" transform="scale(0.015625)"/>
       <path id="Montserrat-Regular-65" d="M 3571 1683 
C 3571 2694 2886 3392 1939 3392 
C 992 3392 294 2682 294 1683 
C 294 685 1011 -32 2061 -32 
C 2592 -32 3059 160 3360 518 
L 3104 813 
C 2848 518 2483 371 2074 371 
C 1338 371 800 838 749 1542 
L 3565 1542 
C 3565 1594 3571 1645 3571 1683 
z
M 1939 3002 
C 2598 3002 3078 2541 3136 1882 
L 749 1882 
C 806 2541 1286 3002 1939 3002 
z
" transform="scale(0.015625)"/>
       <path id="Montserrat-Regular-20" transform="scale(0.015625)"/>
       <path id="Montserrat-Regular-32" d="M 928 410 
L 2451 1907 
C 3053 2496 3187 2880 3187 3309 
C 3187 4058 2611 4518 1702 4518 
C 1018 4518 461 4288 115 3878 
L 442 3597 
C 736 3936 1139 4096 1664 4096 
C 2349 4096 2714 3776 2714 3258 
C 2714 2950 2618 2650 2112 2150 
L 250 326 
L 250 0 
L 3392 0 
L 3392 410 
L 928 410 
z
" transform="scale(0.015625)"/>
      </defs>
      <use xlink:href="#Montserrat-Regular-50"/>
      <use xlink:href="#Montserrat-Regular-43" x="71.799988"/>
      <use xlink:href="#Montserrat-Regular-41" x="143.699982"/>
      <use xlink:href="#Montserrat-Regular-2d" x="215.399963"/>
      <use xlink:href="#Montserrat-Regular-6d" x="253.59996"/>
      <use xlink:href="#Montserrat-Regular-6f" x="359.699951"/>
      <use xlink:href="#Montserrat-Regular-64" x="422.399948"/>
      <use xlink:href="#Montserrat-Regular-65" x="490.199936"/>
      <use xlink:href="#Montserrat-Regular-20" x="550.59993"/>
      <use xlink:href="#Montserrat-Regular-32" x="576.799927"/>
     </g>
    </g>
   </g>
   <g id="matplotlib.axis_2">
    <g id="ytick_1">
     <g id="line2d_4">
      <defs>
       <path id="m31302b9459" d="M 0 0 
L 8 0 
" style="stroke: #000000; stroke-width: 2"/>
      </defs>
      <g>
       <use xlink:href="#m31302b9459" x="40.764375" y="292.845833" style="stroke: #000000; stroke-width: 2"/>
      </g>
     </g>
     <g id="text_5">
      <!-- −1 -->
      <g transform="translate(20.4175 299.524115) scale(0.18 -0.18)">
       <use xlink:href="#Montserrat-Regular-2212"/>
       <use xlink:href="#Montserrat-Regular-31" x="57.499985"/>
      </g>
     </g>
    </g>
    <g id="ytick_2">
     <g id="line2d_5">
      <g>
       <use xlink:href="#m31302b9459" x="40.764375" y="168.5125" style="stroke: #000000; stroke-width: 2"/>
      </g>
     </g>
     <g id="text_6">
      <!-- 0 -->
      <g transform="translate(25.347813 175.190781) scale(0.18 -0.18)">
       <use xlink:href="#Montserrat-Regular-30"/>
      </g>
     </g>
    </g>
    <g id="ytick_3">
     <g id="line2d_6">
      <g>
       <use xlink:href="#m31302b9459" x="40.764375" y="44.179167" style="stroke: #000000; stroke-width: 2"/>
      </g>
     </g>
     <g id="text_7">
      <!-- 1 -->
      <g transform="translate(30.7675 50.857448) scale(0.18 -0.18)">
       <use xlink:href="#Montserrat-Regular-31"/>
      </g>
     </g>
    </g>
    <g id="text_8">
     <!-- PCA-mode 3 -->
     <g transform="translate(13.3125 237.82) rotate(-90) scale(0.16 -0.16)">
      <defs>
       <path id="Montserrat-Regular-33" d="M 1856 2560 
L 3123 4154 
L 3123 4480 
L 243 4480 
L 243 4070 
L 2534 4070 
L 1293 2515 
L 1293 2176 
L 1613 2176 
C 2445 2176 2822 1824 2822 1286 
C 2822 730 2413 384 1670 384 
C 1088 384 570 602 282 902 
L 58 538 
C 403 186 1024 -38 1670 -38 
C 2752 -38 3296 538 3296 1286 
C 3296 2003 2816 2509 1856 2560 
z
" transform="scale(0.015625)"/>
      </defs>
      <use xlink:href="#Montserrat-Regular-50"/>
      <use xlink:href="#Montserrat-Regular-43" x="71.799988"/>
      <use xlink:href="#Montserrat-Regular-41" x="143.699982"/>
      <use xlink:href="#Montserrat-Regular-2d" x="215.399963"/>
      <use xlink:href="#Montserrat-Regular-6d" x="253.59996"/>
      <use xlink:href="#Montserrat-Regular-6f" x="359.699951"/>
      <use xlink:href="#Montserrat-Regular-64" x="422.399948"/>
      <use xlink:href="#Montserrat-Regular-65" x="490.199936"/>
      <use xlink:href="#Montserrat-Regular-20" x="550.59993"/>
      <use xlink:href="#Montserrat-Regular-33" x="576.799927"/>
     </g>
    </g>
   </g>
   <g id="patch_3">
    <path d="M 40.764375 355.0125 
L 40.764375 19.3125 
" style="fill: none; stroke: #000000; stroke-width: 2; stroke-linejoin: miter; stroke-linecap: square"/>
   </g>
   <g id="patch_4">
    <path d="M 376.464375 355.0125 
L 376.464375 19.3125 
" style="fill: none; stroke: #000000; stroke-width: 2; stroke-linejoin: miter; stroke-linecap: square"/>
   </g>
   <g id="patch_5">
    <path d="M 40.764375 355.0125 
L 376.464375 355.0125 
" style="fill: none; stroke: #000000; stroke-width: 2; stroke-linejoin: miter; stroke-linecap: square"/>
   </g>
   <g id="patch_6">
    <path d="M 40.764375 19.3125 
L 376.464375 19.3125 
" style="fill: none; stroke: #000000; stroke-width: 2; stroke-linejoin: miter; stroke-linecap: square"/>
   </g>
   <g id="text_9">
    <!-- 1 -->
    <g transform="translate(300.887685 154.539228) scale(0.13 -0.13)">
     <use xlink:href="#Montserrat-Regular-31"/>
    </g>
   </g>
   <g id="text_10">
    <!-- 2 -->
    <g transform="translate(311.268689 199.444733) scale(0.13 -0.13)">
     <use xlink:href="#Montserrat-Regular-32"/>
    </g>
   </g>
   <g id="text_11">
    <!-- 3 -->
    <g transform="translate(280.995619 135.315837) scale(0.13 -0.13)">
     <use xlink:href="#Montserrat-Regular-33"/>
    </g>
   </g>
   <g id="text_12">
    <!-- 4 -->
    <g transform="translate(260.341229 219.806303) scale(0.13 -0.13)">
     <defs>
      <path id="Montserrat-Regular-34" d="M 4141 1587 
L 3245 1587 
L 3245 2624 
L 2797 2624 
L 2797 1587 
L 851 1587 
L 3142 4480 
L 2630 4480 
L 256 1510 
L 256 1178 
L 2784 1178 
L 2784 0 
L 3245 0 
L 3245 1178 
L 4141 1178 
L 4141 1587 
z
" transform="scale(0.015625)"/>
     </defs>
     <use xlink:href="#Montserrat-Regular-34"/>
    </g>
   </g>
   <g id="text_13">
    <!-- 5 -->
    <g transform="translate(311.980994 335.935829) scale(0.13 -0.13)">
     <defs>
      <path id="Montserrat-Regular-35" d="M 1510 2643 
L 934 2643 
L 1088 4070 
L 3136 4070 
L 3136 4480 
L 685 4480 
L 454 2234 
L 1408 2234 
C 2547 2234 2906 1875 2906 1299 
C 2906 755 2502 384 1741 384 
C 1165 384 653 602 365 902 
L 141 538 
C 486 186 1101 -38 1747 -38 
C 2842 -38 3373 557 3373 1318 
C 3373 2112 2861 2643 1510 2643 
z
" transform="scale(0.015625)"/>
     </defs>
     <use xlink:href="#Montserrat-Regular-35"/>
    </g>
   </g>
   <g id="text_14">
    <!-- 6 -->
    <g transform="translate(143.843432 230.072813) scale(0.13 -0.13)">
     <defs>
      <path id="Montserrat-Regular-36" d="M 2189 2682 
C 1568 2682 1043 2406 819 1914 
C 806 2048 800 2176 800 2278 
C 800 3494 1421 4115 2387 4115 
C 2720 4115 3027 4058 3258 3904 
L 3443 4275 
C 3162 4448 2784 4518 2381 4518 
C 1165 4518 333 3725 333 2202 
C 333 787 979 -38 2170 -38 
C 3040 -38 3699 499 3699 1338 
C 3699 2157 3078 2682 2189 2682 
z
M 2150 352 
C 1376 352 966 819 966 1312 
C 966 1869 1434 2291 2118 2291 
C 2810 2291 3245 1914 3245 1325 
C 3245 730 2797 352 2150 352 
z
" transform="scale(0.015625)"/>
     </defs>
     <use xlink:href="#Montserrat-Regular-36"/>
    </g>
   </g>
   <g id="text_15">
    <!-- 7 -->
    <g transform="translate(336.227082 73.786651) scale(0.13 -0.13)">
     <defs>
      <path id="Montserrat-Regular-37" d="M 205 4480 
L 205 3232 
L 659 3232 
L 659 4070 
L 2963 4070 
L 1120 0 
L 1619 0 
L 3494 4154 
L 3494 4480 
L 205 4480 
z
" transform="scale(0.015625)"/>
     </defs>
     <use xlink:href="#Montserrat-Regular-37"/>
    </g>
   </g>
   <g id="text_16">
    <!-- 8 -->
    <g transform="translate(277.879391 146.929004) scale(0.13 -0.13)">
     <defs>
      <path id="Montserrat-Regular-38" d="M 2899 2349 
C 3360 2528 3616 2867 3616 3334 
C 3616 4064 2982 4518 2035 4518 
C 1088 4518 467 4064 467 3334 
C 467 2867 717 2528 1171 2349 
C 614 2163 307 1786 307 1248 
C 307 454 960 -38 2035 -38 
C 3104 -38 3776 454 3776 1248 
C 3776 1779 3462 2163 2899 2349 
z
M 928 3322 
C 928 3821 1357 4128 2035 4128 
C 2707 4128 3149 3821 3149 3315 
C 3149 2829 2733 2515 2035 2515 
C 1338 2515 928 2829 928 3322 
z
M 2035 352 
C 1242 352 774 698 774 1254 
C 774 1805 1242 2150 2035 2150 
C 2829 2150 3302 1805 3302 1254 
C 3302 698 2829 352 2035 352 
z
" transform="scale(0.015625)"/>
     </defs>
     <use xlink:href="#Montserrat-Regular-38"/>
    </g>
   </g>
   <g id="text_17">
    <!-- 9 -->
    <g transform="translate(169.531888 145.121483) scale(0.13 -0.13)">
     <defs>
      <path id="Montserrat-Regular-39" d="M 1728 4518 
C 858 4518 198 3981 198 3142 
C 198 2323 819 1798 1709 1798 
C 2330 1798 2854 2074 3078 2566 
C 3091 2432 3098 2304 3098 2202 
C 3098 986 2477 365 1510 365 
C 1178 365 870 422 640 576 
L 454 205 
C 736 32 1114 -38 1517 -38 
C 2733 -38 3565 755 3565 2278 
C 3565 3693 2918 4518 1728 4518 
z
M 1779 2189 
C 1088 2189 653 2566 653 3155 
C 653 3750 1101 4128 1747 4128 
C 2522 4128 2931 3661 2931 3168 
C 2931 2611 2464 2189 1779 2189 
z
" transform="scale(0.015625)"/>
     </defs>
     <use xlink:href="#Montserrat-Regular-39"/>
    </g>
   </g>
   <g id="text_18">
    <!-- 10 -->
    <g transform="translate(183.902407 179.265539) scale(0.13 -0.13)">
     <use xlink:href="#Montserrat-Regular-31"/>
     <use xlink:href="#Montserrat-Regular-30" x="36.099991"/>
    </g>
   </g>
   <g id="text_19">
    <!-- 11 -->
    <g transform="translate(136.199704 143.428114) scale(0.13 -0.13)">
     <use xlink:href="#Montserrat-Regular-31"/>
     <use xlink:href="#Montserrat-Regular-31" x="36.099991"/>
    </g>
   </g>
   <g id="text_20">
    <!-- 12 -->
    <g transform="translate(75.037712 182.837798) scale(0.13 -0.13)">
     <use xlink:href="#Montserrat-Regular-31"/>
     <use xlink:href="#Montserrat-Regular-32" x="36.099991"/>
    </g>
   </g>
   <g id="text_21">
    <!-- Coordinates in PCA-eigenbasis -->
    <g transform="translate(85.024375 13.3125) scale(0.16 -0.16)">
     <defs>
      <path id="Montserrat-Regular-72" d="M 1069 2707 
L 1069 3366 
L 634 3366 
L 634 0 
L 1088 0 
L 1088 1715 
C 1088 2509 1517 2957 2221 2957 
C 2253 2957 2291 2950 2330 2950 
L 2330 3392 
C 1709 3392 1280 3155 1069 2707 
z
" transform="scale(0.015625)"/>
      <path id="Montserrat-Regular-69" d="M 864 4102 
C 1056 4102 1197 4250 1197 4435 
C 1197 4608 1050 4749 864 4749 
C 678 4749 531 4602 531 4429 
C 531 4250 678 4102 864 4102 
z
M 634 0 
L 1088 0 
L 1088 3366 
L 634 3366 
L 634 0 
z
" transform="scale(0.015625)"/>
      <path id="Montserrat-Regular-6e" d="M 2349 3392 
C 1766 3392 1312 3155 1069 2746 
L 1069 3366 
L 634 3366 
L 634 0 
L 1088 0 
L 1088 1766 
C 1088 2534 1542 2982 2266 2982 
C 2906 2982 3277 2618 3277 1907 
L 3277 0 
L 3731 0 
L 3731 1952 
C 3731 2918 3168 3392 2349 3392 
z
" transform="scale(0.015625)"/>
      <path id="Montserrat-Regular-61" d="M 1811 3392 
C 1280 3392 781 3226 442 2938 
L 646 2598 
C 922 2842 1331 2995 1766 2995 
C 2394 2995 2720 2682 2720 2106 
L 2720 1901 
L 1651 1901 
C 685 1901 352 1466 352 947 
C 352 365 819 -32 1581 -32 
C 2138 -32 2534 179 2739 525 
L 2739 0 
L 3174 0 
L 3174 2086 
C 3174 2957 2682 3392 1811 3392 
z
M 1651 326 
C 1114 326 800 570 800 960 
C 800 1306 1011 1562 1664 1562 
L 2720 1562 
L 2720 1011 
C 2541 570 2163 326 1651 326 
z
" transform="scale(0.015625)"/>
      <path id="Montserrat-Regular-74" d="M 2246 531 
C 2118 416 1933 358 1747 358 
C 1370 358 1165 576 1165 973 
L 1165 2982 
L 2189 2982 
L 2189 3366 
L 1165 3366 
L 1165 4102 
L 710 4102 
L 710 3366 
L 109 3366 
L 109 2982 
L 710 2982 
L 710 947 
C 710 326 1062 -32 1696 -32 
C 1958 -32 2227 45 2406 205 
L 2246 531 
z
" transform="scale(0.015625)"/>
      <path id="Montserrat-Regular-73" d="M 1536 -32 
C 2413 -32 2925 346 2925 928 
C 2925 2221 742 1536 742 2445 
C 742 2765 1011 3002 1619 3002 
C 1965 3002 2317 2918 2611 2714 
L 2810 3078 
C 2528 3270 2054 3392 1619 3392 
C 762 3392 288 2982 288 2432 
C 288 1101 2470 1792 2470 915 
C 2470 582 2208 365 1568 365 
C 1094 365 640 531 371 742 
L 166 384 
C 442 147 979 -32 1536 -32 
z
" transform="scale(0.015625)"/>
      <path id="Montserrat-Regular-67" d="M 3315 3366 
L 3315 2720 
C 3034 3162 2547 3392 1984 3392 
C 1024 3392 294 2733 294 1766 
C 294 800 1024 128 1984 128 
C 2534 128 3014 352 3296 781 
L 3296 352 
C 3296 -480 2906 -870 2054 -870 
C 1536 -870 1050 -698 730 -410 
L 499 -755 
C 851 -1088 1453 -1274 2067 -1274 
C 3181 -1274 3750 -749 3750 410 
L 3750 3366 
L 3315 3366 
z
M 2029 531 
C 1286 531 755 1037 755 1766 
C 755 2496 1286 2995 2029 2995 
C 2771 2995 3309 2496 3309 1766 
C 3309 1037 2771 531 2029 531 
z
" transform="scale(0.015625)"/>
      <path id="Montserrat-Regular-62" d="M 2368 3392 
C 1830 3392 1370 3162 1088 2726 
L 1088 4749 
L 634 4749 
L 634 0 
L 1069 0 
L 1069 666 
C 1344 211 1811 -32 2368 -32 
C 3328 -32 4045 666 4045 1683 
C 4045 2701 3328 3392 2368 3392 
z
M 2336 371 
C 1619 371 1082 896 1082 1683 
C 1082 2470 1619 2995 2336 2995 
C 3046 2995 3590 2470 3590 1683 
C 3590 896 3046 371 2336 371 
z
" transform="scale(0.015625)"/>
     </defs>
     <use xlink:href="#Montserrat-Regular-43"/>
     <use xlink:href="#Montserrat-Regular-6f" x="71.899994"/>
     <use xlink:href="#Montserrat-Regular-6f" x="134.599991"/>
     <use xlink:href="#Montserrat-Regular-72" x="197.299988"/>
     <use xlink:href="#Montserrat-Regular-64" x="237.399979"/>
     <use xlink:href="#Montserrat-Regular-69" x="305.199966"/>
     <use xlink:href="#Montserrat-Regular-6e" x="332.09996"/>
     <use xlink:href="#Montserrat-Regular-61" x="399.799942"/>
     <use xlink:href="#Montserrat-Regular-74" x="458.799927"/>
     <use xlink:href="#Montserrat-Regular-65" x="499.399918"/>
     <use xlink:href="#Montserrat-Regular-73" x="559.799911"/>
     <use xlink:href="#Montserrat-Regular-20" x="608.699905"/>
     <use xlink:href="#Montserrat-Regular-69" x="634.899902"/>
     <use xlink:href="#Montserrat-Regular-6e" x="661.799896"/>
     <use xlink:href="#Montserrat-Regular-20" x="729.499878"/>
     <use xlink:href="#Montserrat-Regular-50" x="755.699875"/>
     <use xlink:href="#Montserrat-Regular-43" x="827.499863"/>
     <use xlink:href="#Montserrat-Regular-41" x="899.399857"/>
     <use xlink:href="#Montserrat-Regular-2d" x="971.099838"/>
     <use xlink:href="#Montserrat-Regular-65" x="1009.299835"/>
     <use xlink:href="#Montserrat-Regular-69" x="1069.699829"/>
     <use xlink:href="#Montserrat-Regular-67" x="1096.599823"/>
     <use xlink:href="#Montserrat-Regular-65" x="1165.199814"/>
     <use xlink:href="#Montserrat-Regular-6e" x="1225.599808"/>
     <use xlink:href="#Montserrat-Regular-62" x="1293.299789"/>
     <use xlink:href="#Montserrat-Regular-61" x="1361.099777"/>
     <use xlink:href="#Montserrat-Regular-73" x="1420.099762"/>
     <use xlink:href="#Montserrat-Regular-69" x="1468.999756"/>
     <use xlink:href="#Montserrat-Regular-73" x="1495.89975"/>
    </g>
   </g>
  </g>
 </g>
 <defs>
  <clipPath id="p2c4b7b244f">
   <rect x="40.764375" y="19.3125" width="335.7" height="335.7"/>
  </clipPath>
 </defs>
</svg>
